<?xml version="1.0" encoding="UTF-8" standalone="no"?>
<svg
   xmlns:dc="http://purl.org/dc/elements/1.1/"
   xmlns:cc="http://creativecommons.org/ns#"
   xmlns:rdf="http://www.w3.org/1999/02/22-rdf-syntax-ns#"
   xmlns:svg="http://www.w3.org/2000/svg"
   xmlns="http://www.w3.org/2000/svg"
   viewBox="0 0 323.75 642.5"
   height="642.5"
   width="323.75"
   xml:space="preserve"
   version="1.1"
   id="svg2"><metadata
     id="metadata8"><rdf:RDF><cc:Work
         rdf:about=""><dc:format>image/svg+xml</dc:format><dc:type
           rdf:resource="http://purl.org/dc/dcmitype/StillImage" /></cc:Work></rdf:RDF></metadata><defs
     id="defs6"><clipPath
       id="clipPath18"
       clipPathUnits="userSpaceOnUse"><path
         id="path20"
         d="m 6.80078,14 2570.00002,0 0,5120 -2570.00002,0 0,-5120 z" /></clipPath></defs><g
     transform="matrix(1.25,0,0,-1.25,0,642.5)"
     id="g10"><g
       transform="scale(0.1,0.1)"
       id="g12"><g
         id="g14"><g
           clip-path="url(#clipPath18)"
           id="g16"><path
             id="path22"
             style="fill:#00b0b0;fill-opacity:1;fill-rule:evenodd;stroke:none"
             d="m 155.898,4699.18 850.363,0 0,283.453 -850.363,0 0,-283.453 z" /><path
             id="path24"
             style="fill:none;stroke:#000000;stroke-width:4.72424984;stroke-linecap:butt;stroke-linejoin:miter;stroke-miterlimit:10;stroke-dasharray:none;stroke-opacity:1"
             d="m 155.898,4699.18 850.363,0 0,283.453 -850.363,0 0,-283.453 z" /><path
             id="path26"
             style="fill:#00b000;fill-opacity:1;fill-rule:evenodd;stroke:none"
             d="m 155.898,4274 850.363,0 0,283.453 -850.363,0 0,-283.453 z" /><path
             id="path28"
             style="fill:none;stroke:#000000;stroke-width:4.72424984;stroke-linecap:butt;stroke-linejoin:miter;stroke-miterlimit:10;stroke-dasharray:none;stroke-opacity:1"
             d="m 155.898,4274 850.363,0 0,283.453 -850.363,0 0,-283.453 z" /><path
             id="path30"
             style="fill:none;stroke:#000000;stroke-width:4.72424984;stroke-linecap:butt;stroke-linejoin:miter;stroke-miterlimit:10;stroke-dasharray:none;stroke-opacity:1"
             d="m 155.898,2856.72 850.363,0 0,566.91 -850.363,0 0,-566.91 z" /><path
             id="path32"
             style="fill:none;stroke:#000000;stroke-width:4.72424984;stroke-linecap:butt;stroke-linejoin:miter;stroke-miterlimit:10;stroke-dasharray:37.794;stroke-dashoffset:0;stroke-opacity:1"
             d="m 14.1719,2714.99 1133.82,0 0,2409.37 -1133.82,0 0,-2409.37 z" /><path
             id="path34"
             style="fill:#ffa1a1;fill-opacity:1;fill-rule:evenodd;stroke:none"
             d="m 155.898,3565.36 850.363,0 0,566.91 -850.363,0 0,-566.91 z" /><path
             id="path36"
             style="fill:none;stroke:#000000;stroke-width:4.72424984;stroke-linecap:butt;stroke-linejoin:miter;stroke-miterlimit:10;stroke-dasharray:none;stroke-opacity:1"
             d="m 155.898,3565.36 850.363,0 0,566.91 -850.363,0 0,-566.91 z" /><path
             id="path38"
             style="fill:none;stroke:#000000;stroke-width:4.72424984;stroke-linecap:butt;stroke-linejoin:miter;stroke-miterlimit:10;stroke-dasharray:none;stroke-opacity:1"
             d="m 155.898,3848.81 850.362,0" /><path
             id="path40"
             style="fill:#00b0b0;fill-opacity:1;fill-rule:evenodd;stroke:none"
             d="m 1573.17,4699.18 850.367,0 0,283.453 -850.367,0 0,-283.453 z" /><path
             id="path42"
             style="fill:none;stroke:#000000;stroke-width:4.72424984;stroke-linecap:butt;stroke-linejoin:miter;stroke-miterlimit:10;stroke-dasharray:none;stroke-opacity:1"
             d="m 1573.17,4699.18 850.367,0 0,283.453 -850.367,0 0,-283.453 z" /><path
             id="path44"
             style="fill:#00b000;fill-opacity:1;fill-rule:evenodd;stroke:none"
             d="m 1573.17,4274 850.367,0 0,283.453 -850.367,0 0,-283.453 z" /><path
             id="path46"
             style="fill:none;stroke:#000000;stroke-width:4.72424984;stroke-linecap:butt;stroke-linejoin:miter;stroke-miterlimit:10;stroke-dasharray:none;stroke-opacity:1"
             d="m 1573.17,4274 850.367,0 0,283.453 -850.367,0 0,-283.453 z" /><path
             id="path48"
             style="fill:none;stroke:#000000;stroke-width:4.72424984;stroke-linecap:butt;stroke-linejoin:miter;stroke-miterlimit:10;stroke-dasharray:none;stroke-opacity:1"
             d="m 1573.17,2856.72 850.367,0 0,566.91 -850.367,0 0,-566.91 z" /><path
             id="path50"
             style="fill:none;stroke:#000000;stroke-width:4.72424984;stroke-linecap:butt;stroke-linejoin:miter;stroke-miterlimit:10;stroke-dasharray:37.794;stroke-dashoffset:0;stroke-opacity:1"
             d="m 1431.45,2714.99 1133.82,0 0,2409.37 -1133.82,0 0,-2409.37 z" /><path
             id="path52"
             style="fill:#ffa1a1;fill-opacity:1;fill-rule:evenodd;stroke:none"
             d="m 1573.17,3565.36 850.367,0 0,566.91 -850.367,0 0,-566.91 z" /><path
             id="path54"
             style="fill:none;stroke:#000000;stroke-width:4.72424984;stroke-linecap:butt;stroke-linejoin:miter;stroke-miterlimit:10;stroke-dasharray:none;stroke-opacity:1"
             d="m 1573.17,3565.36 850.367,0 0,566.91 -850.367,0 0,-566.91 z" /><path
             id="path56"
             style="fill:none;stroke:#000000;stroke-width:4.72424984;stroke-linecap:butt;stroke-linejoin:miter;stroke-miterlimit:10;stroke-dasharray:none;stroke-opacity:1"
             d="m 1573.17,3848.81 850.37,0" /><path
             id="path58"
             style="fill:#00b0b0;fill-opacity:1;fill-rule:evenodd;stroke:none"
             d="m 155.898,2006.36 850.363,0 0,283.453 -850.363,0 0,-283.453 z" /><path
             id="path60"
             style="fill:none;stroke:#000000;stroke-width:4.72424984;stroke-linecap:butt;stroke-linejoin:miter;stroke-miterlimit:10;stroke-dasharray:none;stroke-opacity:1"
             d="m 155.898,2006.36 850.363,0 0,283.453 -850.363,0 0,-283.453 z" /><path
             id="path62"
             style="fill:#00b000;fill-opacity:1;fill-rule:evenodd;stroke:none"
             d="m 155.898,1581.17 850.363,0 0,283.457 -850.363,0 0,-283.457 z" /><path
             id="path64"
             style="fill:none;stroke:#000000;stroke-width:4.72424984;stroke-linecap:butt;stroke-linejoin:miter;stroke-miterlimit:10;stroke-dasharray:none;stroke-opacity:1"
             d="m 155.898,1581.17 850.363,0 0,283.457 -850.363,0 0,-283.457 z" /><path
             id="path66"
             style="fill:none;stroke:#000000;stroke-width:4.72424984;stroke-linecap:butt;stroke-linejoin:miter;stroke-miterlimit:10;stroke-dasharray:none;stroke-opacity:1"
             d="m 155.898,163.898 850.363,0 0,566.91 -850.363,0 0,-566.91 z" /><path
             id="path68"
             style="fill:none;stroke:#000000;stroke-width:4.72424984;stroke-linecap:butt;stroke-linejoin:miter;stroke-miterlimit:10;stroke-dasharray:37.794;stroke-dashoffset:0;stroke-opacity:1"
             d="m 14.1719,22.1719 1133.82,0 0,2409.37 -1133.82,0 0,-2409.37 z" /><path
             id="path70"
             style="fill:#ffa1a1;fill-opacity:1;fill-rule:evenodd;stroke:none"
             d="m 155.898,872.535 850.363,0 0,566.91 -850.363,0 0,-566.91 z" /><path
             id="path72"
             style="fill:none;stroke:#000000;stroke-width:4.72424984;stroke-linecap:butt;stroke-linejoin:miter;stroke-miterlimit:10;stroke-dasharray:none;stroke-opacity:1"
             d="m 155.898,872.535 850.363,0 0,566.91 -850.363,0 0,-566.91 z" /><path
             id="path74"
             style="fill:none;stroke:#000000;stroke-width:4.72424984;stroke-linecap:butt;stroke-linejoin:miter;stroke-miterlimit:10;stroke-dasharray:none;stroke-opacity:1"
             d="m 155.898,1155.99 850.362,0" /><path
             id="path76"
             style="fill:#00b0b0;fill-opacity:1;fill-rule:evenodd;stroke:none"
             d="m 1573.17,2006.36 850.367,0 0,283.453 -850.367,0 0,-283.453 z" /><path
             id="path78"
             style="fill:none;stroke:#000000;stroke-width:4.72424984;stroke-linecap:butt;stroke-linejoin:miter;stroke-miterlimit:10;stroke-dasharray:none;stroke-opacity:1"
             d="m 1573.17,2006.36 850.367,0 0,283.453 -850.367,0 0,-283.453 z" /><path
             id="path80"
             style="fill:#00b000;fill-opacity:1;fill-rule:evenodd;stroke:none"
             d="m 1573.17,1581.17 850.367,0 0,283.457 -850.367,0 0,-283.457 z" /><path
             id="path82"
             style="fill:none;stroke:#000000;stroke-width:4.72424984;stroke-linecap:butt;stroke-linejoin:miter;stroke-miterlimit:10;stroke-dasharray:none;stroke-opacity:1"
             d="m 1573.17,1581.17 850.367,0 0,283.457 -850.367,0 0,-283.457 z" /><path
             id="path84"
             style="fill:none;stroke:#000000;stroke-width:4.72424984;stroke-linecap:butt;stroke-linejoin:miter;stroke-miterlimit:10;stroke-dasharray:none;stroke-opacity:1"
             d="m 1573.17,163.898 850.367,0 0,566.91 -850.367,0 0,-566.91 z" /><path
             id="path86"
             style="fill:none;stroke:#000000;stroke-width:4.72424984;stroke-linecap:butt;stroke-linejoin:miter;stroke-miterlimit:10;stroke-dasharray:37.794;stroke-dashoffset:0;stroke-opacity:1"
             d="m 1431.45,22.1719 1133.82,0 0,2409.37 -1133.82,0 0,-2409.37 z" /><path
             id="path88"
             style="fill:#ffa1a1;fill-opacity:1;fill-rule:evenodd;stroke:none"
             d="m 1573.17,872.535 850.367,0 0,566.91 -850.367,0 0,-566.91 z" /><path
             id="path90"
             style="fill:none;stroke:#000000;stroke-width:4.72424984;stroke-linecap:butt;stroke-linejoin:miter;stroke-miterlimit:10;stroke-dasharray:none;stroke-opacity:1"
             d="m 1573.17,872.535 850.367,0 0,566.91 -850.367,0 0,-566.91 z" /><path
             id="path92"
             style="fill:none;stroke:#000000;stroke-width:4.72424984;stroke-linecap:butt;stroke-linejoin:miter;stroke-miterlimit:10;stroke-dasharray:none;stroke-opacity:1"
             d="m 1573.17,1155.99 850.37,0" /></g></g><g
         transform="scale(10,10)"
         id="g94"><text
           id="text96"
           style="font-variant:normal;font-weight:normal;font-size:11.9552002px;font-family:CMTT12;-inkscape-font-specification:CMTT12;writing-mode:lr-tb;fill:#000000;fill-opacity:1;fill-rule:nonzero;stroke:none"
           transform="matrix(1,0,0,-1,21.3199,486.92)"><tspan
             id="tspan98"
             y="0"
             x="0 6.1200156 12.240034 18.36005 24.480064 30.60008 36.720097 42.840111 48.960121 55.080135 61.200153">Instruction</tspan></text>
<text
           id="text100"
           style="font-variant:normal;font-weight:normal;font-size:9.96263981px;font-family:CMTT10;-inkscape-font-specification:CMTT10;writing-mode:lr-tb;fill:#000000;fill-opacity:1;fill-rule:nonzero;stroke:none"
           transform="matrix(1,0,0,-1,21.3199,475.6399)"><tspan
             id="tspan102"
             y="0"
             x="0 5.2799983 10.559997 15.839995 21.119993 26.399992 31.679995 36.959995 42.239998 47.519997 52.799999 58.080002 63.360008 68.640007 73.920013">Fetch/Speculate</tspan></text>
<text
           id="text104"
           style="font-variant:normal;font-weight:normal;font-size:11.9552002px;font-family:CMTT12;-inkscape-font-specification:CMTT12;writing-mode:lr-tb;fill:#000000;fill-opacity:1;fill-rule:nonzero;stroke:none"
           transform="matrix(1,0,0,-1,24.19998,444.4399)"><tspan
             id="tspan106"
             y="0"
             x="0 6.1200156 12.240034 18.36005 24.480064 30.60008 36.720097 42.840111 48.960121 55.080135 61.200153">Instruction</tspan><tspan
             id="tspan108"
             y="42.599998"
             x="0 6.1200156 12.240034 18.36005 24.480064 30.60008 36.720097 42.840111 48.960121 55.080135 61.200153">Instruction</tspan></text>
<text
           id="text110"
           style="font-variant:normal;font-weight:normal;font-size:9.96263981px;font-family:CMTT10;-inkscape-font-specification:CMTT10;writing-mode:lr-tb;fill:#000000;fill-opacity:1;fill-rule:nonzero;stroke:none"
           transform="matrix(1,0,0,-1,38.36018,433.0399)"><tspan
             id="tspan112"
             y="0"
             x="0 5.2799983 10.559997 15.839998 21.119999 26.400002">Decode</tspan></text>
<text
           id="text114"
           style="font-variant:normal;font-weight:normal;font-size:11.9552002px;font-family:CMTT12;-inkscape-font-specification:CMTT12;writing-mode:lr-tb;fill:#000000;fill-opacity:1;fill-rule:nonzero;stroke:none"
           transform="matrix(1,0,0,-1,35.4801,390.5602)"><tspan
             id="tspan116"
             y="0"
             x="0 6.1200156 12.240034 18.36005 24.480064 30.600075 36.720089">Execute</tspan><tspan
             id="tspan118"
             y="59.520302"
             x="-11.2801 -5.1600847 0.95993394 7.0799494 13.199965 19.319981 25.439997 31.560011 37.680019">Registers</tspan><tspan
             id="tspan120"
             y="73.680099"
             x="-8.5199404 -2.3999245 3.720094 9.8401098 15.960125 22.080133 28.20015 34.320164 40.440174">(Context)</tspan><tspan
             id="tspan122"
             y="22.680099"
             x="-1.9999999e-05 6.1199956 12.240014">FPU</tspan><tspan
             id="tspan124"
             y="-96.359901"
             x="127.55998 133.67999 139.80002 145.92001 152.04002 158.16005 164.28006 170.40009 176.52011 182.64012 188.76018">Instruction</tspan></text>
<text
           id="text126"
           style="font-variant:normal;font-weight:normal;font-size:9.96263981px;font-family:CMTT10;-inkscape-font-specification:CMTT10;writing-mode:lr-tb;fill:#000000;fill-opacity:1;fill-rule:nonzero;stroke:none"
           transform="matrix(1,0,0,-1,163.04008,475.64)"><tspan
             id="tspan128"
             y="0"
             x="0 5.2800078 10.560003 15.840011 21.120007 26.400013 31.68001 36.960018 42.240013 47.520008 52.800003 58.079975 63.35997 68.639961 73.91996">Fetch/Speculate</tspan></text>
<text
           id="text130"
           style="font-variant:normal;font-weight:normal;font-size:11.9552002px;font-family:CMTT12;-inkscape-font-specification:CMTT12;writing-mode:lr-tb;fill:#000000;fill-opacity:1;fill-rule:nonzero;stroke:none"
           transform="matrix(1,0,0,-1,165.92016,444.44)"><tspan
             id="tspan132"
             y="0"
             x="0 6.1200094 12.240031 18.360041 24.480049 30.600071 36.720081 42.840103 48.960125 55.080147 61.200191">Instruction</tspan><tspan
             id="tspan134"
             y="42.599998"
             x="0 6.1200094 12.240031 18.360041 24.480049 30.600071 36.720081 42.840103 48.960125 55.080147 61.200191">Instruction</tspan></text>
<text
           id="text136"
           style="font-variant:normal;font-weight:normal;font-size:9.96263981px;font-family:CMTT10;-inkscape-font-specification:CMTT10;writing-mode:lr-tb;fill:#000000;fill-opacity:1;fill-rule:nonzero;stroke:none"
           transform="matrix(1,0,0,-1,180.08036,433.04)"><tspan
             id="tspan138"
             y="0"
             x="0 5.2800078 10.560003 15.840011 21.120007 26.400002">Decode</tspan></text>
<text
           id="text140"
           style="font-variant:normal;font-weight:normal;font-size:11.9552002px;font-family:CMTT12;-inkscape-font-specification:CMTT12;writing-mode:lr-tb;fill:#000000;fill-opacity:1;fill-rule:nonzero;stroke:none"
           transform="matrix(1,0,0,-1,177.20028,390.5603)"><tspan
             id="tspan142"
             y="0"
             x="0 6.1200094 12.240031 18.360041 24.480049 30.600071 36.720093">Execute</tspan><tspan
             id="tspan144"
             y="59.520302"
             x="-11.2801 -5.1600904 0.95993096 7.0799403 13.199949 19.319971 25.439981 31.560001 37.680023">Registers</tspan><tspan
             id="tspan146"
             y="73.680099"
             x="-8.5199404 -2.3999307 3.7200909 9.8401003 15.96011 22.080132 28.200153 34.320175 40.440197">(Context)</tspan><tspan
             id="tspan148"
             y="22.680099"
             x="-1.9999999e-05 6.1199894 12.240011">FPU</tspan><tspan
             id="tspan150"
             y="172.9201"
             x="-155.88002 -149.76001 -143.63998 -137.51997 -131.39995 -125.27994 -119.15993 -113.03991 -106.9199 -100.79988 -94.679871">Instruction</tspan></text>
<text
           id="text152"
           style="font-variant:normal;font-weight:normal;font-size:9.96263981px;font-family:CMTT10;-inkscape-font-specification:CMTT10;writing-mode:lr-tb;fill:#000000;fill-opacity:1;fill-rule:nonzero;stroke:none"
           transform="matrix(1,0,0,-1,21.32026,206.2402)"><tspan
             id="tspan154"
             y="0"
             x="0 5.2799983 10.559997 15.839995 21.119993 26.399992 31.679995 36.959995 42.239998 47.519997 52.799999 58.080002 63.360008 68.640007 73.920013">Fetch/Speculate</tspan></text>
<text
           id="text156"
           style="font-variant:normal;font-weight:normal;font-size:11.9552002px;font-family:CMTT12;-inkscape-font-specification:CMTT12;writing-mode:lr-tb;fill:#000000;fill-opacity:1;fill-rule:nonzero;stroke:none"
           transform="matrix(1,0,0,-1,24.20034,175.0402)"><tspan
             id="tspan158"
             y="0"
             x="0 6.1200156 12.240034 18.36005 24.480064 30.60008 36.720097 42.840111 48.960121 55.080135 61.200153">Instruction</tspan><tspan
             id="tspan160"
             y="42.479698"
             x="0 6.1200156 12.240034 18.36005 24.480064 30.60008 36.720097 42.840111 48.960121 55.080135 61.200153">Instruction</tspan></text>
<text
           id="text162"
           style="font-variant:normal;font-weight:normal;font-size:9.96263981px;font-family:CMTT10;-inkscape-font-specification:CMTT10;writing-mode:lr-tb;fill:#000000;fill-opacity:1;fill-rule:nonzero;stroke:none"
           transform="matrix(1,0,0,-1,38.36054,163.7605)"><tspan
             id="tspan164"
             y="0"
             x="0 5.2799983 10.559997 15.839998 21.119999 26.400002">Decode</tspan></text>
<text
           id="text166"
           style="font-variant:normal;font-weight:normal;font-size:11.9552002px;font-family:CMTT12;-inkscape-font-specification:CMTT12;writing-mode:lr-tb;fill:#000000;fill-opacity:1;fill-rule:nonzero;stroke:none"
           transform="matrix(1,0,0,-1,35.48046,121.2804)"><tspan
             id="tspan168"
             y="0"
             x="0 6.1200156 12.240034 18.36005 24.480064 30.600075 36.720089">Execute</tspan><tspan
             id="tspan170"
             y="59.519901"
             x="-11.2801 -5.1600847 0.95993394 7.0799494 13.199965 19.319981 25.439997 31.560011 37.680019">Registers</tspan><tspan
             id="tspan172"
             y="73.800003"
             x="-8.5199404 -2.3999245 3.720094 9.8401098 15.960125 22.080133 28.20015 34.320164 40.440174">(Context)</tspan><tspan
             id="tspan174"
             y="22.680099"
             x="-1.9999999e-05 6.1199956 12.240014">FPU</tspan><tspan
             id="tspan176"
             y="-96.359901"
             x="127.55998 133.67999 139.80002 145.92001 152.04002 158.16005 164.28006 170.40009 176.52011 182.64012 188.76018">Instruction</tspan></text>
<text
           id="text178"
           style="font-variant:normal;font-weight:normal;font-size:9.96263981px;font-family:CMTT10;-inkscape-font-specification:CMTT10;writing-mode:lr-tb;fill:#000000;fill-opacity:1;fill-rule:nonzero;stroke:none"
           transform="matrix(1,0,0,-1,163.04044,206.2403)"><tspan
             id="tspan180"
             y="0"
             x="0 5.2800078 10.560003 15.840011 21.120007 26.400013 31.68001 36.960018 42.240013 47.520008 52.800003 58.079975 63.35997 68.639961 73.91996">Fetch/Speculate</tspan></text>
<text
           id="text182"
           style="font-variant:normal;font-weight:normal;font-size:11.9552002px;font-family:CMTT12;-inkscape-font-specification:CMTT12;writing-mode:lr-tb;fill:#000000;fill-opacity:1;fill-rule:nonzero;stroke:none"
           transform="matrix(1,0,0,-1,165.92052,175.0403)"><tspan
             id="tspan184"
             y="0"
             x="0 6.1200094 12.240031 18.360041 24.480049 30.600071 36.720081 42.840103 48.960125 55.080147 61.200191">Instruction</tspan><tspan
             id="tspan186"
             y="42.479698"
             x="0 6.1200094 12.240031 18.360041 24.480049 30.600071 36.720081 42.840103 48.960125 55.080147 61.200191">Instruction</tspan></text>
<text
           id="text188"
           style="font-variant:normal;font-weight:normal;font-size:9.96263981px;font-family:CMTT10;-inkscape-font-specification:CMTT10;writing-mode:lr-tb;fill:#000000;fill-opacity:1;fill-rule:nonzero;stroke:none"
           transform="matrix(1,0,0,-1,180.08072,163.7606)"><tspan
             id="tspan190"
             y="0"
             x="0 5.2800078 10.560003 15.840011 21.120007 26.400002">Decode</tspan></text>
<text
           id="text192"
           style="font-variant:normal;font-weight:normal;font-size:11.9552002px;font-family:CMTT12;-inkscape-font-specification:CMTT12;writing-mode:lr-tb;fill:#000000;fill-opacity:1;fill-rule:nonzero;stroke:none"
           transform="matrix(1,0,0,-1,177.20064,121.2805)"><tspan
             id="tspan194"
             y="0"
             x="0 6.1200094 12.240031 18.360041 24.480049 30.600071 36.720093">Execute</tspan><tspan
             id="tspan196"
             y="59.519901"
             x="-11.2801 -5.1600904 0.95993096 7.0799403 13.199949 19.319971 25.439981 31.560001 37.680023">Registers</tspan><tspan
             id="tspan198"
             y="73.800003"
             x="-8.5199404 -2.3999307 3.7200909 9.8401003 15.96011 22.080132 28.200153 34.320175 40.440197">(Context)</tspan><tspan
             id="tspan200"
             y="22.680099"
             x="-1.9999999e-05 6.1199894 12.240011">FPU</tspan></text>
</g></g></g></svg>