<?xml version="1.0" encoding="UTF-8" standalone="no"?>
<svg
   xmlns:dc="http://purl.org/dc/elements/1.1/"
   xmlns:cc="http://creativecommons.org/ns#"
   xmlns:rdf="http://www.w3.org/1999/02/22-rdf-syntax-ns#"
   xmlns:svg="http://www.w3.org/2000/svg"
   xmlns="http://www.w3.org/2000/svg"
   viewBox="0 0 518.75 518.75"
   height="518.75"
   width="518.75"
   xml:space="preserve"
   version="1.1"
   id="svg2"><metadata
     id="metadata8"><rdf:RDF><cc:Work
         rdf:about=""><dc:format>image/svg+xml</dc:format><dc:type
           rdf:resource="http://purl.org/dc/dcmitype/StillImage" /></cc:Work></rdf:RDF></metadata><defs
     id="defs6"><clipPath
       id="clipPath18"
       clipPathUnits="userSpaceOnUse"><path
         id="path20"
         d="m 6.80078,6.40234 4130.00002,0 0,4129.99996 -4130.00002,0 0,-4129.99996 z" /></clipPath></defs><g
     transform="matrix(1.25,0,0,-1.25,0,518.75)"
     id="g10"><g
       transform="scale(0.1,0.1)"
       id="g12"><g
         id="g14"><g
           clip-path="url(#clipPath18)"
           id="g16"><path
             id="path22"
             style="fill:#ffa1a1;fill-opacity:1;fill-rule:evenodd;stroke:none"
             d="m 155.898,2565.76 850.363,0 0,566.91 -850.363,0 0,-566.91 z" /><path
             id="path24"
             style="fill:none;stroke:#000000;stroke-width:4.72424984;stroke-linecap:butt;stroke-linejoin:miter;stroke-miterlimit:10;stroke-dasharray:none;stroke-opacity:1"
             d="m 155.898,2565.76 850.363,0 0,566.91 -850.363,0 0,-566.91 z" /><path
             id="path26"
             style="fill:none;stroke:#000000;stroke-width:4.72424984;stroke-linecap:butt;stroke-linejoin:miter;stroke-miterlimit:10;stroke-dasharray:none;stroke-opacity:1"
             d="m 155.898,2849.21 850.362,0" /><path
             id="path28"
             style="fill:#ffa1a1;fill-opacity:1;fill-rule:evenodd;stroke:none"
             d="m 1147.99,2565.76 850.363,0 0,566.91 -850.363,0 0,-566.91 z" /><path
             id="path30"
             style="fill:none;stroke:#000000;stroke-width:4.72424984;stroke-linecap:butt;stroke-linejoin:miter;stroke-miterlimit:10;stroke-dasharray:none;stroke-opacity:1"
             d="m 1147.99,2565.76 850.363,0 0,566.91 -850.363,0 0,-566.91 z" /><path
             id="path32"
             style="fill:none;stroke:#000000;stroke-width:4.72424984;stroke-linecap:butt;stroke-linejoin:miter;stroke-miterlimit:10;stroke-dasharray:none;stroke-opacity:1"
             d="m 1147.99,2849.21 850.37,0" /><path
             id="path34"
             style="fill:#ffa1a1;fill-opacity:1;fill-rule:evenodd;stroke:none"
             d="m 2140.08,2565.76 850.367,0 0,566.91 -850.367,0 0,-566.91 z" /><path
             id="path36"
             style="fill:none;stroke:#000000;stroke-width:4.72424984;stroke-linecap:butt;stroke-linejoin:miter;stroke-miterlimit:10;stroke-dasharray:none;stroke-opacity:1"
             d="m 2140.08,2565.76 850.367,0 0,566.91 -850.367,0 0,-566.91 z" /><path
             id="path38"
             style="fill:none;stroke:#000000;stroke-width:4.72424984;stroke-linecap:butt;stroke-linejoin:miter;stroke-miterlimit:10;stroke-dasharray:none;stroke-opacity:1"
             d="m 2140.08,2849.21 850.37,0" /><path
             id="path40"
             style="fill:#ffa1a1;fill-opacity:1;fill-rule:evenodd;stroke:none"
             d="m 3132.18,2565.76 850.363,0 0,566.91 -850.363,0 0,-566.91 z" /><path
             id="path42"
             style="fill:none;stroke:#000000;stroke-width:4.72424984;stroke-linecap:butt;stroke-linejoin:miter;stroke-miterlimit:10;stroke-dasharray:none;stroke-opacity:1"
             d="m 3132.18,2565.76 850.363,0 0,566.91 -850.363,0 0,-566.91 z" /><path
             id="path44"
             style="fill:none;stroke:#000000;stroke-width:4.72424984;stroke-linecap:butt;stroke-linejoin:miter;stroke-miterlimit:10;stroke-dasharray:none;stroke-opacity:1"
             d="m 3132.18,2849.21 850.36,0" /><path
             id="path46"
             style="fill:#ffa1a1;fill-opacity:1;fill-rule:evenodd;stroke:none"
             d="m 155.898,1857.12 850.363,0 0,566.91 -850.363,0 0,-566.91 z" /><path
             id="path48"
             style="fill:none;stroke:#000000;stroke-width:4.72424984;stroke-linecap:butt;stroke-linejoin:miter;stroke-miterlimit:10;stroke-dasharray:none;stroke-opacity:1"
             d="m 155.898,1857.12 850.363,0 0,566.91 -850.363,0 0,-566.91 z" /><path
             id="path50"
             style="fill:none;stroke:#000000;stroke-width:4.72424984;stroke-linecap:butt;stroke-linejoin:miter;stroke-miterlimit:10;stroke-dasharray:none;stroke-opacity:1"
             d="m 155.898,2140.57 850.362,0" /><path
             id="path52"
             style="fill:#ffa1a1;fill-opacity:1;fill-rule:evenodd;stroke:none"
             d="m 1147.99,1857.12 850.363,0 0,566.91 -850.363,0 0,-566.91 z" /><path
             id="path54"
             style="fill:none;stroke:#000000;stroke-width:4.72424984;stroke-linecap:butt;stroke-linejoin:miter;stroke-miterlimit:10;stroke-dasharray:none;stroke-opacity:1"
             d="m 1147.99,1857.12 850.363,0 0,566.91 -850.363,0 0,-566.91 z" /><path
             id="path56"
             style="fill:none;stroke:#000000;stroke-width:4.72424984;stroke-linecap:butt;stroke-linejoin:miter;stroke-miterlimit:10;stroke-dasharray:none;stroke-opacity:1"
             d="m 1147.99,2140.57 850.37,0" /><path
             id="path58"
             style="fill:#ffa1a1;fill-opacity:1;fill-rule:evenodd;stroke:none"
             d="m 2140.08,1857.12 850.367,0 0,566.91 -850.367,0 0,-566.91 z" /><path
             id="path60"
             style="fill:none;stroke:#000000;stroke-width:4.72424984;stroke-linecap:butt;stroke-linejoin:miter;stroke-miterlimit:10;stroke-dasharray:none;stroke-opacity:1"
             d="m 2140.08,1857.12 850.367,0 0,566.91 -850.367,0 0,-566.91 z" /><path
             id="path62"
             style="fill:none;stroke:#000000;stroke-width:4.72424984;stroke-linecap:butt;stroke-linejoin:miter;stroke-miterlimit:10;stroke-dasharray:none;stroke-opacity:1"
             d="m 2140.08,2140.57 850.37,0" /><path
             id="path64"
             style="fill:#ffa1a1;fill-opacity:1;fill-rule:evenodd;stroke:none"
             d="m 3132.18,1857.12 850.363,0 0,566.91 -850.363,0 0,-566.91 z" /><path
             id="path66"
             style="fill:none;stroke:#000000;stroke-width:4.72424984;stroke-linecap:butt;stroke-linejoin:miter;stroke-miterlimit:10;stroke-dasharray:none;stroke-opacity:1"
             d="m 3132.18,1857.12 850.363,0 0,566.91 -850.363,0 0,-566.91 z" /><path
             id="path68"
             style="fill:none;stroke:#000000;stroke-width:4.72424984;stroke-linecap:butt;stroke-linejoin:miter;stroke-miterlimit:10;stroke-dasharray:none;stroke-opacity:1"
             d="m 3132.18,2140.57 850.36,0" /><path
             id="path70"
             style="fill:none;stroke:#000000;stroke-width:4.72424984;stroke-linecap:butt;stroke-linejoin:miter;stroke-miterlimit:10;stroke-dasharray:none;stroke-opacity:1"
             d="m 1147.99,1006.75 850.363,0 0,566.91 -850.363,0 0,-566.91 z" /><path
             id="path72"
             style="fill:none;stroke:#000000;stroke-width:4.72424984;stroke-linecap:butt;stroke-linejoin:miter;stroke-miterlimit:10;stroke-dasharray:none;stroke-opacity:1"
             d="m 2140.08,1006.75 850.367,0 0,566.91 -850.367,0 0,-566.91 z" /><path
             id="path74"
             style="fill:none;stroke:#000000;stroke-width:4.72424984;stroke-linecap:butt;stroke-linejoin:miter;stroke-miterlimit:10;stroke-dasharray:none;stroke-opacity:1"
             d="m 3132.18,1006.75 850.363,0 0,566.91 -850.363,0 0,-566.91 z" /><path
             id="path76"
             style="fill:none;stroke:#000000;stroke-width:4.72424984;stroke-linecap:butt;stroke-linejoin:miter;stroke-miterlimit:10;stroke-dasharray:none;stroke-opacity:1"
             d="m 155.898,298.117 850.363,0 0,566.91 -850.363,0 0,-566.91 z" /><path
             id="path78"
             style="fill:none;stroke:#000000;stroke-width:4.72424984;stroke-linecap:butt;stroke-linejoin:miter;stroke-miterlimit:10;stroke-dasharray:none;stroke-opacity:1"
             d="m 1147.99,298.117 850.363,0 0,566.91 -850.363,0 0,-566.91 z" /><path
             id="path80"
             style="fill:none;stroke:#000000;stroke-width:4.72424984;stroke-linecap:butt;stroke-linejoin:miter;stroke-miterlimit:10;stroke-dasharray:none;stroke-opacity:1"
             d="m 2140.08,298.117 850.367,0 0,566.91 -850.367,0 0,-566.91 z" /><path
             id="path82"
             style="fill:none;stroke:#000000;stroke-width:4.72424984;stroke-linecap:butt;stroke-linejoin:miter;stroke-miterlimit:10;stroke-dasharray:none;stroke-opacity:1"
             d="m 3132.18,298.117 850.363,0 0,566.91 -850.363,0 0,-566.91 z" /><path
             id="path84"
             style="fill:none;stroke:#000000;stroke-width:4.72424984;stroke-linecap:butt;stroke-linejoin:miter;stroke-miterlimit:10;stroke-dasharray:none;stroke-opacity:1"
             d="m 155.898,1006.75 850.363,0 0,566.91 -850.363,0 0,-566.91 z" /><path
             id="path86"
             style="fill:#00b0b0;fill-opacity:1;fill-rule:evenodd;stroke:none"
             d="m 155.898,3671.23 3826.64,0 0,311.801 -3826.64,0 0,-311.801 z" /><path
             id="path88"
             style="fill:none;stroke:#000000;stroke-width:4.72424984;stroke-linecap:butt;stroke-linejoin:miter;stroke-miterlimit:10;stroke-dasharray:none;stroke-opacity:1"
             d="m 155.898,3671.23 3826.64,0 0,311.801 -3826.64,0 0,-311.801 z" /><path
             id="path90"
             style="fill:#00b000;fill-opacity:1;fill-rule:evenodd;stroke:none"
             d="m 155.898,3274.39 3826.64,0 0,283.457 -3826.64,0 0,-283.457 z" /><path
             id="path92"
             style="fill:none;stroke:#000000;stroke-width:4.72424984;stroke-linecap:butt;stroke-linejoin:miter;stroke-miterlimit:10;stroke-dasharray:none;stroke-opacity:1"
             d="m 155.898,3274.39 3826.64,0 0,283.457 -3826.64,0 0,-283.457 z" /><path
             id="path94"
             style="fill:none;stroke:#000000;stroke-width:4.72424984;stroke-linecap:butt;stroke-linejoin:miter;stroke-miterlimit:10;stroke-dasharray:37.794;stroke-dashoffset:0;stroke-opacity:1"
             d="m 14.1719,14.6641 4110.1,0 0,4110.1 -4110.1,0 0,-4110.1 z" /></g></g><g
         transform="scale(10,10)"
         id="g96"><text
           id="text98"
           style="font-variant:normal;font-weight:normal;font-size:11.9552002px;font-family:CMTT12;-inkscape-font-specification:CMTT12;writing-mode:lr-tb;fill:#000000;fill-opacity:1;fill-rule:nonzero;stroke:none"
           transform="matrix(1,0,0,-1,24.2,301.84)"><tspan
             id="tspan100"
             y="0"
             x="0 6.1200156 12.240034 18.36005 24.480064 30.60008 36.720097 42.840111 48.960121 55.080135 61.200153">Instruction</tspan><tspan
             id="tspan102"
             y="11.2797"
             x="11.2801 17.400116 23.520134 29.64015 35.760166 41.880173 48.000191">Execute</tspan><tspan
             id="tspan104"
             y="33.959801"
             x="11.2801 17.400116 23.520134">FPU</tspan><tspan
             id="tspan106"
             y="7.1054274e-15"
             x="99.119904 105.23991 111.35993 117.47994 123.59995 129.71997 135.83998 141.95999 148.08002 154.20003 160.32004">Instruction</tspan><tspan
             id="tspan108"
             y="11.2797"
             x="110.5199 116.63991 122.75993 128.87994 134.99995 141.11996 147.23997">Execute</tspan><tspan
             id="tspan110"
             y="33.959801"
             x="110.5199 116.63991 122.75993">FPU</tspan><tspan
             id="tspan112"
             y="1.4210855e-14"
             x="198.36011 204.48012 210.60014 216.72017 222.84021 228.96024 235.08026 241.20027 247.3203 253.44032 259.56036">Instruction</tspan><tspan
             id="tspan114"
             y="11.2797"
             x="209.7601 215.88013 222.00014 228.12016 234.2402 240.36023 246.48026">Execute</tspan><tspan
             id="tspan116"
             y="33.959801"
             x="209.7601 215.88013 222.00014">FPU</tspan><tspan
             id="tspan118"
             y="2.1316282e-14"
             x="297.59991 303.71991 309.83994 315.95996 322.08002 328.20004 334.32007 340.44006 346.56009 352.68011 358.80017">Instruction</tspan><tspan
             id="tspan120"
             y="11.2797"
             x="308.99991 315.11993 321.23993 327.35995 333.48001 339.60004 345.72006">Execute</tspan><tspan
             id="tspan122"
             y="33.959801"
             x="308.99991 315.11993 321.23993">FPU</tspan><tspan
             id="tspan124"
             y="70.800003"
             x="-9.9999997e-05 6.1199155 12.239934 18.359949 24.479965 30.599981 36.719997 42.840012 48.960022 55.080036 61.20005">Instruction</tspan><tspan
             id="tspan126"
             y="82.199997"
             x="11.28 17.400015 23.520035 29.640049 35.760063 41.880074 48.000092">Execute</tspan><tspan
             id="tspan128"
             y="104.8801"
             x="11.28 17.400015 23.520035">FPU</tspan><tspan
             id="tspan130"
             y="70.8004"
             x="99.119797 105.23981 111.35983 117.47984 123.59985 129.71986 135.83987 141.95988 148.07991 154.19992 160.31993">Instruction</tspan><tspan
             id="tspan132"
             y="82.200401"
             x="110.5198 116.63981 122.75983 128.87984 134.99985 141.11987 147.23988">Execute</tspan><tspan
             id="tspan134"
             y="104.8805"
             x="110.5198 116.63981 122.75983">FPU</tspan><tspan
             id="tspan136"
             y="70.800797"
             x="198.36 204.48003 210.60004 216.72006 222.8401 228.96013 235.08015 241.20018 247.32019 253.44022 259.56027">Instruction</tspan><tspan
             id="tspan138"
             y="82.200798"
             x="209.75999 215.88002 222.00005 228.12007 234.24011 240.36014 246.48015">Execute</tspan><tspan
             id="tspan140"
             y="104.8809"
             x="209.75999 215.88002 222.00005">FPU</tspan><tspan
             id="tspan142"
             y="70.801201"
             x="297.59979 303.71982 309.83984 315.95987 322.07993 328.19992 334.31995 340.43997 346.56 352.68002 358.80008">Instruction</tspan><tspan
             id="tspan144"
             y="82.201202"
             x="308.99979 315.11981 321.23984 327.35986 333.47992 339.59995 345.71994">Execute</tspan><tspan
             id="tspan146"
             y="104.8813"
             x="308.99979 315.11981 321.23984">FPU</tspan><tspan
             id="tspan148"
             y="155.8813"
             x="99.119797 105.23981 111.35983 117.47984 123.59985 129.71986 135.83987 141.95988 148.07991">Registers</tspan><tspan
             id="tspan150"
             y="170.0415"
             x="101.99988 108.11989 114.23991 120.35992 126.47993 132.59995 138.71996 144.83997 150.95999">(Context)</tspan><tspan
             id="tspan152"
             y="155.8813"
             x="198.36008 204.4801 210.60013 216.72014 222.84019 228.96021 235.08023 241.20026 247.32028">Registers</tspan><tspan
             id="tspan154"
             y="170.0415"
             x="201.23978 207.35979 213.47981 219.59984 225.71988 231.8399 237.95993 244.07994 250.19997">(Context)</tspan><tspan
             id="tspan156"
             y="155.8813"
             x="297.59998 303.72 309.84003 315.96002 322.08008 328.2001 334.32013 340.44016 346.56018">Registers</tspan><tspan
             id="tspan158"
             y="170.0415"
             x="300.48004 306.60007 312.72009 318.84012 324.96017 331.08017 337.2002 343.32022 349.44025">(Context)</tspan><tspan
             id="tspan160"
             y="226.8017"
             x="4.9999999e-05 6.1200657 12.240084 18.3601 24.480114 30.60013 36.720146 42.84016 48.960171">Registers</tspan><tspan
             id="tspan162"
             y="240.9615"
             x="2.76021 8.8802252 15.000244 21.12026 27.240274 33.360283 39.480301 45.600315 51.720325">(Context)</tspan><tspan
             id="tspan164"
             y="226.8017"
             x="99.12001 105.24002 111.36004 117.48005 123.60006 129.72008 135.84009 141.9601 148.08012">Registers</tspan><tspan
             id="tspan166"
             y="240.9615"
             x="102.00009 108.1201 114.24012 120.36013 126.48014 132.60016 138.72017 144.84018 150.96021">(Context)</tspan><tspan
             id="tspan168"
             y="226.8017"
             x="198.36029 204.48032 210.60033 216.72035 222.84041 228.96042 235.08044 241.20047 247.32048">Registers</tspan><tspan
             id="tspan170"
             y="240.9615"
             x="201.23997 207.36 213.48003 219.60005 225.72009 231.84012 237.96013 244.08015 250.20018">(Context)</tspan><tspan
             id="tspan172"
             y="226.8017"
             x="297.60019 303.72021 309.84021 315.96024 322.08029 328.20032 334.32034 340.44037 346.56036">Registers</tspan><tspan
             id="tspan174"
             y="240.9615"
             x="300.48026 306.60028 312.72031 318.84033 324.96036 331.08038 337.20041 343.32043 349.44046">(Context)</tspan><tspan
             id="tspan176"
             y="155.88139"
             x="0.00026 6.1202755 12.240294 18.36031 24.480326 30.60034 36.720356 42.84037 48.960381">Registers</tspan><tspan
             id="tspan178"
             y="170.0416"
             x="2.7604201 8.8804359 15.000454 21.12047 27.240484 33.360493 39.480511 45.600525 51.720535">(Context)</tspan><tspan
             id="tspan180"
             y="-85.0784"
             x="147.36041 153.48042 159.60045 165.72046 171.84047 177.96049 184.08051 190.20053 196.32056 202.44058 208.56062">Instruction</tspan></text>
<text
           id="text182"
           style="font-variant:normal;font-weight:normal;font-size:9.96263981px;font-family:CMTT10;-inkscape-font-specification:CMTT10;writing-mode:lr-tb;fill:#000000;fill-opacity:1;fill-rule:nonzero;stroke:none"
           transform="matrix(1,0,0,-1,180.08034,375.6383)"><tspan
             id="tspan184"
             y="0"
             x="0 5.2800078 10.560003 15.840011 21.120007">Fetch</tspan></text>
<text
           id="text186"
           style="font-variant:normal;font-weight:normal;font-size:11.9552002px;font-family:CMTT12;-inkscape-font-specification:CMTT12;writing-mode:lr-tb;fill:#000000;fill-opacity:1;fill-rule:nonzero;stroke:none"
           transform="matrix(1,0,0,-1,180.08034,344.4383)"><tspan
             id="tspan188"
             y="0"
             x="0 6.1200094 12.240031 18.360041 24.480049 30.600071 36.720093 42.840115 48.960136 55.080158 61.200203">Instruction</tspan></text>
<text
           id="text190"
           style="font-variant:normal;font-weight:normal;font-size:9.96263981px;font-family:CMTT10;-inkscape-font-specification:CMTT10;writing-mode:lr-tb;fill:#000000;fill-opacity:1;fill-rule:nonzero;stroke:none"
           transform="matrix(1,0,0,-1,188.60026,333.0383)"><tspan
             id="tspan192"
             y="0"
             x="0 5.2800078 10.560003 15.840011 21.120007 26.400002">Decode</tspan></text>
</g></g></g></svg>