<?xml version="1.0" encoding="UTF-8" standalone="no"?>
<svg
   xmlns:dc="http://purl.org/dc/elements/1.1/"
   xmlns:cc="http://creativecommons.org/ns#"
   xmlns:rdf="http://www.w3.org/1999/02/22-rdf-syntax-ns#"
   xmlns:svg="http://www.w3.org/2000/svg"
   xmlns="http://www.w3.org/2000/svg"
   viewBox="0 0 146.25 306.25"
   height="306.25"
   width="146.25"
   xml:space="preserve"
   version="1.1"
   id="svg2"><metadata
     id="metadata8"><rdf:RDF><cc:Work
         rdf:about=""><dc:format>image/svg+xml</dc:format><dc:type
           rdf:resource="http://purl.org/dc/dcmitype/StillImage" /></cc:Work></rdf:RDF></metadata><defs
     id="defs6"><clipPath
       id="clipPath18"
       clipPathUnits="userSpaceOnUse"><path
         id="path20"
         d="m 6.80078,6.80078 1150.00002,0 0,2430.00002 -1150.00002,0 0,-2430.00002 z" /></clipPath></defs><g
     transform="matrix(1.25,0,0,-1.25,0,306.25)"
     id="g10"><g
       transform="scale(0.1,0.1)"
       id="g12"><g
         id="g14"><g
           clip-path="url(#clipPath18)"
           id="g16"><path
             id="path22"
             style="fill:#00b0b0;fill-opacity:1;fill-rule:evenodd;stroke:none"
             d="m 155.898,1998.98 850.363,0 0,283.457 -850.363,0 0,-283.457 z" /><path
             id="path24"
             style="fill:none;stroke:#000000;stroke-width:4.72424984;stroke-linecap:butt;stroke-linejoin:miter;stroke-miterlimit:10;stroke-dasharray:none;stroke-opacity:1"
             d="m 155.898,1998.98 850.363,0 0,283.457 -850.363,0 0,-283.457 z" /><path
             id="path26"
             style="fill:#00b000;fill-opacity:1;fill-rule:evenodd;stroke:none"
             d="m 155.898,1573.8 850.363,0 0,283.453 -850.363,0 0,-283.453 z" /><path
             id="path28"
             style="fill:none;stroke:#000000;stroke-width:4.72424984;stroke-linecap:butt;stroke-linejoin:miter;stroke-miterlimit:10;stroke-dasharray:none;stroke-opacity:1"
             d="m 155.898,1573.8 850.363,0 0,283.453 -850.363,0 0,-283.453 z" /><path
             id="path30"
             style="fill:none;stroke:#000000;stroke-width:4.72424984;stroke-linecap:butt;stroke-linejoin:miter;stroke-miterlimit:10;stroke-dasharray:none;stroke-opacity:1"
             d="m 155.898,156.52 850.363,0 0,566.91 -850.363,0 0,-566.91 z" /><path
             id="path32"
             style="fill:none;stroke:#000000;stroke-width:4.72424984;stroke-linecap:butt;stroke-linejoin:miter;stroke-miterlimit:10;stroke-dasharray:37.794;stroke-dashoffset:0;stroke-opacity:1"
             d="m 14.1719,14.793 1133.82,0 0,2409.37 -1133.82,0 0,-2409.37 z" /><path
             id="path34"
             style="fill:#ffa1a1;fill-opacity:1;fill-rule:evenodd;stroke:none"
             d="m 155.898,865.156 850.363,0 0,566.91 -850.363,0 0,-566.91 z" /><path
             id="path36"
             style="fill:none;stroke:#000000;stroke-width:4.72424984;stroke-linecap:butt;stroke-linejoin:miter;stroke-miterlimit:10;stroke-dasharray:none;stroke-opacity:1"
             d="m 155.898,865.156 850.363,0 0,566.91 -850.363,0 0,-566.91 z" /><path
             id="path38"
             style="fill:none;stroke:#000000;stroke-width:4.72424984;stroke-linecap:butt;stroke-linejoin:miter;stroke-miterlimit:10;stroke-dasharray:none;stroke-opacity:1"
             d="m 155.898,1148.61 850.362,0" /></g></g><g
         transform="scale(10,10)"
         id="g40"><text
           id="text42"
           style="font-variant:normal;font-weight:normal;font-size:11.9552002px;font-family:CMTT12;-inkscape-font-specification:CMTT12;writing-mode:lr-tb;fill:#000000;fill-opacity:1;fill-rule:nonzero;stroke:none"
           transform="matrix(1,0,0,-1,21.3199,216.92)"><tspan
             id="tspan44"
             y="0"
             x="0 6.1200156 12.240034 18.36005 24.480064 30.60008 36.720097 42.840111 48.960121 55.080135 61.200153">Instruction</tspan></text>
<text
           id="text46"
           style="font-variant:normal;font-weight:normal;font-size:9.96263981px;font-family:CMTT10;-inkscape-font-specification:CMTT10;writing-mode:lr-tb;fill:#000000;fill-opacity:1;fill-rule:nonzero;stroke:none"
           transform="matrix(1,0,0,-1,21.3199,205.6399)"><tspan
             id="tspan48"
             y="0"
             x="0 5.2799983 10.559997 15.839995 21.119993 26.399992 31.679995 36.959995 42.239998 47.519997 52.799999 58.080002 63.360008 68.640007 73.920013">Fetch/Speculate</tspan></text>
<text
           id="text50"
           style="font-variant:normal;font-weight:normal;font-size:11.9552002px;font-family:CMTT12;-inkscape-font-specification:CMTT12;writing-mode:lr-tb;fill:#000000;fill-opacity:1;fill-rule:nonzero;stroke:none"
           transform="matrix(1,0,0,-1,24.19998,174.4399)"><tspan
             id="tspan52"
             y="0"
             x="0 6.1200156 12.240034 18.36005 24.480064 30.60008 36.720097 42.840111 48.960121 55.080135 61.200153">Instruction</tspan><tspan
             id="tspan54"
             y="42.599998"
             x="0 6.1200156 12.240034 18.36005 24.480064 30.60008 36.720097 42.840111 48.960121 55.080135 61.200153">Instruction</tspan></text>
<text
           id="text56"
           style="font-variant:normal;font-weight:normal;font-size:9.96263981px;font-family:CMTT10;-inkscape-font-specification:CMTT10;writing-mode:lr-tb;fill:#000000;fill-opacity:1;fill-rule:nonzero;stroke:none"
           transform="matrix(1,0,0,-1,38.36018,163.0399)"><tspan
             id="tspan58"
             y="0"
             x="0 5.2799983 10.559997 15.839998 21.119999 26.400002">Decode</tspan></text>
<text
           id="text60"
           style="font-variant:normal;font-weight:normal;font-size:11.9552002px;font-family:CMTT12;-inkscape-font-specification:CMTT12;writing-mode:lr-tb;fill:#000000;fill-opacity:1;fill-rule:nonzero;stroke:none"
           transform="matrix(1,0,0,-1,35.4801,120.5602)"><tspan
             id="tspan62"
             y="0"
             x="0 6.1200156 12.240034 18.36005 24.480064 30.600075 36.720089">Execute</tspan><tspan
             id="tspan64"
             y="59.520302"
             x="-11.2801 -5.1600847 0.95993394 7.0799494 13.199965 19.319981 25.439997 31.560011 37.680019">Registers</tspan><tspan
             id="tspan66"
             y="73.680099"
             x="-8.5199404 -2.3999245 3.720094 9.8401098 15.960125 22.080133 28.20015 34.320164 40.440174">(Context)</tspan><tspan
             id="tspan68"
             y="22.680099"
             x="-1.9999999e-05 6.1199956 12.240014">FPU</tspan></text>
</g></g></g></svg>