<?xml version="1.0" encoding="UTF-8" standalone="no"?>
<svg
   xmlns:dc="http://purl.org/dc/elements/1.1/"
   xmlns:cc="http://creativecommons.org/ns#"
   xmlns:rdf="http://www.w3.org/1999/02/22-rdf-syntax-ns#"
   xmlns:svg="http://www.w3.org/2000/svg"
   xmlns="http://www.w3.org/2000/svg"
   viewBox="0 0 518.75 306.25"
   height="306.25"
   width="518.75"
   xml:space="preserve"
   version="1.1"
   id="svg2"><metadata
     id="metadata8"><rdf:RDF><cc:Work
         rdf:about=""><dc:format>image/svg+xml</dc:format><dc:type
           rdf:resource="http://purl.org/dc/dcmitype/StillImage" /></cc:Work></rdf:RDF></metadata><defs
     id="defs6"><clipPath
       id="clipPath18"
       clipPathUnits="userSpaceOnUse"><path
         id="path20"
         d="m 6.80078,6.80078 4130.00002,0 0,2430.00002 -4130.00002,0 0,-2430.00002 z" /></clipPath></defs><g
     transform="matrix(1.25,0,0,-1.25,0,306.25)"
     id="g10"><g
       transform="scale(0.1,0.1)"
       id="g12"><g
         id="g14"><g
           clip-path="url(#clipPath18)"
           id="g16"><path
             id="path22"
             style="fill:#ffa1a1;fill-opacity:1;fill-rule:evenodd;stroke:none"
             d="m 155.898,865.156 850.363,0 0,566.91 -850.363,0 0,-566.91 z" /><path
             id="path24"
             style="fill:none;stroke:#000000;stroke-width:4.72424984;stroke-linecap:butt;stroke-linejoin:miter;stroke-miterlimit:10;stroke-dasharray:none;stroke-opacity:1"
             d="m 155.898,865.156 850.363,0 0,566.91 -850.363,0 0,-566.91 z" /><path
             id="path26"
             style="fill:none;stroke:#000000;stroke-width:4.72424984;stroke-linecap:butt;stroke-linejoin:miter;stroke-miterlimit:10;stroke-dasharray:none;stroke-opacity:1"
             d="m 155.898,1148.61 850.362,0" /><path
             id="path28"
             style="fill:#ffa1a1;fill-opacity:1;fill-rule:evenodd;stroke:none"
             d="m 1147.99,865.156 850.363,0 0,566.91 -850.363,0 0,-566.91 z" /><path
             id="path30"
             style="fill:none;stroke:#000000;stroke-width:4.72424984;stroke-linecap:butt;stroke-linejoin:miter;stroke-miterlimit:10;stroke-dasharray:none;stroke-opacity:1"
             d="m 1147.99,865.156 850.363,0 0,566.91 -850.363,0 0,-566.91 z" /><path
             id="path32"
             style="fill:none;stroke:#000000;stroke-width:4.72424984;stroke-linecap:butt;stroke-linejoin:miter;stroke-miterlimit:10;stroke-dasharray:none;stroke-opacity:1"
             d="m 1147.99,1148.61 850.37,0" /><path
             id="path34"
             style="fill:#ffa1a1;fill-opacity:1;fill-rule:evenodd;stroke:none"
             d="m 2140.08,865.156 850.367,0 0,566.91 -850.367,0 0,-566.91 z" /><path
             id="path36"
             style="fill:none;stroke:#000000;stroke-width:4.72424984;stroke-linecap:butt;stroke-linejoin:miter;stroke-miterlimit:10;stroke-dasharray:none;stroke-opacity:1"
             d="m 2140.08,865.156 850.367,0 0,566.91 -850.367,0 0,-566.91 z" /><path
             id="path38"
             style="fill:none;stroke:#000000;stroke-width:4.72424984;stroke-linecap:butt;stroke-linejoin:miter;stroke-miterlimit:10;stroke-dasharray:none;stroke-opacity:1"
             d="m 2140.08,1148.61 850.37,0" /><path
             id="path40"
             style="fill:#ffa1a1;fill-opacity:1;fill-rule:evenodd;stroke:none"
             d="m 3132.18,865.156 850.363,0 0,566.91 -850.363,0 0,-566.91 z" /><path
             id="path42"
             style="fill:none;stroke:#000000;stroke-width:4.72424984;stroke-linecap:butt;stroke-linejoin:miter;stroke-miterlimit:10;stroke-dasharray:none;stroke-opacity:1"
             d="m 3132.18,865.156 850.363,0 0,566.91 -850.363,0 0,-566.91 z" /><path
             id="path44"
             style="fill:none;stroke:#000000;stroke-width:4.72424984;stroke-linecap:butt;stroke-linejoin:miter;stroke-miterlimit:10;stroke-dasharray:none;stroke-opacity:1"
             d="m 3132.18,1148.61 850.36,0" /><path
             id="path46"
             style="fill:none;stroke:#000000;stroke-width:4.72424984;stroke-linecap:butt;stroke-linejoin:miter;stroke-miterlimit:10;stroke-dasharray:none;stroke-opacity:1"
             d="m 155.898,156.52 850.363,0 0,566.91 -850.363,0 0,-566.91 z" /><path
             id="path48"
             style="fill:none;stroke:#000000;stroke-width:4.72424984;stroke-linecap:butt;stroke-linejoin:miter;stroke-miterlimit:10;stroke-dasharray:none;stroke-opacity:1"
             d="m 1147.99,156.52 850.363,0 0,566.91 -850.363,0 0,-566.91 z" /><path
             id="path50"
             style="fill:none;stroke:#000000;stroke-width:4.72424984;stroke-linecap:butt;stroke-linejoin:miter;stroke-miterlimit:10;stroke-dasharray:none;stroke-opacity:1"
             d="m 2140.08,156.52 850.367,0 0,566.91 -850.367,0 0,-566.91 z" /><path
             id="path52"
             style="fill:none;stroke:#000000;stroke-width:4.72424984;stroke-linecap:butt;stroke-linejoin:miter;stroke-miterlimit:10;stroke-dasharray:none;stroke-opacity:1"
             d="m 3132.18,156.52 850.363,0 0,566.91 -850.363,0 0,-566.91 z" /><path
             id="path54"
             style="fill:#00b0b0;fill-opacity:1;fill-rule:evenodd;stroke:none"
             d="m 155.898,1970.63 3826.64,0 0,311.801 -3826.64,0 0,-311.801 z" /><path
             id="path56"
             style="fill:none;stroke:#000000;stroke-width:4.72424984;stroke-linecap:butt;stroke-linejoin:miter;stroke-miterlimit:10;stroke-dasharray:none;stroke-opacity:1"
             d="m 155.898,1970.63 3826.64,0 0,311.801 -3826.64,0 0,-311.801 z" /><path
             id="path58"
             style="fill:#00b000;fill-opacity:1;fill-rule:evenodd;stroke:none"
             d="m 155.898,1573.8 3826.64,0 0,283.453 -3826.64,0 0,-283.453 z" /><path
             id="path60"
             style="fill:none;stroke:#000000;stroke-width:4.72424984;stroke-linecap:butt;stroke-linejoin:miter;stroke-miterlimit:10;stroke-dasharray:none;stroke-opacity:1"
             d="m 155.898,1573.8 3826.64,0 0,283.453 -3826.64,0 0,-283.453 z" /><path
             id="path62"
             style="fill:none;stroke:#000000;stroke-width:4.72424984;stroke-linecap:butt;stroke-linejoin:miter;stroke-miterlimit:10;stroke-dasharray:37.794;stroke-dashoffset:0;stroke-opacity:1"
             d="m 14.1719,14.793 4110.1,0 0,2409.37 -4110.1,0 0,-2409.37 z" /></g></g><g
         transform="scale(10,10)"
         id="g64"><text
           id="text66"
           style="font-variant:normal;font-weight:normal;font-size:11.9552002px;font-family:CMTT12;-inkscape-font-specification:CMTT12;writing-mode:lr-tb;fill:#000000;fill-opacity:1;fill-rule:nonzero;stroke:none"
           transform="matrix(1,0,0,-1,24.2,131.84)"><tspan
             id="tspan68"
             y="0"
             x="0 6.1200156 12.240034 18.36005 24.480064 30.60008 36.720097 42.840111 48.960121 55.080135 61.200153">Instruction</tspan><tspan
             id="tspan70"
             y="11.2797"
             x="11.2801 17.400116 23.520134 29.64015 35.760166 41.880173 48.000191">Execute</tspan><tspan
             id="tspan72"
             y="33.959801"
             x="11.2801 17.400116 23.520134">FPU</tspan><tspan
             id="tspan74"
             y="7.1054274e-15"
             x="99.119904 105.23991 111.35993 117.47994 123.59995 129.71997 135.83998 141.95999 148.08002 154.20003 160.32004">Instruction</tspan><tspan
             id="tspan76"
             y="11.2797"
             x="110.5199 116.63991 122.75993 128.87994 134.99995 141.11996 147.23997">Execute</tspan><tspan
             id="tspan78"
             y="33.959801"
             x="110.5199 116.63991 122.75993">FPU</tspan><tspan
             id="tspan80"
             y="1.4210855e-14"
             x="198.36011 204.48012 210.60014 216.72017 222.84021 228.96024 235.08026 241.20027 247.3203 253.44032 259.56036">Instruction</tspan><tspan
             id="tspan82"
             y="11.2797"
             x="209.7601 215.88013 222.00014 228.12016 234.2402 240.36023 246.48026">Execute</tspan><tspan
             id="tspan84"
             y="33.959801"
             x="209.7601 215.88013 222.00014">FPU</tspan><tspan
             id="tspan86"
             y="2.1316282e-14"
             x="297.59991 303.71991 309.83994 315.95996 322.08002 328.20004 334.32007 340.44006 346.56009 352.68011 358.80017">Instruction</tspan><tspan
             id="tspan88"
             y="11.2797"
             x="308.99991 315.11993 321.23993 327.35995 333.48001 339.60004 345.72006">Execute</tspan><tspan
             id="tspan90"
             y="33.959801"
             x="308.99991 315.11993 321.23993">FPU</tspan><tspan
             id="tspan92"
             y="70.800003"
             x="-9.9999997e-05 6.1199155 12.239934 18.359949 24.479965 30.599981 36.719997 42.840012 48.960022">Registers</tspan><tspan
             id="tspan94"
             y="84.959801"
             x="2.7600601 8.8800755 15.000094 21.12011 27.240126 33.360134 39.480148 45.600166 51.720173">(Context)</tspan><tspan
             id="tspan96"
             y="70.800003"
             x="99.119858 105.23987 111.35989 117.4799 123.59991 129.71992 135.83994 141.95995 148.07997">Registers</tspan><tspan
             id="tspan98"
             y="84.959801"
             x="101.99994 108.11995 114.23997 120.35998 126.47999 132.60001 138.72002 144.84003 150.96005">(Context)</tspan><tspan
             id="tspan100"
             y="70.800003"
             x="198.36014 204.48016 210.60019 216.7202 222.84026 228.96027 235.08029 241.20032 247.32034">Registers</tspan><tspan
             id="tspan102"
             y="84.959801"
             x="201.23982 207.35985 213.47987 219.5999 225.71994 231.83997 237.95999 244.08 250.20003">(Context)</tspan><tspan
             id="tspan104"
             y="70.800003"
             x="297.60004 303.72006 309.84009 315.96008 322.08014 328.20016 334.32019 340.44022 346.56024">Registers</tspan><tspan
             id="tspan106"
             y="84.959801"
             x="300.4801 306.60013 312.72015 318.84018 324.96024 331.08023 337.20026 343.32028 349.44031">(Context)</tspan><tspan
             id="tspan108"
             y="-85.0802"
             x="147.36011 153.48012 159.60014 165.72015 171.84016 177.96017 184.0802 190.20023 196.32025 202.44026 208.56032">Instruction</tspan></text>
<text
           id="text110"
           style="font-variant:normal;font-weight:normal;font-size:9.96263981px;font-family:CMTT10;-inkscape-font-specification:CMTT10;writing-mode:lr-tb;fill:#000000;fill-opacity:1;fill-rule:nonzero;stroke:none"
           transform="matrix(1,0,0,-1,180.08003,205.6401)"><tspan
             id="tspan112"
             y="0"
             x="0 5.2800078 10.560003 15.840011 21.120007">Fetch</tspan></text>
<text
           id="text114"
           style="font-variant:normal;font-weight:normal;font-size:11.9552002px;font-family:CMTT12;-inkscape-font-specification:CMTT12;writing-mode:lr-tb;fill:#000000;fill-opacity:1;fill-rule:nonzero;stroke:none"
           transform="matrix(1,0,0,-1,180.08003,174.4401)"><tspan
             id="tspan116"
             y="0"
             x="0 6.1200094 12.240031 18.360041 24.480049 30.600071 36.720093 42.840115 48.960136 55.080158 61.200203">Instruction</tspan></text>
<text
           id="text118"
           style="font-variant:normal;font-weight:normal;font-size:9.96263981px;font-family:CMTT10;-inkscape-font-specification:CMTT10;writing-mode:lr-tb;fill:#000000;fill-opacity:1;fill-rule:nonzero;stroke:none"
           transform="matrix(1,0,0,-1,188.59995,163.0401)"><tspan
             id="tspan120"
             y="0"
             x="0 5.2800078 10.560003 15.840011 21.120007 26.400002">Decode</tspan></text>
</g></g></g></svg>