<?xml version="1.0" encoding="UTF-8" standalone="no"?>
<svg
   xmlns:dc="http://purl.org/dc/elements/1.1/"
   xmlns:cc="http://creativecommons.org/ns#"
   xmlns:rdf="http://www.w3.org/1999/02/22-rdf-syntax-ns#"
   xmlns:svg="http://www.w3.org/2000/svg"
   xmlns="http://www.w3.org/2000/svg"
   viewBox="0 0 660 551.25"
   height="551.25"
   width="660"
   xml:space="preserve"
   version="1.1"
   id="svg2"><metadata
     id="metadata8"><rdf:RDF><cc:Work
         rdf:about=""><dc:format>image/svg+xml</dc:format><dc:type
           rdf:resource="http://purl.org/dc/dcmitype/StillImage" /></cc:Work></rdf:RDF></metadata><defs
     id="defs6"><clipPath
       id="clipPath18"
       clipPathUnits="userSpaceOnUse"><path
         id="path20"
         d="m 6.80078,10.8008 5260.00002,0 0,4390 -5260.00002,0 0,-4390 z" /></clipPath></defs><g
     transform="matrix(1.25,0,0,-1.25,0,551.25)"
     id="g10"><g
       transform="scale(0.1,0.1)"
       id="g12"><g
         id="g14"><g
           clip-path="url(#clipPath18)"
           id="g16"><path
             id="path22"
             style="fill:#ffa1a1;fill-opacity:1;fill-rule:evenodd;stroke:none"
             d="m 2565.08,2825.16 850.367,0 0,566.91 -850.367,0 0,-566.91 z" /><path
             id="path24"
             style="fill:none;stroke:#000000;stroke-width:4.72424984;stroke-linecap:butt;stroke-linejoin:miter;stroke-miterlimit:10;stroke-dasharray:none;stroke-opacity:1"
             d="m 2565.08,2825.16 850.367,0 0,566.91 -850.367,0 0,-566.91 z" /><path
             id="path26"
             style="fill:none;stroke:#000000;stroke-width:4.72424984;stroke-linecap:butt;stroke-linejoin:miter;stroke-miterlimit:10;stroke-dasharray:none;stroke-opacity:1"
             d="m 3412.93,3108.61 5.04,0" /><path
             id="path28"
             style="fill:#ffa1a1;fill-opacity:1;fill-rule:evenodd;stroke:none"
             d="m 1516.3,2825.16 850.363,0 0,566.91 -850.363,0 0,-566.91 z" /><path
             id="path30"
             style="fill:none;stroke:#000000;stroke-width:4.72424984;stroke-linecap:butt;stroke-linejoin:miter;stroke-miterlimit:10;stroke-dasharray:none;stroke-opacity:1"
             d="m 1516.3,2825.16 850.363,0 0,566.91 -850.363,0 0,-566.91 z" /><path
             id="path32"
             style="fill:none;stroke:#000000;stroke-width:4.72424984;stroke-linecap:butt;stroke-linejoin:miter;stroke-miterlimit:10;stroke-dasharray:none;stroke-opacity:1"
             d="m 2364.14,3108.61 5.04,0" /><path
             id="path34"
             style="fill:#ffa1a1;fill-opacity:1;fill-rule:evenodd;stroke:none"
             d="m 524.207,2825.16 850.363,0 0,566.91 -850.363,0 0,-566.91 z" /><path
             id="path36"
             style="fill:none;stroke:#000000;stroke-width:4.72424984;stroke-linecap:butt;stroke-linejoin:miter;stroke-miterlimit:10;stroke-dasharray:none;stroke-opacity:1"
             d="m 524.207,2825.16 850.363,0 0,566.91 -850.363,0 0,-566.91 z" /><path
             id="path38"
             style="fill:none;stroke:#000000;stroke-width:4.72424984;stroke-linecap:butt;stroke-linejoin:miter;stroke-miterlimit:10;stroke-dasharray:none;stroke-opacity:1"
             d="m 1372.05,3108.61 5.04,0" /><path
             id="path40"
             style="fill:#ffa1a1;fill-opacity:1;fill-rule:evenodd;stroke:none"
             d="m 524.207,2116.52 850.363,0 0,566.91 -850.363,0 0,-566.91 z" /><path
             id="path42"
             style="fill:none;stroke:#000000;stroke-width:4.72424984;stroke-linecap:butt;stroke-linejoin:miter;stroke-miterlimit:10;stroke-dasharray:none;stroke-opacity:1"
             d="m 524.207,2116.52 850.363,0 0,566.91 -850.363,0 0,-566.91 z" /><path
             id="path44"
             style="fill:none;stroke:#000000;stroke-width:4.72424984;stroke-linecap:butt;stroke-linejoin:miter;stroke-miterlimit:10;stroke-dasharray:none;stroke-opacity:1"
             d="m 1372.05,2399.98 5.04,0" /><path
             id="path46"
             style="fill:#ffa1a1;fill-opacity:1;fill-rule:evenodd;stroke:none"
             d="m 1487.95,2116.52 850.367,0 0,566.91 -850.367,0 0,-566.91 z" /><path
             id="path48"
             style="fill:none;stroke:#000000;stroke-width:4.72424984;stroke-linecap:butt;stroke-linejoin:miter;stroke-miterlimit:10;stroke-dasharray:none;stroke-opacity:1"
             d="m 1487.95,2116.52 850.367,0 0,566.91 -850.367,0 0,-566.91 z" /><path
             id="path50"
             style="fill:none;stroke:#000000;stroke-width:4.72424984;stroke-linecap:butt;stroke-linejoin:miter;stroke-miterlimit:10;stroke-dasharray:none;stroke-opacity:1"
             d="m 2335.8,2399.98 5.04,0" /><path
             id="path52"
             style="fill:#ffa1a1;fill-opacity:1;fill-rule:evenodd;stroke:none"
             d="m 2565.08,2116.52 850.367,0 0,566.91 -850.367,0 0,-566.91 z" /><path
             id="path54"
             style="fill:none;stroke:#000000;stroke-width:4.72424984;stroke-linecap:butt;stroke-linejoin:miter;stroke-miterlimit:10;stroke-dasharray:none;stroke-opacity:1"
             d="m 2565.08,2116.52 850.367,0 0,566.91 -850.367,0 0,-566.91 z" /><path
             id="path56"
             style="fill:none;stroke:#000000;stroke-width:4.72424984;stroke-linecap:butt;stroke-linejoin:miter;stroke-miterlimit:10;stroke-dasharray:none;stroke-opacity:1"
             d="m 3412.93,2399.98 5.04,0" /><path
             id="path58"
             style="fill:#ffa1a1;fill-opacity:1;fill-rule:evenodd;stroke:none"
             d="m 3557.18,2116.52 850.363,0 0,566.91 -850.363,0 0,-566.91 z" /><path
             id="path60"
             style="fill:none;stroke:#000000;stroke-width:4.72424984;stroke-linecap:butt;stroke-linejoin:miter;stroke-miterlimit:10;stroke-dasharray:none;stroke-opacity:1"
             d="m 3557.18,2116.52 850.363,0 0,566.91 -850.363,0 0,-566.91 z" /><path
             id="path62"
             style="fill:none;stroke:#000000;stroke-width:4.72424984;stroke-linecap:butt;stroke-linejoin:miter;stroke-miterlimit:10;stroke-dasharray:none;stroke-opacity:1"
             d="m 4405.02,2399.98 5.04,0" /><path
             id="path64"
             style="fill:#00b0b0;fill-opacity:1;fill-rule:evenodd;stroke:none"
             d="m 580.898,3533.79 3826.64,0 0,708.641 -3826.64,0 0,-708.641 z" /><path
             id="path66"
             style="fill:none;stroke:#000000;stroke-width:4.72424984;stroke-linecap:butt;stroke-linejoin:miter;stroke-miterlimit:10;stroke-dasharray:none;stroke-opacity:1"
             d="m 580.898,3533.79 3826.64,0 0,708.641 -3826.64,0 0,-708.641 z" /><path
             id="path68"
             style="fill:#bf6100;fill-opacity:1;fill-rule:evenodd;stroke:none"
             d="m 70.6797,472.48 5102.19,0 0,1502.31 -5102.19,0 0,-1502.31 z" /><path
             id="path70"
             style="fill:none;stroke:#000000;stroke-width:4.72424984;stroke-linecap:butt;stroke-linejoin:miter;stroke-miterlimit:10;stroke-dasharray:none;stroke-opacity:1"
             d="m 70.6797,472.48 5102.19,0 0,1502.31 -5102.19,0 0,-1502.31 z" /><path
             id="path72"
             style="fill:#ffa1a1;fill-opacity:1;fill-rule:evenodd;stroke:none"
             d="m 3557.18,2825.16 850.363,0 0,566.91 -850.363,0 0,-566.91 z" /><path
             id="path74"
             style="fill:none;stroke:#000000;stroke-width:4.72424984;stroke-linecap:butt;stroke-linejoin:miter;stroke-miterlimit:10;stroke-dasharray:none;stroke-opacity:1"
             d="m 3557.18,2825.16 850.363,0 0,566.91 -850.363,0 0,-566.91 z" /><path
             id="path76"
             style="fill:none;stroke:#000000;stroke-width:4.72424984;stroke-linecap:butt;stroke-linejoin:miter;stroke-miterlimit:10;stroke-dasharray:none;stroke-opacity:1"
             d="m 4405.02,3108.61 5.04,0" /><path
             id="path78"
             style="fill:none;stroke:#000000;stroke-width:4.72424984;stroke-linecap:butt;stroke-linejoin:miter;stroke-miterlimit:10;stroke-dasharray:37.794;stroke-dashoffset:0;stroke-opacity:1"
             d="m 13.9883,18.9531 5243.92,0 0,4365.21 -5243.92,0 0,-4365.21 z" /></g></g><g
         transform="scale(10,10)"
         id="g80"><text
           id="text82"
           style="font-variant:normal;font-weight:normal;font-size:11.9552002px;font-family:CMTT12;-inkscape-font-specification:CMTT12;writing-mode:lr-tb;fill:#000000;fill-opacity:1;fill-rule:nonzero;stroke:none"
           transform="matrix(1,0,0,-1,267.92,308.04)"><tspan
             id="tspan84"
             y="0"
             x="0 6.1200213 12.240043 -104.88 -98.759987 -92.639969 -204.1198 -197.99979 -191.87978">ALUALUALU</tspan><tspan
             id="tspan86"
             y="70.919899"
             x="-204.1198 -197.99979 -191.87978 -107.75952 -101.63951 -95.519493 0.00088432 6.1209059 12.240928 99.241074 105.36109 111.48111">ALUALUALUALU</tspan><tspan
             id="tspan88"
             y="0"
             x="99.240196 105.36022 111.48024">ALU</tspan><tspan
             id="tspan90"
             y="187.08"
             x="-87.839798 -81.719788 -75.59977 -69.479759 -63.359749 -57.239727 -51.119705 -44.999687 -38.879665 -32.759644 -26.639597 -20.519575 -7.9196072 -1.7995853 4.320436 10.440457 16.560503 22.680525 28.800547 41.280594 47.400612 53.520634 59.640656 65.760704 71.880722">ConfigurableContextMemory</tspan><tspan
             id="tspan92"
             y="-82.199997"
             x="-110.5199 -104.39989 -98.279869 -92.159859 -86.039848 -79.91983 -73.79982 -67.67981 -61.559788 -55.439766 -49.319721 -43.199699 -37.079678 -30.959656 -24.839634 -18.719612 -12.599566 -6.4795451 6.3605905 12.480612 18.600634 24.720655 30.840702 36.960724 43.080746 49.200768 55.320789">Instruction/ThreadScheduler</tspan></text>
</g></g></g></svg>