<?xml version="1.0" encoding="UTF-8" standalone="no"?>
<svg
   xmlns:dc="http://purl.org/dc/elements/1.1/"
   xmlns:cc="http://creativecommons.org/ns#"
   xmlns:rdf="http://www.w3.org/1999/02/22-rdf-syntax-ns#"
   xmlns:svg="http://www.w3.org/2000/svg"
   xmlns="http://www.w3.org/2000/svg"
   viewBox="0 0 660 551.25"
   height="551.25"
   width="660"
   xml:space="preserve"
   version="1.1"
   id="svg2"><metadata
     id="metadata8"><rdf:RDF><cc:Work
         rdf:about=""><dc:format>image/svg+xml</dc:format><dc:type
           rdf:resource="http://purl.org/dc/dcmitype/StillImage" /></cc:Work></rdf:RDF></metadata><defs
     id="defs6"><clipPath
       id="clipPath18"
       clipPathUnits="userSpaceOnUse"><path
         id="path20"
         d="m 6.80078,10.8008 5260.00002,0 0,4390 -5260.00002,0 0,-4390 z" /></clipPath></defs><g
     transform="matrix(1.25,0,0,-1.25,0,551.25)"
     id="g10"><g
       transform="scale(0.1,0.1)"
       id="g12"><g
         id="g14"><g
           clip-path="url(#clipPath18)"
           id="g16"><path
             id="path22"
             style="fill:#ffa1a1;fill-opacity:1;fill-rule:evenodd;stroke:none"
             d="m 580.898,2825.16 850.363,0 0,566.91 -850.363,0 0,-566.91 z" /><path
             id="path24"
             style="fill:none;stroke:#000000;stroke-width:4.72424984;stroke-linecap:butt;stroke-linejoin:miter;stroke-miterlimit:10;stroke-dasharray:none;stroke-opacity:1"
             d="m 580.898,2825.16 850.363,0 0,566.91 -850.363,0 0,-566.91 z" /><path
             id="path26"
             style="fill:none;stroke:#000000;stroke-width:4.72424984;stroke-linecap:butt;stroke-linejoin:miter;stroke-miterlimit:10;stroke-dasharray:none;stroke-opacity:1"
             d="m 580.898,3108.61 850.362,0" /><path
             id="path28"
             style="fill:#ffa1a1;fill-opacity:1;fill-rule:evenodd;stroke:none"
             d="m 1572.99,2825.16 850.363,0 0,566.91 -850.363,0 0,-566.91 z" /><path
             id="path30"
             style="fill:none;stroke:#000000;stroke-width:4.72424984;stroke-linecap:butt;stroke-linejoin:miter;stroke-miterlimit:10;stroke-dasharray:none;stroke-opacity:1"
             d="m 1572.99,2825.16 850.363,0 0,566.91 -850.363,0 0,-566.91 z" /><path
             id="path32"
             style="fill:none;stroke:#000000;stroke-width:4.72424984;stroke-linecap:butt;stroke-linejoin:miter;stroke-miterlimit:10;stroke-dasharray:none;stroke-opacity:1"
             d="m 1572.99,3108.61 850.37,0" /><path
             id="path34"
             style="fill:#ffa1a1;fill-opacity:1;fill-rule:evenodd;stroke:none"
             d="m 2565.08,2825.16 850.367,0 0,566.91 -850.367,0 0,-566.91 z" /><path
             id="path36"
             style="fill:none;stroke:#000000;stroke-width:4.72424984;stroke-linecap:butt;stroke-linejoin:miter;stroke-miterlimit:10;stroke-dasharray:none;stroke-opacity:1"
             d="m 2565.08,2825.16 850.367,0 0,566.91 -850.367,0 0,-566.91 z" /><path
             id="path38"
             style="fill:none;stroke:#000000;stroke-width:4.72424984;stroke-linecap:butt;stroke-linejoin:miter;stroke-miterlimit:10;stroke-dasharray:none;stroke-opacity:1"
             d="m 2565.08,3108.61 850.37,0" /><path
             id="path40"
             style="fill:#ffa1a1;fill-opacity:1;fill-rule:evenodd;stroke:none"
             d="m 3557.18,2825.16 850.363,0 0,566.91 -850.363,0 0,-566.91 z" /><path
             id="path42"
             style="fill:none;stroke:#000000;stroke-width:4.72424984;stroke-linecap:butt;stroke-linejoin:miter;stroke-miterlimit:10;stroke-dasharray:none;stroke-opacity:1"
             d="m 3557.18,2825.16 850.363,0 0,566.91 -850.363,0 0,-566.91 z" /><path
             id="path44"
             style="fill:none;stroke:#000000;stroke-width:4.72424984;stroke-linecap:butt;stroke-linejoin:miter;stroke-miterlimit:10;stroke-dasharray:none;stroke-opacity:1"
             d="m 3557.18,3108.61 850.36,0" /><path
             id="path46"
             style="fill:#ffa1a1;fill-opacity:1;fill-rule:evenodd;stroke:none"
             d="m 580.898,2116.52 850.363,0 0,566.91 -850.363,0 0,-566.91 z" /><path
             id="path48"
             style="fill:none;stroke:#000000;stroke-width:4.72424984;stroke-linecap:butt;stroke-linejoin:miter;stroke-miterlimit:10;stroke-dasharray:none;stroke-opacity:1"
             d="m 580.898,2116.52 850.363,0 0,566.91 -850.363,0 0,-566.91 z" /><path
             id="path50"
             style="fill:none;stroke:#000000;stroke-width:4.72424984;stroke-linecap:butt;stroke-linejoin:miter;stroke-miterlimit:10;stroke-dasharray:none;stroke-opacity:1"
             d="m 580.898,2399.98 850.362,0" /><path
             id="path52"
             style="fill:#ffa1a1;fill-opacity:1;fill-rule:evenodd;stroke:none"
             d="m 1572.99,2116.52 850.363,0 0,566.91 -850.363,0 0,-566.91 z" /><path
             id="path54"
             style="fill:none;stroke:#000000;stroke-width:4.72424984;stroke-linecap:butt;stroke-linejoin:miter;stroke-miterlimit:10;stroke-dasharray:none;stroke-opacity:1"
             d="m 1572.99,2116.52 850.363,0 0,566.91 -850.363,0 0,-566.91 z" /><path
             id="path56"
             style="fill:none;stroke:#000000;stroke-width:4.72424984;stroke-linecap:butt;stroke-linejoin:miter;stroke-miterlimit:10;stroke-dasharray:none;stroke-opacity:1"
             d="m 1572.99,2399.98 850.37,0" /><path
             id="path58"
             style="fill:#ffa1a1;fill-opacity:1;fill-rule:evenodd;stroke:none"
             d="m 2565.08,2116.52 850.367,0 0,566.91 -850.367,0 0,-566.91 z" /><path
             id="path60"
             style="fill:none;stroke:#000000;stroke-width:4.72424984;stroke-linecap:butt;stroke-linejoin:miter;stroke-miterlimit:10;stroke-dasharray:none;stroke-opacity:1"
             d="m 2565.08,2116.52 850.367,0 0,566.91 -850.367,0 0,-566.91 z" /><path
             id="path62"
             style="fill:none;stroke:#000000;stroke-width:4.72424984;stroke-linecap:butt;stroke-linejoin:miter;stroke-miterlimit:10;stroke-dasharray:none;stroke-opacity:1"
             d="m 2565.08,2399.98 850.37,0" /><path
             id="path64"
             style="fill:#ffa1a1;fill-opacity:1;fill-rule:evenodd;stroke:none"
             d="m 3557.18,2116.52 850.363,0 0,566.91 -850.363,0 0,-566.91 z" /><path
             id="path66"
             style="fill:none;stroke:#000000;stroke-width:4.72424984;stroke-linecap:butt;stroke-linejoin:miter;stroke-miterlimit:10;stroke-dasharray:none;stroke-opacity:1"
             d="m 3557.18,2116.52 850.363,0 0,566.91 -850.363,0 0,-566.91 z" /><path
             id="path68"
             style="fill:none;stroke:#000000;stroke-width:4.72424984;stroke-linecap:butt;stroke-linejoin:miter;stroke-miterlimit:10;stroke-dasharray:none;stroke-opacity:1"
             d="m 3557.18,2399.98 850.36,0" /><path
             id="path70"
             style="fill:none;stroke:#000000;stroke-width:4.72424984;stroke-linecap:butt;stroke-linejoin:miter;stroke-miterlimit:10;stroke-dasharray:none;stroke-opacity:1"
             d="m 2017.07,1581.11 548.012,0 0,365.34 -548.012,0 0,-365.34 z" /><path
             id="path72"
             style="fill:none;stroke:#000000;stroke-width:4.72424984;stroke-linecap:butt;stroke-linejoin:miter;stroke-miterlimit:10;stroke-dasharray:none;stroke-opacity:1"
             d="m 2017.07,1124.43 548.012,0 0,365.344 -548.012,0 0,-365.344 z" /><path
             id="path74"
             style="fill:none;stroke:#000000;stroke-width:4.72424984;stroke-linecap:butt;stroke-linejoin:miter;stroke-miterlimit:10;stroke-dasharray:none;stroke-opacity:1"
             d="m 738.371,1581.11 548.016,0 0,365.34 -548.016,0 0,-365.34 z" /><path
             id="path76"
             style="fill:none;stroke:#000000;stroke-width:4.72424984;stroke-linecap:butt;stroke-linejoin:miter;stroke-miterlimit:10;stroke-dasharray:none;stroke-opacity:1"
             d="m 1377.72,1581.11 548.012,0 0,365.34 -548.012,0 0,-365.34 z" /><path
             id="path78"
             style="fill:none;stroke:#000000;stroke-width:4.72424984;stroke-linecap:butt;stroke-linejoin:miter;stroke-miterlimit:10;stroke-dasharray:none;stroke-opacity:1"
             d="m 738.371,1124.43 548.016,0 0,365.344 -548.016,0 0,-365.344 z" /><path
             id="path80"
             style="fill:none;stroke:#000000;stroke-width:4.72424984;stroke-linecap:butt;stroke-linejoin:miter;stroke-miterlimit:10;stroke-dasharray:none;stroke-opacity:1"
             d="m 1377.72,1124.43 548.012,0 0,365.344 -548.012,0 0,-365.344 z" /><path
             id="path82"
             style="fill:none;stroke:#000000;stroke-width:4.72424984;stroke-linecap:butt;stroke-linejoin:miter;stroke-miterlimit:10;stroke-dasharray:none;stroke-opacity:1"
             d="m 99.0234,1581.11 548.016,0 0,365.34 -548.016,0 0,-365.34 z" /><path
             id="path84"
             style="fill:none;stroke:#000000;stroke-width:4.72424984;stroke-linecap:butt;stroke-linejoin:miter;stroke-miterlimit:10;stroke-dasharray:none;stroke-opacity:1"
             d="m 99.0234,1124.43 548.016,0 0,365.344 -548.016,0 0,-365.344 z" /><path
             id="path86"
             style="fill:none;stroke:#000000;stroke-width:4.72424984;stroke-linecap:butt;stroke-linejoin:miter;stroke-miterlimit:10;stroke-dasharray:none;stroke-opacity:1"
             d="m 4624.86,1581.11 548.012,0 0,365.34 -548.012,0 0,-365.34 z" /><path
             id="path88"
             style="fill:none;stroke:#000000;stroke-width:4.72424984;stroke-linecap:butt;stroke-linejoin:miter;stroke-miterlimit:10;stroke-dasharray:none;stroke-opacity:1"
             d="m 4624.86,1124.43 548.012,0 0,365.344 -548.012,0 0,-365.344 z" /><path
             id="path90"
             style="fill:none;stroke:#000000;stroke-width:4.72424984;stroke-linecap:butt;stroke-linejoin:miter;stroke-miterlimit:10;stroke-dasharray:none;stroke-opacity:1"
             d="m 3346.16,1581.11 548.012,0 0,365.34 -548.012,0 0,-365.34 z" /><path
             id="path92"
             style="fill:none;stroke:#000000;stroke-width:4.72424984;stroke-linecap:butt;stroke-linejoin:miter;stroke-miterlimit:10;stroke-dasharray:none;stroke-opacity:1"
             d="m 3985.51,1581.11 548.012,0 0,365.34 -548.012,0 0,-365.34 z" /><path
             id="path94"
             style="fill:none;stroke:#000000;stroke-width:4.72424984;stroke-linecap:butt;stroke-linejoin:miter;stroke-miterlimit:10;stroke-dasharray:none;stroke-opacity:1"
             d="m 3346.16,1124.43 548.012,0 0,365.344 -548.012,0 0,-365.344 z" /><path
             id="path96"
             style="fill:none;stroke:#000000;stroke-width:4.72424984;stroke-linecap:butt;stroke-linejoin:miter;stroke-miterlimit:10;stroke-dasharray:none;stroke-opacity:1"
             d="m 3985.51,1124.43 548.012,0 0,365.344 -548.012,0 0,-365.344 z" /><path
             id="path98"
             style="fill:none;stroke:#000000;stroke-width:4.72424984;stroke-linecap:butt;stroke-linejoin:miter;stroke-miterlimit:10;stroke-dasharray:none;stroke-opacity:1"
             d="m 2706.81,1581.11 548.016,0 0,365.34 -548.016,0 0,-365.34 z" /><path
             id="path100"
             style="fill:none;stroke:#000000;stroke-width:4.72424984;stroke-linecap:butt;stroke-linejoin:miter;stroke-miterlimit:10;stroke-dasharray:none;stroke-opacity:1"
             d="m 2706.81,1124.43 548.016,0 0,365.344 -548.016,0 0,-365.344 z" /><path
             id="path102"
             style="fill:none;stroke:#000000;stroke-width:4.72424984;stroke-linecap:butt;stroke-linejoin:miter;stroke-miterlimit:10;stroke-dasharray:none;stroke-opacity:1"
             d="m 2012.66,674.047 548.012,0 0,365.344 -548.012,0 0,-365.344 z" /><path
             id="path104"
             style="fill:none;stroke:#000000;stroke-width:4.72424984;stroke-linecap:butt;stroke-linejoin:miter;stroke-miterlimit:10;stroke-dasharray:none;stroke-opacity:1"
             d="m 2012.66,217.371 548.012,0 0,365.344 -548.012,0 0,-365.344 z" /><path
             id="path106"
             style="fill:none;stroke:#000000;stroke-width:4.72424984;stroke-linecap:butt;stroke-linejoin:miter;stroke-miterlimit:10;stroke-dasharray:none;stroke-opacity:1"
             d="m 733.965,674.047 548.012,0 0,365.344 -548.012,0 0,-365.344 z" /><path
             id="path108"
             style="fill:none;stroke:#000000;stroke-width:4.72424984;stroke-linecap:butt;stroke-linejoin:miter;stroke-miterlimit:10;stroke-dasharray:none;stroke-opacity:1"
             d="m 1373.31,674.047 548.012,0 0,365.344 -548.012,0 0,-365.344 z" /><path
             id="path110"
             style="fill:none;stroke:#000000;stroke-width:4.72424984;stroke-linecap:butt;stroke-linejoin:miter;stroke-miterlimit:10;stroke-dasharray:none;stroke-opacity:1"
             d="m 733.965,217.371 548.012,0 0,365.344 -548.012,0 0,-365.344 z" /><path
             id="path112"
             style="fill:none;stroke:#000000;stroke-width:4.72424984;stroke-linecap:butt;stroke-linejoin:miter;stroke-miterlimit:10;stroke-dasharray:none;stroke-opacity:1"
             d="m 1373.31,217.371 548.012,0 0,365.344 -548.012,0 0,-365.344 z" /><path
             id="path114"
             style="fill:none;stroke:#000000;stroke-width:4.72424984;stroke-linecap:butt;stroke-linejoin:miter;stroke-miterlimit:10;stroke-dasharray:none;stroke-opacity:1"
             d="m 94.6133,674.047 548.016,0 0,365.344 -548.016,0 0,-365.344 z" /><path
             id="path116"
             style="fill:none;stroke:#000000;stroke-width:4.72424984;stroke-linecap:butt;stroke-linejoin:miter;stroke-miterlimit:10;stroke-dasharray:none;stroke-opacity:1"
             d="m 94.6133,217.371 548.016,0 0,365.344 -548.016,0 0,-365.344 z" /><path
             id="path118"
             style="fill:none;stroke:#000000;stroke-width:4.72424984;stroke-linecap:butt;stroke-linejoin:miter;stroke-miterlimit:10;stroke-dasharray:none;stroke-opacity:1"
             d="m 4624.86,674.047 548.012,0 0,365.344 -548.012,0 0,-365.344 z" /><path
             id="path120"
             style="fill:none;stroke:#000000;stroke-width:4.72424984;stroke-linecap:butt;stroke-linejoin:miter;stroke-miterlimit:10;stroke-dasharray:none;stroke-opacity:1"
             d="m 4624.86,217.371 548.012,0 0,365.344 -548.012,0 0,-365.344 z" /><path
             id="path122"
             style="fill:none;stroke:#000000;stroke-width:4.72424984;stroke-linecap:butt;stroke-linejoin:miter;stroke-miterlimit:10;stroke-dasharray:none;stroke-opacity:1"
             d="m 3346.16,674.047 548.012,0 0,365.344 -548.012,0 0,-365.344 z" /><path
             id="path124"
             style="fill:none;stroke:#000000;stroke-width:4.72424984;stroke-linecap:butt;stroke-linejoin:miter;stroke-miterlimit:10;stroke-dasharray:none;stroke-opacity:1"
             d="m 3985.51,674.047 548.012,0 0,365.344 -548.012,0 0,-365.344 z" /><path
             id="path126"
             style="fill:none;stroke:#000000;stroke-width:4.72424984;stroke-linecap:butt;stroke-linejoin:miter;stroke-miterlimit:10;stroke-dasharray:none;stroke-opacity:1"
             d="m 3346.16,217.371 548.012,0 0,365.344 -548.012,0 0,-365.344 z" /><path
             id="path128"
             style="fill:none;stroke:#000000;stroke-width:4.72424984;stroke-linecap:butt;stroke-linejoin:miter;stroke-miterlimit:10;stroke-dasharray:none;stroke-opacity:1"
             d="m 3985.51,217.371 548.012,0 0,365.344 -548.012,0 0,-365.344 z" /><path
             id="path130"
             style="fill:none;stroke:#000000;stroke-width:4.72424984;stroke-linecap:butt;stroke-linejoin:miter;stroke-miterlimit:10;stroke-dasharray:none;stroke-opacity:1"
             d="m 2706.81,674.047 548.016,0 0,365.344 -548.016,0 0,-365.344 z" /><path
             id="path132"
             style="fill:none;stroke:#000000;stroke-width:4.72424984;stroke-linecap:butt;stroke-linejoin:miter;stroke-miterlimit:10;stroke-dasharray:none;stroke-opacity:1"
             d="m 2706.81,217.371 548.016,0 0,365.344 -548.016,0 0,-365.344 z" /><path
             id="path134"
             style="fill:#00b0b0;fill-opacity:1;fill-rule:evenodd;stroke:none"
             d="m 580.898,3930.63 3826.64,0 0,311.801 -3826.64,0 0,-311.801 z" /><path
             id="path136"
             style="fill:none;stroke:#000000;stroke-width:4.72424984;stroke-linecap:butt;stroke-linejoin:miter;stroke-miterlimit:10;stroke-dasharray:none;stroke-opacity:1"
             d="m 580.898,3930.63 3826.64,0 0,311.801 -3826.64,0 0,-311.801 z" /><path
             id="path138"
             style="fill:#00b000;fill-opacity:1;fill-rule:evenodd;stroke:none"
             d="m 580.898,3533.79 3826.64,0 0,283.457 -3826.64,0 0,-283.457 z" /><path
             id="path140"
             style="fill:none;stroke:#000000;stroke-width:4.72424984;stroke-linecap:butt;stroke-linejoin:miter;stroke-miterlimit:10;stroke-dasharray:none;stroke-opacity:1"
             d="m 580.898,3533.79 3826.64,0 0,283.457 -3826.64,0 0,-283.457 z" /><path
             id="path142"
             style="fill:none;stroke:#000000;stroke-width:4.72424984;stroke-linecap:butt;stroke-linejoin:miter;stroke-miterlimit:10;stroke-dasharray:37.794;stroke-dashoffset:0;stroke-opacity:1"
             d="m 13.9883,18.9531 5243.92,0 0,4365.21 -5243.92,0 0,-4365.21 z" /><path
             id="path144"
             style="fill:none;stroke:#000000;stroke-width:4.72424984;stroke-linecap:butt;stroke-linejoin:miter;stroke-miterlimit:10;stroke-dasharray:none;stroke-opacity:1"
             d="m 70.6797,1096.08 2522.75,0 0,878.711 -2522.75,0 0,-878.711 z" /><path
             id="path146"
             style="fill:none;stroke:#000000;stroke-width:4.72424984;stroke-linecap:butt;stroke-linejoin:miter;stroke-miterlimit:10;stroke-dasharray:none;stroke-opacity:1"
             d="m 2678.46,1096.08 2522.75,0 0,878.711 -2522.75,0 0,-878.711 z" /><path
             id="path148"
             style="fill:none;stroke:#000000;stroke-width:4.72424984;stroke-linecap:butt;stroke-linejoin:miter;stroke-miterlimit:10;stroke-dasharray:none;stroke-opacity:1"
             d="m 2678.46,189.027 2522.75,0 0,878.707 -2522.75,0 0,-878.707 z" /><path
             id="path150"
             style="fill:none;stroke:#000000;stroke-width:4.72424984;stroke-linecap:butt;stroke-linejoin:miter;stroke-miterlimit:10;stroke-dasharray:none;stroke-opacity:1"
             d="m 70.6797,189.027 2522.75,0 0,878.707 -2522.75,0 0,-878.707 z" /></g></g><g
         transform="scale(10,10)"
         id="g152"><text
           id="text154"
           style="font-variant:normal;font-weight:normal;font-size:11.9552002px;font-family:CMTT12;-inkscape-font-specification:CMTT12;writing-mode:lr-tb;fill:#000000;fill-opacity:1;fill-rule:nonzero;stroke:none"
           transform="matrix(1,0,0,-1,66.6801,327.84)"><tspan
             id="tspan156"
             y="0"
             x="0 6.1200156 12.240025 18.360041 24.480057 30.600065 36.720085 42.840096 48.960117 55.080128 61.200138">Instruction</tspan><tspan
             id="tspan158"
             y="11.2797"
             x="11.2801 17.400116 23.520124 29.640141 35.760151 41.880173 48.000179">Execute</tspan><tspan
             id="tspan160"
             y="33.959801"
             x="11.2801 17.400116 23.520124">FPU</tspan><tspan
             id="tspan162"
             y="7.1054274e-15"
             x="99.239899 105.35991 111.47993 117.59994 123.71995 129.83997 135.95998 142.08 148.20003 154.32004 160.44009">Instruction</tspan><tspan
             id="tspan164"
             y="11.2797"
             x="110.52 116.64001 122.76003 128.88004 135.00005 141.12007 147.2401">Execute</tspan><tspan
             id="tspan166"
             y="33.959801"
             x="110.52 116.64001 122.76003">FPU</tspan><tspan
             id="tspan168"
             y="1.4210855e-14"
             x="198.48019 204.60022 210.72025 216.84027 222.96031 229.08034 235.20035 241.32037 247.4404 253.56042 259.68045">Instruction</tspan><tspan
             id="tspan170"
             y="11.2797"
             x="209.7599 215.87993 221.99994 228.11996 234.24001 240.36003 246.48006">Execute</tspan><tspan
             id="tspan172"
             y="33.959801"
             x="209.7599 215.87993 221.99994">FPU</tspan><tspan
             id="tspan174"
             y="2.1316282e-14"
             x="297.6001 303.72012 309.84015 315.96017 322.0802 328.20023 334.32025 340.44028 346.5603 352.68027 358.80029">Instruction</tspan><tspan
             id="tspan176"
             y="11.2797"
             x="309.00009 315.12012 321.24014 327.36017 333.48022 339.60022 345.72021">Execute</tspan><tspan
             id="tspan178"
             y="33.959801"
             x="309.00009 315.12012 321.24014">FPU</tspan><tspan
             id="tspan180"
             y="70.800003"
             x="9.9999997e-05 6.1201153 12.240125 18.36014 24.480156 30.600164 36.720188 42.840195 48.960217 55.080227 61.200237">Instruction</tspan><tspan
             id="tspan182"
             y="82.199997"
             x="11.2802 17.400215 23.520226 29.64024 35.76025 41.880272 48.000282">Execute</tspan><tspan
             id="tspan184"
             y="104.8801"
             x="11.2802 17.400215 23.520226">FPU</tspan><tspan
             id="tspan186"
             y="70.8004"
             x="99.239998 105.36001 111.48003 117.60004 123.72005 129.84007 135.96008 142.08011 148.20012 154.32014 160.44019">Instruction</tspan><tspan
             id="tspan188"
             y="82.200401"
             x="110.5201 116.64011 122.76013 128.88014 135.00015 141.12018 147.24019">Execute</tspan><tspan
             id="tspan190"
             y="104.8805"
             x="110.5201 116.64011 122.76013">FPU</tspan><tspan
             id="tspan192"
             y="70.800797"
             x="198.4803 204.60033 210.72034 216.84036 222.9604 229.08043 235.20045 241.32048 247.44049 253.56052 259.68057">Instruction</tspan><tspan
             id="tspan194"
             y="82.200798"
             x="209.75999 215.88002 222.00005 228.12007 234.24011 240.36014 246.48015">Execute</tspan><tspan
             id="tspan196"
             y="104.8809"
             x="209.75999 215.88002 222.00005">FPU</tspan><tspan
             id="tspan198"
             y="70.801201"
             x="297.60019 303.72021 309.84024 315.96027 322.08032 328.20032 334.32034 340.44037 346.56039 352.68036 358.80038">Instruction</tspan><tspan
             id="tspan200"
             y="82.201202"
             x="309.00021 315.12021 321.24023 327.36026 333.48032 339.60034 345.72031">Execute</tspan><tspan
             id="tspan202"
             y="104.8813"
             x="309.00021 315.12021 321.24023">FPU</tspan></text>
<text
           id="text204"
           style="font-variant:normal;font-weight:normal;font-size:7.97010994px;font-family:CMTT8;-inkscape-font-specification:CMTT8;writing-mode:lr-tb;fill:#000000;fill-opacity:1;fill-rule:nonzero;stroke:none"
           transform="matrix(1,0,0,-1,207.3203,187.3185)"><tspan
             id="tspan206"
             y="0"
             x="0 4.1999993 8.3999987 12.599998 16.799997 20.999998 25.199997 29.399998 33.599995">Registers</tspan><tspan
             id="tspan208"
             y="9.1199198"
             x="1.8 5.9999995 10.199999 14.399999 18.599998 22.799997 26.999998 31.199997 35.399998">(Context)</tspan><tspan
             id="tspan210"
             y="45.600021"
             x="0 4.1999993 8.3999987 12.599998 16.799997 20.999998 25.199997 29.399998 33.599995">Registers</tspan><tspan
             id="tspan212"
             y="54.839859"
             x="1.8 5.9999995 10.199999 14.399999 18.599998 22.799997 26.999998 31.199997 35.399998">(Context)</tspan><tspan
             id="tspan214"
             y="5.9999998e-05"
             x="-127.92 -123.72 -119.52 -115.32 -111.12 -106.92001 -102.72 -98.520004 -94.320007">Registers</tspan><tspan
             id="tspan216"
             y="9.1199799"
             x="-126.12 -121.92 -117.72 -113.52 -109.32 -105.12 -100.92001 -96.720001 -92.520004">(Context)</tspan><tspan
             id="tspan218"
             y="5.9999998e-05"
             x="-63.959801 -59.7598 -55.559799 -51.359802 -47.159801 -42.959801 -38.759804 -34.559803 -30.359804">Registers</tspan><tspan
             id="tspan220"
             y="9.1199799"
             x="-62.159801 -57.959801 -53.7598 -49.559803 -45.359802 -41.159801 -36.959805 -32.759804 -28.559803">(Context)</tspan><tspan
             id="tspan222"
             y="45.600079"
             x="-127.92 -123.72 -119.52 -115.32 -111.12 -106.92001 -102.72 -98.520004 -94.320007">Registers</tspan><tspan
             id="tspan224"
             y="54.83992"
             x="-126.12 -121.92 -117.72 -113.52 -109.32 -105.12 -100.92001 -96.720001 -92.520004">(Context)</tspan><tspan
             id="tspan226"
             y="45.600079"
             x="-63.959801 -59.7598 -55.559799 -51.359802 -47.159801 -42.959801 -38.759804 -34.559803 -30.359804">Registers</tspan><tspan
             id="tspan228"
             y="54.83992"
             x="-62.159801 -57.959801 -53.7598 -49.559803 -45.359802 -41.159801 -36.959805 -32.759804 -28.559803">(Context)</tspan><tspan
             id="tspan230"
             y="0.00012"
             x="-191.87981 -187.67979 -183.4798 -179.2798 -175.0798 -170.87981 -166.67981 -162.4798 -158.2798">Registers</tspan><tspan
             id="tspan232"
             y="9.1200399"
             x="-190.0798 -185.87981 -181.67979 -177.4798 -173.2798 -169.0798 -164.87981 -160.67981 -156.4798">(Context)</tspan><tspan
             id="tspan234"
             y="45.60014"
             x="-191.87981 -187.67979 -183.4798 -179.2798 -175.0798 -170.87981 -166.67981 -162.4798 -158.2798">Registers</tspan><tspan
             id="tspan236"
             y="54.839981"
             x="-190.0798 -185.87981 -181.67979 -177.4798 -173.2798 -169.0798 -164.87981 -160.67981 -156.4798">(Context)</tspan><tspan
             id="tspan238"
             y="0.00018"
             x="260.76019 264.96021 269.16019 273.3602 277.56021 281.76019 285.96021 290.16019 294.3602">Registers</tspan><tspan
             id="tspan240"
             y="9.1201"
             x="262.56021 266.76019 270.96021 275.16019 279.3602 283.56021 287.76019 291.96021 296.16019">(Context)</tspan><tspan
             id="tspan242"
             y="45.600201"
             x="260.76019 264.96021 269.16019 273.3602 277.56021 281.76019 285.96021 290.16019 294.3602">Registers</tspan><tspan
             id="tspan244"
             y="54.840038"
             x="262.56021 266.76019 270.96021 275.16019 279.3602 283.56021 287.76019 291.96021 296.16019">(Context)</tspan><tspan
             id="tspan246"
             y="0.00023999999"
             x="132.84019 137.04021 141.2402 145.4402 149.6402 153.84019 158.04019 162.2402 166.4402">Registers</tspan><tspan
             id="tspan248"
             y="9.1201601"
             x="134.76012 138.96011 143.16013 147.36012 151.56012 155.76012 159.96011 164.16011 168.36012">(Context)</tspan><tspan
             id="tspan250"
             y="0.00023999999"
             x="196.79993 200.99992 205.19992 209.39992 213.59991 217.79991 221.99992 226.19992 230.39992">Registers</tspan><tspan
             id="tspan252"
             y="9.1201601"
             x="198.59991 202.79993 206.99992 211.19992 215.39992 219.59991 223.79991 227.99992 232.19992">(Context)</tspan><tspan
             id="tspan254"
             y="45.600262"
             x="132.84012 137.04012 141.24011 145.44012 149.64012 153.84012 158.04012 162.24011 166.44011">Registers</tspan><tspan
             id="tspan256"
             y="54.840099"
             x="134.76004 138.96004 143.16003 147.36003 151.56004 155.76004 159.96004 164.16003 168.36003">(Context)</tspan><tspan
             id="tspan258"
             y="45.600262"
             x="196.79984 200.99983 205.19984 209.39984 213.59984 217.79984 221.99983 226.19984 230.39984">Registers</tspan><tspan
             id="tspan260"
             y="54.840099"
             x="198.59984 202.79984 206.99983 211.19984 215.39984 219.59984 223.79984 227.99983 232.19983">(Context)</tspan><tspan
             id="tspan262"
             y="0.00030000001"
             x="68.879837 73.079842 77.279839 81.479836 85.67984 89.879837 94.079834 98.279839 102.47984">Registers</tspan><tspan
             id="tspan264"
             y="9.1202202"
             x="70.799759 74.999756 79.19976 83.399757 87.599762 91.799759 95.999756 100.19976 104.39976">(Context)</tspan><tspan
             id="tspan266"
             y="45.600319"
             x="68.879837 73.079842 77.279839 81.479836 85.67984 89.879837 94.079834 98.279839 102.47984">Registers</tspan><tspan
             id="tspan268"
             y="54.84016"
             x="70.799759 74.999756 79.19976 83.399757 87.599762 91.799759 95.999756 100.19976 104.39976">(Context)</tspan><tspan
             id="tspan270"
             y="90.720261"
             x="-0.48034 3.7196596 7.9196591 12.119658 16.319658 20.519657 24.719658 28.919657 33.119656">Registers</tspan><tspan
             id="tspan272"
             y="99.840179"
             x="1.3196599 5.5196595 9.7196589 13.919659 18.119658 22.319658 26.519657 30.719656 34.919655">(Context)</tspan><tspan
             id="tspan274"
             y="136.32028"
             x="-0.48034 3.7196596 7.9196591 12.119658 16.319658 20.519657 24.719658 28.919657 33.119656">Registers</tspan><tspan
             id="tspan276"
             y="145.56012"
             x="1.3196599 5.5196595 9.7196589 13.919659 18.119658 22.319658 26.519657 30.719656 34.919655">(Context)</tspan><tspan
             id="tspan278"
             y="90.720322"
             x="-128.40034 -124.20034 -120.00034 -115.80034 -111.60034 -107.40034 -103.20034 -99.000343 -94.800346">Registers</tspan><tspan
             id="tspan280"
             y="99.84024"
             x="-126.48042 -122.28042 -118.08042 -113.88042 -109.68042 -105.48042 -101.28043 -97.080421 -92.880424">(Context)</tspan><tspan
             id="tspan282"
             y="90.720322"
             x="-64.440224 -60.240219 -56.040222 -51.840221 -47.640221 -43.440224 -39.240223 -35.040222 -30.840223">Registers</tspan><tspan
             id="tspan284"
             y="99.84024"
             x="-62.640221 -58.44022 -54.240219 -50.040222 -45.840221 -41.640221 -37.440224 -33.240223 -29.040224">(Context)</tspan><tspan
             id="tspan286"
             y="136.32034"
             x="-128.40042 -124.20042 -120.00042 -115.80042 -111.60042 -107.40042 -103.20042 -99.00042 -94.800423">Registers</tspan><tspan
             id="tspan288"
             y="145.56018"
             x="-126.4805 -122.2805 -118.0805 -113.8805 -109.6805 -105.4805 -101.2805 -97.080505 -92.880501">(Context)</tspan><tspan
             id="tspan290"
             y="136.32034"
             x="-64.4403 -60.240299 -56.040302 -51.840302 -47.640301 -43.440304 -39.240303 -35.040302 -30.840303">Registers</tspan><tspan
             id="tspan292"
             y="145.56018"
             x="-62.640301 -58.4403 -54.240299 -50.040302 -45.840302 -41.640301 -37.440304 -33.240303 -29.040304">(Context)</tspan><tspan
             id="tspan294"
             y="90.720383"
             x="-192.36031 -188.16029 -183.9603 -179.7603 -175.5603 -171.36031 -167.16031 -162.9603 -158.7603">Registers</tspan><tspan
             id="tspan296"
             y="99.840302"
             x="-190.44038 -186.24039 -182.04037 -177.84038 -173.64038 -169.44038 -165.24039 -161.04039 -156.84038">(Context)</tspan><tspan
             id="tspan298"
             y="136.3204"
             x="-192.36031 -188.16029 -183.9603 -179.7603 -175.5603 -171.36031 -167.16031 -162.9603 -158.7603">Registers</tspan><tspan
             id="tspan300"
             y="145.56024"
             x="-190.44038 -186.24039 -182.04037 -177.84038 -173.64038 -169.44038 -165.24039 -161.04039 -156.84038">(Context)</tspan><tspan
             id="tspan302"
             y="90.720444"
             x="260.75961 264.95963 269.15961 273.35962 277.55963 281.75961 285.95963 290.15961 294.35962">Registers</tspan><tspan
             id="tspan304"
             y="99.840363"
             x="262.55963 266.75961 270.95963 275.15961 279.35962 283.55963 287.75961 291.95963 296.15961">(Context)</tspan><tspan
             id="tspan306"
             y="136.32047"
             x="260.75961 264.95963 269.15961 273.35962 277.55963 281.75961 285.95963 290.15961 294.35962">Registers</tspan><tspan
             id="tspan308"
             y="145.5603"
             x="262.55963 266.75961 270.95963 275.15961 279.35962 283.55963 287.75961 291.95963 296.15961">(Context)</tspan><tspan
             id="tspan310"
             y="90.720497"
             x="132.83961 137.03963 141.23962 145.43962 149.63962 153.83961 158.03961 162.23962 166.43962">Registers</tspan><tspan
             id="tspan312"
             y="99.840424"
             x="134.75954 138.95953 143.15955 147.35954 151.55954 155.75954 159.95953 164.15953 168.35954">(Context)</tspan><tspan
             id="tspan314"
             y="90.720497"
             x="196.79935 200.99934 205.19934 209.39934 213.59933 217.79933 221.99934 226.19934 230.39934">Registers</tspan><tspan
             id="tspan316"
             y="99.840424"
             x="198.59933 202.79935 206.99934 211.19934 215.39934 219.59933 223.79933 227.99934 232.19934">(Context)</tspan><tspan
             id="tspan318"
             y="136.32053"
             x="132.83954 137.03954 141.23953 145.43954 149.63954 153.83954 158.03954 162.23953 166.43953">Registers</tspan><tspan
             id="tspan320"
             y="145.56036"
             x="134.75946 138.95946 143.15945 147.35945 151.55946 155.75946 159.95946 164.15945 168.35945">(Context)</tspan><tspan
             id="tspan322"
             y="136.32053"
             x="196.79926 200.99925 205.19926 209.39926 213.59926 217.79926 221.99925 226.19925 230.39926">Registers</tspan><tspan
             id="tspan324"
             y="145.56036"
             x="198.59926 202.79926 206.99925 211.19926 215.39926 219.59926 223.79926 227.99925 232.19925">(Context)</tspan><tspan
             id="tspan326"
             y="90.720558"
             x="68.879257 73.079262 77.279259 81.479256 85.67926 89.879257 94.079254 98.279259 102.47926">Registers</tspan><tspan
             id="tspan328"
             y="99.840477"
             x="70.799179 74.999176 79.199181 83.399178 87.599174 91.799179 95.999176 100.19918 104.39918">(Context)</tspan><tspan
             id="tspan330"
             y="136.32059"
             x="68.879257 73.079262 77.279259 81.479256 85.67926 89.879257 94.079254 98.279259 102.47926">Registers</tspan><tspan
             id="tspan332"
             y="145.56042"
             x="70.799179 74.999176 79.199181 83.399178 87.599174 91.799179 95.999176 100.19918 104.39918">(Context)</tspan></text>
<text
           id="text334"
           style="font-variant:normal;font-weight:normal;font-size:11.9552002px;font-family:CMTT12;-inkscape-font-specification:CMTT12;writing-mode:lr-tb;fill:#000000;fill-opacity:1;fill-rule:nonzero;stroke:none"
           transform="matrix(1,0,0,-1,214.03938,412.91808)"><tspan
             id="tspan336"
             y="0"
             x="0 6.1200213 12.240043 18.360065 24.48011 30.600132 36.720154 42.840176 48.960197 55.080219 61.200264">Instruction</tspan></text>
<text
           id="text338"
           style="font-variant:normal;font-weight:normal;font-size:9.96263981px;font-family:CMTT10;-inkscape-font-specification:CMTT10;writing-mode:lr-tb;fill:#000000;fill-opacity:1;fill-rule:nonzero;stroke:none"
           transform="matrix(1,0,0,-1,222.55969,401.63798)"><tspan
             id="tspan340"
             y="0"
             x="0 5.2799954 10.559991 15.839962 21.119957">Fetch</tspan></text>
<text
           id="text342"
           style="font-variant:normal;font-weight:normal;font-size:11.9552002px;font-family:CMTT12;-inkscape-font-specification:CMTT12;writing-mode:lr-tb;fill:#000000;fill-opacity:1;fill-rule:nonzero;stroke:none"
           transform="matrix(1,0,0,-1,222.55969,370.43798)"><tspan
             id="tspan344"
             y="0"
             x="0 6.1200213 12.240043 18.360065 24.48011 30.600132 36.720154 42.840176 48.960197 55.080219 61.200264">Instruction</tspan></text>
<text
           id="text346"
           style="font-variant:normal;font-weight:normal;font-size:9.96263981px;font-family:CMTT10;-inkscape-font-specification:CMTT10;writing-mode:lr-tb;fill:#000000;fill-opacity:1;fill-rule:nonzero;stroke:none"
           transform="matrix(1,0,0,-1,231.07961,359.03798)"><tspan
             id="tspan348"
             y="0"
             x="0 5.2799954 10.559991 15.839962 21.119957 26.399952">Decode</tspan></text>
</g></g></g></svg>