<?xml version="1.0" encoding="UTF-8" standalone="no"?>
<svg
   xmlns:dc="http://purl.org/dc/elements/1.1/"
   xmlns:cc="http://creativecommons.org/ns#"
   xmlns:rdf="http://www.w3.org/1999/02/22-rdf-syntax-ns#"
   xmlns:svg="http://www.w3.org/2000/svg"
   xmlns="http://www.w3.org/2000/svg"
   viewBox="0 0 530 591.25"
   height="591.25"
   width="530"
   xml:space="preserve"
   version="1.1"
   id="svg2"><metadata
     id="metadata8"><rdf:RDF><cc:Work
         rdf:about=""><dc:format>image/svg+xml</dc:format><dc:type
           rdf:resource="http://purl.org/dc/dcmitype/StillImage" /></cc:Work></rdf:RDF></metadata><defs
     id="defs6"><clipPath
       id="clipPath18"
       clipPathUnits="userSpaceOnUse"><path
         id="path20"
         d="m 6.80078,8 4220.00002,0 0,4710 -4220.00002,0 0,-4710 z" /></clipPath></defs><g
     transform="matrix(1.25,0,0,-1.25,0,591.25)"
     id="g10"><g
       transform="scale(0.1,0.1)"
       id="g12"><g
         id="g14"><g
           clip-path="url(#clipPath18)"
           id="g16"><path
             id="path22"
             style="fill:#00b000;fill-opacity:1;fill-rule:evenodd;stroke:none"
             d="m 3792.2,4159.02 c 0,-269.26 -218.28,-487.54 -487.54,-487.54 -269.26,0 -487.54,218.28 -487.54,487.54 0,269.27 218.28,487.55 487.54,487.55 269.26,0 487.54,-218.28 487.54,-487.55" /><path
             id="path24"
             style="fill:none;stroke:#000000;stroke-width:4.72424984;stroke-linecap:butt;stroke-linejoin:miter;stroke-miterlimit:10;stroke-dasharray:none;stroke-opacity:1"
             d="m 3792.2,4159.02 c 0,-269.26 -218.28,-487.54 -487.54,-487.54 -269.26,0 -487.54,218.28 -487.54,487.54 0,269.27 218.28,487.55 487.54,487.55 269.26,0 487.54,-218.28 487.54,-487.55 z" /><path
             id="path26"
             style="fill:none;stroke:#000000;stroke-width:9.44849968;stroke-linecap:butt;stroke-linejoin:miter;stroke-miterlimit:10;stroke-dasharray:none;stroke-opacity:1"
             d="m 3276.31,3672.11 0,-113.38" /><path
             id="path28"
             style="fill:none;stroke:#000000;stroke-width:9.44849968;stroke-linecap:butt;stroke-linejoin:miter;stroke-miterlimit:10;stroke-dasharray:none;stroke-opacity:1"
             d="m 3276.31,1149.36 0,-283.454" /><path
             id="path30"
             style="fill:#00b0b0;fill-opacity:1;fill-rule:evenodd;stroke:none"
             d="m 2794.44,3331.96 992.09,0 0,226.762 -992.09,0 0,-226.762 z" /><path
             id="path32"
             style="fill:none;stroke:#000000;stroke-width:4.72424984;stroke-linecap:butt;stroke-linejoin:miter;stroke-miterlimit:10;stroke-dasharray:none;stroke-opacity:1"
             d="m 2794.44,3331.96 992.09,0 0,226.762 -992.09,0 0,-226.762 z" /><path
             id="path34"
             style="fill:none;stroke:#000000;stroke-width:9.44849968;stroke-linecap:butt;stroke-linejoin:miter;stroke-miterlimit:10;stroke-dasharray:none;stroke-opacity:1"
             d="m 3276.31,3331.96 0,-283.45" /><path
             id="path36"
             style="fill:#00b0b0;fill-opacity:1;fill-rule:evenodd;stroke:none"
             d="m 2794.44,2708.36 992.09,0 0,340.145 -992.09,0 0,-340.145 z" /><path
             id="path38"
             style="fill:none;stroke:#000000;stroke-width:4.72424984;stroke-linecap:butt;stroke-linejoin:miter;stroke-miterlimit:10;stroke-dasharray:none;stroke-opacity:1"
             d="m 2794.44,2708.36 992.09,0 0,340.145 -992.09,0 0,-340.145 z" /><path
             id="path40"
             style="fill:none;stroke:#000000;stroke-width:9.44849968;stroke-linecap:butt;stroke-linejoin:miter;stroke-miterlimit:10;stroke-dasharray:none;stroke-opacity:1"
             d="m 3276.31,2708.36 0,-283.45" /><path
             id="path42"
             style="fill:#bf6100;fill-opacity:1;fill-rule:evenodd;stroke:none"
             d="m 2794.44,1007.63 992.09,0 0,651.945 -992.09,0 0,-651.945 z" /><path
             id="path44"
             style="fill:none;stroke:#000000;stroke-width:4.72424984;stroke-linecap:butt;stroke-linejoin:miter;stroke-miterlimit:10;stroke-dasharray:none;stroke-opacity:1"
             d="m 2794.44,1007.63 992.09,0 0,651.945 -992.09,0 0,-651.945 z" /><path
             id="path46"
             style="fill:#00b0b0;fill-opacity:1;fill-rule:evenodd;stroke:none"
             d="m 2822.79,1999.73 963.746,0 0,481.871 -963.746,0 0,-481.871 z" /><path
             id="path48"
             style="fill:none;stroke:#000000;stroke-width:4.72424984;stroke-linecap:butt;stroke-linejoin:miter;stroke-miterlimit:10;stroke-dasharray:none;stroke-opacity:1"
             d="m 2822.79,1999.73 963.746,0 0,481.871 -963.746,0 0,-481.871 z" /><path
             id="path50"
             style="fill:none;stroke:#000000;stroke-width:9.44849968;stroke-linecap:butt;stroke-linejoin:miter;stroke-miterlimit:10;stroke-dasharray:none;stroke-opacity:1"
             d="m 3276.31,1999.73 0,-340.15" /><path
             id="path52"
             style="fill:#ffa1a1;fill-opacity:1;fill-rule:evenodd;stroke:none"
             d="m 2482.64,15.5391 1729.07,0 0,850.367 -1729.07,0 0,-850.367 z" /><path
             id="path54"
             style="fill:none;stroke:#000000;stroke-width:4.72424984;stroke-linecap:butt;stroke-linejoin:miter;stroke-miterlimit:10;stroke-dasharray:none;stroke-opacity:1"
             d="m 2482.64,15.5391 1729.07,0 0,850.367 -1729.07,0 0,-850.367 z" /><g
             transform="scale(10,10)"
             id="g56"><text
               id="text58"
               style="font-variant:normal;font-weight:normal;font-size:20.7866993px;font-family:Times;-inkscape-font-specification:Times-Roman;writing-mode:lr-tb;fill:#000000;fill-opacity:1;fill-rule:nonzero;stroke:none"
               transform="matrix(1,0,0,-1,319.128,336.031)"><tspan
                 id="tspan60"
                 y="0"
                 x="0 12.700674">L1</tspan><tspan
                 id="tspan62"
                 y="291.95901"
                 x="0 15.007998 21.929968 33.487373">DISK</tspan></text>
<text
               id="text64"
               style="font-variant:normal;font-weight:normal;font-size:22.67639923px;font-family:Times;-inkscape-font-specification:Times-Roman;writing-mode:lr-tb;fill:#000000;fill-opacity:1;fill-rule:nonzero;stroke:none"
               transform="matrix(1,0,0,-1,41.342,409.729)"><tspan
                 id="tspan66"
                 y="0"
                 x="0 11.3382 27.710562">1KB</tspan></text>
<text
               id="text68"
               style="font-variant:normal;font-weight:normal;font-size:20.7866993px;font-family:Times;-inkscape-font-specification:Times-Roman;writing-mode:lr-tb;fill:#000000;fill-opacity:1;fill-rule:nonzero;stroke:none"
               transform="matrix(1,0,0,-1,41.342,341.6997)"><tspan
                 id="tspan70"
                 y="0"
                 x="0 10.39335 20.786699 35.794697">64KB</tspan><tspan
                 id="tspan72"
                 y="68.029297"
                 x="-5.6691399 4.7242098 15.11756 25.51091 40.518906">256KB</tspan><tspan
                 id="tspan74"
                 y="-113.3817"
                 x="0 11.557405 18.479376 31.18005">SIZE</tspan><tspan
                 id="tspan76"
                 y="0.00030000001"
                 x="93.540199 104.7858 115.17915 125.5725">~1ns</tspan><tspan
                 id="tspan78"
                 y="-70.863403"
                 x="85.036293 96.281898 106.67525 117.0686 127.46194 137.8553">~300ps</tspan><tspan
                 id="tspan80"
                 y="-113.3818"
                 x="85.036293 96.593697 108.1511 120.85178 133.55244">SPEED</tspan></text>
<text
               id="text82"
               style="font-variant:normal;font-weight:normal;font-size:11.33819962px;font-family:Times;-inkscape-font-specification:Times-Roman;writing-mode:lr-tb;fill:#000000;fill-opacity:1;fill-rule:nonzero;stroke:none"
               transform="matrix(1,0,0,-1,293.61729,398.3905)"><tspan
                 id="tspan84"
                 y="0"
                 x="0 3.7756207 11.3382 18.265841 26.452021 30.227642 36.531681 43.45932 50.386959 57.949539 64.253578">(REGISTERS)</tspan></text>
<text
               id="text86"
               style="font-variant:normal;font-weight:normal;font-size:20.7866993px;font-family:Times;-inkscape-font-specification:Times-Roman;writing-mode:lr-tb;fill:#000000;fill-opacity:1;fill-rule:nonzero;stroke:none"
               transform="matrix(1,0,0,-1,307.78999,421.0671)"><tspan
                 id="tspan88"
                 y="0"
                 x="0 13.864729 25.422134">CPU</tspan><tspan
                 id="tspan90"
                 y="138.89301"
                 x="5.6691399 18.369814">L2</tspan><tspan
                 id="tspan92"
                 y="286.29001"
                 x="5.6691399 20.677137 35.685135">DDR</tspan><tspan
                 id="tspan94"
                 y="204.088"
                 x="8.50352 21.204193">L3</tspan><tspan
                 id="tspan96"
                 y="201.25323"
                 x="-269.28247 -258.88913 -247.16544 -236.77208 -218.29271 -181.4117 -170.16609 -159.77274 -149.37939 -137.65569 -127.26234 -116.86899 -106.47564">4−8MB~10−20ns</tspan><tspan
                 id="tspan98"
                 y="144.56223"
                 x="-184.24619 -173.00058 -162.60722 -150.88353 -140.49017 -130.09683 -119.70348">~5−10ns</tspan><tspan
                 id="tspan100"
                 y="291.95923"
                 x="-269.28247 -258.88913 -247.16544 -236.77208 -226.37874 -211.37073">4−16GB</tspan><tspan
                 id="tspan102"
                 y="379.82993"
                 x="-172.90788 -161.66228 -151.26892 -140.87558 -129.15187 -118.75853 -108.36517 -97.971825 -87.578476">~50−100us</tspan><tspan
                 id="tspan104"
                 y="382.6647"
                 x="-306.13187 -295.73853 -285.34518 -274.95184 -259.94385 -246.0791 -240.88243 -229.15874 -218.76538 -206.06471">256GB −1TB</tspan><tspan
                 id="tspan106"
                 y="291.9592"
                 x="-175.74287 -164.49727 -154.10393 -143.71057 -131.98688 -121.59353 -111.20018 -100.80682 -90.413475">~50−100ns</tspan></text>
</g></g></g></g></g></svg>