<?xml version="1.0" encoding="UTF-8" standalone="no"?>
<svg
   xmlns:dc="http://purl.org/dc/elements/1.1/"
   xmlns:cc="http://creativecommons.org/ns#"
   xmlns:rdf="http://www.w3.org/1999/02/22-rdf-syntax-ns#"
   xmlns:svg="http://www.w3.org/2000/svg"
   xmlns="http://www.w3.org/2000/svg"
   viewBox="0 0 497.5 608.75"
   height="608.75"
   width="497.5"
   xml:space="preserve"
   version="1.1"
   id="svg2"><metadata
     id="metadata8"><rdf:RDF><cc:Work
         rdf:about=""><dc:format>image/svg+xml</dc:format><dc:type
           rdf:resource="http://purl.org/dc/dcmitype/StillImage" /></cc:Work></rdf:RDF></metadata><defs
     id="defs6"><clipPath
       id="clipPath18"
       clipPathUnits="userSpaceOnUse"><path
         id="path20"
         d="m 6.80078,6.40234 3960.00002,0 0,4849.99996 -3960.00002,0 0,-4849.99996 z" /></clipPath></defs><g
     transform="matrix(1.25,0,0,-1.25,0,608.75)"
     id="g10"><g
       transform="scale(0.1,0.1)"
       id="g12"><g
         id="g14"><g
           clip-path="url(#clipPath18)"
           id="g16"><path
             id="path22"
             style="fill:#00b000;fill-opacity:1;fill-rule:evenodd;stroke:none"
             d="m 3565.2,4299.42 c 0,-269.26 -218.28,-487.54 -487.54,-487.54 -269.26,0 -487.54,218.28 -487.54,487.54 0,269.26 218.28,487.54 487.54,487.54 269.26,0 487.54,-218.28 487.54,-487.54" /><path
             id="path24"
             style="fill:none;stroke:#000000;stroke-width:4.72424984;stroke-linecap:butt;stroke-linejoin:miter;stroke-miterlimit:10;stroke-dasharray:none;stroke-opacity:1"
             d="m 3565.2,4299.42 c 0,-269.26 -218.28,-487.54 -487.54,-487.54 -269.26,0 -487.54,218.28 -487.54,487.54 0,269.26 218.28,487.54 487.54,487.54 269.26,0 487.54,-218.28 487.54,-487.54 z" /><path
             id="path26"
             style="fill:none;stroke:#000000;stroke-width:9.44849968;stroke-linecap:butt;stroke-linejoin:miter;stroke-miterlimit:10;stroke-dasharray:none;stroke-opacity:1"
             d="m 3049.31,3812.51 0,-113.38" /><path
             id="path28"
             style="fill:none;stroke:#000000;stroke-width:9.44849968;stroke-linecap:butt;stroke-linejoin:miter;stroke-miterlimit:10;stroke-dasharray:none;stroke-opacity:1"
             d="m 3049.31,1289.76 0,-283.46" /><path
             id="path30"
             style="fill:#00b0b0;fill-opacity:1;fill-rule:evenodd;stroke:none"
             d="m 2567.44,3472.36 992.09,0 0,226.766 -992.09,0 0,-226.766 z" /><path
             id="path32"
             style="fill:none;stroke:#000000;stroke-width:4.72424984;stroke-linecap:butt;stroke-linejoin:miter;stroke-miterlimit:10;stroke-dasharray:none;stroke-opacity:1"
             d="m 2567.44,3472.36 992.09,0 0,226.766 -992.09,0 0,-226.766 z" /><path
             id="path34"
             style="fill:none;stroke:#000000;stroke-width:9.44849968;stroke-linecap:butt;stroke-linejoin:miter;stroke-miterlimit:10;stroke-dasharray:none;stroke-opacity:1"
             d="m 3049.31,3472.36 0,-283.45" /><path
             id="path36"
             style="fill:#00b0b0;fill-opacity:1;fill-rule:evenodd;stroke:none"
             d="m 2567.44,2848.76 992.09,0 0,340.148 -992.09,0 0,-340.148 z" /><path
             id="path38"
             style="fill:none;stroke:#000000;stroke-width:4.72424984;stroke-linecap:butt;stroke-linejoin:miter;stroke-miterlimit:10;stroke-dasharray:none;stroke-opacity:1"
             d="m 2567.44,2848.76 992.09,0 0,340.148 -992.09,0 0,-340.148 z" /><path
             id="path40"
             style="fill:none;stroke:#000000;stroke-width:9.44849968;stroke-linecap:butt;stroke-linejoin:miter;stroke-miterlimit:10;stroke-dasharray:none;stroke-opacity:1"
             d="m 3049.31,2848.76 0,-283.45" /><path
             id="path42"
             style="fill:#bf6100;fill-opacity:1;fill-rule:evenodd;stroke:none"
             d="m 2567.44,1148.04 992.09,0 0,651.945 -992.09,0 0,-651.945 z" /><path
             id="path44"
             style="fill:none;stroke:#000000;stroke-width:4.72424984;stroke-linecap:butt;stroke-linejoin:miter;stroke-miterlimit:10;stroke-dasharray:none;stroke-opacity:1"
             d="m 2567.44,1148.04 992.09,0 0,651.945 -992.09,0 0,-651.945 z" /><path
             id="path46"
             style="fill:#00b0b0;fill-opacity:1;fill-rule:evenodd;stroke:none"
             d="m 2595.79,2140.13 963.746,0 0,481.875 -963.746,0 0,-481.875 z" /><path
             id="path48"
             style="fill:none;stroke:#000000;stroke-width:4.72424984;stroke-linecap:butt;stroke-linejoin:miter;stroke-miterlimit:10;stroke-dasharray:none;stroke-opacity:1"
             d="m 2595.79,2140.13 963.746,0 0,481.875 -963.746,0 0,-481.875 z" /><path
             id="path50"
             style="fill:none;stroke:#000000;stroke-width:9.44849968;stroke-linecap:butt;stroke-linejoin:miter;stroke-miterlimit:10;stroke-dasharray:none;stroke-opacity:1"
             d="m 3049.31,2140.13 0,-340.15" /><path
             id="path52"
             style="fill:#ffa1a1;fill-opacity:1;fill-rule:evenodd;stroke:none"
             d="m 2312.33,14.2148 680.289,0 0,850.363 -680.289,0 0,-850.363 z" /><path
             id="path54"
             style="fill:none;stroke:#000000;stroke-width:4.72424984;stroke-linecap:butt;stroke-linejoin:miter;stroke-miterlimit:10;stroke-dasharray:none;stroke-opacity:1"
             d="m 2312.33,14.2148 680.289,0 0,850.363 -680.289,0 0,-850.363 z" /><path
             id="path56"
             style="fill:#ffa1a1;fill-opacity:1;fill-rule:evenodd;stroke:none"
             d="m 3276.08,14.2148 680.293,0 0,850.363 -680.293,0 0,-850.363 z" /><path
             id="path58"
             style="fill:none;stroke:#000000;stroke-width:4.72424984;stroke-linecap:butt;stroke-linejoin:miter;stroke-miterlimit:10;stroke-dasharray:none;stroke-opacity:1"
             d="m 3276.08,14.2148 680.293,0 0,850.363 -680.293,0 0,-850.363 z" /><path
             id="path60"
             style="fill:none;stroke:#000000;stroke-width:9.44849968;stroke-linecap:butt;stroke-linejoin:miter;stroke-miterlimit:10;stroke-dasharray:none;stroke-opacity:1"
             d="m 3049.31,1006.3 -425.18,0 0,-141.722" /><path
             id="path62"
             style="fill:none;stroke:#000000;stroke-width:9.44849968;stroke-linecap:butt;stroke-linejoin:miter;stroke-miterlimit:10;stroke-dasharray:none;stroke-opacity:1"
             d="m 3049.31,1006.3 566.91,0 0,-141.722" /><g
             transform="scale(10,10)"
             id="g64"><text
               id="text66"
               style="font-variant:normal;font-weight:normal;font-size:20.7866993px;font-family:Times;-inkscape-font-specification:Times-Roman;writing-mode:lr-tb;fill:#000000;fill-opacity:1;fill-rule:nonzero;stroke:none"
               transform="matrix(1,0,0,-1,296.428,350.071)"><tspan
                 id="tspan68"
                 y="0"
                 x="0 12.700674">L1</tspan></text>
<text
               id="text70"
               style="font-variant:normal;font-weight:normal;font-size:22.67639923px;font-family:Times;-inkscape-font-specification:Times-Roman;writing-mode:lr-tb;fill:#000000;fill-opacity:1;fill-rule:nonzero;stroke:none"
               transform="matrix(1,0,0,-1,18.642,423.769)"><tspan
                 id="tspan72"
                 y="0"
                 x="0 11.3382 27.710562">4KB</tspan></text>
<text
               id="text74"
               style="font-variant:normal;font-weight:normal;font-size:20.7866993px;font-family:Times;-inkscape-font-specification:Times-Roman;writing-mode:lr-tb;fill:#000000;fill-opacity:1;fill-rule:nonzero;stroke:none"
               transform="matrix(1,0,0,-1,18.642,355.7401)"><tspan
                 id="tspan76"
                 y="0"
                 x="0 10.39335 20.786699 35.794697">64KB</tspan><tspan
                 id="tspan78"
                 y="68.029297"
                 x="-5.6691399 4.7242098 15.11756 25.51091 40.518906">256KB</tspan><tspan
                 id="tspan80"
                 y="-113.3817"
                 x="0 11.557405 18.479376 31.18005">SIZE</tspan><tspan
                 id="tspan82"
                 y="0.00030000001"
                 x="93.540199 104.7858 115.17915 125.5725">~1ns</tspan><tspan
                 id="tspan84"
                 y="-70.863403"
                 x="85.036293 96.281898 106.67525 117.0686 127.46194 137.8553">~300ps</tspan><tspan
                 id="tspan86"
                 y="-113.3818"
                 x="85.036293 96.593697 108.1511 120.85178 133.55244">SPEED</tspan></text>
<text
               id="text88"
               style="font-variant:normal;font-weight:normal;font-size:11.33819962px;font-family:Times;-inkscape-font-specification:Times-Roman;writing-mode:lr-tb;fill:#000000;fill-opacity:1;fill-rule:nonzero;stroke:none"
               transform="matrix(1,0,0,-1,270.91729,412.4309)"><tspan
                 id="tspan90"
                 y="0"
                 x="0 3.7756207 11.3382 18.265841 26.452021 30.227642 36.531681 43.45932 50.386959 57.949539 64.253578">(REGISTERS)</tspan></text>
<text
               id="text92"
               style="font-variant:normal;font-weight:normal;font-size:20.7866993px;font-family:Times;-inkscape-font-specification:Times-Roman;writing-mode:lr-tb;fill:#000000;fill-opacity:1;fill-rule:nonzero;stroke:none"
               transform="matrix(1,0,0,-1,285.08999,435.1071)"><tspan
                 id="tspan94"
                 y="0"
                 x="0 13.864729 25.422134">CPU</tspan><tspan
                 id="tspan96"
                 y="138.89301"
                 x="5.6691399 18.369814">L2</tspan><tspan
                 id="tspan98"
                 y="286.289"
                 x="5.6691399 20.677137 35.685135">DDR</tspan><tspan
                 id="tspan100"
                 y="204.08701"
                 x="8.50352 21.204193">L3</tspan><tspan
                 id="tspan102"
                 y="201.25262"
                 x="-181.41148 -170.16588 -159.77252 -149.37918 -137.65547 -127.26212 -116.86877 -106.47543">~10−20ns</tspan><tspan
                 id="tspan104"
                 y="144.56161"
                 x="-184.24586 -173.00026 -162.6069 -150.88321 -140.48985 -130.09651 -119.70316">~3−10ns</tspan><tspan
                 id="tspan106"
                 y="291.95761"
                 x="-175.74234 -164.49673 -154.10338 -143.71004 -131.98634 -121.59299 -111.19964 -100.80629 -90.412933">~50−100ns</tspan><tspan
                 id="tspan108"
                 y="394.00162"
                 x="51.02166 66.029655 72.95163 84.509033">DISK</tspan></text>
<text
               id="text110"
               style="font-variant:normal;font-weight:normal;font-size:18.89699936px;font-family:Times;-inkscape-font-specification:Times-Roman;writing-mode:lr-tb;fill:#000000;fill-opacity:1;fill-rule:nonzero;stroke:none"
               transform="matrix(1,0,0,-1,231.23365,35.43634)"><tspan
                 id="tspan112"
                 y="0"
                 x="0 10.506732 22.052799 35.696434 46.203163">FLASH</tspan></text>
<text
               id="text114"
               style="font-variant:normal;font-weight:normal;font-size:20.7866993px;font-family:Times;-inkscape-font-specification:Times-Roman;writing-mode:lr-tb;fill:#000000;fill-opacity:1;fill-rule:nonzero;stroke:none"
               transform="matrix(1,0,0,-1,4.46965,233.85434)"><tspan
                 id="tspan116"
                 y="0"
                 x="0 10.39335 20.786699 32.510399 42.903748 53.2971 71.776474">16−64MB</tspan><tspan
                 id="tspan118"
                 y="90.705498"
                 x="-2.83477 7.5585799 17.951929 29.675629 40.068977 50.46233 60.855679 75.863678">32−256GB</tspan><tspan
                 id="tspan120"
                 y="175.74181"
                 x="5.6691399 16.06249 26.455839 38.179539 48.572887 58.96624 71.666916 104.87814 116.12374 126.51709 138.24078 148.63414 159.02748 175.19954">16−64TB~5−10ms</tspan><tspan
                 id="tspan122"
                 y="204.08749"
                 x="5.6691399 16.06249 27.786188 38.179539 48.572887 61.273563 102.04376 113.28937 123.68272 134.07607 144.46942 156.19312 166.58647 176.97981 187.37317 197.76653">1−16TB~100−200us</tspan></text>
</g></g></g></g></g></svg>