<?xml version="1.0" encoding="UTF-8" standalone="no"?>
<svg
   xmlns:dc="http://purl.org/dc/elements/1.1/"
   xmlns:cc="http://creativecommons.org/ns#"
   xmlns:rdf="http://www.w3.org/1999/02/22-rdf-syntax-ns#"
   xmlns:svg="http://www.w3.org/2000/svg"
   xmlns="http://www.w3.org/2000/svg"
   viewBox="0 0 526.25 591.25"
   height="591.25"
   width="526.25"
   xml:space="preserve"
   version="1.1"
   id="svg2"><metadata
     id="metadata8"><rdf:RDF><cc:Work
         rdf:about=""><dc:format>image/svg+xml</dc:format><dc:type
           rdf:resource="http://purl.org/dc/dcmitype/StillImage" /></cc:Work></rdf:RDF></metadata><defs
     id="defs6"><clipPath
       id="clipPath18"
       clipPathUnits="userSpaceOnUse"><path
         id="path20"
         d="m 6.80078,8 4190.00002,0 0,4710 -4190.00002,0 0,-4710 z" /></clipPath></defs><g
     transform="matrix(1.25,0,0,-1.25,0,591.25)"
     id="g10"><g
       transform="scale(0.1,0.1)"
       id="g12"><g
         id="g14"><g
           clip-path="url(#clipPath18)"
           id="g16"><path
             id="path22"
             style="fill:#00b000;fill-opacity:1;fill-rule:evenodd;stroke:none"
             d="m 3480.2,4159.02 c 0,-269.26 -218.28,-487.54 -487.54,-487.54 -269.26,0 -487.54,218.28 -487.54,487.54 0,269.27 218.28,487.55 487.54,487.55 269.26,0 487.54,-218.28 487.54,-487.55" /><path
             id="path24"
             style="fill:none;stroke:#000000;stroke-width:4.72424984;stroke-linecap:butt;stroke-linejoin:miter;stroke-miterlimit:10;stroke-dasharray:none;stroke-opacity:1"
             d="m 3480.2,4159.02 c 0,-269.26 -218.28,-487.54 -487.54,-487.54 -269.26,0 -487.54,218.28 -487.54,487.54 0,269.27 218.28,487.55 487.54,487.55 269.26,0 487.54,-218.28 487.54,-487.55 z" /><path
             id="path26"
             style="fill:#00b0b0;fill-opacity:1;fill-rule:evenodd;stroke:none"
             d="m 2482.44,2424.91 992.09,0 0,566.91 -992.09,0 0,-566.91 z" /><path
             id="path28"
             style="fill:none;stroke:#000000;stroke-width:4.72424984;stroke-linecap:butt;stroke-linejoin:miter;stroke-miterlimit:10;stroke-dasharray:none;stroke-opacity:1"
             d="m 2482.44,2424.91 992.09,0 0,566.91 -992.09,0 0,-566.91 z" /><path
             id="path30"
             style="fill:#bf6100;fill-opacity:1;fill-rule:evenodd;stroke:none"
             d="m 2482.44,1149.36 992.09,0 0,992.094 -992.09,0 0,-992.094 z" /><path
             id="path32"
             style="fill:none;stroke:#000000;stroke-width:4.72424984;stroke-linecap:butt;stroke-linejoin:miter;stroke-miterlimit:10;stroke-dasharray:none;stroke-opacity:1"
             d="m 2482.44,1149.36 992.09,0 0,992.094 -992.09,0 0,-992.094 z" /><path
             id="path34"
             style="fill:#ffa1a1;fill-opacity:1;fill-rule:evenodd;stroke:none"
             d="m 1773.8,15.5391 2409.37,0 0,850.367 -2409.37,0 0,-850.367 z" /><path
             id="path36"
             style="fill:none;stroke:#000000;stroke-width:4.72424984;stroke-linecap:butt;stroke-linejoin:miter;stroke-miterlimit:10;stroke-dasharray:none;stroke-opacity:1"
             d="m 1773.8,15.5391 2409.37,0 0,850.367 -2409.37,0 0,-850.367 z" /><path
             id="path38"
             style="fill:#00b0b0;fill-opacity:1;fill-rule:evenodd;stroke:none"
             d="m 2482.44,3275.27 992.09,0 0,283.453 -992.09,0 0,-283.453 z" /><path
             id="path40"
             style="fill:none;stroke:#000000;stroke-width:4.72424984;stroke-linecap:butt;stroke-linejoin:miter;stroke-miterlimit:10;stroke-dasharray:none;stroke-opacity:1"
             d="m 2482.44,3275.27 992.09,0 0,283.453 -992.09,0 0,-283.453 z" /><path
             id="path42"
             style="fill:none;stroke:#000000;stroke-width:9.44849968;stroke-linecap:butt;stroke-linejoin:miter;stroke-miterlimit:10;stroke-dasharray:none;stroke-opacity:1"
             d="m 2964.31,3672.11 0,-113.38" /><path
             id="path44"
             style="fill:none;stroke:#000000;stroke-width:9.44849968;stroke-linecap:butt;stroke-linejoin:miter;stroke-miterlimit:10;stroke-dasharray:none;stroke-opacity:1"
             d="m 2964.31,3275.27 0,-283.45" /><path
             id="path46"
             style="fill:none;stroke:#000000;stroke-width:9.44849968;stroke-linecap:butt;stroke-linejoin:miter;stroke-miterlimit:10;stroke-dasharray:none;stroke-opacity:1"
             d="m 2964.31,2424.91 0,-283.46" /><path
             id="path48"
             style="fill:none;stroke:#000000;stroke-width:9.44849968;stroke-linecap:butt;stroke-linejoin:miter;stroke-miterlimit:10;stroke-dasharray:none;stroke-opacity:1"
             d="m 2964.31,1149.36 0,-283.454" /><g
             transform="scale(10,10)"
             id="g50"><text
               id="text52"
               style="font-variant:normal;font-weight:normal;font-size:20.7866993px;font-family:Times;-inkscape-font-specification:Times-Roman;writing-mode:lr-tb;fill:#000000;fill-opacity:1;fill-rule:nonzero;stroke:none"
               transform="matrix(1,0,0,-1,287.928,336.031)"><tspan
                 id="tspan54"
                 y="0"
                 x="0 12.700674">L1</tspan><tspan
                 id="tspan56"
                 y="70.863701"
                 x="0 12.700674">L2</tspan><tspan
                 id="tspan58"
                 y="164.4039"
                 x="-2.83477 12.173227 27.181225">DDR</tspan><tspan
                 id="tspan60"
                 y="291.95889"
                 x="0 15.007998 21.929968 33.487373">DISK</tspan></text>
<text
               id="text62"
               style="font-variant:normal;font-weight:normal;font-size:22.67639923px;font-family:Times;-inkscape-font-specification:Times-Roman;writing-mode:lr-tb;fill:#000000;fill-opacity:1;fill-rule:nonzero;stroke:none"
               transform="matrix(1,0,0,-1,10.142,409.7291)"><tspan
                 id="tspan64"
                 y="0"
                 x="0 11.3382 27.710562">1KB</tspan></text>
<text
               id="text66"
               style="font-variant:normal;font-weight:normal;font-size:20.7866993px;font-family:Times;-inkscape-font-specification:Times-Roman;writing-mode:lr-tb;fill:#000000;fill-opacity:1;fill-rule:nonzero;stroke:none"
               transform="matrix(1,0,0,-1,10.142,341.6998)"><tspan
                 id="tspan68"
                 y="0"
                 x="0 10.39335 20.786699 35.794697">64KB</tspan><tspan
                 id="tspan70"
                 y="68.029297"
                 x="-5.6691399 4.7242098 15.11756 25.51091 40.518906">256KB</tspan><tspan
                 id="tspan72"
                 y="-113.3817"
                 x="0 11.557405 18.479376 31.18005">SIZE</tspan><tspan
                 id="tspan74"
                 y="167.2383"
                 x="-2.8343799 7.55897 19.282669 29.67602 44.684017">1−2GB</tspan><tspan
                 id="tspan76"
                 y="283.45529"
                 x="-8.50352 1.88983 13.613529 24.006878 34.40023 49.408226 76.532814 87.778419 98.171768 108.56512 120.28882 130.68216 141.07552 151.46887">4−64GB~25−50us</tspan><tspan
                 id="tspan78"
                 y="170.0733"
                 x="73.698479 84.944084 95.337433 105.73078 117.45448 127.84783 138.24118 148.63454 159.02788">~50−100ns</tspan><tspan
                 id="tspan80"
                 y="70.863899"
                 x="82.202003 93.447601 103.84096 115.56465 125.958 136.35135 146.74471">~5−10ns</tspan><tspan
                 id="tspan82"
                 y="0.00019999999"
                 x="93.540298 104.7859 115.17925 125.5726">~1ns</tspan><tspan
                 id="tspan84"
                 y="-70.863503"
                 x="85.036392 96.281998 106.67535 117.0687 127.46204 137.85539">~300ps</tspan><tspan
                 id="tspan86"
                 y="-113.3819"
                 x="85.036392 96.593796 108.1512 120.85188 133.55255">SPEED</tspan></text>
<text
               id="text88"
               style="font-variant:normal;font-weight:normal;font-size:11.33819962px;font-family:Times;-inkscape-font-specification:Times-Roman;writing-mode:lr-tb;fill:#000000;fill-opacity:1;fill-rule:nonzero;stroke:none"
               transform="matrix(1,0,0,-1,262.41739,398.3907)"><tspan
                 id="tspan90"
                 y="0"
                 x="0 3.7756207 11.3382 18.265841 26.452021 30.227642 36.531681 43.45932 50.386959 57.949539 64.253578">(REGISTERS)</tspan></text>
<text
               id="text92"
               style="font-variant:normal;font-weight:normal;font-size:20.7866993px;font-family:Times;-inkscape-font-specification:Times-Roman;writing-mode:lr-tb;fill:#000000;fill-opacity:1;fill-rule:nonzero;stroke:none"
               transform="matrix(1,0,0,-1,276.59009,421.0673)"><tspan
                 id="tspan94"
                 y="0"
                 x="0 13.864729 25.422134">CPU</tspan></text>
</g></g></g></g></g></svg>