<?xml version="1.0" encoding="UTF-8" standalone="no"?>
<svg
   xmlns:dc="http://purl.org/dc/elements/1.1/"
   xmlns:cc="http://creativecommons.org/ns#"
   xmlns:rdf="http://www.w3.org/1999/02/22-rdf-syntax-ns#"
   xmlns:svg="http://www.w3.org/2000/svg"
   xmlns="http://www.w3.org/2000/svg"
   viewBox="0 0 1068.75 217.5"
   height="217.5"
   width="1068.75"
   xml:space="preserve"
   version="1.1"
   id="svg2"><metadata
     id="metadata8"><rdf:RDF><cc:Work
         rdf:about=""><dc:format>image/svg+xml</dc:format><dc:type
           rdf:resource="http://purl.org/dc/dcmitype/StillImage" /></cc:Work></rdf:RDF></metadata><defs
     id="defs6"><clipPath
       id="clipPath18"
       clipPathUnits="userSpaceOnUse"><path
         id="path20"
         d="m 6.80078,6 8530.00002,0 0,1720 -8530.00002,0 0,-1720 z" /></clipPath></defs><g
     transform="matrix(1.25,0,0,-1.25,0,217.5)"
     id="g10"><g
       transform="scale(0.1,0.1)"
       id="g12"><g
         id="g14"><g
           clip-path="url(#clipPath18)"
           id="g16"><path
             id="path22"
             style="fill:none;stroke:#000000;stroke-width:4.72424984;stroke-linecap:butt;stroke-linejoin:miter;stroke-miterlimit:10;stroke-dasharray:none;stroke-opacity:1"
             d="m 14.0742,1147.18 566.91,0 0,566.91 -566.91,0 0,-566.91 z" /><path
             id="path24"
             style="fill:none;stroke:#000000;stroke-width:4.72424984;stroke-linecap:butt;stroke-linejoin:miter;stroke-miterlimit:10;stroke-dasharray:none;stroke-opacity:1"
             d="m 580.984,1147.18 566.91,0 0,566.91 -566.91,0 0,-566.91 z" /><path
             id="path26"
             style="fill:none;stroke:#000000;stroke-width:4.72424984;stroke-linecap:butt;stroke-linejoin:miter;stroke-miterlimit:10;stroke-dasharray:none;stroke-opacity:1"
             d="m 1147.89,1147.18 566.91,0 0,566.91 -566.91,0 0,-566.91 z" /><path
             id="path28"
             style="fill:none;stroke:#000000;stroke-width:4.72424984;stroke-linecap:butt;stroke-linejoin:miter;stroke-miterlimit:10;stroke-dasharray:none;stroke-opacity:1"
             d="m 1714.8,1147.18 566.91,0 0,566.91 -566.91,0 0,-566.91 z" /><path
             id="path30"
             style="fill:none;stroke:#000000;stroke-width:4.72424984;stroke-linecap:butt;stroke-linejoin:miter;stroke-miterlimit:10;stroke-dasharray:none;stroke-opacity:1"
             d="m 2281.71,1147.18 566.91,0 0,566.91 -566.91,0 0,-566.91 z" /><path
             id="path32"
             style="fill:none;stroke:#000000;stroke-width:4.72424984;stroke-linecap:butt;stroke-linejoin:miter;stroke-miterlimit:10;stroke-dasharray:none;stroke-opacity:1"
             d="m 2848.63,1147.18 566.91,0 0,566.91 -566.91,0 0,-566.91 z" /><path
             id="path34"
             style="fill:none;stroke:#000000;stroke-width:4.72424984;stroke-linecap:butt;stroke-linejoin:miter;stroke-miterlimit:10;stroke-dasharray:none;stroke-opacity:1"
             d="m 3415.54,1147.18 566.91,0 0,566.91 -566.91,0 0,-566.91 z" /><path
             id="path36"
             style="fill:none;stroke:#000000;stroke-width:4.72424984;stroke-linecap:butt;stroke-linejoin:miter;stroke-miterlimit:10;stroke-dasharray:none;stroke-opacity:1"
             d="m 3982.45,1147.18 566.91,0 0,566.91 -566.91,0 0,-566.91 z" /><path
             id="path38"
             style="fill:none;stroke:#000000;stroke-width:4.72424984;stroke-linecap:butt;stroke-linejoin:miter;stroke-miterlimit:10;stroke-dasharray:none;stroke-opacity:1"
             d="m 4549.36,1147.18 566.91,0 0,566.91 -566.91,0 0,-566.91 z" /><path
             id="path40"
             style="fill:none;stroke:#000000;stroke-width:4.72424984;stroke-linecap:butt;stroke-linejoin:miter;stroke-miterlimit:10;stroke-dasharray:none;stroke-opacity:1"
             d="m 5116.27,1147.18 566.91,0 0,566.91 -566.91,0 0,-566.91 z" /><path
             id="path42"
             style="fill:none;stroke:#000000;stroke-width:4.72424984;stroke-linecap:butt;stroke-linejoin:miter;stroke-miterlimit:10;stroke-dasharray:none;stroke-opacity:1"
             d="m 5683.18,1147.18 566.91,0 0,566.91 -566.91,0 0,-566.91 z" /><path
             id="path44"
             style="fill:none;stroke:#000000;stroke-width:4.72424984;stroke-linecap:butt;stroke-linejoin:miter;stroke-miterlimit:10;stroke-dasharray:none;stroke-opacity:1"
             d="m 6250.09,1147.18 566.91,0 0,566.91 -566.91,0 0,-566.91 z" /><path
             id="path46"
             style="fill:none;stroke:#000000;stroke-width:4.72424984;stroke-linecap:butt;stroke-linejoin:miter;stroke-miterlimit:10;stroke-dasharray:none;stroke-opacity:1"
             d="m 6817,1147.18 566.91,0 0,566.91 -566.91,0 0,-566.91 z" /><path
             id="path48"
             style="fill:none;stroke:#000000;stroke-width:4.72424984;stroke-linecap:butt;stroke-linejoin:miter;stroke-miterlimit:10;stroke-dasharray:none;stroke-opacity:1"
             d="m 7383.91,1147.18 566.91,0 0,566.91 -566.91,0 0,-566.91 z" /><path
             id="path50"
             style="fill:none;stroke:#000000;stroke-width:4.72424984;stroke-linecap:butt;stroke-linejoin:miter;stroke-miterlimit:10;stroke-dasharray:none;stroke-opacity:1"
             d="m 7950.82,1147.18 566.91,0 0,566.91 -566.91,0 0,-566.91 z" /><path
             id="path52"
             style="fill:none;stroke:#000000;stroke-width:4.72424984;stroke-linecap:butt;stroke-linejoin:miter;stroke-miterlimit:10;stroke-dasharray:none;stroke-opacity:1"
             d="m 14.0742,580.27 566.91,0 0,566.91 -566.91,0 0,-566.91 z" /><path
             id="path54"
             style="fill:none;stroke:#000000;stroke-width:4.72424984;stroke-linecap:butt;stroke-linejoin:miter;stroke-miterlimit:10;stroke-dasharray:none;stroke-opacity:1"
             d="m 580.984,580.27 566.91,0 0,566.91 -566.91,0 0,-566.91 z" /><path
             id="path56"
             style="fill:none;stroke:#000000;stroke-width:4.72424984;stroke-linecap:butt;stroke-linejoin:miter;stroke-miterlimit:10;stroke-dasharray:none;stroke-opacity:1"
             d="m 1147.89,580.27 566.91,0 0,566.91 -566.91,0 0,-566.91 z" /><path
             id="path58"
             style="fill:none;stroke:#000000;stroke-width:4.72424984;stroke-linecap:butt;stroke-linejoin:miter;stroke-miterlimit:10;stroke-dasharray:none;stroke-opacity:1"
             d="m 1714.8,580.27 566.91,0 0,566.91 -566.91,0 0,-566.91 z" /><path
             id="path60"
             style="fill:none;stroke:#000000;stroke-width:4.72424984;stroke-linecap:butt;stroke-linejoin:miter;stroke-miterlimit:10;stroke-dasharray:none;stroke-opacity:1"
             d="m 2281.71,580.27 566.91,0 0,566.91 -566.91,0 0,-566.91 z" /><path
             id="path62"
             style="fill:none;stroke:#000000;stroke-width:4.72424984;stroke-linecap:butt;stroke-linejoin:miter;stroke-miterlimit:10;stroke-dasharray:none;stroke-opacity:1"
             d="m 2848.63,580.27 566.91,0 0,566.91 -566.91,0 0,-566.91 z" /><path
             id="path64"
             style="fill:none;stroke:#000000;stroke-width:4.72424984;stroke-linecap:butt;stroke-linejoin:miter;stroke-miterlimit:10;stroke-dasharray:none;stroke-opacity:1"
             d="m 3415.54,580.27 566.91,0 0,566.91 -566.91,0 0,-566.91 z" /><path
             id="path66"
             style="fill:none;stroke:#000000;stroke-width:4.72424984;stroke-linecap:butt;stroke-linejoin:miter;stroke-miterlimit:10;stroke-dasharray:none;stroke-opacity:1"
             d="m 3982.45,580.27 566.91,0 0,566.91 -566.91,0 0,-566.91 z" /><path
             id="path68"
             style="fill:none;stroke:#000000;stroke-width:4.72424984;stroke-linecap:butt;stroke-linejoin:miter;stroke-miterlimit:10;stroke-dasharray:none;stroke-opacity:1"
             d="m 4549.36,580.27 566.91,0 0,566.91 -566.91,0 0,-566.91 z" /><path
             id="path70"
             style="fill:none;stroke:#000000;stroke-width:4.72424984;stroke-linecap:butt;stroke-linejoin:miter;stroke-miterlimit:10;stroke-dasharray:none;stroke-opacity:1"
             d="m 5116.27,580.27 566.91,0 0,566.91 -566.91,0 0,-566.91 z" /><path
             id="path72"
             style="fill:none;stroke:#000000;stroke-width:4.72424984;stroke-linecap:butt;stroke-linejoin:miter;stroke-miterlimit:10;stroke-dasharray:none;stroke-opacity:1"
             d="m 5683.18,580.27 566.91,0 0,566.91 -566.91,0 0,-566.91 z" /><path
             id="path74"
             style="fill:none;stroke:#000000;stroke-width:4.72424984;stroke-linecap:butt;stroke-linejoin:miter;stroke-miterlimit:10;stroke-dasharray:none;stroke-opacity:1"
             d="m 6250.09,580.27 566.91,0 0,566.91 -566.91,0 0,-566.91 z" /><path
             id="path76"
             style="fill:none;stroke:#000000;stroke-width:4.72424984;stroke-linecap:butt;stroke-linejoin:miter;stroke-miterlimit:10;stroke-dasharray:none;stroke-opacity:1"
             d="m 6817,580.27 566.91,0 0,566.91 -566.91,0 0,-566.91 z" /><path
             id="path78"
             style="fill:none;stroke:#000000;stroke-width:4.72424984;stroke-linecap:butt;stroke-linejoin:miter;stroke-miterlimit:10;stroke-dasharray:none;stroke-opacity:1"
             d="m 7383.91,580.27 566.91,0 0,566.91 -566.91,0 0,-566.91 z" /><path
             id="path80"
             style="fill:none;stroke:#000000;stroke-width:4.72424984;stroke-linecap:butt;stroke-linejoin:miter;stroke-miterlimit:10;stroke-dasharray:none;stroke-opacity:1"
             d="m 7950.82,580.27 566.91,0 0,566.91 -566.91,0 0,-566.91 z" /><path
             id="path82"
             style="fill:none;stroke:#000000;stroke-width:4.72424984;stroke-linecap:butt;stroke-linejoin:miter;stroke-miterlimit:10;stroke-dasharray:none;stroke-opacity:1"
             d="m 14.0742,13.3594 566.91,0 0,566.91 -566.91,0 0,-566.91 z" /><path
             id="path84"
             style="fill:none;stroke:#000000;stroke-width:4.72424984;stroke-linecap:butt;stroke-linejoin:miter;stroke-miterlimit:10;stroke-dasharray:none;stroke-opacity:1"
             d="m 580.984,13.3594 566.91,0 0,566.91 -566.91,0 0,-566.91 z" /><path
             id="path86"
             style="fill:none;stroke:#000000;stroke-width:4.72424984;stroke-linecap:butt;stroke-linejoin:miter;stroke-miterlimit:10;stroke-dasharray:none;stroke-opacity:1"
             d="m 1147.89,13.3594 566.91,0 0,566.91 -566.91,0 0,-566.91 z" /><path
             id="path88"
             style="fill:none;stroke:#000000;stroke-width:4.72424984;stroke-linecap:butt;stroke-linejoin:miter;stroke-miterlimit:10;stroke-dasharray:none;stroke-opacity:1"
             d="m 1714.8,13.3594 566.91,0 0,566.91 -566.91,0 0,-566.91 z" /><path
             id="path90"
             style="fill:none;stroke:#000000;stroke-width:4.72424984;stroke-linecap:butt;stroke-linejoin:miter;stroke-miterlimit:10;stroke-dasharray:none;stroke-opacity:1"
             d="m 2281.71,13.3594 566.91,0 0,566.91 -566.91,0 0,-566.91 z" /><path
             id="path92"
             style="fill:none;stroke:#000000;stroke-width:4.72424984;stroke-linecap:butt;stroke-linejoin:miter;stroke-miterlimit:10;stroke-dasharray:none;stroke-opacity:1"
             d="m 2848.63,13.3594 566.91,0 0,566.91 -566.91,0 0,-566.91 z" /><path
             id="path94"
             style="fill:none;stroke:#000000;stroke-width:4.72424984;stroke-linecap:butt;stroke-linejoin:miter;stroke-miterlimit:10;stroke-dasharray:none;stroke-opacity:1"
             d="m 3415.54,13.3594 566.91,0 0,566.91 -566.91,0 0,-566.91 z" /><path
             id="path96"
             style="fill:none;stroke:#000000;stroke-width:4.72424984;stroke-linecap:butt;stroke-linejoin:miter;stroke-miterlimit:10;stroke-dasharray:none;stroke-opacity:1"
             d="m 3982.45,13.3594 566.91,0 0,566.91 -566.91,0 0,-566.91 z" /><path
             id="path98"
             style="fill:none;stroke:#000000;stroke-width:4.72424984;stroke-linecap:butt;stroke-linejoin:miter;stroke-miterlimit:10;stroke-dasharray:none;stroke-opacity:1"
             d="m 4549.36,13.3594 566.91,0 0,566.91 -566.91,0 0,-566.91 z" /><path
             id="path100"
             style="fill:none;stroke:#000000;stroke-width:4.72424984;stroke-linecap:butt;stroke-linejoin:miter;stroke-miterlimit:10;stroke-dasharray:none;stroke-opacity:1"
             d="m 5116.27,13.3594 566.91,0 0,566.91 -566.91,0 0,-566.91 z" /><path
             id="path102"
             style="fill:none;stroke:#000000;stroke-width:4.72424984;stroke-linecap:butt;stroke-linejoin:miter;stroke-miterlimit:10;stroke-dasharray:none;stroke-opacity:1"
             d="m 5683.18,13.3594 566.91,0 0,566.91 -566.91,0 0,-566.91 z" /><path
             id="path104"
             style="fill:none;stroke:#000000;stroke-width:4.72424984;stroke-linecap:butt;stroke-linejoin:miter;stroke-miterlimit:10;stroke-dasharray:none;stroke-opacity:1"
             d="m 6250.09,13.3594 566.91,0 0,566.91 -566.91,0 0,-566.91 z" /><path
             id="path106"
             style="fill:none;stroke:#000000;stroke-width:4.72424984;stroke-linecap:butt;stroke-linejoin:miter;stroke-miterlimit:10;stroke-dasharray:none;stroke-opacity:1"
             d="m 6817,13.3594 566.91,0 0,566.91 -566.91,0 0,-566.91 z" /><path
             id="path108"
             style="fill:none;stroke:#000000;stroke-width:4.72424984;stroke-linecap:butt;stroke-linejoin:miter;stroke-miterlimit:10;stroke-dasharray:none;stroke-opacity:1"
             d="m 7383.91,13.3594 566.91,0 0,566.91 -566.91,0 0,-566.91 z" /><path
             id="path110"
             style="fill:none;stroke:#000000;stroke-width:4.72424984;stroke-linecap:butt;stroke-linejoin:miter;stroke-miterlimit:10;stroke-dasharray:none;stroke-opacity:1"
             d="m 7950.82,13.3594 566.91,0 0,566.91 -566.91,0 0,-566.91 z" /><g
             transform="scale(10,10)"
             id="g112"><text
               id="text114"
               style="font-variant:normal;font-weight:normal;font-size:18.89699936px;font-family:Times;-inkscape-font-specification:Times-Roman;writing-mode:lr-tb;fill:#000000;fill-opacity:1;fill-rule:nonzero;stroke:none"
               transform="matrix(1,0,0,-1,7.07656,134.56)"><tspan
                 id="tspan116"
                 y="0"
                 x="0 6.2927008 15.741201 20.46545 29.913952 53.85664 60.149342 69.597839 74.32209 83.770592 110.54764 116.84034 126.28884 131.01309 140.46159 167.23863 173.53134 182.97984 187.70409 197.15259 226.76401 233.0567 242.5052 247.22945 256.67795 280.62027 286.91296 296.36145 301.08572 310.53421 337.31125 343.60397 353.05246 357.7767 367.22522 396.83701 403.1297 412.57819 417.30246 426.75095 450.69327 456.98596 466.43445 471.15872 480.60721 507.38425 513.67694 523.12549 527.84973 537.29822 546.7467 564.07532 570.36798 579.81653 584.54077 593.98926 603.43774 620.76636 627.05902 636.50751 641.23181 650.6803 660.12878 680.29218 686.58484 696.03333 700.75763 710.20612 719.6546 734.14844 740.44116 749.88965 754.61389 764.06238 773.51086 793.67426 799.96692 809.41547 814.13971 823.5882 833.03668">(0,0)(0,1)(0,2)(0,3)(0,4)(0,5)(0,6)(0,7)(0,8)(0,10)(0,11)(0,12)(0,13)(0,14)(0,15)</tspan><tspan
                 id="tspan118"
                 y="56.691002"
                 x="0 6.2927008 15.741201 20.46545 29.913952 53.85664 60.149342 69.597839 74.32209 83.770592 110.54764 116.84034 126.28884 131.01309 140.46159 167.23863 173.53134 182.97984 187.70409 197.15259 226.76401 233.0567 242.5052 247.22945 256.67795 280.62027 286.91296 296.36145 301.08572 310.53421 337.31125 343.60397 353.05246 357.7767 367.22522 396.83701 403.1297 412.57819 417.30246 426.75095 450.69327 456.98596 466.43445 471.15872 480.60721 507.38425 513.67694 523.12549 527.84973 537.29822 546.7467 564.07532 570.36798 579.81653 584.54077 593.98926 603.43774 620.76636 627.05902 636.50751 641.23181 650.6803 660.12878 680.29218 686.58484 696.03333 700.75763 710.20612 719.6546 734.14844 740.44116 749.88965 754.61389 764.06238 773.51086 793.67426 799.96692 809.41547 814.13971 823.5882 833.03668">(1,0)(1,1)(1,2)(1,3)(1,4)(1,5)(1,6)(1,7)(1,8)(1,10)(1,11)(1,12)(1,13)(1,14)(1,15)</tspan><tspan
                 id="tspan120"
                 y="113.382"
                 x="0 6.2927008 15.741201 20.46545 29.913952 53.85664 60.149342 69.597839 74.32209 83.770592 110.54764 116.84034 126.28884 131.01309 140.46159 167.23863 173.53134 182.97984 187.70409 197.15259 226.76401 233.0567 242.5052 247.22945 256.67795 280.62027 286.91296 296.36145 301.08572 310.53421 337.31125 343.60397 353.05246 357.7767 367.22522 396.83701 403.1297 412.57819 417.30246 426.75095 450.69327 456.98596 466.43445 471.15872 480.60721 507.38425 513.67694 523.12549 527.84973 537.29822 546.7467 564.07532 570.36798 579.81653 584.54077 593.98926 603.43774 620.76636 627.05902 636.50751 641.23181 650.6803 660.12878 680.29218 686.58484 696.03333 700.75763 710.20612 719.6546 734.14844 740.44116 749.88965 754.61389 764.06238 773.51086 793.67426 799.96692 809.41547 814.13971 823.5882 833.03668">(2,0)(2,1)(2,2)(2,3)(2,4)(2,5)(2,6)(2,7)(2,8)(2,10)(2,11)(2,12)(2,13)(2,14)(2,15)</tspan></text>
</g></g></g></g></g></svg>