<?xml version="1.0" encoding="UTF-8" standalone="no"?>
<svg
   xmlns:dc="http://purl.org/dc/elements/1.1/"
   xmlns:cc="http://creativecommons.org/ns#"
   xmlns:rdf="http://www.w3.org/1999/02/22-rdf-syntax-ns#"
   xmlns:svg="http://www.w3.org/2000/svg"
   xmlns="http://www.w3.org/2000/svg"
   viewBox="0 0 650 998.75"
   height="998.75"
   width="650"
   xml:space="preserve"
   version="1.1"
   id="svg2"><metadata
     id="metadata8"><rdf:RDF><cc:Work
         rdf:about=""><dc:format>image/svg+xml</dc:format><dc:type
           rdf:resource="http://purl.org/dc/dcmitype/StillImage" /></cc:Work></rdf:RDF></metadata><defs
     id="defs6"><clipPath
       id="clipPath18"
       clipPathUnits="userSpaceOnUse"><path
         id="path20"
         d="m 6.80078,6.40234 5160.00002,0 0,7969.99996 -5160.00002,0 0,-7969.99996 z" /></clipPath><clipPath
       id="clipPath42"
       clipPathUnits="userSpaceOnUse"><path
         style="clip-rule:evenodd"
         id="path44"
         d="m 6.80078,7976.4 0,-7969.99766 5159.99922,0 0,7969.99766 -5159.99922,0 z M 2562.56,5010.82 l 0,-180.78 75.59,0 0,180.78 0,0 -37.79,-151.18 -37.8,151.18 z" /></clipPath><clipPath
       id="clipPath52"
       clipPathUnits="userSpaceOnUse"><path
         id="path54"
         d="m 6.80078,6.40234 5160.00002,0 0,7969.99996 -5160.00002,0 0,-7969.99996 z" /></clipPath><clipPath
       id="clipPath64"
       clipPathUnits="userSpaceOnUse"><path
         style="clip-rule:evenodd"
         id="path66"
         d="m 6.80078,7976.4 0,-7969.99766 5159.99922,0 0,7969.99766 -5159.99922,0 z M 3696.38,5010.82 l 0,-180.78 75.59,0 0,180.78 0,0 -37.79,-151.18 -37.8,151.18 z" /></clipPath><clipPath
       id="clipPath74"
       clipPathUnits="userSpaceOnUse"><path
         id="path76"
         d="m 6.80078,6.40234 5160.00002,0 0,7969.99996 -5160.00002,0 0,-7969.99996 z" /></clipPath><clipPath
       id="clipPath86"
       clipPathUnits="userSpaceOnUse"><path
         style="clip-rule:evenodd"
         id="path88"
         d="m 6.80078,7976.4 0,-7969.99766 5159.99922,0 0,7969.99766 -5159.99922,0 z M 3129.47,3026.63 l 0,-180.78 75.59,0 0,180.78 0,0 -37.79,-151.17 -37.8,151.17 z" /></clipPath><clipPath
       id="clipPath96"
       clipPathUnits="userSpaceOnUse"><path
         id="path98"
         d="m 6.80078,6.40234 5160.00002,0 0,7969.99996 -5160.00002,0 0,-7969.99996 z" /></clipPath><clipPath
       id="clipPath116"
       clipPathUnits="userSpaceOnUse"><path
         style="clip-rule:evenodd"
         id="path118"
         d="m 6.80078,7976.4 0,-7969.99766 5159.99922,0 0,7969.99766 -5159.99922,0 z M 1295.2,5481.98 l 180.78,0 0,75.59 -180.78,0 0,0 151.18,-37.79 -151.18,-37.8 z" /></clipPath><clipPath
       id="clipPath126"
       clipPathUnits="userSpaceOnUse"><path
         id="path128"
         d="m 6.80078,6.40234 5160.00002,0 0,7969.99996 -5160.00002,0 0,-7969.99996 z" /></clipPath></defs><g
     transform="matrix(1.25,0,0,-1.25,0,998.75)"
     id="g10"><g
       transform="scale(0.1,0.1)"
       id="g12"><g
         id="g14"><g
           clip-path="url(#clipPath18)"
           id="g16"><path
             id="path22"
             style="fill:#d9d9d9;fill-opacity:1;fill-rule:evenodd;stroke:none"
             d="m 20.9141,20.75 5130.54,0 0,7936.74 -5130.54,0 0,-7936.74 z" /><path
             id="path24"
             style="fill:none;stroke:#000000;stroke-width:9.44849968;stroke-linecap:butt;stroke-linejoin:miter;stroke-miterlimit:10;stroke-dasharray:none;stroke-opacity:1"
             d="m 20.9141,20.75 5130.54,0 0,7936.74 -5130.54,0 0,-7936.74 z" /><path
             id="path26"
             style="fill:none;stroke:#000000;stroke-width:9.44849968;stroke-linecap:butt;stroke-linejoin:miter;stroke-miterlimit:10;stroke-dasharray:none;stroke-opacity:1"
             d="m 1466.54,5406.39 3401.46,0 0,2267.64 -3401.46,0 0,-2267.64 z" /><path
             id="path28"
             style="fill:none;stroke:#000000;stroke-width:9.44849968;stroke-linecap:butt;stroke-linejoin:miter;stroke-miterlimit:10;stroke-dasharray:none;stroke-opacity:1"
             d="m 2033.45,3422.21 2267.64,0 0,1417.27 -2267.64,0 0,-1417.27 z" /><path
             id="path30"
             style="fill:none;stroke:#000000;stroke-width:9.44849968;stroke-linecap:butt;stroke-linejoin:miter;stroke-miterlimit:10;stroke-dasharray:none;stroke-opacity:1"
             d="m 2316.9,587.66 1700.73,0 0,2267.64 -1700.73,0 0,-2267.64 z" /><path
             id="path32"
             style="fill:none;stroke:#000000;stroke-width:9.44849968;stroke-linecap:butt;stroke-linejoin:miter;stroke-miterlimit:10;stroke-dasharray:none;stroke-opacity:1"
             d="m 1466.54,7107.13 3401.46,0" /><path
             id="path34"
             style="fill:none;stroke:#000000;stroke-width:9.44849968;stroke-linecap:butt;stroke-linejoin:miter;stroke-miterlimit:10;stroke-dasharray:none;stroke-opacity:1"
             d="m 1438.19,6256.76 3401.46,0" /><path
             id="path36"
             style="fill:none;stroke:#000000;stroke-width:9.44849968;stroke-linecap:butt;stroke-linejoin:miter;stroke-miterlimit:10;stroke-dasharray:none;stroke-opacity:1"
             d="m 3167.27,7107.13 0,-822.02" /></g></g><g
         id="g38"><g
           clip-path="url(#clipPath42)"
           id="g40"><path
             id="path46"
             style="fill:none;stroke:#000000;stroke-width:9.44849968;stroke-linecap:butt;stroke-linejoin:miter;stroke-miterlimit:10;stroke-dasharray:none;stroke-opacity:1"
             d="m 2600.36,5406.39 0,-566.91" /></g></g><g
         id="g48"><g
           clip-path="url(#clipPath52)"
           id="g50"><path
             id="path56"
             style="fill:#000000;fill-opacity:1;fill-rule:evenodd;stroke:none"
             d="m 2562.56,5010.82 37.8,-151.18 37.79,151.18 -75.59,0" /><path
             id="path58"
             style="fill:none;stroke:#000000;stroke-width:9.44849968;stroke-linecap:butt;stroke-linejoin:miter;stroke-miterlimit:10;stroke-dasharray:none;stroke-opacity:1"
             d="m 2562.56,5010.82 37.8,-151.18 37.79,151.18 -75.59,0 z" /></g></g><g
         id="g60"><g
           clip-path="url(#clipPath64)"
           id="g62"><path
             id="path68"
             style="fill:none;stroke:#000000;stroke-width:9.44849968;stroke-linecap:butt;stroke-linejoin:miter;stroke-miterlimit:10;stroke-dasharray:none;stroke-opacity:1"
             d="m 3734.18,5406.39 0,-566.91" /></g></g><g
         id="g70"><g
           clip-path="url(#clipPath74)"
           id="g72"><path
             id="path78"
             style="fill:#000000;fill-opacity:1;fill-rule:evenodd;stroke:none"
             d="m 3696.38,5010.82 37.8,-151.18 37.79,151.18 -75.59,0" /><path
             id="path80"
             style="fill:none;stroke:#000000;stroke-width:9.44849968;stroke-linecap:butt;stroke-linejoin:miter;stroke-miterlimit:10;stroke-dasharray:none;stroke-opacity:1"
             d="m 3696.38,5010.82 37.8,-151.18 37.79,151.18 -75.59,0 z" /></g></g><g
         id="g82"><g
           clip-path="url(#clipPath86)"
           id="g84"><path
             id="path90"
             style="fill:none;stroke:#000000;stroke-width:9.44849968;stroke-linecap:butt;stroke-linejoin:miter;stroke-miterlimit:10;stroke-dasharray:none;stroke-opacity:1"
             d="m 3167.27,3422.21 0,-566.91" /></g></g><g
         id="g92"><g
           clip-path="url(#clipPath96)"
           id="g94"><path
             id="path100"
             style="fill:#000000;fill-opacity:1;fill-rule:evenodd;stroke:none"
             d="m 3129.47,3026.63 37.8,-151.17 37.79,151.17 -75.59,0" /><path
             id="path102"
             style="fill:none;stroke:#000000;stroke-width:9.44849968;stroke-linecap:butt;stroke-linejoin:miter;stroke-miterlimit:10;stroke-dasharray:none;stroke-opacity:1"
             d="m 3129.47,3026.63 37.8,-151.17 37.79,151.17 -75.59,0 z" /><path
             id="path104"
             style="fill:none;stroke:#000000;stroke-width:9.44849968;stroke-linecap:butt;stroke-linejoin:miter;stroke-miterlimit:10;stroke-dasharray:none;stroke-opacity:1"
             d="M 2713.74,5293.01 2486.97,5094.59" /><path
             id="path106"
             style="fill:none;stroke:#000000;stroke-width:9.44849968;stroke-linecap:butt;stroke-linejoin:miter;stroke-miterlimit:10;stroke-dasharray:none;stroke-opacity:1"
             d="M 3847.56,5321.36 3620.79,5122.94" /><path
             id="path108"
             style="fill:none;stroke:#000000;stroke-width:9.44849968;stroke-linecap:butt;stroke-linejoin:miter;stroke-miterlimit:10;stroke-dasharray:none;stroke-opacity:1"
             d="M 3308.99,3337.17 3082.23,3138.75" /><path
             id="path110"
             style="fill:none;stroke:#000000;stroke-width:9.44849968;stroke-linecap:butt;stroke-linejoin:miter;stroke-miterlimit:10;stroke-dasharray:none;stroke-opacity:1"
             d="m 1466.54,5831.58 1729.07,0 0,-425.19" /></g></g><g
         id="g112"><g
           clip-path="url(#clipPath116)"
           id="g114"><path
             id="path120"
             style="fill:none;stroke:#000000;stroke-width:9.44849968;stroke-linecap:butt;stroke-linejoin:miter;stroke-miterlimit:10;stroke-dasharray:none;stroke-opacity:1"
             d="m 304.371,5519.78 1162.169,0" /></g></g><g
         id="g122"><g
           clip-path="url(#clipPath126)"
           id="g124"><path
             id="path130"
             style="fill:#000000;fill-opacity:1;fill-rule:evenodd;stroke:none"
             d="m 1295.2,5481.98 151.18,37.8 -151.18,37.79 0,-75.59" /><path
             id="path132"
             style="fill:none;stroke:#000000;stroke-width:9.44849968;stroke-linecap:butt;stroke-linejoin:miter;stroke-miterlimit:10;stroke-dasharray:none;stroke-opacity:1"
             d="m 1295.2,5481.98 151.18,37.8 -151.18,37.79 0,-75.59 z" /></g></g><g
         transform="scale(10,10)"
         id="g134"><text
           id="text136"
           style="font-variant:normal;font-weight:normal;font-size:24.78709984px;font-family:CMTT12;-inkscape-font-specification:CMTT12;writing-mode:lr-tb;fill:#000000;fill-opacity:1;fill-rule:nonzero;stroke:none"
           transform="matrix(1,0,0,-1,248.72,742)"><tspan
             id="tspan138"
             y="0"
             x="0 12.720013 25.440025 51.000061 63.720074 76.440086 89.160103 101.88013 114.60015 140.28026 153.00027">ARMCORTEXA9</tspan><tspan
             id="tspan140"
             y="530.15997"
             x="-5.6398401 7.0801725 19.800186 32.520199 58.080158 70.800171 83.520187 96.240196 108.96024 121.68024 134.40025 147.12027 159.84029">DRAMSubSystem</tspan><tspan
             id="tspan142"
             y="144.60001"
             x="5.6402602 18.360273 43.920383 56.640396 69.360405 82.080421 94.800461 120.48064 133.20065 145.92067 171.4807 184.20071 196.92067">L1CACHE(32KB)</tspan><tspan
             id="tspan144"
             y="334.56"
             x="-22.68004 -9.9600277 15.600083 28.320095 41.040108 53.76012 66.480156 92.160339 104.88035 117.60036 130.32037 155.88034 168.60036 181.32031 206.88033 232.44049 245.16049 257.88046">L2Cache(512KB)8way</tspan><tspan
             id="tspan146"
             y="187.2"
             x="-53.880039 -41.160027 -28.440014 -15.720002 -2.9999647 22.680214 35.400227 48.120239 60.840252">SNOOPUNIT</tspan><tspan
             id="tspan148"
             y="181.43983"
             x="-195.60004 -182.88002 -170.16002">ACP</tspan><tspan
             id="tspan150"
             y="76.559837"
             x="-59.520039 -46.800041 -34.080029 -21.360014 119.04031 131.76033 144.48035 157.20035">CPU0CPU1</tspan></text>
</g></g></g></svg>