<?xml version="1.0" encoding="UTF-8" standalone="no"?>
<svg
   xmlns:dc="http://purl.org/dc/elements/1.1/"
   xmlns:cc="http://creativecommons.org/ns#"
   xmlns:rdf="http://www.w3.org/1999/02/22-rdf-syntax-ns#"
   xmlns:svg="http://www.w3.org/2000/svg"
   xmlns="http://www.w3.org/2000/svg"
   viewBox="0 0 365 536.25"
   height="536.25"
   width="365"
   xml:space="preserve"
   version="1.1"
   id="svg2"><metadata
     id="metadata8"><rdf:RDF><cc:Work
         rdf:about=""><dc:format>image/svg+xml</dc:format><dc:type
           rdf:resource="http://purl.org/dc/dcmitype/StillImage" /></cc:Work></rdf:RDF></metadata><defs
     id="defs6"><clipPath
       id="clipPath18"
       clipPathUnits="userSpaceOnUse"><path
         id="path20"
         d="m 6.80078,14.8008 2900.00002,0 0,4270 -2900.00002,0 0,-4270 z" /></clipPath><clipPath
       id="clipPath52"
       clipPathUnits="userSpaceOnUse"><path
         style="clip-rule:evenodd"
         id="path54"
         d="m 6.80078,4284.8 0,-4269.9992 2899.99922,0 0,4269.9992 -2899.99922,0 z M 342.141,2489.03 l 0,-95.12 37.793,0 0,95.12 0,0 -18.895,-75.59 -18.898,75.59 z" /></clipPath><clipPath
       id="clipPath62"
       clipPathUnits="userSpaceOnUse"><path
         id="path64"
         d="m 6.80078,14.8008 2900.00002,0 0,4270 -2900.00002,0 0,-4270 z" /></clipPath></defs><g
     transform="matrix(1.25,0,0,-1.25,0,536.25)"
     id="g10"><g
       transform="scale(0.1,0.1)"
       id="g12"><g
         id="g14"><g
           clip-path="url(#clipPath18)"
           id="g16"><path
             id="path22"
             style="fill:#87cfff;fill-opacity:1;fill-rule:evenodd;stroke:none"
             d="m 871.258,3565.52 566.91,0 0,708.641 -566.91,0 0,-708.641 z" /><path
             id="path24"
             style="fill:none;stroke:#000000;stroke-width:4.72424984;stroke-linecap:butt;stroke-linejoin:miter;stroke-miterlimit:10;stroke-dasharray:none;stroke-opacity:1"
             d="m 871.258,3565.52 566.91,0 0,708.641 -566.91,0 0,-708.641 z" /><path
             id="path26"
             style="fill:#87cfff;fill-opacity:1;fill-rule:evenodd;stroke:none"
             d="m 1438.17,2856.89 566.91,0 0,708.637 -566.91,0 0,-708.637 z" /><path
             id="path28"
             style="fill:none;stroke:#000000;stroke-width:4.72424984;stroke-linecap:butt;stroke-linejoin:miter;stroke-miterlimit:10;stroke-dasharray:none;stroke-opacity:1"
             d="m 1438.17,2856.89 566.91,0 0,708.637 -566.91,0 0,-708.637 z" /><path
             id="path30"
             style="fill:#87cfff;fill-opacity:1;fill-rule:evenodd;stroke:none"
             d="m 2005.08,2148.25 566.91,0 0,708.637 -566.91,0 0,-708.637 z" /><path
             id="path32"
             style="fill:none;stroke:#000000;stroke-width:4.72424984;stroke-linecap:butt;stroke-linejoin:miter;stroke-miterlimit:10;stroke-dasharray:none;stroke-opacity:1"
             d="m 2005.08,2148.25 566.91,0 0,708.637 -566.91,0 0,-708.637 z" /><path
             id="path34"
             style="fill:none;stroke:#000000;stroke-width:9.44849968;stroke-linecap:butt;stroke-linejoin:miter;stroke-miterlimit:10;stroke-dasharray:37.794;stroke-dashoffset:0;stroke-opacity:1"
             d="m 20.8906,2148.25 2862.8994,0 -28.35,0" /><path
             id="path36"
             style="fill:#ffbfbf;fill-opacity:1;fill-rule:evenodd;stroke:none"
             d="m 871.258,1439.61 566.91,0 0,708.637 -566.91,0 0,-708.637 z" /><path
             id="path38"
             style="fill:none;stroke:#000000;stroke-width:4.72424984;stroke-linecap:butt;stroke-linejoin:miter;stroke-miterlimit:10;stroke-dasharray:none;stroke-opacity:1"
             d="m 871.258,1439.61 566.91,0 0,708.637 -566.91,0 0,-708.637 z" /><path
             id="path40"
             style="fill:#ffbfbf;fill-opacity:1;fill-rule:evenodd;stroke:none"
             d="m 1438.17,730.977 566.91,0 0,708.637 -566.91,0 0,-708.637 z" /><path
             id="path42"
             style="fill:none;stroke:#000000;stroke-width:4.72424984;stroke-linecap:butt;stroke-linejoin:miter;stroke-miterlimit:10;stroke-dasharray:none;stroke-opacity:1"
             d="m 1438.17,730.977 566.91,0 0,708.637 -566.91,0 0,-708.637 z" /><path
             id="path44"
             style="fill:#ffbfbf;fill-opacity:1;fill-rule:evenodd;stroke:none"
             d="m 2005.08,22.3359 566.91,0 0,708.641 -566.91,0 0,-708.641 z" /><path
             id="path46"
             style="fill:none;stroke:#000000;stroke-width:4.72424984;stroke-linecap:butt;stroke-linejoin:miter;stroke-miterlimit:10;stroke-dasharray:none;stroke-opacity:1"
             d="m 2005.08,22.3359 566.91,0 0,708.641 -566.91,0 0,-708.641 z" /></g></g><g
         id="g48"><g
           clip-path="url(#clipPath52)"
           id="g50"><path
             id="path56"
             style="fill:none;stroke:#000000;stroke-width:9.44849968;stroke-linecap:butt;stroke-linejoin:miter;stroke-miterlimit:10;stroke-dasharray:none;stroke-opacity:1"
             d="m 361.039,4245.82 0,-1842.46" /></g></g><g
         id="g58"><g
           clip-path="url(#clipPath62)"
           id="g60"><path
             id="path66"
             style="fill:#000000;fill-opacity:1;fill-rule:evenodd;stroke:none"
             d="m 342.141,2489.03 18.898,-75.59 18.895,75.59 -37.793,0" /><path
             id="path68"
             style="fill:none;stroke:#000000;stroke-width:4.72424984;stroke-linecap:butt;stroke-linejoin:miter;stroke-miterlimit:10;stroke-dasharray:none;stroke-opacity:1"
             d="m 342.141,2489.03 18.898,-75.59 18.895,75.59 -37.793,0 z" /><g
             transform="scale(10,10)"
             id="g70"><text
               id="text72"
               style="font-variant:normal;font-weight:normal;font-size:26.4557991px;font-family:Times;-inkscape-font-specification:Times-Roman;writing-mode:lr-tb;fill:#000000;fill-opacity:1;fill-rule:nonzero;stroke:none"
               transform="matrix(1,0,0,-1,101.298,379.229)"><tspan
                 id="tspan74"
                 y="0"
                 x="0 16.164494">L1</tspan><tspan
                 id="tspan76"
                 y="65.194504"
                 x="59.525799 75.690292">L2</tspan><tspan
                 id="tspan78"
                 y="138.8929"
                 x="113.3821 129.5466">L3</tspan><tspan
                 id="tspan80"
                 y="209.75661"
                 x="-2.8339 13.330594">L1</tspan><tspan
                 id="tspan82"
                 y="280.6203"
                 x="56.691502 72.855995">L2</tspan><tspan
                 id="tspan84"
                 y="351.48441"
                 x="116.2173 132.38179">L3</tspan></text>
<text
               id="text86"
               style="font-variant:normal;font-weight:normal;font-size:22.67639923px;font-family:Times;-inkscape-font-specification:Times-Roman;writing-mode:lr-tb;fill:#000000;fill-opacity:1;fill-rule:nonzero;stroke:none"
               transform="matrix(0,1,1,0,21.9313,285.689)"><tspan
                 id="tspan88"
                 y="0"
                 x="0 13.855281 20.159319 37.801559">Time</tspan></text>
</g></g></g></g></g></svg>