<?xml version="1.0" encoding="UTF-8" standalone="no"?>
<svg
   xmlns:dc="http://purl.org/dc/elements/1.1/"
   xmlns:cc="http://creativecommons.org/ns#"
   xmlns:rdf="http://www.w3.org/1999/02/22-rdf-syntax-ns#"
   xmlns:svg="http://www.w3.org/2000/svg"
   xmlns="http://www.w3.org/2000/svg"
   viewBox="0 0 111.25 217.5"
   height="217.5"
   width="111.25"
   xml:space="preserve"
   version="1.1"
   id="svg2"><metadata
     id="metadata8"><rdf:RDF><cc:Work
         rdf:about=""><dc:format>image/svg+xml</dc:format><dc:type
           rdf:resource="http://purl.org/dc/dcmitype/StillImage" /></cc:Work></rdf:RDF></metadata><defs
     id="defs6"><clipPath
       id="clipPath18"
       clipPathUnits="userSpaceOnUse"><path
         id="path20"
         d="m 6.80078,6 870,0 0,1720 -870,0 0,-1720 z" /></clipPath></defs><g
     transform="matrix(1.25,0,0,-1.25,0,217.5)"
     id="g10"><g
       transform="scale(0.1,0.1)"
       id="g12"><g
         id="g14"><g
           clip-path="url(#clipPath18)"
           id="g16"><path
             id="path22"
             style="fill:#87cfff;fill-opacity:1;fill-rule:evenodd;stroke:none"
             d="m 14.7109,13.3594 850.367,0 0,1700.73 -850.367,0 0,-1700.73 z" /><path
             id="path24"
             style="fill:none;stroke:#000000;stroke-width:4.72424984;stroke-linecap:butt;stroke-linejoin:miter;stroke-miterlimit:10;stroke-dasharray:none;stroke-opacity:1"
             d="m 14.7109,13.3594 850.367,0 0,1700.73 -850.367,0 0,-1700.73 z" /><path
             id="path26"
             style="fill:#ffffff;fill-opacity:1;fill-rule:evenodd;stroke:none"
             d="m 14.7109,1147.18 283.457,0 0,566.91 -283.457,0 0,-566.91 z" /><path
             id="path28"
             style="fill:none;stroke:#000000;stroke-width:4.72424984;stroke-linecap:butt;stroke-linejoin:miter;stroke-miterlimit:10;stroke-dasharray:none;stroke-opacity:1"
             d="m 14.7109,1147.18 283.457,0 0,566.91 -283.457,0 0,-566.91 z" /><path
             id="path30"
             style="fill:#ffffff;fill-opacity:1;fill-rule:evenodd;stroke:none"
             d="m 298.168,863.727 283.453,0 0,566.91 -283.453,0 0,-566.91 z" /><path
             id="path32"
             style="fill:none;stroke:#000000;stroke-width:4.72424984;stroke-linecap:butt;stroke-linejoin:miter;stroke-miterlimit:10;stroke-dasharray:none;stroke-opacity:1"
             d="m 298.168,863.727 283.453,0 0,566.91 -283.453,0 0,-566.91 z" /><path
             id="path34"
             style="fill:#ffffff;fill-opacity:1;fill-rule:evenodd;stroke:none"
             d="m 14.7109,580.27 283.457,0 0,566.91 -283.457,0 0,-566.91 z" /><path
             id="path36"
             style="fill:none;stroke:#000000;stroke-width:4.72424984;stroke-linecap:butt;stroke-linejoin:miter;stroke-miterlimit:10;stroke-dasharray:none;stroke-opacity:1"
             d="m 14.7109,580.27 283.457,0 0,566.91 -283.457,0 0,-566.91 z" /><path
             id="path38"
             style="fill:#ffffff;fill-opacity:1;fill-rule:evenodd;stroke:none"
             d="m 298.168,296.816 283.453,0 0,566.91 -283.453,0 0,-566.91 z" /><path
             id="path40"
             style="fill:none;stroke:#000000;stroke-width:4.72424984;stroke-linecap:butt;stroke-linejoin:miter;stroke-miterlimit:10;stroke-dasharray:none;stroke-opacity:1"
             d="m 298.168,296.816 283.453,0 0,566.91 -283.453,0 0,-566.91 z" /><path
             id="path42"
             style="fill:#ffffff;fill-opacity:1;fill-rule:evenodd;stroke:none"
             d="m 581.621,580.27 283.457,0 0,566.91 -283.457,0 0,-566.91 z" /><path
             id="path44"
             style="fill:none;stroke:#000000;stroke-width:4.72424984;stroke-linecap:butt;stroke-linejoin:miter;stroke-miterlimit:10;stroke-dasharray:none;stroke-opacity:1"
             d="m 581.621,580.27 283.457,0 0,566.91 -283.457,0 0,-566.91 z" /><path
             id="path46"
             style="fill:#ffffff;fill-opacity:1;fill-rule:evenodd;stroke:none"
             d="m 581.621,13.3594 283.457,0 0,566.91 -283.457,0 0,-566.91 z" /><path
             id="path48"
             style="fill:none;stroke:#000000;stroke-width:4.72424984;stroke-linecap:butt;stroke-linejoin:miter;stroke-miterlimit:10;stroke-dasharray:none;stroke-opacity:1"
             d="m 581.621,13.3594 283.457,0 0,566.91 -283.457,0 0,-566.91 z" /><g
             transform="scale(10,10)"
             id="g50"><text
               id="text52"
               style="font-variant:normal;font-weight:normal;font-size:26.4557991px;font-family:Times;-inkscape-font-specification:Times-Roman;writing-mode:lr-tb;fill:#000000;fill-opacity:1;fill-rule:nonzero;stroke:none"
               transform="matrix(1,0,0,-1,9.975,134.56)"><tspan
                 id="tspan54"
                 y="0"
                 x="0">1</tspan><tspan
                 id="tspan56"
                 y="31.180099"
                 x="28.345301">2</tspan><tspan
                 id="tspan58"
                 y="56.691002"
                 x="59.525398">3</tspan><tspan
                 id="tspan60"
                 y="53.856232"
                 x="-2.8348">4</tspan><tspan
                 id="tspan62"
                 y="85.036331"
                 x="25.5109">5</tspan><tspan
                 id="tspan64"
                 y="110.54723"
                 x="53.856201">6</tspan></text>
</g></g></g></g></g></svg>