<?xml version="1.0" encoding="UTF-8" standalone="no"?>
<svg
   xmlns:dc="http://purl.org/dc/elements/1.1/"
   xmlns:cc="http://creativecommons.org/ns#"
   xmlns:rdf="http://www.w3.org/1999/02/22-rdf-syntax-ns#"
   xmlns:svg="http://www.w3.org/2000/svg"
   xmlns="http://www.w3.org/2000/svg"
   viewBox="0 0 271.25 252.5"
   height="252.5"
   width="271.25"
   xml:space="preserve"
   version="1.1"
   id="svg2"><metadata
     id="metadata8"><rdf:RDF><cc:Work
         rdf:about=""><dc:format>image/svg+xml</dc:format><dc:type
           rdf:resource="http://purl.org/dc/dcmitype/StillImage" /></cc:Work></rdf:RDF></metadata><defs
     id="defs6"><clipPath
       id="clipPath18"
       clipPathUnits="userSpaceOnUse"><path
         id="path20"
         d="m 6.80078,12.8008 2150.00002,0 0,2000 -2150.00002,0 0,-2000 z" /></clipPath></defs><g
     transform="matrix(1.25,0,0,-1.25,0,252.5)"
     id="g10"><g
       transform="scale(0.1,0.1)"
       id="g12"><g
         id="g14"><g
           clip-path="url(#clipPath18)"
           id="g16"><path
             id="path22"
             style="fill:#87cfff;fill-opacity:1;fill-rule:evenodd;stroke:none"
             d="m 14.4414,20.5234 2125.91,0 0,1984.18 -2125.91,0 0,-1984.18 z" /><path
             id="path24"
             style="fill:none;stroke:#000000;stroke-width:4.72424984;stroke-linecap:butt;stroke-linejoin:miter;stroke-miterlimit:10;stroke-dasharray:none;stroke-opacity:1"
             d="m 14.4414,20.5234 2125.91,0 0,1984.18 -2125.91,0 0,-1984.18 z" /><path
             id="path26"
             style="fill:#ffffff;fill-opacity:1;fill-rule:evenodd;stroke:none"
             d="m 14.4414,587.434 708.637,0 0,1417.27 -708.637,0 0,-1417.27 z" /><path
             id="path28"
             style="fill:none;stroke:#000000;stroke-width:4.72424984;stroke-linecap:butt;stroke-linejoin:miter;stroke-miterlimit:10;stroke-dasharray:none;stroke-opacity:1"
             d="m 14.4414,587.434 708.637,0 0,1417.27 -708.637,0 0,-1417.27 z" /><path
             id="path30"
             style="fill:#bf6100;fill-opacity:1;fill-rule:evenodd;stroke:none"
             d="m 297.895,1154.34 283.457,0 0,141.727 -283.457,0 0,-141.727 z" /><path
             id="path32"
             style="fill:none;stroke:#000000;stroke-width:4.72424984;stroke-linecap:butt;stroke-linejoin:miter;stroke-miterlimit:10;stroke-dasharray:none;stroke-opacity:1"
             d="m 297.895,1154.34 283.457,0 0,141.727 -283.457,0 0,-141.727 z" /><g
             transform="scale(10,10)"
             id="g34"><text
               id="text36"
               style="font-variant:normal;font-weight:normal;font-size:34.01459885px;font-family:Times;-inkscape-font-specification:Times-Roman;writing-mode:lr-tb;fill:#000000;fill-opacity:1;fill-rule:nonzero;stroke:none"
               transform="matrix(1,0,0,-1,49.6313,67.2469)"><tspan
                 id="tspan38"
                 y="0"
                 x="0">1</tspan></text>
</g><path
             id="path40"
             style="fill:#bf6100;fill-opacity:1;fill-rule:evenodd;stroke:none"
             d="m 14.4414,1721.25 255.109,0 0,141.727 -255.109,0 0,-141.727 z" /><path
             id="path42"
             style="fill:none;stroke:#000000;stroke-width:4.72424984;stroke-linecap:butt;stroke-linejoin:miter;stroke-miterlimit:10;stroke-dasharray:none;stroke-opacity:1"
             d="m 14.4414,1721.25 255.109,0 0,141.727 -255.109,0 0,-141.727 z" /><path
             id="path44"
             style="fill:#bf6100;fill-opacity:1;fill-rule:evenodd;stroke:none"
             d="m 14.4414,1579.52 425.18,0 0,141.73 -425.18,0 0,-141.73 z" /><path
             id="path46"
             style="fill:none;stroke:#000000;stroke-width:4.72424984;stroke-linecap:butt;stroke-linejoin:miter;stroke-miterlimit:10;stroke-dasharray:none;stroke-opacity:1"
             d="m 14.4414,1579.52 425.18,0 0,141.73 -425.18,0 0,-141.73 z" /><path
             id="path48"
             style="fill:#bf6100;fill-opacity:1;fill-rule:evenodd;stroke:none"
             d="m 14.4414,1437.8 141.727,0 0,141.727 -141.727,0 0,-141.727 z" /><path
             id="path50"
             style="fill:none;stroke:#000000;stroke-width:4.72424984;stroke-linecap:butt;stroke-linejoin:miter;stroke-miterlimit:10;stroke-dasharray:none;stroke-opacity:1"
             d="m 14.4414,1437.8 141.727,0 0,141.727 -141.727,0 0,-141.727 z" /><path
             id="path52"
             style="fill:#bf6100;fill-opacity:1;fill-rule:evenodd;stroke:none"
             d="m 14.4414,1296.07 283.453,0 0,141.727 -283.453,0 0,-141.727 z" /><path
             id="path54"
             style="fill:none;stroke:#000000;stroke-width:4.72424984;stroke-linecap:butt;stroke-linejoin:miter;stroke-miterlimit:10;stroke-dasharray:none;stroke-opacity:1"
             d="m 14.4414,1296.07 283.453,0 0,141.727 -283.453,0 0,-141.727 z" /><path
             id="path56"
             style="fill:#bf6100;fill-opacity:1;fill-rule:evenodd;stroke:none"
             d="m 14.4414,1154.34 283.453,0 0,141.727 -283.453,0 0,-141.727 z" /><path
             id="path58"
             style="fill:none;stroke:#000000;stroke-width:4.72424984;stroke-linecap:butt;stroke-linejoin:miter;stroke-miterlimit:10;stroke-dasharray:none;stroke-opacity:1"
             d="m 14.4414,1154.34 283.453,0 0,141.727 -283.453,0 0,-141.727 z" /><path
             id="path60"
             style="fill:#bf6100;fill-opacity:1;fill-rule:evenodd;stroke:none"
             d="m 14.4414,1012.61 141.727,0 0,141.73 -141.727,0 0,-141.73 z" /><path
             id="path62"
             style="fill:none;stroke:#000000;stroke-width:4.72424984;stroke-linecap:butt;stroke-linejoin:miter;stroke-miterlimit:10;stroke-dasharray:none;stroke-opacity:1"
             d="m 14.4414,1012.61 141.727,0 0,141.73 -141.727,0 0,-141.73 z" /><path
             id="path64"
             style="fill:#bf6100;fill-opacity:1;fill-rule:evenodd;stroke:none"
             d="m 14.4414,870.887 283.453,0 0,141.727 -283.453,0 0,-141.727 z" /><path
             id="path66"
             style="fill:none;stroke:#000000;stroke-width:4.72424984;stroke-linecap:butt;stroke-linejoin:miter;stroke-miterlimit:10;stroke-dasharray:none;stroke-opacity:1"
             d="m 14.4414,870.887 283.453,0 0,141.727 -283.453,0 0,-141.727 z" /><path
             id="path68"
             style="fill:#bf6100;fill-opacity:1;fill-rule:evenodd;stroke:none"
             d="m 581.352,1154.34 141.727,0 0,141.727 -141.727,0 0,-141.727 z" /><path
             id="path70"
             style="fill:none;stroke:#000000;stroke-width:4.72424984;stroke-linecap:butt;stroke-linejoin:miter;stroke-miterlimit:10;stroke-dasharray:none;stroke-opacity:1"
             d="m 581.352,1154.34 141.727,0 0,141.727 -141.727,0 0,-141.727 z" /><path
             id="path72"
             style="fill:#bf6100;fill-opacity:1;fill-rule:evenodd;stroke:none"
             d="m 297.895,1296.07 283.457,0 0,141.727 -283.457,0 0,-141.727 z" /><path
             id="path74"
             style="fill:none;stroke:#000000;stroke-width:4.72424984;stroke-linecap:butt;stroke-linejoin:miter;stroke-miterlimit:10;stroke-dasharray:none;stroke-opacity:1"
             d="m 297.895,1296.07 283.457,0 0,141.727 -283.457,0 0,-141.727 z" /><path
             id="path76"
             style="fill:#bf6100;fill-opacity:1;fill-rule:evenodd;stroke:none"
             d="m 14.4414,587.434 283.453,0 0,141.727 -283.453,0 0,-141.727 z" /><path
             id="path78"
             style="fill:none;stroke:#000000;stroke-width:4.72424984;stroke-linecap:butt;stroke-linejoin:miter;stroke-miterlimit:10;stroke-dasharray:none;stroke-opacity:1"
             d="m 14.4414,587.434 283.453,0 0,141.727 -283.453,0 0,-141.727 z" /><path
             id="path80"
             style="fill:#bf6100;fill-opacity:1;fill-rule:evenodd;stroke:none"
             d="m 14.4414,1862.98 425.18,0 0,141.727 -425.18,0 0,-141.727 z" /><path
             id="path82"
             style="fill:none;stroke:#000000;stroke-width:4.72424984;stroke-linecap:butt;stroke-linejoin:miter;stroke-miterlimit:10;stroke-dasharray:none;stroke-opacity:1"
             d="m 14.4414,1862.98 425.18,0 0,141.727 -425.18,0 0,-141.727 z" /><path
             id="path84"
             style="fill:#ffffff;fill-opacity:1;fill-rule:evenodd;stroke:none"
             d="m 723.078,303.977 708.637,0 0,1417.28 -708.637,0 0,-1417.28 z" /><path
             id="path86"
             style="fill:none;stroke:#000000;stroke-width:4.72424984;stroke-linecap:butt;stroke-linejoin:miter;stroke-miterlimit:10;stroke-dasharray:none;stroke-opacity:1"
             d="m 723.078,303.977 708.637,0 0,1417.28 -708.637,0 0,-1417.28 z" /><path
             id="path88"
             style="fill:#ffffff;fill-opacity:1;fill-rule:evenodd;stroke:none"
             d="m 1431.71,20.5234 708.637,0 0,1417.27 -708.637,0 0,-1417.27 z" /><path
             id="path90"
             style="fill:none;stroke:#000000;stroke-width:4.72424984;stroke-linecap:butt;stroke-linejoin:miter;stroke-miterlimit:10;stroke-dasharray:none;stroke-opacity:1"
             d="m 1431.71,20.5234 708.637,0 0,1417.27 -708.637,0 0,-1417.27 z" /><g
             transform="scale(10,10)"
             id="g92"><text
               id="text94"
               style="font-variant:normal;font-weight:normal;font-size:34.01459885px;font-family:Times;-inkscape-font-specification:Times-Roman;writing-mode:lr-tb;fill:#000000;fill-opacity:1;fill-rule:nonzero;stroke:none"
               transform="matrix(1,0,0,-1,89.3152,84.2543)"><tspan
                 id="tspan96"
                 y="0"
                 x="0">2</tspan><tspan
                 id="tspan98"
                 y="19.841801"
                 x="79.367203">3</tspan></text>
</g></g></g></g></g></svg>