<?xml version="1.0" encoding="UTF-8" standalone="no"?>
<svg
   xmlns:dc="http://purl.org/dc/elements/1.1/"
   xmlns:cc="http://creativecommons.org/ns#"
   xmlns:rdf="http://www.w3.org/1999/02/22-rdf-syntax-ns#"
   xmlns:svg="http://www.w3.org/2000/svg"
   xmlns="http://www.w3.org/2000/svg"
   viewBox="0 0 365 395"
   height="395"
   width="365"
   xml:space="preserve"
   version="1.1"
   id="svg2"><metadata
     id="metadata8"><rdf:RDF><cc:Work
         rdf:about=""><dc:format>image/svg+xml</dc:format><dc:type
           rdf:resource="http://purl.org/dc/dcmitype/StillImage" /></cc:Work></rdf:RDF></metadata><defs
     id="defs6"><clipPath
       id="clipPath18"
       clipPathUnits="userSpaceOnUse"><path
         id="path20"
         d="m 6.80078,8.80078 2900.00002,0 0,3140.00002 -2900.00002,0 0,-3140.00002 z" /></clipPath><clipPath
       id="clipPath38"
       clipPathUnits="userSpaceOnUse"><path
         style="clip-rule:evenodd"
         id="path40"
         d="m 6.80078,3148.8 0,-3139.99922 2899.99922,0 0,3139.99922 -2899.99922,0 z M 569.141,1349.03 l 0,-95.12 37.793,0 0,95.12 0,0 -18.895,-75.59 -18.898,75.59 z" /></clipPath><clipPath
       id="clipPath48"
       clipPathUnits="userSpaceOnUse"><path
         id="path50"
         d="m 6.80078,8.80078 2900.00002,0 0,3140.00002 -2900.00002,0 0,-3140.00002 z" /></clipPath></defs><g
     transform="matrix(1.25,0,0,-1.25,0,395)"
     id="g10"><g
       transform="scale(0.1,0.1)"
       id="g12"><g
         id="g14"><g
           clip-path="url(#clipPath18)"
           id="g16"><path
             id="path22"
             style="fill:#87cfff;fill-opacity:1;fill-rule:evenodd;stroke:none"
             d="m 1098.26,2425.52 566.91,0 0,708.641 -566.91,0 0,-708.641 z" /><path
             id="path24"
             style="fill:none;stroke:#000000;stroke-width:4.72424984;stroke-linecap:butt;stroke-linejoin:miter;stroke-miterlimit:10;stroke-dasharray:none;stroke-opacity:1"
             d="m 1098.26,2425.52 566.91,0 0,708.641 -566.91,0 0,-708.641 z" /><path
             id="path26"
             style="fill:#87cfff;fill-opacity:1;fill-rule:evenodd;stroke:none"
             d="m 1665.17,1716.89 566.91,0 0,708.637 -566.91,0 0,-708.637 z" /><path
             id="path28"
             style="fill:none;stroke:#000000;stroke-width:4.72424984;stroke-linecap:butt;stroke-linejoin:miter;stroke-miterlimit:10;stroke-dasharray:none;stroke-opacity:1"
             d="m 1665.17,1716.89 566.91,0 0,708.637 -566.91,0 0,-708.637 z" /><path
             id="path30"
             style="fill:#87cfff;fill-opacity:1;fill-rule:evenodd;stroke:none"
             d="m 2232.08,1008.25 566.91,0 0,708.637 -566.91,0 0,-708.637 z" /><path
             id="path32"
             style="fill:none;stroke:#000000;stroke-width:4.72424984;stroke-linecap:butt;stroke-linejoin:miter;stroke-miterlimit:10;stroke-dasharray:none;stroke-opacity:1"
             d="m 2232.08,1008.25 566.91,0 0,708.637 -566.91,0 0,-708.637 z" /></g></g><g
         id="g34"><g
           clip-path="url(#clipPath38)"
           id="g36"><path
             id="path42"
             style="fill:none;stroke:#000000;stroke-width:9.44849968;stroke-linecap:butt;stroke-linejoin:miter;stroke-miterlimit:10;stroke-dasharray:none;stroke-opacity:1"
             d="m 588.039,3105.82 0,-1842.46" /></g></g><g
         id="g44"><g
           clip-path="url(#clipPath48)"
           id="g46"><path
             id="path52"
             style="fill:#000000;fill-opacity:1;fill-rule:evenodd;stroke:none"
             d="m 569.141,1349.03 18.898,-75.59 18.895,75.59 -37.793,0" /><path
             id="path54"
             style="fill:none;stroke:#000000;stroke-width:4.72424984;stroke-linecap:butt;stroke-linejoin:miter;stroke-miterlimit:10;stroke-dasharray:none;stroke-opacity:1"
             d="m 569.141,1349.03 18.898,-75.59 18.895,75.59 -37.793,0 z" /><path
             id="path56"
             style="fill:#ffbfbf;fill-opacity:1;fill-rule:evenodd;stroke:none"
             d="m 1098.26,1433.43 566.91,0 0,708.637 -566.91,0 0,-708.637 z" /><path
             id="path58"
             style="fill:none;stroke:#000000;stroke-width:4.72424984;stroke-linecap:butt;stroke-linejoin:miter;stroke-miterlimit:10;stroke-dasharray:none;stroke-opacity:1"
             d="m 1098.26,1433.43 566.91,0 0,708.637 -566.91,0 0,-708.637 z" /><path
             id="path60"
             style="fill:#ffbfbf;fill-opacity:1;fill-rule:evenodd;stroke:none"
             d="m 1665.17,724.797 566.91,0 0,708.637 -566.91,0 0,-708.637 z" /><path
             id="path62"
             style="fill:none;stroke:#000000;stroke-width:4.72424984;stroke-linecap:butt;stroke-linejoin:miter;stroke-miterlimit:10;stroke-dasharray:none;stroke-opacity:1"
             d="m 1665.17,724.797 566.91,0 0,708.637 -566.91,0 0,-708.637 z" /><path
             id="path64"
             style="fill:#ffbfbf;fill-opacity:1;fill-rule:evenodd;stroke:none"
             d="m 2232.08,16.1563 566.91,0 0,708.641 -566.91,0 0,-708.641 z" /><path
             id="path66"
             style="fill:none;stroke:#000000;stroke-width:4.72424984;stroke-linecap:butt;stroke-linejoin:miter;stroke-miterlimit:10;stroke-dasharray:none;stroke-opacity:1"
             d="m 2232.08,16.1563 566.91,0 0,708.641 -566.91,0 0,-708.641 z" /><path
             id="path68"
             style="fill:none;stroke:#000000;stroke-width:9.44849968;stroke-linecap:butt;stroke-linejoin:miter;stroke-miterlimit:10;stroke-dasharray:37.794;stroke-dashoffset:0;stroke-opacity:1"
             d="m 21.1289,2142.07 2862.8911,0 -28.34,0" /><g
             transform="scale(10,10)"
             id="g70"><text
               id="text72"
               style="font-variant:normal;font-weight:normal;font-size:26.4557991px;font-family:Times;-inkscape-font-specification:Times-Roman;writing-mode:lr-tb;fill:#000000;fill-opacity:1;fill-rule:nonzero;stroke:none"
               transform="matrix(1,0,0,-1,123.998,265.229)"><tspan
                 id="tspan74"
                 y="0"
                 x="0 16.164494">L1</tspan><tspan
                 id="tspan76"
                 y="65.194504"
                 x="59.525799 75.690292">L2</tspan><tspan
                 id="tspan78"
                 y="138.8929"
                 x="113.3821 129.5466">L3</tspan></text>
<text
               id="text80"
               style="font-variant:normal;font-weight:normal;font-size:22.67639923px;font-family:Times;-inkscape-font-specification:Times-Roman;writing-mode:lr-tb;fill:#000000;fill-opacity:1;fill-rule:nonzero;stroke:none"
               transform="matrix(0,1,1,0,44.6313,171.689)"><tspan
                 id="tspan82"
                 y="0"
                 x="0 13.855281 20.159319 37.801559">Time</tspan></text>
<text
               id="text84"
               style="font-variant:normal;font-weight:normal;font-size:26.4557991px;font-family:Times;-inkscape-font-specification:Times-Roman;writing-mode:lr-tb;fill:#000000;fill-opacity:1;fill-rule:nonzero;stroke:none"
               transform="matrix(1,0,0,-1,121.164,163.185)"><tspan
                 id="tspan86"
                 y="0"
                 x="0 16.164494">L1</tspan><tspan
                 id="tspan88"
                 y="65.194504"
                 x="56.691002 72.855492">L2</tspan><tspan
                 id="tspan90"
                 y="138.8929"
                 x="113.382 129.54649">L3</tspan></text>
</g></g></g></g></g></svg>