<?xml version="1.0" encoding="UTF-8" standalone="no"?>
<svg
   xmlns:dc="http://purl.org/dc/elements/1.1/"
   xmlns:cc="http://creativecommons.org/ns#"
   xmlns:rdf="http://www.w3.org/1999/02/22-rdf-syntax-ns#"
   xmlns:svg="http://www.w3.org/2000/svg"
   xmlns="http://www.w3.org/2000/svg"
   viewBox="0 0 365 252.5"
   height="252.5"
   width="365"
   xml:space="preserve"
   version="1.1"
   id="svg2"><metadata
     id="metadata8"><rdf:RDF><cc:Work
         rdf:about=""><dc:format>image/svg+xml</dc:format><dc:type
           rdf:resource="http://purl.org/dc/dcmitype/StillImage" /></cc:Work></rdf:RDF></metadata><defs
     id="defs6"><clipPath
       id="clipPath18"
       clipPathUnits="userSpaceOnUse"><path
         id="path20"
         d="m 6.80078,12.8008 2900.00002,0 0,2000 -2900.00002,0 0,-2000 z" /></clipPath><clipPath
       id="clipPath30"
       clipPathUnits="userSpaceOnUse"><path
         style="clip-rule:evenodd"
         id="path32"
         d="m 6.80078,2012.8 0,-1999.9992 2899.99922,0 0,1999.9992 -2899.99922,0 z M 569.141,219.027 l 0,-95.117 37.793,0 0,95.117 0,0 -18.895,-75.589 -18.898,75.589 z" /></clipPath><clipPath
       id="clipPath40"
       clipPathUnits="userSpaceOnUse"><path
         id="path42"
         d="m 6.80078,12.8008 2900.00002,0 0,2000 -2900.00002,0 0,-2000 z" /></clipPath></defs><g
     transform="matrix(1.25,0,0,-1.25,0,252.5)"
     id="g10"><g
       transform="scale(0.1,0.1)"
       id="g12"><g
         id="g14"><g
           clip-path="url(#clipPath18)"
           id="g16"><path
             id="path22"
             style="fill:#87cfff;fill-opacity:1;fill-rule:evenodd;stroke:none"
             d="m 1098.26,1295.52 566.91,0 0,708.641 -566.91,0 0,-708.641 z" /><path
             id="path24"
             style="fill:none;stroke:#000000;stroke-width:4.72424984;stroke-linecap:butt;stroke-linejoin:miter;stroke-miterlimit:10;stroke-dasharray:none;stroke-opacity:1"
             d="m 1098.26,1295.52 566.91,0 0,708.641 -566.91,0 0,-708.641 z" /></g></g><g
         id="g26"><g
           clip-path="url(#clipPath30)"
           id="g28"><path
             id="path34"
             style="fill:none;stroke:#000000;stroke-width:9.44849968;stroke-linecap:butt;stroke-linejoin:miter;stroke-miterlimit:10;stroke-dasharray:none;stroke-opacity:1"
             d="m 588.039,1975.82 0,-1842.461" /></g></g><g
         id="g36"><g
           clip-path="url(#clipPath40)"
           id="g38"><path
             id="path44"
             style="fill:#000000;fill-opacity:1;fill-rule:evenodd;stroke:none"
             d="m 569.141,219.027 18.898,-75.589 18.895,75.589 -37.793,0" /><path
             id="path46"
             style="fill:none;stroke:#000000;stroke-width:4.72424984;stroke-linecap:butt;stroke-linejoin:miter;stroke-miterlimit:10;stroke-dasharray:none;stroke-opacity:1"
             d="m 569.141,219.027 18.898,-75.589 18.895,75.589 -37.793,0 z" /><path
             id="path48"
             style="fill:#87cfff;fill-opacity:1;fill-rule:evenodd;stroke:none"
             d="m 1665.17,1012.07 566.91,0 0,708.637 -566.91,0 0,-708.637 z" /><path
             id="path50"
             style="fill:none;stroke:#000000;stroke-width:4.72424984;stroke-linecap:butt;stroke-linejoin:miter;stroke-miterlimit:10;stroke-dasharray:none;stroke-opacity:1"
             d="m 1665.17,1012.07 566.91,0 0,708.637 -566.91,0 0,-708.637 z" /><path
             id="path52"
             style="fill:#87cfff;fill-opacity:1;fill-rule:evenodd;stroke:none"
             d="m 2232.08,728.613 566.91,0 0,708.641 -566.91,0 0,-708.641 z" /><path
             id="path54"
             style="fill:none;stroke:#000000;stroke-width:4.72424984;stroke-linecap:butt;stroke-linejoin:miter;stroke-miterlimit:10;stroke-dasharray:none;stroke-opacity:1"
             d="m 2232.08,728.613 566.91,0 0,708.641 -566.91,0 0,-708.641 z" /><path
             id="path56"
             style="fill:#ffbfbf;fill-opacity:1;fill-rule:evenodd;stroke:none"
             d="m 1098.26,586.887 566.91,0 0,708.637 -566.91,0 0,-708.637 z" /><path
             id="path58"
             style="fill:none;stroke:#000000;stroke-width:4.72424984;stroke-linecap:butt;stroke-linejoin:miter;stroke-miterlimit:10;stroke-dasharray:none;stroke-opacity:1"
             d="m 1098.26,586.887 566.91,0 0,708.637 -566.91,0 0,-708.637 z" /><path
             id="path60"
             style="fill:#ffbfbf;fill-opacity:1;fill-rule:evenodd;stroke:none"
             d="m 1665.17,303.434 566.91,0 0,708.637 -566.91,0 0,-708.637 z" /><path
             id="path62"
             style="fill:none;stroke:#000000;stroke-width:4.72424984;stroke-linecap:butt;stroke-linejoin:miter;stroke-miterlimit:10;stroke-dasharray:none;stroke-opacity:1"
             d="m 1665.17,303.434 566.91,0 0,708.637 -566.91,0 0,-708.637 z" /><path
             id="path64"
             style="fill:#ffbfbf;fill-opacity:1;fill-rule:evenodd;stroke:none"
             d="m 2232.08,19.9766 566.91,0 0,708.637 -566.91,0 0,-708.637 z" /><path
             id="path66"
             style="fill:none;stroke:#000000;stroke-width:4.72424984;stroke-linecap:butt;stroke-linejoin:miter;stroke-miterlimit:10;stroke-dasharray:none;stroke-opacity:1"
             d="m 2232.08,19.9766 566.91,0 0,708.637 -566.91,0 0,-708.637 z" /><path
             id="path68"
             style="fill:none;stroke:#000000;stroke-width:9.44849968;stroke-linecap:butt;stroke-linejoin:miter;stroke-miterlimit:10;stroke-dasharray:37.794;stroke-dashoffset:0;stroke-opacity:1"
             d="m 21.1289,1295.52 2862.8911,0 -28.34,0" /><g
             transform="scale(10,10)"
             id="g70"><text
               id="text72"
               style="font-variant:normal;font-weight:normal;font-size:26.4557991px;font-family:Times;-inkscape-font-specification:Times-Roman;writing-mode:lr-tb;fill:#000000;fill-opacity:1;fill-rule:nonzero;stroke:none"
               transform="matrix(1,0,0,-1,123.998,152.229)"><tspan
                 id="tspan74"
                 y="0"
                 x="0 16.164494">L1</tspan></text>
<text
               id="text76"
               style="font-variant:normal;font-weight:normal;font-size:22.67639923px;font-family:Times;-inkscape-font-specification:Times-Roman;writing-mode:lr-tb;fill:#000000;fill-opacity:1;fill-rule:nonzero;stroke:none"
               transform="matrix(0,1,1,0,44.6313,58.6887)"><tspan
                 id="tspan78"
                 y="0"
                 x="0 13.855281 20.159319 37.801559">Time</tspan></text>
<text
               id="text80"
               style="font-variant:normal;font-weight:normal;font-size:26.4557991px;font-family:Times;-inkscape-font-specification:Times-Roman;writing-mode:lr-tb;fill:#000000;fill-opacity:1;fill-rule:nonzero;stroke:none"
               transform="matrix(1,0,0,-1,180.689,129.552)"><tspan
                 id="tspan82"
                 y="0"
                 x="0 16.164494">L2</tspan><tspan
                 id="tspan84"
                 y="31.180099"
                 x="56.691002 72.855492">L3</tspan><tspan
                 id="tspan86"
                 y="42.518002"
                 x="-56.691002 -40.526505">L1</tspan><tspan
                 id="tspan88"
                 y="70.863701"
                 x="-2.8343999 13.330093">L2</tspan><tspan
                 id="tspan90"
                 y="99.209"
                 x="53.856602 70.021095">L3</tspan></text>
</g></g></g></g></g></svg>