<?xml version="1.0" encoding="UTF-8" standalone="no"?>
<svg
   xmlns:dc="http://purl.org/dc/elements/1.1/"
   xmlns:cc="http://creativecommons.org/ns#"
   xmlns:rdf="http://www.w3.org/1999/02/22-rdf-syntax-ns#"
   xmlns:svg="http://www.w3.org/2000/svg"
   xmlns="http://www.w3.org/2000/svg"
   viewBox="0 0 203.75 406.25"
   height="406.25"
   width="203.75"
   xml:space="preserve"
   version="1.1"
   id="svg2"><metadata
     id="metadata8"><rdf:RDF><cc:Work
         rdf:about=""><dc:format>image/svg+xml</dc:format><dc:type
           rdf:resource="http://purl.org/dc/dcmitype/StillImage" /></cc:Work></rdf:RDF></metadata><defs
     id="defs6"><clipPath
       id="clipPath18"
       clipPathUnits="userSpaceOnUse"><path
         id="path20"
         d="m 6.80078,11.1992 1610.00002,0 0,3230 -1610.00002,0 0,-3230 z" /></clipPath><clipPath
       id="clipPath46"
       clipPathUnits="userSpaceOnUse"><path
         style="clip-rule:evenodd"
         id="path48"
         d="m 6.80078,3241.2 0,-3230.0008 1609.99922,0 0,3230.0008 -1609.99922,0 z M 196.523,1379.68 l 0,-95.11 37.793,0 0,95.11 0,0 -18.894,-75.59 -18.899,75.59 z" /></clipPath><clipPath
       id="clipPath56"
       clipPathUnits="userSpaceOnUse"><path
         id="path58"
         d="m 6.80078,11.1992 1610.00002,0 0,3230 -1610.00002,0 0,-3230 z" /></clipPath><clipPath
       id="clipPath68"
       clipPathUnits="userSpaceOnUse"><path
         style="clip-rule:evenodd"
         id="path70"
         d="m 6.80078,3241.2 0,-3230.0008 1609.99922,0 0,3230.0008 -1609.99922,0 z M 1121.85,3060.88 l 95.11,0 0,37.8 -95.11,0 0,0 75.58,-18.9 -75.58,-18.9 z" /></clipPath><clipPath
       id="clipPath78"
       clipPathUnits="userSpaceOnUse"><path
         id="path80"
         d="m 6.80078,11.1992 1610.00002,0 0,3230 -1610.00002,0 0,-3230 z" /></clipPath></defs><g
     transform="matrix(1.25,0,0,-1.25,0,406.25)"
     id="g10"><g
       transform="scale(0.1,0.1)"
       id="g12"><g
         id="g14"><g
           clip-path="url(#clipPath18)"
           id="g16"><path
             id="path22"
             style="fill:none;stroke:#000000;stroke-width:4.72424984;stroke-linecap:butt;stroke-linejoin:miter;stroke-miterlimit:10;stroke-dasharray:none;stroke-opacity:1"
             d="m 470.531,2569.56 1133.819,0" /><path
             id="path24"
             style="fill:none;stroke:#000000;stroke-width:4.72424984;stroke-linecap:butt;stroke-linejoin:miter;stroke-miterlimit:10;stroke-dasharray:none;stroke-opacity:1"
             d="m 470.531,2286.11 1133.819,0" /><path
             id="path26"
             style="fill:none;stroke:#000000;stroke-width:4.72424984;stroke-linecap:butt;stroke-linejoin:miter;stroke-miterlimit:10;stroke-dasharray:none;stroke-opacity:1"
             d="m 470.531,2002.65 1133.819,0" /><path
             id="path28"
             style="fill:none;stroke:#000000;stroke-width:4.72424984;stroke-linecap:butt;stroke-linejoin:miter;stroke-miterlimit:10;stroke-dasharray:none;stroke-opacity:1"
             d="m 470.531,1719.2 1133.819,0" /><path
             id="path30"
             style="fill:none;stroke:#000000;stroke-width:4.72424984;stroke-linecap:butt;stroke-linejoin:miter;stroke-miterlimit:10;stroke-dasharray:none;stroke-opacity:1"
             d="m 470.531,1435.74 1133.819,0" /><path
             id="path32"
             style="fill:none;stroke:#000000;stroke-width:4.72424984;stroke-linecap:butt;stroke-linejoin:miter;stroke-miterlimit:10;stroke-dasharray:none;stroke-opacity:1"
             d="m 470.531,1152.29 1133.819,0" /><path
             id="path34"
             style="fill:none;stroke:#000000;stroke-width:4.72424984;stroke-linecap:butt;stroke-linejoin:miter;stroke-miterlimit:10;stroke-dasharray:none;stroke-opacity:1"
             d="m 470.531,18.4688 1133.82,0 0,2834.55 -1133.82,0 0,-2834.55 z" /><path
             id="path36"
             style="fill:none;stroke:#000000;stroke-width:4.72424984;stroke-linecap:butt;stroke-linejoin:miter;stroke-miterlimit:10;stroke-dasharray:none;stroke-opacity:1"
             d="m 470.531,868.832 1133.819,0" /><path
             id="path38"
             style="fill:none;stroke:#000000;stroke-width:4.72424984;stroke-linecap:butt;stroke-linejoin:miter;stroke-miterlimit:10;stroke-dasharray:none;stroke-opacity:1"
             d="m 470.531,585.379 1133.819,0" /><path
             id="path40"
             style="fill:none;stroke:#000000;stroke-width:4.72424984;stroke-linecap:butt;stroke-linejoin:miter;stroke-miterlimit:10;stroke-dasharray:none;stroke-opacity:1"
             d="m 1037.44,2569.56 283.453,0 0,283.457 -283.453,0 0,-283.457 z" /></g></g><g
         id="g42"><g
           clip-path="url(#clipPath46)"
           id="g44"><path
             id="path50"
             style="fill:none;stroke:#000000;stroke-width:9.44849968;stroke-linecap:butt;stroke-linejoin:miter;stroke-miterlimit:10;stroke-dasharray:none;stroke-opacity:1"
             d="m 215.422,2286.11 0,-992.09" /></g></g><g
         id="g52"><g
           clip-path="url(#clipPath56)"
           id="g54"><path
             id="path60"
             style="fill:#000000;fill-opacity:1;fill-rule:evenodd;stroke:none"
             d="m 196.523,1379.68 18.899,-75.59 18.894,75.59 -37.793,0" /><path
             id="path62"
             style="fill:none;stroke:#000000;stroke-width:4.72424984;stroke-linecap:butt;stroke-linejoin:miter;stroke-miterlimit:10;stroke-dasharray:none;stroke-opacity:1"
             d="m 196.523,1379.68 18.899,-75.59 18.894,75.59 -37.793,0 z" /></g></g><g
         id="g64"><g
           clip-path="url(#clipPath68)"
           id="g66"><path
             id="path72"
             style="fill:none;stroke:#000000;stroke-width:9.44849968;stroke-linecap:butt;stroke-linejoin:miter;stroke-miterlimit:10;stroke-dasharray:none;stroke-opacity:1"
             d="m 555.566,3079.78 651.944,0" /></g></g><g
         id="g74"><g
           clip-path="url(#clipPath78)"
           id="g76"><path
             id="path82"
             style="fill:#000000;fill-opacity:1;fill-rule:evenodd;stroke:none"
             d="m 1121.85,3060.88 75.58,18.9 -75.58,18.9 0,-37.8" /><path
             id="path84"
             style="fill:none;stroke:#000000;stroke-width:4.72424984;stroke-linecap:butt;stroke-linejoin:miter;stroke-miterlimit:10;stroke-dasharray:none;stroke-opacity:1"
             d="m 1121.85,3060.88 75.58,18.9 -75.58,18.9 0,-37.8 z" /><path
             id="path86"
             style="fill:none;stroke:#000000;stroke-width:4.72424984;stroke-linecap:butt;stroke-linejoin:miter;stroke-miterlimit:10;stroke-dasharray:none;stroke-opacity:1"
             d="m 470.531,18.4688 283.453,0 0,283.453 -283.453,0 0,-283.453 z" /><path
             id="path88"
             style="fill:none;stroke:#000000;stroke-width:4.72424984;stroke-linecap:butt;stroke-linejoin:miter;stroke-miterlimit:10;stroke-dasharray:none;stroke-opacity:1"
             d="m 753.984,18.4688 283.457,0 0,283.453 -283.457,0 0,-283.453 z" /><path
             id="path90"
             style="fill:none;stroke:#000000;stroke-width:4.72424984;stroke-linecap:butt;stroke-linejoin:miter;stroke-miterlimit:10;stroke-dasharray:none;stroke-opacity:1"
             d="m 1037.44,18.4688 283.453,0 0,283.453 -283.453,0 0,-283.453 z" /><path
             id="path92"
             style="fill:none;stroke:#000000;stroke-width:4.72424984;stroke-linecap:butt;stroke-linejoin:miter;stroke-miterlimit:10;stroke-dasharray:none;stroke-opacity:1"
             d="m 1320.89,18.4688 283.457,0 0,283.453 -283.457,0 0,-283.453 z" /><path
             id="path94"
             style="fill:none;stroke:#000000;stroke-width:4.72424984;stroke-linecap:butt;stroke-linejoin:miter;stroke-miterlimit:10;stroke-dasharray:none;stroke-opacity:1"
             d="m 1037.44,301.922 283.453,0 0,283.457 -283.453,0 0,-283.457 z" /><path
             id="path96"
             style="fill:#00b000;fill-opacity:1;fill-rule:evenodd;stroke:none"
             d="m 470.531,2569.56 283.453,0 0,283.457 -283.453,0 0,-283.457 z" /><path
             id="path98"
             style="fill:none;stroke:#000000;stroke-width:4.72424984;stroke-linecap:butt;stroke-linejoin:miter;stroke-miterlimit:10;stroke-dasharray:none;stroke-opacity:1"
             d="m 470.531,2569.56 283.453,0 0,283.457 -283.453,0 0,-283.457 z" /><path
             id="path100"
             style="fill:#00b000;fill-opacity:1;fill-rule:evenodd;stroke:none"
             d="m 753.984,2569.56 283.457,0 0,283.457 -283.457,0 0,-283.457 z" /><path
             id="path102"
             style="fill:none;stroke:#000000;stroke-width:4.72424984;stroke-linecap:butt;stroke-linejoin:miter;stroke-miterlimit:10;stroke-dasharray:none;stroke-opacity:1"
             d="m 753.984,2569.56 283.457,0 0,283.457 -283.457,0 0,-283.457 z" /><path
             id="path104"
             style="fill:#0000d1;fill-opacity:1;fill-rule:evenodd;stroke:none"
             d="m 1037.44,2569.56 283.453,0 0,283.457 -283.453,0 0,-283.457 z" /><path
             id="path106"
             style="fill:none;stroke:#000000;stroke-width:4.72424984;stroke-linecap:butt;stroke-linejoin:miter;stroke-miterlimit:10;stroke-dasharray:none;stroke-opacity:1"
             d="m 1037.44,2569.56 283.453,0 0,283.457 -283.453,0 0,-283.457 z" /><path
             id="path108"
             style="fill:#0000d1;fill-opacity:1;fill-rule:evenodd;stroke:none"
             d="m 1320.89,2569.56 283.457,0 0,283.457 -283.457,0 0,-283.457 z" /><path
             id="path110"
             style="fill:none;stroke:#000000;stroke-width:4.72424984;stroke-linecap:butt;stroke-linejoin:miter;stroke-miterlimit:10;stroke-dasharray:none;stroke-opacity:1"
             d="m 1320.89,2569.56 283.457,0 0,283.457 -283.457,0 0,-283.457 z" /><path
             id="path112"
             style="fill:#0000d1;fill-opacity:1;fill-rule:evenodd;stroke:none"
             d="m 470.531,2286.11 283.453,0 0,283.453 -283.453,0 0,-283.453 z" /><path
             id="path114"
             style="fill:none;stroke:#000000;stroke-width:4.72424984;stroke-linecap:butt;stroke-linejoin:miter;stroke-miterlimit:10;stroke-dasharray:none;stroke-opacity:1"
             d="m 470.531,2286.11 283.453,0 0,283.453 -283.453,0 0,-283.453 z" /><path
             id="path116"
             style="fill:#bf6100;fill-opacity:1;fill-rule:evenodd;stroke:none"
             d="m 753.984,2286.11 283.457,0 0,283.453 -283.457,0 0,-283.453 z" /><path
             id="path118"
             style="fill:none;stroke:#000000;stroke-width:4.72424984;stroke-linecap:butt;stroke-linejoin:miter;stroke-miterlimit:10;stroke-dasharray:none;stroke-opacity:1"
             d="m 753.984,2286.11 283.457,0 0,283.453 -283.457,0 0,-283.453 z" /><path
             id="path120"
             style="fill:#bf6100;fill-opacity:1;fill-rule:evenodd;stroke:none"
             d="m 1037.44,2286.11 283.453,0 0,283.453 -283.453,0 0,-283.453 z" /><path
             id="path122"
             style="fill:none;stroke:#000000;stroke-width:4.72424984;stroke-linecap:butt;stroke-linejoin:miter;stroke-miterlimit:10;stroke-dasharray:none;stroke-opacity:1"
             d="m 1037.44,2286.11 283.453,0 0,283.453 -283.453,0 0,-283.453 z" /><path
             id="path124"
             style="fill:#bf6100;fill-opacity:1;fill-rule:evenodd;stroke:none"
             d="m 1320.89,2286.11 283.457,0 0,283.453 -283.457,0 0,-283.453 z" /><path
             id="path126"
             style="fill:none;stroke:#000000;stroke-width:4.72424984;stroke-linecap:butt;stroke-linejoin:miter;stroke-miterlimit:10;stroke-dasharray:none;stroke-opacity:1"
             d="m 1320.89,2286.11 283.457,0 0,283.453 -283.457,0 0,-283.453 z" /><path
             id="path128"
             style="fill:#d10000;fill-opacity:1;fill-rule:evenodd;stroke:none"
             d="m 470.531,2002.65 283.453,0 0,283.457 -283.453,0 0,-283.457 z" /><path
             id="path130"
             style="fill:none;stroke:#000000;stroke-width:4.72424984;stroke-linecap:butt;stroke-linejoin:miter;stroke-miterlimit:10;stroke-dasharray:none;stroke-opacity:1"
             d="m 470.531,2002.65 283.453,0 0,283.457 -283.453,0 0,-283.457 z" /><path
             id="path132"
             style="fill:#00b000;fill-opacity:1;fill-rule:evenodd;stroke:none"
             d="m 753.984,2002.65 283.457,0 0,283.457 -283.457,0 0,-283.457 z" /><path
             id="path134"
             style="fill:none;stroke:#000000;stroke-width:4.72424984;stroke-linecap:butt;stroke-linejoin:miter;stroke-miterlimit:10;stroke-dasharray:none;stroke-opacity:1"
             d="m 753.984,2002.65 283.457,0 0,283.457 -283.457,0 0,-283.457 z" /><path
             id="path136"
             style="fill:#0000d1;fill-opacity:1;fill-rule:evenodd;stroke:none"
             d="m 470.531,1719.2 283.453,0 0,283.453 -283.453,0 0,-283.453 z" /><path
             id="path138"
             style="fill:none;stroke:#000000;stroke-width:4.72424984;stroke-linecap:butt;stroke-linejoin:miter;stroke-miterlimit:10;stroke-dasharray:none;stroke-opacity:1"
             d="m 470.531,1719.2 283.453,0 0,283.453 -283.453,0 0,-283.453 z" /><path
             id="path140"
             style="fill:#0000d1;fill-opacity:1;fill-rule:evenodd;stroke:none"
             d="m 753.984,1719.2 283.457,0 0,283.453 -283.457,0 0,-283.453 z" /><path
             id="path142"
             style="fill:none;stroke:#000000;stroke-width:4.72424984;stroke-linecap:butt;stroke-linejoin:miter;stroke-miterlimit:10;stroke-dasharray:none;stroke-opacity:1"
             d="m 753.984,1719.2 283.457,0 0,283.453 -283.457,0 0,-283.453 z" /><path
             id="path144"
             style="fill:#bf6100;fill-opacity:1;fill-rule:evenodd;stroke:none"
             d="m 1037.44,1719.2 283.453,0 0,283.453 -283.453,0 0,-283.453 z" /><path
             id="path146"
             style="fill:none;stroke:#000000;stroke-width:4.72424984;stroke-linecap:butt;stroke-linejoin:miter;stroke-miterlimit:10;stroke-dasharray:none;stroke-opacity:1"
             d="m 1037.44,1719.2 283.453,0 0,283.453 -283.453,0 0,-283.453 z" /><path
             id="path148"
             style="fill:#bf6100;fill-opacity:1;fill-rule:evenodd;stroke:none"
             d="m 1320.89,1719.2 283.457,0 0,283.453 -283.457,0 0,-283.453 z" /><path
             id="path150"
             style="fill:none;stroke:#000000;stroke-width:4.72424984;stroke-linecap:butt;stroke-linejoin:miter;stroke-miterlimit:10;stroke-dasharray:none;stroke-opacity:1"
             d="m 1320.89,1719.2 283.457,0 0,283.453 -283.457,0 0,-283.453 z" /><path
             id="path152"
             style="fill:#00b000;fill-opacity:1;fill-rule:evenodd;stroke:none"
             d="m 470.531,1435.74 283.453,0 0,283.457 -283.453,0 0,-283.457 z" /><path
             id="path154"
             style="fill:none;stroke:#000000;stroke-width:4.72424984;stroke-linecap:butt;stroke-linejoin:miter;stroke-miterlimit:10;stroke-dasharray:none;stroke-opacity:1"
             d="m 470.531,1435.74 283.453,0 0,283.457 -283.453,0 0,-283.457 z" /><path
             id="path156"
             style="fill:#00b000;fill-opacity:1;fill-rule:evenodd;stroke:none"
             d="m 753.984,1435.74 283.457,0 0,283.457 -283.457,0 0,-283.457 z" /><path
             id="path158"
             style="fill:none;stroke:#000000;stroke-width:4.72424984;stroke-linecap:butt;stroke-linejoin:miter;stroke-miterlimit:10;stroke-dasharray:none;stroke-opacity:1"
             d="m 753.984,1435.74 283.457,0 0,283.457 -283.457,0 0,-283.457 z" /><path
             id="path160"
             style="fill:#00b000;fill-opacity:1;fill-rule:evenodd;stroke:none"
             d="m 1037.44,1435.74 283.453,0 0,283.457 -283.453,0 0,-283.457 z" /><path
             id="path162"
             style="fill:none;stroke:#000000;stroke-width:4.72424984;stroke-linecap:butt;stroke-linejoin:miter;stroke-miterlimit:10;stroke-dasharray:none;stroke-opacity:1"
             d="m 1037.44,1435.74 283.453,0 0,283.457 -283.453,0 0,-283.457 z" /><path
             id="path164"
             style="fill:#0000d1;fill-opacity:1;fill-rule:evenodd;stroke:none"
             d="m 470.531,1152.29 283.453,0 0,283.453 -283.453,0 0,-283.453 z" /><path
             id="path166"
             style="fill:none;stroke:#000000;stroke-width:4.72424984;stroke-linecap:butt;stroke-linejoin:miter;stroke-miterlimit:10;stroke-dasharray:none;stroke-opacity:1"
             d="m 470.531,1152.29 283.453,0 0,283.453 -283.453,0 0,-283.453 z" /><path
             id="path168"
             style="fill:#bf6100;fill-opacity:1;fill-rule:evenodd;stroke:none"
             d="m 753.984,1152.29 283.457,0 0,283.453 -283.457,0 0,-283.453 z" /><path
             id="path170"
             style="fill:none;stroke:#000000;stroke-width:4.72424984;stroke-linecap:butt;stroke-linejoin:miter;stroke-miterlimit:10;stroke-dasharray:none;stroke-opacity:1"
             d="m 753.984,1152.29 283.457,0 0,283.453 -283.457,0 0,-283.453 z" /><path
             id="path172"
             style="fill:#bf6100;fill-opacity:1;fill-rule:evenodd;stroke:none"
             d="m 1037.44,1152.29 283.453,0 0,283.453 -283.453,0 0,-283.453 z" /><path
             id="path174"
             style="fill:none;stroke:#000000;stroke-width:4.72424984;stroke-linecap:butt;stroke-linejoin:miter;stroke-miterlimit:10;stroke-dasharray:none;stroke-opacity:1"
             d="m 1037.44,1152.29 283.453,0 0,283.453 -283.453,0 0,-283.453 z" /><path
             id="path176"
             style="fill:#d10000;fill-opacity:1;fill-rule:evenodd;stroke:none"
             d="m 470.531,868.832 283.453,0 0,283.457 -283.453,0 0,-283.457 z" /><path
             id="path178"
             style="fill:none;stroke:#000000;stroke-width:4.72424984;stroke-linecap:butt;stroke-linejoin:miter;stroke-miterlimit:10;stroke-dasharray:none;stroke-opacity:1"
             d="m 470.531,868.832 283.453,0 0,283.457 -283.453,0 0,-283.457 z" /><path
             id="path180"
             style="fill:#d10000;fill-opacity:1;fill-rule:evenodd;stroke:none"
             d="m 753.984,868.832 283.457,0 0,283.457 -283.457,0 0,-283.457 z" /><path
             id="path182"
             style="fill:none;stroke:#000000;stroke-width:4.72424984;stroke-linecap:butt;stroke-linejoin:miter;stroke-miterlimit:10;stroke-dasharray:none;stroke-opacity:1"
             d="m 753.984,868.832 283.457,0 0,283.457 -283.457,0 0,-283.457 z" /><path
             id="path184"
             style="fill:#00b000;fill-opacity:1;fill-rule:evenodd;stroke:none"
             d="m 1037.44,868.832 283.453,0 0,283.457 -283.453,0 0,-283.457 z" /><path
             id="path186"
             style="fill:none;stroke:#000000;stroke-width:4.72424984;stroke-linecap:butt;stroke-linejoin:miter;stroke-miterlimit:10;stroke-dasharray:none;stroke-opacity:1"
             d="m 1037.44,868.832 283.453,0 0,283.457 -283.453,0 0,-283.457 z" /><path
             id="path188"
             style="fill:#00b000;fill-opacity:1;fill-rule:evenodd;stroke:none"
             d="m 1320.89,868.832 283.457,0 0,283.457 -283.457,0 0,-283.457 z" /><path
             id="path190"
             style="fill:none;stroke:#000000;stroke-width:4.72424984;stroke-linecap:butt;stroke-linejoin:miter;stroke-miterlimit:10;stroke-dasharray:none;stroke-opacity:1"
             d="m 1320.89,868.832 283.457,0 0,283.457 -283.457,0 0,-283.457 z" /><path
             id="path192"
             style="fill:#0000d1;fill-opacity:1;fill-rule:evenodd;stroke:none"
             d="m 470.531,585.379 283.453,0 0,283.453 -283.453,0 0,-283.453 z" /><path
             id="path194"
             style="fill:none;stroke:#000000;stroke-width:4.72424984;stroke-linecap:butt;stroke-linejoin:miter;stroke-miterlimit:10;stroke-dasharray:none;stroke-opacity:1"
             d="m 470.531,585.379 283.453,0 0,283.453 -283.453,0 0,-283.453 z" /><path
             id="path196"
             style="fill:#0000d1;fill-opacity:1;fill-rule:evenodd;stroke:none"
             d="m 753.984,585.379 283.457,0 0,283.453 -283.457,0 0,-283.453 z" /><path
             id="path198"
             style="fill:none;stroke:#000000;stroke-width:4.72424984;stroke-linecap:butt;stroke-linejoin:miter;stroke-miterlimit:10;stroke-dasharray:none;stroke-opacity:1"
             d="m 753.984,585.379 283.457,0 0,283.453 -283.457,0 0,-283.453 z" /><path
             id="path200"
             style="fill:#bf6100;fill-opacity:1;fill-rule:evenodd;stroke:none"
             d="m 470.531,301.922 283.453,0 0,283.457 -283.453,0 0,-283.457 z" /><path
             id="path202"
             style="fill:none;stroke:#000000;stroke-width:4.72424984;stroke-linecap:butt;stroke-linejoin:miter;stroke-miterlimit:10;stroke-dasharray:none;stroke-opacity:1"
             d="m 470.531,301.922 283.453,0 0,283.457 -283.453,0 0,-283.457 z" /><path
             id="path204"
             style="fill:#bf6100;fill-opacity:1;fill-rule:evenodd;stroke:none"
             d="m 753.984,301.922 283.457,0 0,283.457 -283.457,0 0,-283.457 z" /><path
             id="path206"
             style="fill:none;stroke:#000000;stroke-width:4.72424984;stroke-linecap:butt;stroke-linejoin:miter;stroke-miterlimit:10;stroke-dasharray:none;stroke-opacity:1"
             d="m 753.984,301.922 283.457,0 0,283.457 -283.457,0 0,-283.457 z" /><path
             id="path208"
             style="fill:none;stroke:#000000;stroke-width:4.72424984;stroke-linecap:butt;stroke-linejoin:miter;stroke-miterlimit:10;stroke-dasharray:none;stroke-opacity:1"
             d="m 1037.44,301.922 283.453,0 0,283.457 -283.453,0 0,-283.457 z" /><path
             id="path210"
             style="fill:none;stroke:#000000;stroke-width:4.72424984;stroke-linecap:butt;stroke-linejoin:miter;stroke-miterlimit:10;stroke-dasharray:none;stroke-opacity:1"
             d="m 1037.44,301.922 283.453,0 0,283.457 -283.453,0 0,-283.457 z" /><path
             id="path212"
             style="fill:#bf6100;fill-opacity:1;fill-rule:evenodd;stroke:none"
             d="m 1037.44,301.922 283.453,0 0,283.457 -283.453,0 0,-283.457 z" /><path
             id="path214"
             style="fill:none;stroke:#000000;stroke-width:4.72424984;stroke-linecap:butt;stroke-linejoin:miter;stroke-miterlimit:10;stroke-dasharray:none;stroke-opacity:1"
             d="m 1037.44,301.922 283.453,0 0,283.457 -283.453,0 0,-283.457 z" /><path
             id="path216"
             style="fill:#d10000;fill-opacity:1;fill-rule:evenodd;stroke:none"
             d="m 470.531,18.4688 283.453,0 0,283.453 -283.453,0 0,-283.453 z" /><path
             id="path218"
             style="fill:none;stroke:#000000;stroke-width:4.72424984;stroke-linecap:butt;stroke-linejoin:miter;stroke-miterlimit:10;stroke-dasharray:none;stroke-opacity:1"
             d="m 470.531,18.4688 283.453,0 0,283.453 -283.453,0 0,-283.453 z" /><path
             id="path220"
             style="fill:none;stroke:#000000;stroke-width:4.72424984;stroke-linecap:butt;stroke-linejoin:miter;stroke-miterlimit:10;stroke-dasharray:none;stroke-opacity:1"
             d="m 753.984,18.4688 283.457,0 0,283.453 -283.457,0 0,-283.453 z" /><path
             id="path222"
             style="fill:none;stroke:#000000;stroke-width:4.72424984;stroke-linecap:butt;stroke-linejoin:miter;stroke-miterlimit:10;stroke-dasharray:none;stroke-opacity:1"
             d="m 1037.44,2002.65 283.453,0 0,283.457 -283.453,0 0,-283.457 z" /><path
             id="path224"
             style="fill:none;stroke:#000000;stroke-width:4.72424984;stroke-linecap:butt;stroke-linejoin:miter;stroke-miterlimit:10;stroke-dasharray:none;stroke-opacity:1"
             d="m 1320.89,585.379 283.457,0 0,283.453 -283.457,0 0,-283.453 z" /><g
             transform="scale(10,10)"
             id="g226"><text
               id="text228"
               style="font-variant:normal;font-weight:normal;font-size:11.33819962px;font-family:Times;-inkscape-font-specification:Times-Roman;writing-mode:lr-tb;fill:#000000;fill-opacity:1;fill-rule:nonzero;stroke:none"
               transform="matrix(0,1,1,0,10.2039,169.085)"><tspan
                 id="tspan230"
                 y="0"
                 x="0 3.1520195 6.304039 15.125159">time</tspan></text>
<text
               id="text232"
               style="font-variant:normal;font-weight:normal;font-size:11.33819962px;font-family:Times;-inkscape-font-specification:Times-Roman;writing-mode:lr-tb;fill:#000000;fill-opacity:1;fill-rule:nonzero;stroke:none"
               transform="matrix(1,0,0,-1,69.7293,313.647)"><tspan
                 id="tspan234"
                 y="0"
                 x="0 6.9276404 12.59674 17.630901 22.665062 28.334162 31.486181 34.638203 40.307301 45.976402 48.810951 55.11499 58.26701 63.936111 67.088127">Execution Slots</tspan></text>
</g></g></g></g></g></svg>