<?xml version="1.0" encoding="UTF-8" standalone="no"?>
<svg
   xmlns:dc="http://purl.org/dc/elements/1.1/"
   xmlns:cc="http://creativecommons.org/ns#"
   xmlns:rdf="http://www.w3.org/1999/02/22-rdf-syntax-ns#"
   xmlns:svg="http://www.w3.org/2000/svg"
   xmlns="http://www.w3.org/2000/svg"
   viewBox="0 0 501.25 271.25"
   height="271.25"
   width="501.25"
   xml:space="preserve"
   version="1.1"
   id="svg2"><metadata
     id="metadata8"><rdf:RDF><cc:Work
         rdf:about=""><dc:format>image/svg+xml</dc:format><dc:type
           rdf:resource="http://purl.org/dc/dcmitype/StillImage" /></cc:Work></rdf:RDF></metadata><defs
     id="defs6"><clipPath
       id="clipPath18"
       clipPathUnits="userSpaceOnUse"><path
         id="path20"
         d="m 6.80078,11.1992 3990.00002,0 0,2150 -3990.00002,0 0,-2150 z" /></clipPath></defs><g
     transform="matrix(1.25,0,0,-1.25,0,271.25)"
     id="g10"><g
       transform="scale(0.1,0.1)"
       id="g12"><g
         id="g14"><g
           clip-path="url(#clipPath18)"
           id="g16"><path
             id="path22"
             style="fill:#ffa1a1;fill-opacity:1;fill-rule:evenodd;stroke:none"
             d="m 936.758,2144.75 0,0 c -36.524,0 -66.137,-29.62 -66.137,-66.14 l 0,-434.63 c 0,-36.53 29.613,-66.14 66.137,-66.14 l 434.632,0 c 36.53,0 66.14,29.61 66.14,66.14 l 0,434.63 c 0,36.52 -29.61,66.14 -66.14,66.14" /><path
             id="path24"
             style="fill:none;stroke:#000000;stroke-width:4.72424984;stroke-linecap:butt;stroke-linejoin:miter;stroke-miterlimit:10;stroke-dasharray:none;stroke-opacity:1"
             d="m 936.758,2144.75 0,0 c -36.524,0 -66.137,-29.62 -66.137,-66.14 l 0,-434.63 c 0,-36.53 29.613,-66.14 66.137,-66.14 l 434.632,0 c 36.53,0 66.14,29.61 66.14,66.14 l 0,434.63 c 0,36.52 -29.61,66.14 -66.14,66.14 l -434.632,0 z" /><path
             id="path26"
             style="fill:#bf6100;fill-opacity:1;fill-rule:evenodd;stroke:none"
             d="m 1295.8,18.832 2692.82,0 0,425.184 -2692.82,0 0,-425.184 z" /><path
             id="path28"
             style="fill:none;stroke:#000000;stroke-width:4.72424984;stroke-linecap:butt;stroke-linejoin:miter;stroke-miterlimit:10;stroke-dasharray:none;stroke-opacity:1"
             d="m 1295.8,18.832 2692.82,0 0,425.184 -2692.82,0 0,-425.184 z" /><path
             id="path30"
             style="fill:none;stroke:#000000;stroke-width:9.44849968;stroke-linecap:butt;stroke-linejoin:miter;stroke-miterlimit:10;stroke-dasharray:none;stroke-opacity:1"
             d="m 1154.07,1577.84 0,-425.19" /><path
             id="path32"
             style="fill:none;stroke:#000000;stroke-width:9.44849968;stroke-linecap:butt;stroke-linejoin:miter;stroke-miterlimit:10;stroke-dasharray:none;stroke-opacity:1"
             d="m 1154.07,1379.42 425.19,0" /><path
             id="path34"
             style="fill:none;stroke:#000000;stroke-width:9.44849968;stroke-linecap:butt;stroke-linejoin:miter;stroke-miterlimit:10;stroke-dasharray:none;stroke-opacity:1"
             d="m 1645.4,1521.14 0,0 c -36.53,0 -66.14,-29.61 -66.14,-66.14 l 0,-179.52 c 0,-36.52 29.61,-66.14 66.14,-66.14 l 576.35,0 c 36.53,0 66.14,29.62 66.14,66.14 l 0,179.52 c 0,36.53 -29.61,66.14 -66.14,66.14 l -576.35,0 z" /><path
             id="path36"
             style="fill:none;stroke:#000000;stroke-width:9.44849968;stroke-linecap:butt;stroke-linejoin:miter;stroke-miterlimit:10;stroke-dasharray:none;stroke-opacity:1"
             d="m 86.3945,1521.14 0,0 c -36.5273,0 -66.1406,-29.61 -66.1406,-66.14 l 0,-179.52 c 0,-36.52 29.6133,-66.14 66.1406,-66.14 l 576.3595,0 c 36.523,0 66.137,29.62 66.137,66.14 l 0,179.52 c 0,36.53 -29.614,66.14 -66.137,66.14 l -576.3595,0 z" /><path
             id="path38"
             style="fill:none;stroke:#000000;stroke-width:9.44849968;stroke-linecap:butt;stroke-linejoin:miter;stroke-miterlimit:10;stroke-dasharray:none;stroke-opacity:1"
             d="m 728.891,1379.42 425.179,0" /></g></g><g
         transform="scale(10,10)"
         id="g40"><text
           id="text42"
           style="font-variant:normal;font-weight:normal;font-size:11.9552002px;font-family:CMTT12;-inkscape-font-specification:CMTT12;writing-mode:lr-tb;fill:#000000;fill-opacity:1;fill-rule:nonzero;stroke:none"
           transform="matrix(1,0,0,-1,234.56,33.0398)"><tspan
             id="tspan44"
             y="0"
             x="0 6.1200213 12.240043 18.360065 24.48011 30.600132">Shared</tspan><tspan
             id="tspan46"
             y="11.4"
             x="2.8796899 8.999712 15.119733 21.239756 27.3598">Cache</tspan><tspan
             id="tspan48"
             y="-147.36"
             x="-147.36031 -141.2403 -135.12029 -129.00026 -122.88026 -116.76023 -110.64022 -104.52021 -98.400192">Processor</tspan><tspan
             id="tspan50"
             y="-99.240097"
             x="-70.920509 -64.800499 -58.680477 -221.16051 -215.0405 -208.92049 -202.80046 -196.68045 -190.56042">I/OMemory</tspan><tspan
             id="tspan52"
             y="-136.0799"
             x="-141.7207 -129.48083 -123.36082 -117.2408 -111.1208 -105.00079">+Cache</tspan></text>
</g></g></g></svg>