<?xml version="1.0" encoding="UTF-8" standalone="no"?>
<svg
   xmlns:dc="http://purl.org/dc/elements/1.1/"
   xmlns:cc="http://creativecommons.org/ns#"
   xmlns:rdf="http://www.w3.org/1999/02/22-rdf-syntax-ns#"
   xmlns:svg="http://www.w3.org/2000/svg"
   xmlns="http://www.w3.org/2000/svg"
   viewBox="0 0 913.75 412.5"
   height="412.5"
   width="913.75"
   xml:space="preserve"
   version="1.1"
   id="svg2"><metadata
     id="metadata8"><rdf:RDF><cc:Work
         rdf:about=""><dc:format>image/svg+xml</dc:format><dc:type
           rdf:resource="http://purl.org/dc/dcmitype/StillImage" /></cc:Work></rdf:RDF></metadata><defs
     id="defs6"><clipPath
       id="clipPath18"
       clipPathUnits="userSpaceOnUse"><path
         id="path20"
         d="m 6.80078,7.19922 7290.00002,0 0,3279.99998 -7290.00002,0 0,-3279.99998 z" /></clipPath></defs><g
     transform="matrix(1.25,0,0,-1.25,0,412.5)"
     id="g10"><g
       transform="scale(0.1,0.1)"
       id="g12"><g
         id="g14"><g
           clip-path="url(#clipPath18)"
           id="g16"><path
             id="path22"
             style="fill:#ffa1a1;fill-opacity:1;fill-rule:evenodd;stroke:none"
             d="m 936.758,3274.75 0,0 c -36.524,0 -66.137,-29.62 -66.137,-66.14 l 0,-434.64 c 0,-36.52 29.613,-66.13 66.137,-66.13 l 434.632,0 c 36.53,0 66.14,29.61 66.14,66.13 l 0,434.64 c 0,36.52 -29.61,66.14 -66.14,66.14" /><path
             id="path24"
             style="fill:none;stroke:#000000;stroke-width:4.72424984;stroke-linecap:butt;stroke-linejoin:miter;stroke-miterlimit:10;stroke-dasharray:none;stroke-opacity:1"
             d="m 936.758,3274.75 0,0 c -36.524,0 -66.137,-29.62 -66.137,-66.14 l 0,-434.64 c 0,-36.52 29.613,-66.13 66.137,-66.13 l 434.632,0 c 36.53,0 66.14,29.61 66.14,66.13 l 0,434.64 c 0,36.52 -29.61,66.14 -66.14,66.14 l -434.632,0 z" /><path
             id="path26"
             style="fill:none;stroke:#000000;stroke-width:9.44849968;stroke-linecap:butt;stroke-linejoin:miter;stroke-miterlimit:10;stroke-dasharray:none;stroke-opacity:1"
             d="m 1154.07,2707.84 0,-425.19" /><path
             id="path28"
             style="fill:none;stroke:#000000;stroke-width:9.44849968;stroke-linecap:butt;stroke-linejoin:miter;stroke-miterlimit:10;stroke-dasharray:none;stroke-opacity:1"
             d="m 1154.07,2509.42 425.19,0" /><path
             id="path30"
             style="fill:none;stroke:#000000;stroke-width:9.44849968;stroke-linecap:butt;stroke-linejoin:miter;stroke-miterlimit:10;stroke-dasharray:none;stroke-opacity:1"
             d="m 1645.4,2651.14 0,0 c -36.53,0 -66.14,-29.61 -66.14,-66.14 l 0,-179.52 c 0,-36.52 29.61,-66.14 66.14,-66.14 l 576.35,0 c 36.53,0 66.14,29.62 66.14,66.14 l 0,179.52 c 0,36.53 -29.61,66.14 -66.14,66.14 l -576.35,0 z" /><path
             id="path32"
             style="fill:none;stroke:#000000;stroke-width:9.44849968;stroke-linecap:butt;stroke-linejoin:miter;stroke-miterlimit:10;stroke-dasharray:none;stroke-opacity:1"
             d="m 86.3945,2651.14 0,0 c -36.5273,0 -66.1406,-29.61 -66.1406,-66.14 l 0,-179.52 c 0,-36.52 29.6133,-66.14 66.1406,-66.14 l 576.3595,0 c 36.523,0 66.137,29.62 66.137,66.14 l 0,179.52 c 0,36.53 -29.614,66.14 -66.137,66.14 l -576.3595,0 z" /><path
             id="path34"
             style="fill:none;stroke:#000000;stroke-width:9.44849968;stroke-linecap:butt;stroke-linejoin:miter;stroke-miterlimit:10;stroke-dasharray:none;stroke-opacity:1"
             d="m 728.891,2509.42 425.179,0" /><path
             id="path36"
             style="fill:#ffa1a1;fill-opacity:1;fill-rule:evenodd;stroke:none"
             d="m 3374.47,3274.75 0,0 c -36.52,0 -66.14,-29.62 -66.14,-66.14 l 0,-434.64 c 0,-36.52 29.62,-66.13 66.14,-66.13 l 434.63,0 c 36.53,0 66.14,29.61 66.14,66.13 l 0,434.64 c 0,36.52 -29.61,66.14 -66.14,66.14" /><path
             id="path38"
             style="fill:none;stroke:#000000;stroke-width:4.72424984;stroke-linecap:butt;stroke-linejoin:miter;stroke-miterlimit:10;stroke-dasharray:none;stroke-opacity:1"
             d="m 3374.47,3274.75 0,0 c -36.52,0 -66.14,-29.62 -66.14,-66.14 l 0,-434.64 c 0,-36.52 29.62,-66.13 66.14,-66.13 l 434.63,0 c 36.53,0 66.14,29.61 66.14,66.13 l 0,434.64 c 0,36.52 -29.61,66.14 -66.14,66.14 l -434.63,0 z" /><path
             id="path40"
             style="fill:none;stroke:#000000;stroke-width:9.44849968;stroke-linecap:butt;stroke-linejoin:miter;stroke-miterlimit:10;stroke-dasharray:none;stroke-opacity:1"
             d="m 3591.79,2707.84 0,-425.19" /><path
             id="path42"
             style="fill:none;stroke:#000000;stroke-width:9.44849968;stroke-linecap:butt;stroke-linejoin:miter;stroke-miterlimit:10;stroke-dasharray:none;stroke-opacity:1"
             d="m 3591.79,2509.42 425.18,0" /><path
             id="path44"
             style="fill:none;stroke:#000000;stroke-width:9.44849968;stroke-linecap:butt;stroke-linejoin:miter;stroke-miterlimit:10;stroke-dasharray:none;stroke-opacity:1"
             d="m 4083.11,2651.14 0,0 c -36.53,0 -66.14,-29.61 -66.14,-66.14 l 0,-179.52 c 0,-36.52 29.61,-66.14 66.14,-66.14 l 576.36,0 c 36.53,0 66.14,29.62 66.14,66.14 l 0,179.52 c 0,36.53 -29.61,66.14 -66.14,66.14 l -576.36,0 z" /><path
             id="path46"
             style="fill:none;stroke:#000000;stroke-width:9.44849968;stroke-linecap:butt;stroke-linejoin:miter;stroke-miterlimit:10;stroke-dasharray:none;stroke-opacity:1"
             d="m 2524.11,2651.14 0,0 c -36.53,0 -66.14,-29.61 -66.14,-66.14 l 0,-179.52 c 0,-36.52 29.61,-66.14 66.14,-66.14 l 576.35,0 c 36.53,0 66.15,29.62 66.15,66.14 l 0,179.52 c 0,36.53 -29.62,66.14 -66.15,66.14 l -576.35,0 z" /><path
             id="path48"
             style="fill:none;stroke:#000000;stroke-width:9.44849968;stroke-linecap:butt;stroke-linejoin:miter;stroke-miterlimit:10;stroke-dasharray:none;stroke-opacity:1"
             d="m 3166.61,2509.42 425.18,0" /><path
             id="path50"
             style="fill:#ffa1a1;fill-opacity:1;fill-rule:evenodd;stroke:none"
             d="m 5925.57,3274.75 0,0 c -36.53,0 -66.14,-29.62 -66.14,-66.14 l 0,-434.63 c 0,-36.53 29.61,-66.14 66.14,-66.14 l 434.63,0 c 36.52,0 66.14,29.61 66.14,66.13 l 0,434.64 c 0,36.52 -29.62,66.14 -66.14,66.14" /><path
             id="path52"
             style="fill:none;stroke:#000000;stroke-width:4.72424984;stroke-linecap:butt;stroke-linejoin:miter;stroke-miterlimit:10;stroke-dasharray:none;stroke-opacity:1"
             d="m 5925.57,3274.75 0,0 c -36.53,0 -66.14,-29.62 -66.14,-66.14 l 0,-434.63 c 0,-36.53 29.61,-66.14 66.14,-66.14 l 434.63,0 c 36.52,0 66.14,29.61 66.14,66.13 l 0,434.64 c 0,36.52 -29.62,66.14 -66.14,66.14 l -434.63,0 z" /><path
             id="path54"
             style="fill:none;stroke:#000000;stroke-width:9.44849968;stroke-linecap:butt;stroke-linejoin:miter;stroke-miterlimit:10;stroke-dasharray:none;stroke-opacity:1"
             d="m 6142.88,2707.84 0,-425.19" /><path
             id="path56"
             style="fill:none;stroke:#000000;stroke-width:9.44849968;stroke-linecap:butt;stroke-linejoin:miter;stroke-miterlimit:10;stroke-dasharray:none;stroke-opacity:1"
             d="m 6142.88,2509.42 425.19,0" /><path
             id="path58"
             style="fill:none;stroke:#000000;stroke-width:9.44849968;stroke-linecap:butt;stroke-linejoin:miter;stroke-miterlimit:10;stroke-dasharray:none;stroke-opacity:1"
             d="m 6634.2,2651.14 0,0 c -36.52,0 -66.13,-29.61 -66.13,-66.14 l 0,-179.52 c 0,-36.52 29.61,-66.14 66.14,-66.14 l 576.35,0 c 36.53,0 66.14,29.62 66.14,66.14 l 0,179.52 c 0,36.53 -29.61,66.14 -66.14,66.14 l -576.36,0 z" /><path
             id="path60"
             style="fill:none;stroke:#000000;stroke-width:9.44849968;stroke-linecap:butt;stroke-linejoin:miter;stroke-miterlimit:10;stroke-dasharray:none;stroke-opacity:1"
             d="m 5075.2,2651.14 0,0 c -36.52,0 -66.14,-29.61 -66.14,-66.14 l 0,-179.52 c 0,-36.52 29.62,-66.14 66.14,-66.14 l 576.36,0 c 36.53,0 66.14,29.62 66.14,66.14 l 0,179.52 c 0,36.53 -29.61,66.14 -66.14,66.14 l -576.36,0 z" /><path
             id="path62"
             style="fill:none;stroke:#000000;stroke-width:9.44849968;stroke-linecap:butt;stroke-linejoin:miter;stroke-miterlimit:10;stroke-dasharray:none;stroke-opacity:1"
             d="m 5717.7,2509.42 425.18,0" /><path
             id="path64"
             style="fill:#ffa1a1;fill-opacity:1;fill-rule:evenodd;stroke:none"
             d="m 936.758,581.922 0,0 c -36.524,0 -66.137,-29.613 -66.137,-66.141 l 0,-434.6287 c 0,-36.5273 29.613,-66.1406 66.137,-66.1406 l 434.632,0 c 36.53,0 66.14,29.6133 66.14,66.1406 l 0,434.6287 c 0,36.528 -29.61,66.141 -66.14,66.141" /><path
             id="path66"
             style="fill:none;stroke:#000000;stroke-width:4.72424984;stroke-linecap:butt;stroke-linejoin:miter;stroke-miterlimit:10;stroke-dasharray:none;stroke-opacity:1"
             d="m 936.758,581.922 0,0 c -36.524,0 -66.137,-29.613 -66.137,-66.141 l 0,-434.6287 c 0,-36.5273 29.613,-66.1406 66.137,-66.1406 l 434.632,0 c 36.53,0 66.14,29.6133 66.14,66.1406 l 0,434.6287 c 0,36.528 -29.61,66.141 -66.14,66.141 l -434.632,0 z" /><path
             id="path68"
             style="fill:none;stroke:#000000;stroke-width:9.44849968;stroke-linecap:butt;stroke-linejoin:miter;stroke-miterlimit:10;stroke-dasharray:none;stroke-opacity:1"
             d="m 1154.07,581.922 0,425.188" /><path
             id="path70"
             style="fill:none;stroke:#000000;stroke-width:9.44849968;stroke-linecap:butt;stroke-linejoin:miter;stroke-miterlimit:10;stroke-dasharray:none;stroke-opacity:1"
             d="m 1154.07,780.34 425.19,0" /><path
             id="path72"
             style="fill:none;stroke:#000000;stroke-width:9.44849968;stroke-linecap:butt;stroke-linejoin:miter;stroke-miterlimit:10;stroke-dasharray:none;stroke-opacity:1"
             d="m 1645.4,950.414 0,0 c -36.53,0 -66.14,-29.613 -66.14,-66.141 l 0,-179.519 c 0,-36.527 29.61,-66.141 66.14,-66.141 l 576.35,0 c 36.53,0 66.14,29.614 66.14,66.141 l 0,179.519 c 0,36.528 -29.61,66.141 -66.14,66.141 l -576.35,0 z" /><path
             id="path74"
             style="fill:none;stroke:#000000;stroke-width:9.44849968;stroke-linecap:butt;stroke-linejoin:miter;stroke-miterlimit:10;stroke-dasharray:none;stroke-opacity:1"
             d="m 86.3945,950.414 0,0 c -36.5273,0 -66.1406,-29.613 -66.1406,-66.141 l 0,-179.519 c 0,-36.527 29.6133,-66.141 66.1406,-66.141 l 576.3595,0 c 36.523,0 66.137,29.614 66.137,66.141 l 0,179.519 c 0,36.528 -29.614,66.141 -66.137,66.141 l -576.3595,0 z" /><path
             id="path76"
             style="fill:none;stroke:#000000;stroke-width:9.44849968;stroke-linecap:butt;stroke-linejoin:miter;stroke-miterlimit:10;stroke-dasharray:none;stroke-opacity:1"
             d="m 728.891,780.34 425.179,0" /><path
             id="path78"
             style="fill:#ffa1a1;fill-opacity:1;fill-rule:evenodd;stroke:none"
             d="m 3346.13,581.922 0,0 c -36.53,0 -66.14,-29.613 -66.14,-66.141 l 0,-434.6287 c 0,-36.5273 29.61,-66.1406 66.14,-66.1406 l 434.63,0 c 36.53,0 66.14,29.6133 66.14,66.1406 l 0,434.6287 c 0,36.528 -29.61,66.141 -66.14,66.141" /><path
             id="path80"
             style="fill:none;stroke:#000000;stroke-width:4.72424984;stroke-linecap:butt;stroke-linejoin:miter;stroke-miterlimit:10;stroke-dasharray:none;stroke-opacity:1"
             d="m 3346.13,581.922 0,0 c -36.53,0 -66.14,-29.613 -66.14,-66.141 l 0,-434.6287 c 0,-36.5273 29.61,-66.1406 66.14,-66.1406 l 434.63,0 c 36.53,0 66.14,29.6133 66.14,66.1406 l 0,434.6287 c 0,36.528 -29.61,66.141 -66.14,66.141 l -434.63,0 z" /><path
             id="path82"
             style="fill:none;stroke:#000000;stroke-width:9.44849968;stroke-linecap:butt;stroke-linejoin:miter;stroke-miterlimit:10;stroke-dasharray:none;stroke-opacity:1"
             d="m 3563.44,581.922 0,425.188" /><path
             id="path84"
             style="fill:none;stroke:#000000;stroke-width:9.44849968;stroke-linecap:butt;stroke-linejoin:miter;stroke-miterlimit:10;stroke-dasharray:none;stroke-opacity:1"
             d="m 3563.44,780.34 425.19,0" /><path
             id="path86"
             style="fill:none;stroke:#000000;stroke-width:9.44849968;stroke-linecap:butt;stroke-linejoin:miter;stroke-miterlimit:10;stroke-dasharray:none;stroke-opacity:1"
             d="m 4054.77,950.414 0,0 c -36.53,0 -66.14,-29.613 -66.14,-66.141 l 0,-179.519 c 0,-36.527 29.61,-66.141 66.14,-66.141 l 576.35,0 c 36.53,0 66.14,29.614 66.14,66.141 l 0,179.519 c 0,36.528 -29.61,66.141 -66.14,66.141 l -576.35,0 z" /><path
             id="path88"
             style="fill:none;stroke:#000000;stroke-width:9.44849968;stroke-linecap:butt;stroke-linejoin:miter;stroke-miterlimit:10;stroke-dasharray:none;stroke-opacity:1"
             d="m 2495.76,950.414 0,0 c -36.53,0 -66.14,-29.613 -66.14,-66.141 l 0,-179.519 c 0,-36.527 29.61,-66.141 66.14,-66.141 l 576.36,0 c 36.53,0 66.14,29.614 66.14,66.141 l 0,179.519 c 0,36.528 -29.61,66.141 -66.14,66.141 l -576.36,0 z" /><path
             id="path90"
             style="fill:none;stroke:#000000;stroke-width:9.44849968;stroke-linecap:butt;stroke-linejoin:miter;stroke-miterlimit:10;stroke-dasharray:none;stroke-opacity:1"
             d="m 3138.26,780.34 425.18,0" /><path
             id="path92"
             style="fill:#ffa1a1;fill-opacity:1;fill-rule:evenodd;stroke:none"
             d="m 5897.22,581.922 0,0 c -36.52,0 -66.14,-29.613 -66.14,-66.141 l 0,-434.6287 c 0,-36.5273 29.62,-66.1406 66.14,-66.1406 l 434.63,0 c 36.53,0 66.14,29.6133 66.14,66.1406 l 0,434.6287 c 0,36.528 -29.61,66.141 -66.14,66.141" /><path
             id="path94"
             style="fill:none;stroke:#000000;stroke-width:4.72424984;stroke-linecap:butt;stroke-linejoin:miter;stroke-miterlimit:10;stroke-dasharray:none;stroke-opacity:1"
             d="m 5897.22,581.922 0,0 c -36.52,0 -66.14,-29.613 -66.14,-66.141 l 0,-434.6287 c 0,-36.5273 29.62,-66.1406 66.14,-66.1406 l 434.63,0 c 36.53,0 66.14,29.6133 66.14,66.1406 l 0,434.6287 c 0,36.528 -29.61,66.141 -66.14,66.141 l -434.63,0 z" /><path
             id="path96"
             style="fill:none;stroke:#000000;stroke-width:9.44849968;stroke-linecap:butt;stroke-linejoin:miter;stroke-miterlimit:10;stroke-dasharray:none;stroke-opacity:1"
             d="m 6114.54,581.922 0,425.188" /><path
             id="path98"
             style="fill:none;stroke:#000000;stroke-width:9.44849968;stroke-linecap:butt;stroke-linejoin:miter;stroke-miterlimit:10;stroke-dasharray:none;stroke-opacity:1"
             d="m 6114.54,780.34 425.18,0" /><path
             id="path100"
             style="fill:none;stroke:#000000;stroke-width:9.44849968;stroke-linecap:butt;stroke-linejoin:miter;stroke-miterlimit:10;stroke-dasharray:none;stroke-opacity:1"
             d="m 6605.86,950.414 0,0 c -36.53,0 -66.14,-29.613 -66.14,-66.141 l 0,-179.519 c 0,-36.527 29.61,-66.141 66.14,-66.141 l 576.36,0 c 36.52,0 66.14,29.614 66.14,66.141 l 0,179.519 c 0,36.528 -29.62,66.141 -66.14,66.141 l -576.36,0 z" /><path
             id="path102"
             style="fill:none;stroke:#000000;stroke-width:9.44849968;stroke-linecap:butt;stroke-linejoin:miter;stroke-miterlimit:10;stroke-dasharray:none;stroke-opacity:1"
             d="m 5046.86,950.414 0,0 c -36.53,0 -66.14,-29.613 -66.14,-66.141 l 0,-179.519 c 0,-36.527 29.61,-66.141 66.14,-66.141 l 576.35,0 c 36.53,0 66.15,29.614 66.15,66.141 l 0,179.519 c 0,36.528 -29.62,66.141 -66.15,66.141 l -576.35,0 z" /><path
             id="path104"
             style="fill:none;stroke:#000000;stroke-width:9.44849968;stroke-linecap:butt;stroke-linejoin:miter;stroke-miterlimit:10;stroke-dasharray:none;stroke-opacity:1"
             d="m 5689.36,780.34 425.18,0" /><path
             id="path106"
             style="fill:#bf6100;fill-opacity:1;fill-rule:evenodd;stroke:none"
             d="m 1437.53,1432.29 4818.73,0 0,566.91 -4818.73,0 0,-566.91 z" /><path
             id="path108"
             style="fill:none;stroke:#000000;stroke-width:4.72424984;stroke-linecap:butt;stroke-linejoin:miter;stroke-miterlimit:10;stroke-dasharray:none;stroke-opacity:1"
             d="m 1437.53,1432.29 4818.73,0 0,566.91 -4818.73,0 0,-566.91 z" /><path
             id="path110"
             style="fill:none;stroke:#000000;stroke-width:9.44849968;stroke-linecap:butt;stroke-linejoin:miter;stroke-miterlimit:10;stroke-dasharray:none;stroke-opacity:1"
             d="m 1154.07,2282.65 0,-141.72 708.64,0 0,-141.73" /><path
             id="path112"
             style="fill:none;stroke:#000000;stroke-width:9.44849968;stroke-linecap:butt;stroke-linejoin:miter;stroke-miterlimit:10;stroke-dasharray:none;stroke-opacity:1"
             d="m 3591.79,2311 0,-311.8" /><path
             id="path114"
             style="fill:none;stroke:#000000;stroke-width:9.44849968;stroke-linecap:butt;stroke-linejoin:miter;stroke-miterlimit:10;stroke-dasharray:none;stroke-opacity:1"
             d="m 6142.88,2282.65 0,-141.72 -736.98,0 0,-141.73" /><path
             id="path116"
             style="fill:none;stroke:#000000;stroke-width:9.44849968;stroke-linecap:butt;stroke-linejoin:miter;stroke-miterlimit:10;stroke-dasharray:none;stroke-opacity:1"
             d="m 1154.07,1007.11 0,283.45 708.64,0 0,141.73" /><path
             id="path118"
             style="fill:none;stroke:#000000;stroke-width:9.44849968;stroke-linecap:butt;stroke-linejoin:miter;stroke-miterlimit:10;stroke-dasharray:none;stroke-opacity:1"
             d="m 3563.44,1007.11 0,425.18" /><path
             id="path120"
             style="fill:none;stroke:#000000;stroke-width:9.44849968;stroke-linecap:butt;stroke-linejoin:miter;stroke-miterlimit:10;stroke-dasharray:none;stroke-opacity:1"
             d="m 6114.54,978.758 0,311.802 -708.64,0 0,141.73" /></g></g><g
         transform="scale(10,10)"
         id="g122"><text
           id="text124"
           style="font-variant:normal;font-weight:normal;font-size:11.9552002px;font-family:CMTT12;-inkscape-font-specification:CMTT12;writing-mode:lr-tb;fill:#000000;fill-opacity:1;fill-rule:nonzero;stroke:none"
           transform="matrix(1,0,0,-1,87.2,293.4)"><tspan
             id="tspan126"
             y="0"
             x="0 6.1200156 12.240025 18.360046 24.480057 30.600077 36.720085 42.840096 48.960117">Processor</tspan><tspan
             id="tspan128"
             y="48.1199"
             x="76.439796 82.559807 88.679832 -73.800201 -67.680183 -61.560169 -55.440155 -49.320137 -43.200119">I/OMemory</tspan><tspan
             id="tspan130"
             y="11.2801"
             x="5.6395998 17.879477 23.999487 30.119509 36.239517 42.359528">+Cache</tspan><tspan
             id="tspan132"
             y="5.3290705e-15"
             x="243.7196 249.83961 255.95964 262.07965 268.19971 274.31973 280.43976 286.55978 292.67981">Processor</tspan><tspan
             id="tspan134"
             y="48.1199"
             x="320.27979 326.39981 332.51981 170.03979 176.15982 182.27985 188.39987 194.51991 200.63994">I/OMemory</tspan><tspan
             id="tspan136"
             y="11.2801"
             x="249.3597 261.71988 267.8399 273.95993 280.07996 286.20001">+Cache</tspan><tspan
             id="tspan138"
             y="1.2434498e-14"
             x="498.83969 504.95972 511.07968 517.19971 523.3197 529.4397 535.55969 541.67969 547.79974">Processor</tspan><tspan
             id="tspan140"
             y="48.1199"
             x="575.3999 581.5199 587.63989 425.15991 431.27991 437.3999 443.51993 449.63989 455.75992">I/OMemory</tspan><tspan
             id="tspan142"
             y="11.2801"
             x="504.5997 516.83954 522.95959 529.07959 535.19958 541.31958">+Cache</tspan><tspan
             id="tspan144"
             y="264.6001"
             x="-0.00030000001 6.1197157 12.239725 18.359747 24.479755 30.599777 36.719788 42.839798 48.959816">Processor</tspan><tspan
             id="tspan146"
             y="216.36031"
             x="76.439499 82.559509 88.679527">I/O</tspan><tspan
             id="tspan148"
             y="215.40015"
             x="-73.800499 -67.680481 -61.560471 -55.440453 -49.320438 -43.20042">Memory</tspan><tspan
             id="tspan150"
             y="277.80014"
             x="2.7597001 15.119883 21.239891 27.359913 33.479923 39.599934">+Cache</tspan><tspan
             id="tspan152"
             y="264.60013"
             x="240.9597 247.07973 253.19974 259.31976 265.43982 271.55984 277.67984 283.79987 289.91989">Processor</tspan><tspan
             id="tspan154"
             y="216.36034"
             x="317.39951 323.51953 329.6395">I/O</tspan><tspan
             id="tspan156"
             y="215.40019"
             x="167.1595 173.27953 179.39954 185.51956 191.63962 197.75963">Memory</tspan><tspan
             id="tspan158"
             y="277.8002"
             x="243.7193 256.0795 262.19952 268.31955 274.43954 280.5596">+Cache</tspan><tspan
             id="tspan160"
             y="264.60019"
             x="496.07932 502.19931 508.31931 514.43933 520.55927 526.67932 532.79926 538.91931 545.03931">Processor</tspan><tspan
             id="tspan162"
             y="216.3604"
             x="572.5191 578.6391 584.75909">I/O</tspan><tspan
             id="tspan164"
             y="215.40022"
             x="422.27911 428.39911 434.5191 440.63913 446.75909 452.87912">Memory</tspan><tspan
             id="tspan166"
             y="277.80023"
             x="498.8389 511.19907 517.31909 523.43909 529.55908 535.67908">+Cache</tspan><tspan
             id="tspan168"
             y="113.40023"
             x="240.95889 247.07892 253.19894 259.31897 265.43903 271.55902 277.67905 283.79907 289.9191 296.03912 302.15918 308.27917 314.3992 320.51923">Cache-Coherent</tspan><tspan
             id="tspan170"
             y="127.56043"
             x="249.3589 255.47893 261.59894 267.71896 273.83902 279.95905 286.07904 292.19907 298.31909 304.43912 310.55917 316.6792">InterConnect</tspan></text>
</g></g></g></svg>