<?xml version="1.0" encoding="UTF-8" standalone="no"?>
<svg
   xmlns:dc="http://purl.org/dc/elements/1.1/"
   xmlns:cc="http://creativecommons.org/ns#"
   xmlns:rdf="http://www.w3.org/1999/02/22-rdf-syntax-ns#"
   xmlns:svg="http://www.w3.org/2000/svg"
   xmlns="http://www.w3.org/2000/svg"
   viewBox="0 0 466.25 358.75"
   height="358.75"
   width="466.25"
   xml:space="preserve"
   version="1.1"
   id="svg2"><metadata
     id="metadata8"><rdf:RDF><cc:Work
         rdf:about=""><dc:format>image/svg+xml</dc:format><dc:type
           rdf:resource="http://purl.org/dc/dcmitype/StillImage" /></cc:Work></rdf:RDF></metadata><defs
     id="defs6"><clipPath
       id="clipPath18"
       clipPathUnits="userSpaceOnUse"><path
         id="path20"
         d="m 6.80078,12 3710.00002,0 0,2850 -3710.00002,0 0,-2850 z" /></clipPath></defs><g
     transform="matrix(1.25,0,0,-1.25,0,358.75)"
     id="g10"><g
       transform="scale(0.1,0.1)"
       id="g12"><g
         id="g14"><g
           clip-path="url(#clipPath18)"
           id="g16"><path
             id="path22"
             style="fill:#ffa1a1;fill-opacity:1;fill-rule:evenodd;stroke:none"
             d="m 82.7578,2854.55 0,0 c -36.5234,0 -66.1367,-29.62 -66.1367,-66.14 l 0,-434.64 c 0,-36.52 29.6133,-66.13 66.1367,-66.13 l 434.6332,0 c 36.527,0 66.14,29.61 66.14,66.13 l 0,434.64 c 0,36.52 -29.613,66.14 -66.14,66.14" /><path
             id="path24"
             style="fill:none;stroke:#000000;stroke-width:4.72424984;stroke-linecap:butt;stroke-linejoin:miter;stroke-miterlimit:10;stroke-dasharray:none;stroke-opacity:1"
             d="m 82.7578,2854.55 0,0 c -36.5234,0 -66.1367,-29.62 -66.1367,-66.14 l 0,-434.64 c 0,-36.52 29.6133,-66.13 66.1367,-66.13 l 434.6332,0 c 36.527,0 66.14,29.61 66.14,66.13 l 0,434.64 c 0,36.52 -29.613,66.14 -66.14,66.14 l -434.6332,0 z" /><path
             id="path26"
             style="fill:#ffa1a1;fill-opacity:1;fill-rule:evenodd;stroke:none"
             d="m 1074.85,2854.55 0,0 c -36.53,0 -66.14,-29.62 -66.14,-66.14 l 0,-434.64 c 0,-36.52 29.61,-66.13 66.14,-66.13 l 434.63,0 c 36.53,0 66.14,29.61 66.14,66.13 l 0,434.64 c 0,36.52 -29.61,66.14 -66.14,66.14" /><path
             id="path28"
             style="fill:none;stroke:#000000;stroke-width:4.72424984;stroke-linecap:butt;stroke-linejoin:miter;stroke-miterlimit:10;stroke-dasharray:none;stroke-opacity:1"
             d="m 1074.85,2854.55 0,0 c -36.53,0 -66.14,-29.62 -66.14,-66.14 l 0,-434.64 c 0,-36.52 29.61,-66.13 66.14,-66.13 l 434.63,0 c 36.53,0 66.14,29.61 66.14,66.13 l 0,434.64 c 0,36.52 -29.61,66.14 -66.14,66.14 l -434.63,0 z" /><path
             id="path30"
             style="fill:#ffa1a1;fill-opacity:1;fill-rule:evenodd;stroke:none"
             d="m 2066.95,2854.55 0,0 c -36.53,0 -66.15,-29.62 -66.15,-66.14 l 0,-434.64 c 0,-36.52 29.62,-66.13 66.15,-66.13 l 434.62,0 c 36.53,0 66.14,29.61 66.14,66.13 l 0,434.64 c 0,36.52 -29.61,66.14 -66.14,66.14" /><path
             id="path32"
             style="fill:none;stroke:#000000;stroke-width:4.72424984;stroke-linecap:butt;stroke-linejoin:miter;stroke-miterlimit:10;stroke-dasharray:none;stroke-opacity:1"
             d="m 2066.95,2854.55 0,0 c -36.53,0 -66.15,-29.62 -66.15,-66.14 l 0,-434.64 c 0,-36.52 29.62,-66.13 66.15,-66.13 l 434.62,0 c 36.53,0 66.14,29.61 66.14,66.13 l 0,434.64 c 0,36.52 -29.61,66.14 -66.14,66.14 l -434.62,0 z" /><path
             id="path34"
             style="fill:#ffa1a1;fill-opacity:1;fill-rule:evenodd;stroke:none"
             d="m 3059.04,2854.55 0,0 c -36.53,0 -66.14,-29.62 -66.14,-66.14 l 0,-434.64 c 0,-36.52 29.61,-66.13 66.14,-66.13 l 434.63,0 c 36.53,0 66.14,29.61 66.14,66.13 l 0,434.64 c 0,36.52 -29.61,66.14 -66.14,66.14" /><path
             id="path36"
             style="fill:none;stroke:#000000;stroke-width:4.72424984;stroke-linecap:butt;stroke-linejoin:miter;stroke-miterlimit:10;stroke-dasharray:none;stroke-opacity:1"
             d="m 3059.04,2854.55 0,0 c -36.53,0 -66.14,-29.62 -66.14,-66.14 l 0,-434.64 c 0,-36.52 29.61,-66.13 66.14,-66.13 l 434.63,0 c 36.53,0 66.14,29.61 66.14,66.13 l 0,434.64 c 0,36.52 -29.61,66.14 -66.14,66.14 l -434.63,0 z" /><path
             id="path38"
             style="fill:#00b000;fill-opacity:1;fill-rule:evenodd;stroke:none"
             d="m 16.6211,1579 566.91,0 0,283.457 -566.91,0 0,-283.457 z" /><path
             id="path40"
             style="fill:none;stroke:#000000;stroke-width:4.72424984;stroke-linecap:butt;stroke-linejoin:miter;stroke-miterlimit:10;stroke-dasharray:none;stroke-opacity:1"
             d="m 16.6211,1579 566.91,0 0,283.457 -566.91,0 0,-283.457 z" /><path
             id="path42"
             style="fill:#00b000;fill-opacity:1;fill-rule:evenodd;stroke:none"
             d="m 1008.71,1579 566.91,0 0,283.457 -566.91,0 0,-283.457 z" /><path
             id="path44"
             style="fill:none;stroke:#000000;stroke-width:4.72424984;stroke-linecap:butt;stroke-linejoin:miter;stroke-miterlimit:10;stroke-dasharray:none;stroke-opacity:1"
             d="m 1008.71,1579 566.91,0 0,283.457 -566.91,0 0,-283.457 z" /><path
             id="path46"
             style="fill:#00b000;fill-opacity:1;fill-rule:evenodd;stroke:none"
             d="m 2000.8,1579 566.91,0 0,283.457 -566.91,0 0,-283.457 z" /><path
             id="path48"
             style="fill:none;stroke:#000000;stroke-width:4.72424984;stroke-linecap:butt;stroke-linejoin:miter;stroke-miterlimit:10;stroke-dasharray:none;stroke-opacity:1"
             d="m 2000.8,1579 566.91,0 0,283.457 -566.91,0 0,-283.457 z" /><path
             id="path50"
             style="fill:#00b000;fill-opacity:1;fill-rule:evenodd;stroke:none"
             d="m 2992.9,1579 566.91,0 0,283.457 -566.91,0 0,-283.457 z" /><path
             id="path52"
             style="fill:none;stroke:#000000;stroke-width:4.72424984;stroke-linecap:butt;stroke-linejoin:miter;stroke-miterlimit:10;stroke-dasharray:none;stroke-opacity:1"
             d="m 2992.9,1579 566.91,0 0,283.457 -566.91,0 0,-283.457 z" /><path
             id="path54"
             style="fill:#bf6100;fill-opacity:1;fill-rule:evenodd;stroke:none"
             d="m 441.801,728.633 2692.82,0 0,425.184 -2692.82,0 0,-425.184 z" /><path
             id="path56"
             style="fill:none;stroke:#000000;stroke-width:4.72424984;stroke-linecap:butt;stroke-linejoin:miter;stroke-miterlimit:10;stroke-dasharray:none;stroke-opacity:1"
             d="m 441.801,728.633 2692.82,0 0,425.184 -2692.82,0 0,-425.184 z" /><path
             id="path58"
             style="fill:#008f8f;fill-opacity:1;fill-rule:evenodd;stroke:none"
             d="m 1008.71,19.9961 1559,0 0,425.18 -1559,0 0,-425.18 z" /><path
             id="path60"
             style="fill:none;stroke:#000000;stroke-width:4.72424984;stroke-linecap:butt;stroke-linejoin:miter;stroke-miterlimit:10;stroke-dasharray:none;stroke-opacity:1"
             d="m 1008.71,19.9961 1559,0 0,425.18 -1559,0 0,-425.18 z" /><path
             id="path62"
             style="fill:none;stroke:#000000;stroke-width:9.44849968;stroke-linecap:butt;stroke-linejoin:miter;stroke-miterlimit:10;stroke-dasharray:none;stroke-opacity:1"
             d="m 300.074,2287.64 0,-425.19" /><path
             id="path64"
             style="fill:none;stroke:#000000;stroke-width:9.44849968;stroke-linecap:butt;stroke-linejoin:miter;stroke-miterlimit:10;stroke-dasharray:none;stroke-opacity:1"
             d="m 1292.17,2287.64 0,-425.19" /><path
             id="path66"
             style="fill:none;stroke:#000000;stroke-width:9.44849968;stroke-linecap:butt;stroke-linejoin:miter;stroke-miterlimit:10;stroke-dasharray:none;stroke-opacity:1"
             d="m 2284.26,2287.64 0,-425.19" /><path
             id="path68"
             style="fill:none;stroke:#000000;stroke-width:9.44849968;stroke-linecap:butt;stroke-linejoin:miter;stroke-miterlimit:10;stroke-dasharray:none;stroke-opacity:1"
             d="m 3276.35,2287.64 0,-425.19" /><path
             id="path70"
             style="fill:none;stroke:#000000;stroke-width:9.44849968;stroke-linecap:butt;stroke-linejoin:miter;stroke-miterlimit:10;stroke-dasharray:none;stroke-opacity:1"
             d="m 300.074,1579 0,-141.73 1473.966,0 0,-283.45" /><path
             id="path72"
             style="fill:none;stroke:#000000;stroke-width:9.44849968;stroke-linecap:butt;stroke-linejoin:miter;stroke-miterlimit:10;stroke-dasharray:none;stroke-opacity:1"
             d="m 1774.04,1437.27 1502.31,0 0,141.73" /><path
             id="path74"
             style="fill:none;stroke:#000000;stroke-width:9.44849968;stroke-linecap:butt;stroke-linejoin:miter;stroke-miterlimit:10;stroke-dasharray:none;stroke-opacity:1"
             d="m 2284.26,1437.27 0,141.73" /><path
             id="path76"
             style="fill:none;stroke:#000000;stroke-width:9.44849968;stroke-linecap:butt;stroke-linejoin:miter;stroke-miterlimit:10;stroke-dasharray:none;stroke-opacity:1"
             d="m 1292.17,1437.27 0,141.73" /><path
             id="path78"
             style="fill:none;stroke:#000000;stroke-width:9.44849968;stroke-linecap:butt;stroke-linejoin:miter;stroke-miterlimit:10;stroke-dasharray:none;stroke-opacity:1"
             d="m 1774.04,728.633 0,-283.457" /><path
             id="path80"
             style="fill:none;stroke:#000000;stroke-width:9.44849968;stroke-linecap:butt;stroke-linejoin:miter;stroke-miterlimit:10;stroke-dasharray:none;stroke-opacity:1"
             d="m 2567.71,218.414 425.19,0" /><path
             id="path82"
             style="fill:none;stroke:#000000;stroke-width:9.44849968;stroke-linecap:butt;stroke-linejoin:miter;stroke-miterlimit:10;stroke-dasharray:none;stroke-opacity:1"
             d="m 3059.04,388.488 0,0 c -36.53,0 -66.14,-29.613 -66.14,-66.14 l 0,-179.524 c 0,-36.523 29.61,-66.1365 66.14,-66.1365 l 576.35,0 c 36.53,0 66.15,29.6135 66.15,66.1365 l 0,179.524 c 0,36.527 -29.62,66.14 -66.15,66.14 l -576.35,0 z" /></g></g><g
         transform="scale(10,10)"
         id="g84"><text
           id="text86"
           style="font-variant:normal;font-weight:normal;font-size:11.9552002px;font-family:CMTT12;-inkscape-font-specification:CMTT12;writing-mode:lr-tb;fill:#000000;fill-opacity:1;fill-rule:nonzero;stroke:none"
           transform="matrix(1,0,0,-1,4.51992,174.84)"><tspan
             id="tspan88"
             y="0"
             x="0 6.1200156 12.240031 18.360046 24.480062 30.60008 36.720097 99.240173 105.36018 111.4802 117.60021 123.72022 129.84024 135.96025 198.36031 204.48032 210.60034 216.72037 222.84041 228.96043 235.08046 297.60052 303.72055 309.84058 315.9606 322.08063 328.20065 334.32068">PrivatePrivatePrivatePrivate</tspan><tspan
             id="tspan90"
             y="11.2797"
             x="5.6402302 11.760245 17.880259 24.000275 30.120291 102.00069 108.1207 114.24072 120.36073 126.48074 204.12091 210.24094 216.36096 222.48099 228.60103 303.24118 309.36118 315.4812 321.60123 327.72128">CacheCacheCacheCache</tspan><tspan
             id="tspan92"
             y="70.800003"
             x="144.60023 150.72025 156.84026 162.96027 169.08028 175.2003">Shared</tspan><tspan
             id="tspan94"
             y="82.199997"
             x="147.3604 153.48039 159.60042 165.72043 171.84044">Cache</tspan><tspan
             id="tspan96"
             y="141.71989"
             x="150.24046 156.36047 162.4805 168.60051">Main</tspan><tspan
             id="tspan98"
             y="153"
             x="144.60023 150.72025 156.84027 162.96028 169.08029 175.20032">Memory</tspan><tspan
             id="tspan100"
             y="-76.559998"
             x="-2.87976 3.2402556 9.3602705 15.480287 21.600302 27.72032 33.840336 39.96035 46.080368 96.360352 102.48036 108.60039 114.7204 120.8404 126.96043 133.08043 139.20044 145.32047 195.60045 201.72047 207.8405 213.96051 220.08057 226.20058 232.3206 238.44063 244.56065 294.84064 300.96066 307.08069 313.20068 319.32074 325.44077 331.56079 337.68082 343.80084">ProcessorProcessorProcessorProcessor</tspan><tspan
             id="tspan102"
             y="153"
             x="303.24023 309.36026 315.48029">I/O</tspan></text>
</g></g></g></svg>