<?xml version="1.0" encoding="UTF-8" standalone="no"?>
<svg
   xmlns:dc="http://purl.org/dc/elements/1.1/"
   xmlns:cc="http://creativecommons.org/ns#"
   xmlns:rdf="http://www.w3.org/1999/02/22-rdf-syntax-ns#"
   xmlns:svg="http://www.w3.org/2000/svg"
   xmlns="http://www.w3.org/2000/svg"
   xmlns:sodipodi="http://sodipodi.sourceforge.net/DTD/sodipodi-0.dtd"
   xmlns:inkscape="http://www.inkscape.org/namespaces/inkscape"
   viewBox="0 0 366.40625 351.5625"
   height="351.5625"
   width="366.40625"
   xml:space="preserve"
   version="1.1"
   id="svg2"
   inkscape:version="0.91 r13725"
   sodipodi:docname="BLE.svg"><sodipodi:namedview
     pagecolor="#ffffff"
     bordercolor="#666666"
     borderopacity="1"
     objecttolerance="10"
     gridtolerance="10"
     guidetolerance="10"
     inkscape:pageopacity="0"
     inkscape:pageshadow="2"
     inkscape:window-width="1920"
     inkscape:window-height="1171"
     id="namedview271"
     showgrid="false"
     fit-margin-top="0"
     fit-margin-left="0"
     fit-margin-right="0"
     fit-margin-bottom="0"
     inkscape:zoom="2.7278222"
     inkscape:cx="606.01563"
     inkscape:cy="-483.52812"
     inkscape:window-x="1080"
     inkscape:window-y="0"
     inkscape:window-maximized="1"
     inkscape:current-layer="svg2" /><metadata
     id="metadata8"><rdf:RDF><cc:Work
         rdf:about=""><dc:format>image/svg+xml</dc:format><dc:type
           rdf:resource="http://purl.org/dc/dcmitype/StillImage" /><dc:title></dc:title></cc:Work></rdf:RDF></metadata><defs
     id="defs6"><clipPath
       id="clipPath12"
       clipPathUnits="userSpaceOnUse"><path
         id="path14"
         d="M 0,0 612,0 612,792 0,792 0,0 Z"
         inkscape:connector-curvature="0" /></clipPath><clipPath
       id="clipPath228"
       clipPathUnits="userSpaceOnUse"><path
         id="path230"
         d="m 3135,2960 2442,0 0,-2240 -2442,0 0,2240 z"
         inkscape:connector-curvature="0" /></clipPath></defs><g
     clip-path="url(#clipPath12)"
     transform="matrix(1.25,0,0,1.25,422.8125,659.30937)"
     id="g10"><g
       transform="matrix(0.125,0,0,-0.125,-405,371.25)"
       id="g16"><g
         id="g18"><g
           transform="scale(10,10)"
           id="g20"><text
             id="text22"
             style="font-variant:normal;font-weight:bold;font-size:10px;font-family:Times;-inkscape-font-specification:Times-Bold;writing-mode:lr-tb;fill:#000000;fill-opacity:1;fill-rule:nonzero;stroke:none"
             transform="matrix(1,0,0,-1,157.79,623.33)"><tspan
               id="tspan24"
               y="0"
               x="0 7.2199998 12.78 16.67 20 24.440001 29.440001 33.880001">Abstract</tspan></text>
<text
             id="text26"
             style="font-variant:normal;font-weight:normal;font-size:10px;font-family:Times;-inkscape-font-specification:Times-Roman;writing-mode:lr-tb;fill:#000000;fill-opacity:1;fill-rule:nonzero;stroke:none"
             transform="matrix(1,0,0,-1,68.4,607.33)"><tspan
               id="tspan28"
               y="0"
               x="0 9.4399996 14.44 17.219999 20 24.440001 28.469999 36.25 41.25 46.25 50.689999 54.02 59.02 63.049999 68.610001 74.169998 81.389999 88.610001 92.5 96.529999 101.53 104.86 107.64 112.08 117.08 121.11 125.55 130.55 135.55 138.33 142.77 145.55 150.55 154.58 159.02 161.8 166.8 170.69 173.47 177.91 181.24001 185.13 189.16 194.16 197.49001 201.52 206.52 209.85001 212.63 217.63 222.63 227.63">While modern FPGAs often contain clusters of 4-input</tspan><tspan
               id="tspan30"
               y="11"
               x="-14.4 -11.62 -6.6199999 -1.62 3.3800001 8.3800001 13.38 18.76 21.540001 25.98 30.98 33.759998 38.200001 42.09 47.470001 51.91 56.91 61.91 67.290001 70.620003 73.400002 76.18 81.18 86.559998 89.889999 92.669998 97.669998 102.67 106.56 109.06 114.44 117.22 120 122.78 125.56 128.34 132.78 138.16 140.94 144.83 150.21001 155.21001 160.21001 165.21001 172.42999 177.42999 182.81 187.25 192.25 197.25 202.25 205.03 210.41 215.41 220.41 225.41">lookup tables and flip flops, little is known about good</tspan><tspan
               id="tspan32"
               y="22"
               x="-14.4 -9.96 -4.96 0.039999999 2.8199999 7.2600002 11.7 15.59 18.84 22.17 27.17 30.5 33.75 36.529999 43.75 48.75 52 57 61.439999 66.440002 69.690002 74.129997 77.459999 81.900002 86.900002 89.68 92.459999 96.900002 101.34 104.12 109.12 112.45 116.89 119.67 122.92 127.92 132.36 135.69 140.13 147.91 152.35001 155.13 159.57001 162.89999 166.78999 169.57001 172.82001 175.60001 180.60001 185.03999 188.28999 193.28999 198.28999 206.07001 211.07001 215.50999 218.84 222.09 227.09">choices for two key architectural parameters: the number of</tspan><tspan
               id="tspan34"
               y="33"
               x="-14.4 -11.62 -6.6199999 -2.1800001 1.71 6.1500001 8.0500002 13.05 17.49 21.379999 24.16 28.6 30.5 33.279999 38.279999 43.279999 46.060001 50.5 52.400002 56.84 59.619999 64.059998 71.839996 76.279999 81.279999 84.059998 87.949997 89.849998 93.18 99.849998 105.96 112.07 115.96 119.29 121.19 123.97 128.97 130.87 135.31 139.75 144.19 149.19 151.09 155.53 158.31 163.31 167.2 169.98 174.42 177.75 180.25 182.14999 186.59 191.59 196.59 198.49001 201.27 206.27 210.71001 212.61 215.39 220.39 223.17 227.61">these basic logic elements (BLEs) in each cluster, and the total</tspan><tspan
               id="tspan36"
               y="44"
               x="-14.4 -9.3999996 -4.4000001 3.3800001 8.3800001 12.82 16.15 19.110001 24.110001 27.440001 30.4 35.400002 38.18 42.07 44.849998 47.630001 52.630001 57.07 59.849998 62.810001 65.589996 70.589996 75.589996 80.589996 83.370003 87.260002 90.220001 93 98 102.44 105.22 108.18 110.96 115.96 120.4 123.36 128.36 131.69 136.69 141.69 145.02 149.46001 157.24001 165.02 169.46001 174.46001 177.24001 181.67999 184.64 187.97 192.97 197.97 200.75 203.53 208.53 213.53 216.49001 220.92999 225.37">number of distinct inputs that the programmable routing can</tspan><tspan
               id="tspan38"
               y="55"
               x="-14.4 -9.3999996 -6.0700002 -1.0700001 3.9300001 6.71 11.71 16.15 18.790001 21.57 26.57 29.209999 33.650002 38.09 42.529999 47.529999 50.169998 54.610001 57.389999 62.389999 66.279999 69.059998 73.5 76.830002 79.330002 81.970001 85.300003 90.300003 92.940002 95.720001 100.72 103.5 107.39 110.03 115.03 119.47 124.47 128.91 132.24001 134.88 142.10001 146.53999 149.17999 153.62 158.62 163.62 166.39999 171.39999 174.73 179.17 181.81 184.59 189.59 194.03 196.67 201.11 204.44 207.77 212.21001 216.64999 219.42999 222.07001 227.07001">provide to each cluster. In this paper we explore the effect of</tspan><tspan
               id="tspan40"
               y="66"
               x="-14.4 -11.62 -6.6199999 -2.1800001 1.71 6.1500001 9.6400003 14.64 19.08 22.41 26.85 34.630001 39.07 41.849998 46.290001 49.619999 53.509998 57 62 67 70.489998 76.050003 81.610001 88.830002 96.050003 99.540001 103.98 107.31 111.75 116.19 119.52 123.96 127.29 130.62 133.39999 137.84 140.62 145.06 150.06 154.5 159.5 162 165.49001 174.92999 179.37 182.86 186.75 191.75 196.75 203.97 207.46001 210.24001 215.24001 219.67999 222.46001 225.95">these parameters on FPGA area-efficiency. We show that a</tspan><tspan
               id="tspan42"
               y="77"
               x="-14.4 -9.96 -7.1799998 -2.1800001 1.71 4.4899998 8.9300003 12.26 15.12 19.559999 24.559999 29.559999 32.34 36.779999 39.560001 44.560001 47.34 52.34 57.34 60.200001 67.419998 70.279999 76.949997 83.059998 89.169998 93.059998 95.919998 100.92 105.36 109.8 114.8 118.69 121.55 126.55 131.55 134.33 139.33 142.19 147.19 154.41 157.27 162.91 165.77 170.77 173.63 178.63 181.41 185.3 188.08 190.86 195.86 200.3 203.08 205.94 208.72 213.72 218.72 223.72 226.5">cluster containing N BLEs needs only 2N + 2 distinct inputs</tspan><tspan
               id="tspan44"
               y="88"
               x="-14.4 -11.07 -6.0700002 -2.1800001 0.31999999 3.28 6.0599999 11.06 15.5 18.459999 23.459999 30.68 33.639999 41.419998 45.860001 50.860001 53.639999 61.419998 66.419998 74.199997 77.529999 80.489998 83.269997 88.269997 91.230003 95.669998 100.11 105.11 107.89 112.33 117.33 121.77 124.73 129.17 134.17 141.95 146.95 149.73 154.17 156.95 161.39 164.35001 167.13 172.13 177.13 179.91 184.35001 187.31 192.31 195.09 197.87 200.64999 203.42999 207.87 212.31 215.09 217.87 222.87 227.87">(vs. the 4N maximum) to achieve complete logic utilization.</tspan><tspan
               id="tspan46"
               y="99"
               x="-14.4 -8.8400002 -4.4000001 0.039999999 5.04 10.04 15.04 17.82 22.82 25.32 28.870001 36.09 40.529999 44.080002 47.41 50.189999 55.189999 60.189999 63.740002 66.519997 71.519997 75.959999 78.739998 82.290001 86.730003 90.279999 94.720001 97.5 102.5 106.39 109.17 113.61 116.94 120.49 124.38 127.16 131.60001 136.03999 139.59 144.59 147.92 151.47 156.47 160.02 162.8 166.69 170.24001 178.02 183.02 186.91 189.69 193.24001 197.67999 201.00999 205.45 209.89 213.22 217.66 220.99001 224.32001 227.10001">Secondly, we find that a cluster size of 4 is most area-effi-</tspan><tspan
               id="tspan48"
               y="110"
               x="-14.4 -9.96 -7.1799998 -2.74 2.26 5.04 7.54 9.4499998 13.89 18.889999 23.889999 25.799999 28.58 33.02 37.459999 42.459999 46.349998 48.259998 51.040001 56.040001 57.950001 62.389999 67.389999 69.300003 74.860001 80.419998 87.639999 94.860001 96.769997 99.550003 104.55 108.99 111.77 113.68 116.46 120.35 122.26 127.26 129.17 132.5 134.41 139.41 144.41 152.74001 154.64999 162.42999 167.42999 170.75999 175.2 177.11 181.55 184.88 189.32001 193.75999 197.09 201.53 204.86 208.19 210.97 215.41 218.19 222.63 227.63">cient, and leads to an FPGA that is 5 - 10% more area-efficient</tspan><tspan
               id="tspan50"
               y="121"
               x="-14.4 -11.62 -6.6199999 -2.1800001 2.8199999 5.3200002 9.7600002 14.76 17.26 22.82 28.379999 35.599998 42.82 45.32 50.32 54.759998 58.650002 63.09 68.089996 70.589996 75.589996 80.589996 83.089996 87.529999 90.029999 93.919998 96.699997 101.7 106.7 109.48 113.92 116.42 123.09 129.2 135.31 137.81 140.59 145.59 150.59 153.37 157.81 160.31 165.31 168.09 173.09 177.53 182.53">than an FPGA based on a single BLE logic block.</tspan></text>
<text
             id="text52"
             style="font-variant:normal;font-weight:bold;font-size:10px;font-family:Times;-inkscape-font-specification:Times-Bold;writing-mode:lr-tb;fill:#000000;fill-opacity:1;fill-rule:nonzero;stroke:none"
             transform="matrix(1,0,0,-1,144.26,469.33)"><tspan
               id="tspan54"
               y="0"
               x="0 5 7.5 10 13.89 19.450001 22.780001 27.040001 32.040001 37.599998 43.16 47.599998 50.93 53.709999 58.709999">1. Introduction</tspan></text>
<text
             id="text56"
             style="font-variant:normal;font-weight:normal;font-size:10px;font-family:Times;-inkscape-font-specification:Times-Roman;writing-mode:lr-tb;fill:#000000;fill-opacity:1;fill-rule:nonzero;stroke:none"
             transform="matrix(1,0,0,-1,68.4,453.33)"><tspan
               id="tspan58"
               y="0"
               x="0 7.2199998 12.22 16.66 18.73 23.73 27.059999 29.129999 31.91 36.91 41.349998 43.419998 48.419998 52.860001 57.860001 59.93 64.93 69.370003 72.150002 76.589996 79.919998 87.699997 90.480003 95.480003 99.919998 104.92 107.7 111.59 113.66 118.66 121.99 124.06 128.5 133.5 135.57001 141.13 146.69 153.91 161.13 164.46001 168.35001 170.42 174.86 178.19 182.63 187.07001 190.39999 194.84 198.17 201.5 204.28 208.72 211.5 215.94 220.94 225.38">One of the key determinants of an FPGA’s area-efficiency</tspan><tspan
               id="tspan60"
               y="11"
               x="-14.4 -11.62 -7.73 -5.7800002 -3 2 6.4400001 8.3900003 12.28 15.06 18.389999 23.389999 27.83 30.610001 35.610001 38.939999 43.380001 45.330002 49.77 54.77 59.77 61.720001 66.720001 70.050003 74.489998 79.489998 84.489998 87.269997 91.709999 95.040001 97.82 100.6 105.6 107.55 112.55 115.88 117.83 120.61 123.39 127.28 129.23 132.00999 137.00999 142.00999 144.78999 149.23 151.17999 156.17999 158.96001 163.96001 168.39999 173.39999 175.89999 177.85001 181.17999 184.50999 186.46001 190.89999 192.85001 197.85001 202.28999 205.62 210.62 212.57001 216.46001 219.24001 227.02">is the structure and granularity of its logic block. If a very sim-</tspan><tspan
               id="tspan62"
               y="22"
               x="-14.4 -9.3999996 -6.6199999 -2.1800001 0.31999999 5.1999998 10.2 13.53 18.41 21.74 24.52 29.52 33.959999 37.290001 42.290001 45.619999 50.060001 52.84 57.84 62.279999 67.279999 69.779999 74.660004 77.440002 82.440002 87.440002 90.220001 94.660004 99.540001 104.54 107.32 112.32 116.76 121.76 126.64 129.42 133.31 138.19 142.63 150.41 155.41 158.19 163.19 168.19 172.63 177.63 180.13 185.00999 192.78999 197.78999 201.12 205.56 210.44 213.22 218.22 223.22 226">ple, or fine-grained, logic block is employed, more logic</tspan><tspan
               id="tspan64"
               y="33"
               x="-14.4 -9.3999996 -6.6199999 -1.62 2.8199999 7.8200002 11.71 14.55 21.77 24.549999 27.33 30.110001 32.950001 37.950001 42.389999 45.23 48.560001 53 58 63 65.779999 69.110001 73.550003 78.550003 81.389999 84.169998 89.169998 92.010002 94.790001 102.57 107.57 110.35 114.79 122.57 127.01 132.00999 134.78999 137.63 142.07001 144.91 149.91 152.69 157.69 162.13 167.13 169.97 174.41 177.19 180.52 184.96001 189.96001 192.74001 195.52 198.02 200.86 205.3 210.3 215.3 218.14 220.92 225.92">blocks will be required to implement a given circuit, and the</tspan><tspan
               id="tspan66"
               y="44"
               x="-14.4 -11.07 -6.0700002 -1.0700001 1.71 4.4899998 9.4899998 14.49 17.25 21.690001 25.02 29.459999 33.900002 36.66 39.990002 44.43 49.43 54.43 57.209999 60.540001 64.980003 69.980003 72.739998 75.519997 80.519997 83.279999 86.059998 91.059998 93.839996 98.279999 101.61 106.05 111.05 116.05 121.05 125.49 129.92999 132.71001 135.47 138.25 143.25 147.69 150.45 155.45 158.23 163.23 167.67 172.67 176.56 179.32001 187.10001 191.53999 196.53999 199.3 204.3 208.74001 213.17999 218.17999 225.96001">routing area required to interconnect the blocks may become</tspan><tspan
               id="tspan68"
               y="55"
               x="-14.4 -9.96 -4.96 -0.51999998 3.9200001 7.8099999 11.7 14.48 19.48 23.92 26.42 29.879999 37.099998 42.099998 45.560001 48.34 53.34 57.779999 61.240002 66.239998 69.019997 74.019997 78.459999 81.790001 85.25 90.25 94.690002 99.690002 104.69 107.19 110.65 113.43 116.76 120.22 124.66 128.12 133.12 137.56 140.89 145.89 149.35001 153.78999 158.78999 166.57001 171.57001 174.35001 178.78999 183.78999 186.28999 189.75 194.75 198.08 201.53999 205.98 210.98 215.42 218.75 222.64 227.08">excessive. On the other hand, if a very complex, or coarse-</tspan><tspan
               id="tspan70"
               y="66"
               x="-14.4 -9.3999996 -6.0700002 -1.63 1.15 6.1500001 10.59 15.59 18.09 20.18 22.959999 27.959999 32.959999 35.740002 40.18 42.27 47.27 50.049999 55.049999 59.490002 64.489998 66.580002 69.360001 73.25 75.339996 80.339996 84.230003 88.669998 93.669998 96.169998 98.260002 106.04 111.04 115.48 120.48 122.57 127.57 130.89999 132.99001 135.77 140.77 145.21001 147.3 150.08 155.08 160.08 162.86 167.3 169.39 174.39 177.17 182.17 186.61 191.61 193.7 197.03 202.03 207.03 211.47 214.25 217.03 222.03 227.03">grained, logic block is used, much of the logic block function-</tspan><tspan
               id="tspan72"
               y="77"
               x="-14.4 -9.96 -7.1799998 -4.4000001 -1.62 3.3800001 5.8800001 13.66 18.1 23.1 25.6 30.6 35.040001 37.540001 42.540001 47.540001 52.540001 56.43 60.869999 65.870003 68.370003 71.150002 76.150002 78.650002 86.43 91.43 95.32 98.099998 100.6 105.04 107.82 111.15 115.59 120.59 123.37 126.15 130.03999 132.53999 135.03999 139.48 144.48 148.92 151.7 156.7 159.2 166.42 170.86 174.75 177.53 180.31 185.31 190.31 192.81 197.25 200.58 205.02 209.46001">ality may be unused in most circuits, again wasting area.</tspan><tspan
               id="tspan74"
               y="88"
               x="0 8.8900003 13.89 17.780001 20.559999 23.040001 27.48 32.48 40.259998 48.040001 52.48 55.810001 60.25 63.029999 67.470001 70.25 72.730003 78.290001 83.849998 91.07 98.290001 102.18 104.66 109.66 113.55 117.99 120.47 123.25 128.25 133.25 136.03 140.47 142.95 147.95 150.73 155.73 160.17 165.17 169.06 171.53999 176.53999 180.98 184.87 189.31 194.31 196.78999 201.78999 206.78999 209.27 212.05 217.05 222.05 227.05">Most commercial FPGAs use logic blocks based on look-</tspan><tspan
               id="tspan76"
               y="99"
               x="-14.4 -9.3999996 -4.4000001 1.35 4.1300001 8.5699997 13.57 16.35 20.790001 24.68 30.43 33.759998 39.869999 47.09 53.200001 57.09 60.419998 66.169998 69.5 74.5 77 82.75 87.75 90.25 96 101 104.33 106.83 112.58 117.02 122.02 127.02 132.77 137.21001 141.64999 146.09 151.09 154.42 159.42 162.2 167.2 172.2 174.98 179.98 185.73 193.50999 198.50999 202.39999 205.17999 210.92999 215.92999 219.25999 222.03999 227.03999">up tables (LUTs) [1, 2, 3], and accordingly most prior</tspan><tspan
               id="tspan78"
               y="110"
               x="-14.4 -11.07 -6.6300001 -2.74 1.7 6.1399999 9.4700003 13.91 18.91 21.700001 26.700001 31.139999 35.029999 37.82 41.150002 46.150002 50.59 55.59 59.48 63.919998 68.919998 71.709999 76.709999 81.709999 84.5 90.610001 97.830002 103.94 107.27 112.27 116.71 120.6 125.04 130.03999 132.83 135.61 140.61 145.61 148.39 152.83 155.62 160.62 163.39999 168.39999 172.84 177.84 181.73 184.52 187.85001 192.85001 195.35001 198.14 203.14 205.64 208.42999 213.42999 216.75999 219.25999 222.05 225.38">research has focused on LUT-based logic blocks [4, 5, 6]. In</tspan><tspan
               id="tspan80"
               y="121"
               x="-14.4 -11.07 -6.0700002 -2.74 -0.23999999 2.75 5.5300002 8.3100004 11.3 14.08 17.969999 20.959999 24.85 29.85 34.849998 42.07 47.07 50.060001 52.84 57.84 62.279999 65.059998 68.050003 72.489998 75.480003 80.480003 83.809998 86.589996 91.589996 96.589996 101.59 104.37 107.36 113.47 120.69 126.8 129.78999 132.57001 136.46001 139.45 142.23 147.23 151.67 154.66 162.44 167.44 171.33 174.11 177.10001 181.53999 184.87 189.31 193.75 197.08 201.52 204.85001 208.17999 210.96001 215.39999 218.17999 222.62 227.62">[4], it is shown that a 4-input LUT is the most area-efficient</tspan><tspan
               id="tspan82"
               y="132"
               x="-14.4 -8.29 -1.0700001 5.04 7.54 10.89 15.33 20.33 23.110001 27.549999 30.879999 33.66 38.66 42.009998 47.009998 51.450001 55.889999 60.330002 65.330002 69.220001 73.660004 77.010002 83.120003 90.339996 96.449997 99.800003 104.24 109.24 117.02 122.02 124.8 129.24001 134.24001 137.02 139.8 144.8 148.14999 153.14999 156.48 161.48 168.7 172.59 175.94 180.38 185.38 190.38 195.38 200.38 204.82001 209.82001 212.60001 215.38 219.82001 222.60001 225.38">LUT, chiefly because LUT complexity grows exponentially</tspan><tspan
               id="tspan84"
               y="143"
               x="-14.4 -7.1799998 -4.4000001 -1.62 3.3800001 5.4299998 8.21 13.21 17.65 19.700001 24.700001 29.700001 37.48 42.48 46.919998 50.25 52.299999 57.299999 60.630001 62.68 65.459999 70.459999 75.459999 80.459999 83.239998 87.129997 89.629997 91.68 95.010002 100.01 102.06 104.84 109.84 112.62 116.51 118.56 122.45 125.23 130.23 135.23 140.23 142.73 144.78 152 156.44 158.49001 161.27 166.27 171.27 175.71001 179.60001 182.38 185.16 190.16 194.60001 197.38 201.82001 203.87 208.31 210.36 213.14 218.14 223.14 225.92">with the number of inputs. In this study, we investigate a logic</tspan><tspan
               id="tspan86"
               y="154"
               x="-14.4 -9.3999996 -6.6199999 -1.62 2.8199999 7.8200002 10.44 15.44 19.879999 23.77 28.209999 33.209999 35.830002 40.830002 45.830002 48.450001">block based on a</tspan></text>
<text
             id="text88"
             style="font-style:italic;font-variant:normal;font-size:10px;font-family:Times;-inkscape-font-specification:Times-Italic;writing-mode:lr-tb;fill:#000000;fill-opacity:1;fill-rule:nonzero;stroke:none"
             transform="matrix(1,0,0,-1,123.92,299.33)"><tspan
               id="tspan90"
               y="0"
               x="0 4.4400001 7.2199998 12.22 16.110001 18.889999 23.33">cluster</tspan></text>
<text
             id="text92"
             style="font-variant:normal;font-weight:normal;font-size:10px;font-family:Times;-inkscape-font-specification:Times-Roman;writing-mode:lr-tb;fill:#000000;fill-opacity:1;fill-rule:nonzero;stroke:none"
             transform="matrix(1,0,0,-1,153.76,299.33)"><tspan
               id="tspan94"
               y="0"
               x="0 5 8.3299999 10.95 15.95 19.280001 22.059999 27.059999 32.060001 37.060001 39.84 42.459999 48.57 55.790001 61.900002 65.790001 68.290001 70.910004 77.019997 82.019997 86.459999 89.080002 93.519997 98.519997 106.3 111.3 114.08 118.52 123.52 126.3 129.08 134.08 136.7 141.7">of 4-input LUTs. The complexity of</tspan><tspan
               id="tspan96"
               y="11"
               x="-99.760002 -96.980003 -91.980003 -89.199997 -85.309998 -80.959999 -78.18 -73.18 -68.18 -65.400002 -60.959999 -56.610001 -51.610001 -48.830002 -43.830002 -39.389999 -34.389999 -30.040001 -25.6 -22.82 -17.82 -13.93 -11.15 -6.71 -3.3800001 0.97000003 5.9699998 9.3000002 14.3 21.52 25.41 29.76 32.540001 36.98 40.869999 44.759998 49.110001 51.889999 56.889999 61.330002 66.330002 70.68 75.68 80.68 85.120003 90.120003 93.449997 97.889999 100.67 103.45 107.89 112.33 115.11 117.89 122.89 127.24 134.46001 137.24001 140.02">this logic block cluster grows less than quadratically with</tspan><tspan
               id="tspan98"
               y="22"
               x="-99.760002 -95.32 -92.540001 -87.540001 -83.650002 -80.870003 -76.43 -73.099998 -70.25 -66.360001 -63.580002 -59.139999 -54.700001 -52.200001 -49.349998 -45.459999 -40.459999 -37.610001 -34.830002 -32.049999 -29.200001 -24.200001 -19.200001 -16.42 -11.42 -7.5300002 -4.6799998 0.31999999 3.6500001 8.6499996 16.43 19.209999 23.1 27.540001 30.389999 34.830002 38.720001 41.57 46.009998 48.860001 53.860001 57.189999 61.630001 66.07 68.849998 71.629997 76.07 80.510002 83.290001 86.139999 90.580002 95.580002 100.02 103.35 107.24 111.68 115.01 120.01 123.34 127.78 130.56 135.56 140">cluster size, so it holds promise as a practical coarse-grained</tspan><tspan
               id="tspan100"
               y="33"
               x="-99.760002 -96.980003 -91.980003 -86.980003 -84.199997 -79.760002 -77.260002 -72.260002 -69.480003 -64.480003 -60.040001 -55.040001">logic block.</tspan><tspan
               id="tspan102"
               y="44"
               x="-85.360001 -75.919998 -71.480003 -69.589996 -65.150002 -60.150002 -55.150002 -52.369999 -47.369999 -44.040001 -39.599998 -37.709999 -34.93 -27.709999 -22.709999 -20.82 -15.82 -10.82 -6.3800001 -2.49 0.28999999 3.0699999 8.0699997 13.07 16.959999 18.85 23.290001 28.290001 33.290001 37.73 42.169998 45.5 50.5 53.279999 58.279999 63.279999 65.169998 67.949997 72.949997 75.730003 79.620003 81.510002 85.949997 88.730003 93.730003 97.620003 100.4 104.84 108.17 110.06 114.5 117.83 122.27 127.27 130.05 132.83 137.27 141.71001">We explore two questions concerning this cluster architec-</tspan><tspan
               id="tspan104"
               y="55"
               x="-99.760002 -96.980003 -91.980003 -88.650002 -84.209999 -81.709999 -78.839996 -73.279999 -70.5 -67.169998 -63.279999 -60.5 -58 -55.130001 -50.130001 -45.130001 -37.91 -35.040001 -27.26 -22.82 -17.82 -12.82 -9.9499998 -4.9499998 -2.1700001 1.72 4.5 7.2800002 12.28 16.719999 19.5 22.370001 25.15 30.15 35.150002 40.150002 42.93 46.82 49.689999 53.580002 58.580002 63.580002 68.580002 71.360001 76.360001 79.230003 84.230003 88.669998 91.540001 96.540001 99.870003 104.87 109.87 112.65 117.65 122.09 127.09 129.96001 132.74001 137.74001 140.61">ture. First, how many distinct inputs should be provided to a</tspan><tspan
               id="tspan106"
               y="66"
               x="-99.760002 -95.32 -92.540001 -87.540001 -83.650002 -80.870003 -76.43 -73.099998 -70.809998 -65.809998 -62.48 -60.189999 -52.970001 -50.68 -45.68 -42.349998 -36.240002 -29.02 -22.91 -19.02 -14.58 -12.29 -6.73 -2.29 2.1500001 7.1500001 12.15 17.15 19.93 24.93 27.43 29.719999 34.720001 39.720001 46.939999 49.23 57.009998 61.450001 66.449997 71.449997 73.739998 78.739998 81.029999 87.139999 94.360001 100.47 104.36 106.65 110.54 115.54 120.54 125.54 128.32001 133.32001 135.61 140.61">cluster of N 4-LUTs? Secondly, how many 4 LUTs should be</tspan><tspan
               id="tspan108"
               y="77"
               x="-99.760002 -96.980003 -91.980003 -87.540001 -84.760002 -79.760002 -74.760002 -70.32 -65.32 -61.450001 -58.669998 -53.669998 -49.799999 -45.360001 -41.490002 -37.049999 -34.27 -29.27 -25.379999 -22.6 -18.16 -14.83 -10.96 -8.1800003 -3.1800001 0.69 5.1300001 8.46 12.9 17.34 20.120001 24.559999 28.43 31.209999 36.209999 40.650002 44.52 52.299999 57.299999 61.189999 63.970001 67.839996 72.279999 75.610001 80.050003 84.489998 87.82 92.260002 95.589996 98.919998 101.7 106.14 108.92 113.36 118.36 121.14 125.01 127.79 132.78999 137.78999 140.57001">included in a cluster to create the most area-efficient logic</tspan><tspan
               id="tspan110"
               y="88"
               x="-99.760002 -94.760002 -91.980003 -86.980003 -82.540001 -77.540001 -73.099998 -68.739998 -62.07 -57.630001 -53.189999 -48.75 -43.75 -40.970001 -36.610001 -31.049999 -25.49 -18.27 -11.05 -7.1599998 -2.8 0.52999997 3.8599999 8.8599997 16.639999 21 28.219999 31 33.779999 36.560001 41.560001 46.560001 50.919998 54.25 59.25 62.580002 65.080002 69.440002 76.660004 79.440002 82.220001 86.660004 89.989998 94.43 98.790001 102.12 107.12 110.45 112.95 117.31 123.42 128.42 132.86 137.3 142.3">block? Recent FPGAs from Xilinx [7], Altera [1], Lucent</tspan><tspan
               id="tspan112"
               y="99"
               x="-99.760002 -93.650002 -89.209999 -84.769997 -79.769997 -74.769997 -69.769997 -66.989998 -61.990002 -56.990002 -54.209999 -49.77 -45.880001 -43.860001 -40.529999 -35.529999 -32.200001 -30.18 -25.74 -20.74 -15.74 -13.72 -6.5 -2.0599999 0.72000003 5.1599998 7.9400001 9.96 13.29 18.290001 21.620001 23.639999 28.639999 33.080002 38.080002 42.52 44.540001 48.98 51.759998 54.540001 56.560001 61.560001 64.889999 69.889999 74.889999 79.889999 84.330002 89.330002 91.349998 95.239998 99.68 104.68 109.12 112.45 116.89 119.67 121.69 127.8 135.02 141.13">Technologies [3] and Actel [8] have all grouped several LUTs</tspan><tspan
               id="tspan114"
               y="110"
               x="-99.760002 -96.980003 -91.980003 -86.980003 -82.540001 -79.760002 -74.760002 -70.32 -66.989998 -64.57 -61.790001 -56.790001 -54.009998 -49.009998 -46.59 -42.150002 -39.73 -31.950001 -26.950001 -23.620001 -19.18 -16.76 -12.32 -7.3200002 -2.8800001 0.44999999 4.3400002 8.7799997 12.11 17.110001 20.440001 24.879999 27.66 32.66 37.099998 42.099998 44.52 47.299999 52.299999 57.299999 60.080002 64.519997 66.940002 71.940002 74.720001 79.720001 84.160004 89.160004 91.660004 94.080002 99.080002 104.08 106.86 109.28 112.06 117.06 121.5 124.83 129.27 131.69 136.69 141.13">together into a more coarse-grained logic block, but there has</tspan><tspan
               id="tspan116"
               y="121"
               x="-99.760002 -94.760002 -90.32 -85.879997 -80.879997 -78.129997 -75.349998 -72.57 -69.790001 -67.010002 -64.230003 -59.790001 -57.040001 -52.040001 -47.040001 -42.040001 -39.259998 -36.48 -32.59 -27.59 -23.15 -18.15 -15.4 -8.1800003 -3.1800001 0.15000001 5.1500001 7.9000001 10.68 15.68 20.68 25.120001 29.01 31.790001 34.57 39.57 44.009998 46.790001 49.57 54.57 59.57 62.32 65.099998 70.099998 74.540001 77.290001 82.290001 87.290001 95.07 100.07 104.51 107.84 110.59 115.59 118.92 121.67 127.78 135 141.11">been little published work investigating the number of LUTs</tspan><tspan
               id="tspan118"
               y="132"
               x="-99.760002 -92.540001 -87.540001 -84.760002 -80.32 -75.32 -72.82 -68.93 -63.93 -58.93 -53.93 -51.150002 -46.150002 -43.650002 -38.650002 -34.209999 -31.709999 -28.93 -23.93 -19.49 -16.709999 -11.71 -6.71 -2.27 2.73 5.23 8.0100002 13.01 15.51 19.950001 22.450001 26.889999 29.67 34.669998 38.560001 41.34 45.779999 49.110001">which should be included in a cluster.</tspan><tspan
               id="tspan120"
               y="143"
               x="-85.360001 -79.25 -74.25 -69.809998 -64.349998 -59.349998 -54.91 -49.91 -47.130001 -41.669998 -37.779999 -33.34 -28.9 -26.120001 -23.34 -18.34 -13.34 -7.8800001 -2.8800001 1.5599999 5.4499998 9.8900003 13.22 16 21 25.440001 29.33 34.790001 37.57 42.57 47.009998 52.470001 56.91 59.689999 64.690002 68.580002 71.360001 75.800003 79.129997 84.589996 89.029999 92.360001 96.800003 101.8 104.58 107.36 111.8 116.24 119.02 124.02 127.35 131.78999 137.25 140.03">The next section describes the cluster architecture in</tspan><tspan
               id="tspan122"
               y="154"
               x="-99.760002 -94.760002 -90.32 -87.540001 -83.099998 -80.32 -77.540001 -75.040001 -72.68 -67.120003 -62.68 -58.240002 -55.459999 -52.68 -47.68 -42.68 -40.32 -35.32 -32.959999 -27.959999 -22.959999 -20.18 -17.4 -14.62 -9.6199999 -5.1799998 -1.29 1.0700001 3.8499999 8.8500004 13.29 15.65 20.09 25.09 30.09 34.529999 37.860001 40.639999 48.419998 52.860001 57.860001 60.639999 65.080002 67.860001 70.220001 78 82.440002 85.220001 90.220001 95.220001 100.22 102.58 109.8 114.24 116.6 121.6 125.49 129.92999 134.92999 137.28999 140.07001">detail. Section 3 outlines the experimental method we used to</tspan><tspan
               id="tspan124"
               y="165"
               x="-99.760002 -95.32 -90.32 -85.879997 -83.099998 -78.099998 -73.660004 -70.879997 -66.440002 -63.57 -59.130001 -54.689999 -50.25 -45.25 -42.380001 -37.380001 -32.939999 -29.610001 -26.83 -22.389999 -17.389999 -14.61 -11.74 -6.7399998 -3.4100001 -0.54000002 2.24 7.2399998 11.68 14.55 18.99 22.32 26.76 31.76 34.540001 37.32 41.759998 46.200001 48.98 53.98 57.310001 61.75 64.25 67.120003 72.68 77.120003 81.559998 84.339996 87.120003 92.120003 97.120003 99.989998 104.99 107.86 112.86 117.3 121.19 125.63 128.96001 131.74001 136.74001 141.17999">evaluate each variant of the architecture. Section 4 describes</tspan><tspan
               id="tspan126"
               y="176"
               x="-99.760002 -96.980003 -91.980003 -87.540001 -85.550003 -81.110001 -78.330002 -73.330002 -68.330002 -65 -62.220001 -59.439999 -54.439999 -46.66 -42.77 -40.779999 -35.779999 -31.889999 -27.450001 -22.450001 -20.459999 -17.68 -12.68 -10.69 -5.6900001 -0.69 2.6400001 4.6300001 7.4099998 12.41 17.41 20.190001 24.629999 26.620001 31.059999 33.84 38.84 42.73 45.509998 49.950001 53.279999 55.27 60.27 64.709999 69.150002 74.150002 76.93 81.93 86.93 88.919998 93.919998 97.25 102.25 107.25 110.58 115.02 122.8 125.3 127.29 132.85001 137.28999 141.73">the algorithms used in our logic cluster packing program. Sec-</tspan><tspan
               id="tspan128"
               y="187"
               x="-99.760002 -96.980003 -94.199997 -89.199997 -84.199997 -80.82 -75.82 -72.440002 -67.440002 -64.110001 -59.669998 -55.779999 -51.34 -46.34 -43.560001 -39.669998 -36.290001 -32.959999 -28.52 -24.629999 -19.629999 -16.85 -14.07 -10.18 -6.8000002 -2.3599999 2.6400001 7.6399999 12.08 16.52 19.85 24.85 27.629999 32.630001 37.630001 41.009998 43.790001 48.790001 53.23 56.610001 61.610001 66.610001 74.389999 79.389999 83.830002 87.160004 90.540001 95.540001 98.870003 102.25 105.03 110.03 115.03 120.03 122.81 126.7 130.08 132.86 137.86 142.3">tion 5 presents results concerning the number of inputs that</tspan><tspan
               id="tspan130"
               y="198"
               x="-99.760002 -91.980003 -86.980003 -83.089996 -80.309998 -77.169998 -72.169998 -67.730003 -64.589996 -59.59 -56.259998 -51.259998 -46.259998 -43.48 -38.48 -34.040001 -29.040001 -25.9 -23.120001 -18.120001 -14.98 -10.54 -7.4000001 -2.96 -0.18000001 4.8200002 8.71 11.49 15.93 19.26 22.4 27.4 30.73 33.869999 41.09 44.23 49.23 52.560001 58.669998 65.889999 72 75.889999 78.389999 81.529999 88.75 93.75 96.529999 99.309998 103.75 106.89 112.45 116.89 121.33 124.11 126.89 131.89 136.89 140.03">must be provided to a cluster of N 4-LUTs, while Section 6</tspan></text>
</g><path
           id="path132"
           style="fill:#ffffff;fill-opacity:1;fill-rule:evenodd;stroke:none"
           d="m 3132,720 2448,0 0,5580 -2448,0 0,-5580 z"
           inkscape:connector-curvature="0" /><g
           transform="scale(10,10)"
           id="g134"><text
             id="text136"
             style="font-variant:normal;font-weight:normal;font-size:10px;font-family:Times;-inkscape-font-specification:Times-Roman;writing-mode:lr-tb;fill:#000000;fill-opacity:1;fill-rule:nonzero;stroke:none"
             transform="matrix(1,0,0,-1,313.2,623.33)"><tspan
               id="tspan138"
               y="0"
               x="0 4.4400001 9.4399996 13.88 16.66 21.66 26.1 28.879999 33.32 37.209999 41.759998 44.540001 49.540001 53.98 58.529999 62.970001 66.300003 70.739998 75.18 78.510002 82.949997 86.279999 89.610001 92.389999 96.830002 99.610001 104.05 109.05 113.49 118.49 123.04 128.03999 131.37 135.92 140.36 143.14 148.14 152.03 154.81 159.25 162.58 166.47 171.02 176.02 179.35001 183.89999 188.89999 191.67999 195.00999 198.34 202.78 206.11 210.55 215.55 218.33 222.88 226.77 229.55 233.99001 238.42999 242.32001">evaluates the area-efficiency of clusters of different sizes.</tspan><tspan
               id="tspan140"
               y="11"
               x="0 5.5599999 8.3400002 13.34 17.780001 20.559999 23.34 28.34 30.84 33.34 40.560001 45 47.5 51.389999 56.389999 64.169998 71.949997 76.389999 79.720001 82.5 86.940002 91.379997 93.879997 98.879997 103.88 107.21 109.71 113.04 117.48 121.37 126.37 129.14999 131.92999 135.82001 138.32001 142.75999 147.75999 152.75999 155.25999 159.7 164.7 169.7 174.14 176.92 181.92 185.81 188.59 193.59 198.59 202.48">Finally, we summarize our results and conclusions.</tspan></text>
<text
             id="text142"
             style="font-variant:normal;font-weight:bold;font-size:10px;font-family:Times;-inkscape-font-specification:Times-Bold;writing-mode:lr-tb;fill:#000000;fill-opacity:1;fill-rule:nonzero;stroke:none"
             transform="matrix(1,0,0,-1,371.89,595.33)"><tspan
               id="tspan144"
               y="0"
               x="0 5 7.5 10 17.219999 20 25.559999 29.450001 32.779999 37.220001 41.290001 44.619999 51.290001 56.290001 60.18 64.620003 70.18 72.68 79.349998 84.349998 89.349998 92.129997 96.57 99.07 105.74 108.52 113.52 117.96 123.52">2. Cluster-Based Logic Blocks</tspan></text>
<text
             id="text146"
             style="font-variant:normal;font-weight:normal;font-size:10px;font-family:Times;-inkscape-font-specification:Times-Roman;writing-mode:lr-tb;fill:#000000;fill-opacity:1;fill-rule:nonzero;stroke:none"
             transform="matrix(1,0,0,-1,327.6,579.33)"><tspan
               id="tspan148"
               y="0"
               x="0 5.5599999 8.3400002 13.34 15.84 19.6 24.6 28.360001 32.25 37.25 42.25 49.470001 53.360001 57.119999 59.900002 64.900002 69.339996 73.099998 76.989998 79.769997 83.099998 88.099998 92.540001 95.32 100.32 103.65 108.09 111.85 116.85 120.18 123.94 128.38 132.14 134.92 139.92 144.92 147.7 152.14 155.89999 160.34 163.12 168.12 172.00999 174.78999 179.23 182.56 185.06 188.82001 194.92999 199.92999 202.71001 206.60001 210.36 213.14 218.14 223.14 225.92">Fig. 1 shows the structure of a logic cluster. This logic</tspan><tspan
               id="tspan150"
               y="11"
               x="-14.4 -9.3999996 -6.6199999 -1.62 2.8199999 7.8200002 10.42 15.42 19.860001 23.75 26.35 30.790001 33.389999 36.169998 43.389999 48.389999 51.720001 54.5 58.939999 63.939999 68.379997 71.160004 73.760002 78.760002 81.540001 85.980003 89.309998 93.75 97.080002 101.52 106.52 111.52 114.3 116.9 119.68 124.68 129.12 131.72 136.72 141.72 146.16 149.49001 153.92999 156.71001 159.49001 162.09 167.09 169.87 174.87 179.31 184.31 186.91 189.69 193.58 196.17999 200.62 203.22 207.66 212.66 215.44 218.22 222.66 227.10001">block has a two-level hierarchy; the overall block is a collec-</tspan><tspan
               id="tspan152"
               y="22"
               x="-14.4 -11.62 -8.8400002 -3.8399999 1.16 3.5899999 8.5900002">tion of</tspan></text>
<text
             id="text154"
             style="font-style:italic;font-variant:normal;font-size:10px;font-family:Times;-inkscape-font-specification:Times-Italic;writing-mode:lr-tb;fill:#000000;fill-opacity:1;fill-rule:nonzero;stroke:none"
             transform="matrix(1,0,0,-1,341.95,557.33)"><tspan
               id="tspan156"
               y="0"
               x="0 5 10 13.89 16.67 21.110001 23.540001 26.32 31.32 36.32 39.099998 43.540001 45.970001 50.41 53.189999 57.630001 64.849998 69.290001 74.290001 77.07">basic logic elements</tspan></text>
<text
             id="text158"
             style="font-variant:normal;font-weight:normal;font-size:10px;font-family:Times;-inkscape-font-specification:Times-Roman;writing-mode:lr-tb;fill:#000000;fill-opacity:1;fill-rule:nonzero;stroke:none"
             transform="matrix(1,0,0,-1,425.35,557.33)"><tspan
               id="tspan160"
               y="0"
               x="0 3.3299999 10 16.110001 22.219999 26.110001 29.440001 31.940001 34.369999 41.59 45.48 47.91 51.799999 56.799999 61.799999 69.019997 74.019997 76.449997 79.230003 84.230003 86.660004 92.220001 95 100 102.5 104.93 109.93 114.37 116.87 119.3 124.3 129.3">(BLEs). As shown in Fig. 1a, our</tspan><tspan
               id="tspan162"
               y="11"
               x="-112.15 -107.15 -102.71 -98.82 -96.040001 -91.599998 -88.25 -85.470001 -80.470001 -75.470001 -72.690002 -68.25 -64.900002 -60.459999 -57.68 -53.240002 -45.459999 -41.02 -36.02 -33.240002 -29.889999 -27.110001 -23.219999 -19.870001 -15.43 -10.43 -2.6500001 2.3499999 7.3499999 11.24 15.68 20.68 24.030001 29.030001 32.360001 35.709999 40.150002 43.5 48.5 51.830002 57.939999 65.160004 71.269997 74.620003 79.059998 84.059998 89.059998 92.410004 96.849998 100.2 103.53 107.97 112.97 115.75 119.64 122.42 126.86 130.19">basic logic element is composed of a 4-LUT and a register,</tspan><tspan
               id="tspan164"
               y="22"
               x="-112.15 -107.71 -102.71 -97.709999 -94.220001 -91.440002 -86.440002 -82 -78.510002 -71.839996 -65.730003 -59.619999 -56.130001 -51.130001 -46.130001 -43.349998 -38.349998 -33.349998 -30.57 -27.08 -22.639999 -18.200001 -13.2 -9.71 -4.71 -0.27000001 3.22 7.6599998 10.44 13.22 18.219999 22.66 25.99 29.48 32.259998 37.259998 41.700001 45.189999 48.52 52.959999 57.959999 60.740002 64.629997 67.410004 71.849998 75.18 79.620003 84.620003 88.110001 93.110001 96.440002 99.93 104.93 109.93 113.26 117.7 122.7 125.48 129.37">and the BLE output can be either the registered or unregis-</tspan><tspan
               id="tspan166"
               y="33"
               x="-112.15 -109.37 -104.93 -101.6 -97.160004 -92.160004 -88.510002 -83.510002 -79.07 -75.739998 -71.849998 -69.07 -64.07 -59.07 -55.419998 -50.419998 -47.09 -43.439999 -40.66 -35.66 -31.219999 -27.57 -21.459999 -14.24 -8.1300001 -4.48 0.51999998 5.52 8.3000002 13.3 18.299999 21.08 23.58 27.23 33.34 38.34 42.779999 46.43 50.869999 55.869999 63.650002 68.650002 71.43 75.870003 78.650002 83.089996 86.739998 89.519997 94.519997 99.519997 102.3 106.74 110.39 115.39 118.17 123.17 127.61">tered version of the LUT output. The complete logic block</tspan><tspan
               id="tspan168"
               y="44"
               x="-112.15 -107.71 -102.71 -97.709999 -93.82 -91.040001 -87.150002 -84.370003 -80.480003 -77.580002 -72.580002 -69.25 -66.349998 -59.130001 -56.23 -53.450001 -48.450001 -45.669998 -41.23 -37.900002 -33.459999 -28.459999 -23.459999 -18.459999 -14.02 -9.5799999 -6.8000002 -2.3599999 2.6400001 5.54 12.21 18.32 24.43 28.32 30.82 33.720001 38.16 42.049999 44.950001 48.84 53.84 58.84 66.059998 71.059998 73.959999 76.739998 81.739998 84.639999 90.199997 92.980003 97.980003 100.48 103.38 108.38 113.38 115.88 118.78 128.22">consists of N interconnected BLEs, as shown in Fig. 1b. We</tspan><tspan
               id="tspan170"
               y="55"
               x="-112.15 -107.71 -103.27 -100.49 -97.709999 -95.209999 -92.43 -87.43 -82.989998 -80.489998 -77.709999 -72.709999 -69.93 -65.489998 -62.709999 -60.209999 -57.43 -52.43 -47.43 -44.650002 -40.209999 -37.709999 -32.709999 -29.93 -24.93 -20.49 -15.49 -12.99">call the total logic block a</tspan></text>
<text
             id="text172"
             style="font-style:italic;font-variant:normal;font-size:10px;font-family:Times;-inkscape-font-specification:Times-Italic;writing-mode:lr-tb;fill:#000000;fill-opacity:1;fill-rule:nonzero;stroke:none"
             transform="matrix(1,0,0,-1,419.3,502.33)"><tspan
               id="tspan174"
               y="0"
               x="0 2.78 7.7800002 12.78 15.56 20 22.5 26.940001 29.719999 34.720001 38.610001 41.389999 45.830002">logic cluster</tspan></text>
<text
             id="text176"
             style="font-variant:normal;font-weight:normal;font-size:10px;font-family:Times;-inkscape-font-specification:Times-Roman;writing-mode:lr-tb;fill:#000000;fill-opacity:1;fill-rule:nonzero;stroke:none"
             transform="matrix(1,0,0,-1,469.02,502.33)"><tspan
               id="tspan178"
               y="0"
               x="0">.</tspan><tspan
               id="tspan180"
               y="11"
               x="-141.42 -131.98 -127.54 -125.38 -120.38 -115.94 -112.05 -107.61 -104.28 -101.5 -96.5 -92.059998 -89.900002 -85.459999 -83.300003 -80.519997 -75.519997 -70.519997 -67.739998 -63.299999 -61.139999 -56.700001 -53.919998 -48.919998 -45.029999 -42.25 -37.810001 -34.48 -32.32 -27.32 -24.540001 -20.1 -17.940001 -15.16 -7.9400001 -2.9400001 -0.77999997 4.2199998 8.6599998 11.99 16.43 24.209999 28.65 31.43 35.869999 39.200001 43.09 45.59 47.75 54.970001 57.130001 61.57 66.57 71.57 73.730003 77.059998 79.559998 81.720001">We describe a logic cluster via two parameters, N and I. N</tspan><tspan
               id="tspan182"
               y="22"
               x="-155.82001 -153.03999 -149.14999 -145.89999 -143.12 -138.12 -133.67999 -130.42999 -125.43 -120.43 -112.65 -107.65 -103.21 -99.879997 -96.629997 -91.629997 -88.300003 -85.050003 -78.379997 -72.269997 -66.160004 -62.27 -59.02 -54.02 -49.580002 -46.25 -43 -38.560001 -35.779999 -30.780001 -26.889999 -24.110001 -19.67 -16.34 -13.84 -10.59 -3.3699999 1.63 4.4099998 7.1900001 11.63 14.88 18.209999 21.459999 24.24 28.129999 31.379999 34.16 39.16 43.599998 46.849998 51.849998 56.849998 64.629997 69.629997 74.07 77.400002 80.650002 85.650002">is the number of BLEs per cluster, while I is the number of</tspan><tspan
               id="tspan184"
               y="33"
               x="-155.82001 -153.03999 -148.03999 -143.03999 -138.03999 -135.25999 -131.37 -128.63 -125.85 -120.85 -118.11 -115.33 -110.33 -105.89 -103.15 -98.709999 -95.93 -90.93 -87.040001 -84.260002 -79.82 -76.489998 -73.989998 -71.25 -64.029999 -60.139999 -57.400002 -51.84 -49.060001 -44.060001 -41.560001 -38.82 -33.82 -31.08 -27.190001 -22.190001 -17.190001 -9.9700003 -6.0799999 -3.5799999 -0.83999997 4.1599998 9.1599998 11.94 14.68 19.120001 21.9 24.68 27.42 32.419998 39.639999 42.380001 48.490002 55.709999 61.82 64.559998 67.339996 72.339996 77.339996 82.339996 85.120003">inputs to the cluster. As Fig. 1 shows, not all 4N LUT inputs</tspan><tspan
               id="tspan186"
               y="44"
               x="-155.82001 -151.38 -148.05 -143.61 -140.28999 -135.85001 -131.41 -126.97 -122.53 -118.64 -114.75 -111.97 -106.97 -104.19 -99.75 -96.43 -93.099998 -89.769997 -84.769997 -76.989998 -73.669998 -68.669998 -63.669998 -60.889999 -57 -54.220001 -49.220001 -44.779999 -41.459999 -38.68 -33.68 -29.24 -25.92 -23.139999 -18.139999 -13.14 -10.36 -5.9200001 -2.5999999 1.84 4.6199999 9.6199999 13.51 16.290001 20.73 24.059999 26.559999 29.879999 33.209999 38.209999 42.099998 44.880001 49.32 53.759998 58.759998 61.259998 64.580002 69.580002 74.580002 77.360001 82.360001 85.68">are accessible from outside the logic cluster. Instead, only I</tspan><tspan
               id="tspan188"
               y="55"
               x="-155.82001 -151.38 -146.38 -143.60001 -139.16 -135.83 -130.83 -126.39 -123.61 -121.71 -118.93 -113.93 -108.93 -103.93 -101.15 -97.260002 -95.360001 -90.919998 -87.589996 -83.150002 -81.25 -76.25 -72.919998 -67.919998 -62.919998 -60.139999 -55.139999 -50.700001 -45.700001 -43.799999 -41.02 -36.02 -34.119999 -31.34 -26.34 -21.9 -20 -17.219999 -12.22 -7.2199998 -4.4400001 0 1.9 6.3400002 9.1199999 14.12 18.01 20.790001 25.23 28.559999 30.459999 33.790001 37.119999 39.02 46.799999 51.799999 54.580002 57.360001 60.139999 65.139999 67.919998 72.360001 77.360001 81.800003 85.129997">external inputs are provided to the logic cluster -- multiplexers</tspan><tspan
               id="tspan190"
               y="66"
               x="-155.82001 -151.38 -148.60001 -145.82001 -140.82001 -133.60001 -131.21001 -126.77 -123.44 -118.44 -115.66 -112.88 -109.55 -105.11 -101.78 -96.779999 -94.389999 -89.949997 -84.949997 -79.949997 -74.949997 -70.510002 -66.07 -63.290001 -60.509998 -55.509998 -50.509998 -46.619999 -44.23 -39.23 -35.900002 -33.509998 -30.73 -25.73 -21.290001 -17.4 -12.96 -10.57 -6.1300001 -3.3499999 1.65 5.54 8.3199997 12.76 16.09 18.48 21.26 26.26 31.26 36.259998 39.040001 42.93 45.32 48.099998 53.099998 55.490002 58.27 63.27 67.709999 70.099998 76.769997 82.879997">allow arbitrary connections of these cluster inputs to the BLE</tspan><tspan
               id="tspan192"
               y="77"
               x="-155.82001 -153.03999 -148.03999 -143.03999 -138.03999 -135.25999 -131.37 -128.87 -125.8 -119.69 -114.69 -110.25 -107.18 -103.29 -98.849998 -91.07 -86.629997 -83.559998 -75.779999 -70.779999 -68 -65.220001 -62.439999 -57.439999 -54.66 -50.220001 -45.220001 -40.779999 -37.450001 -33.560001 -30.49 -26.049999 -23.27 -19.379999 -14.38 -11.31 -6.8699999 -1.87 3.1300001 8.1300001 12.57 17.01 19.790001 22.860001 25.639999 30.639999 33.709999 38.150002 42.59 47.029999 52.029999 55.099998 60.099998 63.43 66.5 69.279999 74.279999 78.720001 81.790001">inputs. The same multiplexers also connect to each of the N</tspan><tspan
               id="tspan194"
               y="88"
               x="-155.82001 -149.14999 -143.03999 -136.92999 -134.7 -129.7 -124.7 -121.92 -116.92 -111.92 -109.14 -105.25 -102.75 -100.52 -96.080002 -93.300003 -90.519997 -85.519997 -78.300003 -75.519997 -70.519997 -65.519997 -63.290001 -60.509998 -55.509998 -51.07 -48.84 -43.84 -38.84 -36.060001 -31.059999 -26.059999 -23.280001 -21.049999 -16.049999 -12.72 -10.49 -6.0500002 -1.05 3.95 6.1799998 12.85 18.959999 25.07 27.299999 34.52 37.299999 40.080002 45.080002 47.860001 52.860001 55.09 57.869999 62.869999 67.309998 69.540001 73.980003 76.760002 81.760002 85.650002">BLE outputs, allowing the output of any BLE within the clus-</tspan><tspan
               id="tspan196"
               y="99"
               x="-155.82001 -153.03999 -148.60001 -145.27 -142.96001 -140.17999 -135.17999 -132.87 -127.87 -123.43 -121.12 -116.68 -111.68 -106.68 -101.68 -97.239998 -92.800003 -90.019997 -85.580002 -80.580002 -78.269997 -75.489998 -70.489998 -68.18 -63.740002 -58.740002 -53.740002 -51.43 -46.43 -43.099998 -40.790001 -38.009998 -33.009998 -28.57 -26.26 -19.59 -13.48 -7.3699999 -5.0599999 -2.28 2.72 7.7199998 12.72 15.5 19.389999 21.889999 24.200001 31.42 34.200001 36.98 39.290001 46.509998 48.82 53.82 58.82 61.599998 66.599998 71.599998 74.379997 78.269997 80.580002 85.580002">ter to be connected to any of the BLE inputs. All N outputs of</tspan><tspan
               id="tspan198"
               y="110"
               x="-155.82001 -153.03999 -148.03999 -143.60001 -141.53999 -138.75999 -133.75999 -128.75999 -125.98 -121.54 -119.48 -115.04 -112.26 -107.26 -103.37 -100.59 -96.150002 -92.82 -90.760002 -86.32 -81.879997 -76.879997 -74.82 -69.82 -65.379997 -63.32 -58.880001 -53.880001 -48.880001 -43.880001 -39.439999 -35 -32.220001 -27.780001 -22.780001 -20.719999 -17.940001 -12.94 -10.88 -8.1000004 -3.0999999 1.34 3.4000001 8.96 14.52 21.74 28.959999 31.02 34.349998 39.349998 44.349998 47.130001 49.91 54.91 59.91 61.970001 65.300003 70.300003 73.629997 75.690002 80.690002 84.580002">the logic cluster can be connected to the FPGA routing for use</tspan><tspan
               id="tspan200"
               y="121"
               x="-155.82001 -150.82001 -145.82001 -143.32001 -138.32001 -135.53999 -130.53999 -126.1 -122.77 -120.27 -117.49 -112.49 -107.49 -104.71 -100.27 -97.769997 -93.330002 -90.550003 -85.550003 -81.660004 -78.879997 -74.440002 -71.110001 -67.220001">by other logic clusters.</tspan><tspan
               id="tspan202"
               y="132"
               x="-141.42 -134.2 -129.2 -126.42 -123.64 -119.2 -114.76 -112.88 -110.1 -105.1 -100.66 -97.879997 -96 -93.220001 -88.220001 -83.779999 -81.900002 -79.120003 -74.120003 -69.120003 -66.339996 -61.900002 -60.02 -55.580002 -52.799999 -47.799999 -43.91 -41.130001 -36.689999 -33.360001 -31.48 -26.48 -23.15 -21.27 -15.71 -12.93 -7.9299998 -5.4299998 -3.55 1.45 3.3299999 6.1100001">Notice that the logic cluster of Fig. 1 is</tspan></text>
<text
             id="text204"
             style="font-style:italic;font-variant:normal;font-size:10px;font-family:Times;-inkscape-font-specification:Times-Italic;writing-mode:lr-tb;fill:#000000;fill-opacity:1;fill-rule:nonzero;stroke:none"
             transform="matrix(1,0,0,-1,480.92,370.33)"><tspan
               id="tspan206"
               y="0"
               x="0 2.78 7.7800002 10.56 13.34 17.780001 19.66 24.1 29.1 34.099998 39.099998 43.540001 47.98">fully connect</tspan></text>
<text
             id="text208"
             style="font-variant:normal;font-weight:normal;font-size:10px;font-family:Times;-inkscape-font-specification:Times-Roman;writing-mode:lr-tb;fill:#000000;fill-opacity:1;fill-rule:nonzero;stroke:none"
             transform="matrix(1,0,0,-1,531.68,370.33)"><tspan
               id="tspan210"
               y="0"
               x="0 4.4400001 9.4399996 12.22 14.1 16.879999 19.379999 23.82">ed; i.e.</tspan><tspan
               id="tspan212"
               y="11"
               x="-218.48 -214.03999 -209.60001 -205.16 -200.16 -197.05 -192.05 -188.72 -185.61 -182.83 -177.83 -173.39 -170.28 -165.28 -158.06 -154.95 -148.28 -142.17 -136.06 -132.95 -130.17 -125.17 -120.17 -115.17 -112.39 -108.5 -105.39 -100.95 -96.510002 -91.510002 -88.400002 -83.400002 -78.959999 -75.849998 -71.410004 -66.410004 -61.41 -56.41 -51.970001 -47.529999 -44.75 -40.310001 -35.310001 -32.200001 -29.42 -24.42 -21.309999 -16.870001 -11.87 -6.8699999 -3.76 1.24 4.5700002 7.6799998 10.46 15.46 19.9 23.01">each of the 4N BLE inputs can be connected to any of the I</tspan><tspan
               id="tspan214"
               y="22"
               x="-218.48 -214.03999 -211.25999 -206.25999 -202.37 -199.59 -195.14999 -191.82001 -188.34 -185.56 -180.56 -175.56 -170.56 -167.78 -163.89 -160.41 -155.41 -152.08 -148.60001 -144.16 -139.16 -134.16 -130.67999 -125.68 -122.35 -118.87 -116.09 -111.09 -106.65 -103.17 -95.949997 -92.470001 -85.800003 -79.690002 -73.580002 -70.099998 -65.099998 -60.099998 -57.32 -52.32 -47.32 -44.540001 -40.650002 -38.150002 -34.669998 -31.34 -28.559999 -25.08 -22.299999 -18.41 -14.93 -11.04 -8.2600002 -0.47999999 4.52 7.3000002 11.74 15.07 18.549999 21.33">cluster inputs or any of the N BLE outputs. It is simpler to</tspan><tspan
               id="tspan216"
               y="33"
               x="-218.48 -211.25999 -207.92999 -205.14999 -202.37 -197.92999 -195.85001 -189.17999 -181.96001 -174.74001 -172.66 -169.88 -164.88 -159.88 -157.10001 -153.21001 -151.13 -148.35001 -143.35001 -138.91 -136.13 -134.05 -129.61 -124.61 -116.83 -111.83 -109.05 -104.61 -101.83 -97.389999 -94.610001 -89.610001 -87.529999 -83.089996 -78.089996 -73.089996 -70.309998 -65.309998 -62.529999 -59.75 -57.669998 -54.889999 -49.889999 -44.889999 -42.110001 -37.669998 -35.59 -31.15 -28.370001 -23.370001 -19.48 -16.700001 -12.26 -8.9300003 -5.04 -2.96 -0.18000001 4.8200002 9.2600002 12.04 14.12 18.559999 21.889999">write CAD tools that completely exploit logic clusters that are</tspan><tspan
               id="tspan218"
               y="44"
               x="-218.48 -215.14999 -210.14999 -207.37 -204.59 -199.59 -197.2 -192.75999 -187.75999 -182.75999 -177.75999 -173.32001 -168.88 -166.10001 -161.66 -156.66 -154.27 -151.49001 -146.49001 -142.05 -137.05 -134.66 -131.88 -126.88 -121.88 -117.99 -113.55 -111.16 -103.94 -98.940002 -96.160004 -91.720001 -86.720001 -84.330002 -79.889999 -76.559998 -72.120003 -69.730003 -64.730003 -59.73 -56.950001 -54.450001 -52.060001 -46.5 -41.5 -38.169998 -35.779999 -31.34 -26.34 -21.9 -14.12 -9.1199999 -6.3400002 -1.9 0.60000002 2.99 7.9899998 12.43 15.21 19.65 22.98">fully connected than those which are not. For example, deter-</tspan><tspan
               id="tspan220"
               y="55"
               x="-218.48 -210.7 -207.92 -202.92 -200.14 -195.14 -190.14 -186.52 -183.74001 -180.41 -176.78999 -172.35001 -168.73 -163.73 -160.39999 -155.39999 -150.39999 -145.39999 -141.78 -136.78 -133.45 -129.83 -123.16 -117.05 -110.94 -107.05 -103.43 -98.989998 -94.550003 -89.550003 -85.93 -80.93 -76.489998 -72.870003 -70.089996 -62.310001 -57.310001 -54.529999 -50.09 -42.310001 -37.869999 -32.869999 -30.09 -25.65 -20.65 -17.030001 -14.25 -9.25 -5.6300001 -1.1900001 2.4300001 6.3200002 9.1000004 14.1 19.1 21.879999">mining if a group of BLEs can be implemented in a single</tspan><tspan
               id="tspan222"
               y="66"
               x="-218.48 -214.03999 -211.25999 -206.25999 -202.37 -199.59 -195.14999 -191.82001 -187.95 -182.95 -177.95 -175.17 -170.17 -166.3 -162.97 -158.53 -153.53 -148.53 -145.75 -142.42 -137.98 -134.09 -130.22 -125.78 -120.78 -115.78 -110.78 -108 -105.22 -100.22 -95.220001 -91.349998 -88.57 -83.57 -79.129997 -75.260002 -70.260002 -65.260002 -57.48 -52.48 -48.040001 -44.709999 -40.84 -35.84 -32.509998 -28.639999 -24.200001 -21.42 -16.42 -12.53 -9.75 -5.3099999 -1.98 1.89 4.6700001 9.6700001 14.67 19.67 22.450001">cluster only requires counting the number of cluster inputs</tspan></text>
</g></g><g
         id="g224"><g
           clip-path="url(#clipPath228)"
           id="g226"><path
             id="path232"
             style="fill:#ffffff;fill-opacity:1;fill-rule:evenodd;stroke:none"
             d="m 3652,2585 331,0 0,330 -331,0 0,-330 z"
             inkscape:connector-curvature="0" /><path
             id="path234"
             style="fill:none;stroke:#000000;stroke-width:5;stroke-linecap:butt;stroke-linejoin:miter;stroke-miterlimit:3.8599999;stroke-dasharray:none;stroke-opacity:1"
             d="m 3652,2585 331,0 0,330 -331,0 0,-330 z"
             inkscape:connector-curvature="0" /><path
             id="path236"
             style="fill:none;stroke:#000000;stroke-width:5;stroke-linecap:butt;stroke-linejoin:miter;stroke-miterlimit:3.8599999;stroke-dasharray:none;stroke-opacity:1"
             d="m 3579,2847 65,21 -65,21 0,-21 0,-21 z"
             inkscape:connector-curvature="0" /><path
             id="path238"
             style="fill:#000000;fill-opacity:1;fill-rule:evenodd;stroke:none"
             d="m 3579,2847 65,21 -65,21 0,-21"
             inkscape:connector-curvature="0" /><path
             id="path240"
             style="fill:none;stroke:#000000;stroke-width:5;stroke-linecap:square;stroke-linejoin:miter;stroke-miterlimit:3.8599999;stroke-dasharray:none;stroke-opacity:1"
             d="m 3576,2868 -66,0"
             inkscape:connector-curvature="0" /><path
             id="path242"
             style="fill:none;stroke:#000000;stroke-width:5;stroke-linecap:butt;stroke-linejoin:miter;stroke-miterlimit:3.8599999;stroke-dasharray:none;stroke-opacity:1"
             d="m 3579,2768 65,21 -65,22 0,-22 0,-21 z"
             inkscape:connector-curvature="0" /><path
             id="path244"
             style="fill:#000000;fill-opacity:1;fill-rule:evenodd;stroke:none"
             d="m 3579,2768 65,21 -65,22 0,-22"
             inkscape:connector-curvature="0" /><path
             id="path246"
             style="fill:none;stroke:#000000;stroke-width:5;stroke-linecap:square;stroke-linejoin:miter;stroke-miterlimit:3.8599999;stroke-dasharray:none;stroke-opacity:1"
             d="m 3576,2789 -66,0"
             inkscape:connector-curvature="0" /><path
             id="path248"
             style="fill:none;stroke:#000000;stroke-width:5;stroke-linecap:butt;stroke-linejoin:miter;stroke-miterlimit:3.8599999;stroke-dasharray:none;stroke-opacity:1"
             d="m 3579,2689 65,22 -65,21 0,-21 0,-22 z"
             inkscape:connector-curvature="0" /><path
             id="path250"
             style="fill:#000000;fill-opacity:1;fill-rule:evenodd;stroke:none"
             d="m 3579,2689 65,22 -65,21 0,-21"
             inkscape:connector-curvature="0" /><path
             id="path252"
             style="fill:none;stroke:#000000;stroke-width:5;stroke-linecap:square;stroke-linejoin:miter;stroke-miterlimit:3.8599999;stroke-dasharray:none;stroke-opacity:1"
             d="m 3576,2711 -66,0"
             inkscape:connector-curvature="0" /><path
             id="path254"
             style="fill:none;stroke:#000000;stroke-width:5;stroke-linecap:butt;stroke-linejoin:miter;stroke-miterlimit:3.8599999;stroke-dasharray:none;stroke-opacity:1"
             d="m 3579,2610 65,22 -65,21 0,-21 0,-22 z"
             inkscape:connector-curvature="0" /><path
             id="path256"
             style="fill:#000000;fill-opacity:1;fill-rule:evenodd;stroke:none"
             d="m 3579,2610 65,22 -65,21 0,-21"
             inkscape:connector-curvature="0" /><path
             id="path258"
             style="fill:none;stroke:#000000;stroke-width:5;stroke-linecap:square;stroke-linejoin:miter;stroke-miterlimit:3.8599999;stroke-dasharray:none;stroke-opacity:1"
             d="m 3576,2632 -66,0"
             inkscape:connector-curvature="0" /><path
             id="path260"
             style="fill:none;stroke:#000000;stroke-width:5;stroke-linecap:square;stroke-linejoin:miter;stroke-miterlimit:3.8599999;stroke-dasharray:none;stroke-opacity:1"
             d="m 4453,2774 -469,0"
             inkscape:connector-curvature="0" /><path
             id="path262"
             style="fill:none;stroke:#000000;stroke-width:5;stroke-linecap:square;stroke-linejoin:miter;stroke-miterlimit:3.8599999;stroke-dasharray:none;stroke-opacity:1"
             d="m 5003,2819 -95,0 0,104 -708,0 0,-149"
             inkscape:connector-curvature="0" /><path
             id="path264"
             style="fill:none;stroke:#000000;stroke-width:5;stroke-linecap:butt;stroke-linejoin:miter;stroke-miterlimit:3.8599999;stroke-dasharray:none;stroke-opacity:1"
             d="m 4459,2611 237,0 0,230 -237,0 0,-230 z"
             inkscape:connector-curvature="0" /><path
             id="path266"
             style="fill:none;stroke:#000000;stroke-width:5;stroke-linecap:square;stroke-linejoin:miter;stroke-miterlimit:3.8599999;stroke-dasharray:none;stroke-opacity:1"
             d="m 4459,2624 48,31 -48,32"
             inkscape:connector-curvature="0" /><path
             id="path268"
             style="fill:none;stroke:#000000;stroke-width:5;stroke-linecap:butt;stroke-linejoin:miter;stroke-miterlimit:3.8599999;stroke-dasharray:none;stroke-opacity:1"
             d="m 4387,2634 66,21 -66,22 0,-22 0,-21 z"
             inkscape:connector-curvature="0" /><path
             id="path270"
             style="fill:#000000;fill-opacity:1;fill-rule:evenodd;stroke:none"
             d="m 4387,2634 66,21 -66,22 0,-22"
             inkscape:connector-curvature="0" /><path
             id="path272"
             style="fill:none;stroke:#000000;stroke-width:5;stroke-linecap:square;stroke-linejoin:miter;stroke-miterlimit:3.8599999;stroke-dasharray:none;stroke-opacity:1"
             d="m 4330,2655 55,0"
             inkscape:connector-curvature="0" /><path
             id="path274"
             style="fill:none;stroke:#000000;stroke-width:5;stroke-linecap:square;stroke-linejoin:miter;stroke-miterlimit:3.8599999;stroke-dasharray:none;stroke-opacity:1"
             d="m 5004,2732 -303,0"
             inkscape:connector-curvature="0" /><path
             id="path276"
             style="fill:none;stroke:#000000;stroke-width:5;stroke-linecap:butt;stroke-linejoin:miter;stroke-miterlimit:3.8599999;stroke-dasharray:none;stroke-opacity:1"
             d="m 5100,2845 0,-144 -91,-57 0,267 91,-66 z"
             inkscape:connector-curvature="0" /><path
             id="path278"
             style="fill:none;stroke:#000000;stroke-width:5;stroke-linecap:butt;stroke-linejoin:miter;stroke-miterlimit:3.8599999;stroke-dasharray:none;stroke-opacity:1"
             d="m 5145,2745 65,22 -65,21 0,-21 0,-22 z"
             inkscape:connector-curvature="0" /><path
             id="path280"
             style="fill:#000000;fill-opacity:1;fill-rule:evenodd;stroke:none"
             d="m 5145,2745 65,22 -65,21 0,-21"
             inkscape:connector-curvature="0" /><path
             id="path282"
             style="fill:none;stroke:#000000;stroke-width:5;stroke-linecap:square;stroke-linejoin:miter;stroke-miterlimit:3.8599999;stroke-dasharray:none;stroke-opacity:1"
             d="m 5142,2767 -42,0"
             inkscape:connector-curvature="0" /><g
             transform="scale(10,10)"
             id="g284"><text
               id="text286"
               style="font-variant:normal;font-weight:normal;font-size:8px;font-family:Times;-inkscape-font-specification:Times-Roman;writing-mode:lr-tb;fill:#000000;fill-opacity:1;fill-rule:nonzero;stroke:none"
               transform="matrix(1,0,0,-1,328.01,273.88)"><tspan
                 id="tspan288"
                 y="0"
                 x="0 2.664 6.664 10.664 14.664 16.888">Inputs</tspan><tspan
                 id="tspan290"
                 y="-4"
                 x="43.330002 47.330002 49.993999 52.217999 56.217999 60.217999 64.218002">4-input</tspan><tspan
                 id="tspan292"
                 y="6"
                 x="47.330002 52.217999 57.993999">LUT</tspan><tspan
                 id="tspan294"
                 y="10.67002"
                 x="84 89.335999 91.559998 95.559998 99.112">Clock</tspan><tspan
                 id="tspan296"
                 y="1.3300101"
                 x="122 127.776 129.776 134.224">D FF</tspan><tspan
                 id="tspan298"
                 y="9.9999997e-06"
                 x="196.66 202.436 206.436">Out</tspan></text>
<text
               id="text300"
               style="font-variant:normal;font-weight:bold;font-size:8px;font-family:Times;-inkscape-font-specification:Times-Bold;writing-mode:lr-tb;fill:#000000;fill-opacity:1;fill-rule:nonzero;stroke:none"
               transform="matrix(1,0,0,-1,397.34,247.87999)"><tspan
                 id="tspan302"
                 y="0"
                 x="0 2.664 6.664">(a)</tspan></text>
<text
               id="text304"
               style="font-variant:normal;font-weight:normal;font-size:8px;font-family:Times;-inkscape-font-specification:Times-Roman;writing-mode:lr-tb;fill:#000000;fill-opacity:1;fill-rule:nonzero;stroke:none"
               transform="matrix(1,0,0,-1,408.67,247.87999)"><tspan
                 id="tspan306"
                 y="0"
                 x="0 5.336 8.8879995 12 14.224 17.775999 19.775999 22 26 30 32.223999 35.776001 37.776001 41.327999 43.551998 47.104 53.327999 56.880001 60.880001 63.104 65.103996 67.767998 73.103996 77.991997 82.879997">Basic logic element (BLE)</tspan></text>
</g><path
             id="path308"
             style="fill:#ffffff;fill-opacity:1;fill-rule:evenodd;stroke:none"
             d="m 3971,2277 0,-70 -59,-28 0,131"
             inkscape:connector-curvature="0" /><path
             id="path310"
             style="fill:none;stroke:#000000;stroke-width:5;stroke-linecap:butt;stroke-linejoin:miter;stroke-miterlimit:3.8599999;stroke-dasharray:none;stroke-opacity:1"
             d="m 3971,2277 0,-70 -59,-28 0,131 59,-33 z"
             inkscape:connector-curvature="0" /><path
             id="path312"
             style="fill:none;stroke:#000000;stroke-width:15;stroke-linecap:butt;stroke-linejoin:miter;stroke-miterlimit:3.8599999;stroke-dasharray:none;stroke-opacity:1"
             d="m 3702,1122 0,1160"
             inkscape:connector-curvature="0" /><path
             id="path314"
             style="fill:none;stroke:#000000;stroke-width:15;stroke-linecap:butt;stroke-linejoin:miter;stroke-miterlimit:3.8599999;stroke-dasharray:none;stroke-opacity:1"
             d="m 3915,2279 -207,0"
             inkscape:connector-curvature="0" /><path
             id="path316"
             style="fill:none;stroke:#000000;stroke-width:5;stroke-linecap:butt;stroke-linejoin:miter;stroke-miterlimit:3.8599999;stroke-dasharray:none;stroke-opacity:1"
             d="m 4333,1859 354,0 0,360 -354,0 0,-360 z"
             inkscape:connector-curvature="0" /><g
             transform="scale(10,10)"
             id="g318"><text
               id="text320"
               style="font-variant:normal;font-weight:normal;font-size:8px;font-family:Times;-inkscape-font-specification:Times-Roman;writing-mode:lr-tb;fill:#000000;fill-opacity:1;fill-rule:nonzero;stroke:none"
               transform="matrix(1,0,0,-1,443.34,206.55)"><tspan
                 id="tspan322"
                 y="0"
                 x="0 5.336 10.224">BLE</tspan></text>
</g><path
             id="path324"
             style="fill:none;stroke:#000000;stroke-width:15;stroke-linecap:butt;stroke-linejoin:miter;stroke-miterlimit:3.8599999;stroke-dasharray:none;stroke-opacity:1"
             d="m 3820,1059 0,1300"
             inkscape:connector-curvature="0" /><path
             id="path326"
             style="fill:none;stroke:#000000;stroke-width:15;stroke-linecap:butt;stroke-linejoin:miter;stroke-miterlimit:3.8599999;stroke-dasharray:none;stroke-opacity:1"
             d="m 3915,2219 -100,0"
             inkscape:connector-curvature="0" /><path
             id="path328"
             style="fill:#ffffff;fill-opacity:1;fill-rule:evenodd;stroke:none"
             d="m 3971,2133 0,-71 -59,-28 0,131"
             inkscape:connector-curvature="0" /><path
             id="path330"
             style="fill:none;stroke:#000000;stroke-width:5;stroke-linecap:butt;stroke-linejoin:miter;stroke-miterlimit:3.8599999;stroke-dasharray:none;stroke-opacity:1"
             d="m 3971,2133 0,-71 -59,-28 0,131 59,-32 z"
             inkscape:connector-curvature="0" /><path
             id="path332"
             style="fill:none;stroke:#000000;stroke-width:15;stroke-linecap:butt;stroke-linejoin:miter;stroke-miterlimit:3.8599999;stroke-dasharray:none;stroke-opacity:1"
             d="m 3915,2134 -207,0"
             inkscape:connector-curvature="0" /><path
             id="path334"
             style="fill:none;stroke:#000000;stroke-width:15;stroke-linecap:butt;stroke-linejoin:miter;stroke-miterlimit:3.8599999;stroke-dasharray:none;stroke-opacity:1"
             d="m 3915,2074 -100,0"
             inkscape:connector-curvature="0" /><path
             id="path336"
             style="fill:#ffffff;fill-opacity:1;fill-rule:evenodd;stroke:none"
             d="m 3971,1988 0,-70 -59,-28 0,131"
             inkscape:connector-curvature="0" /><path
             id="path338"
             style="fill:none;stroke:#000000;stroke-width:5;stroke-linecap:butt;stroke-linejoin:miter;stroke-miterlimit:3.8599999;stroke-dasharray:none;stroke-opacity:1"
             d="m 3971,1988 0,-70 -59,-28 0,131 59,-33 z"
             inkscape:connector-curvature="0" /><path
             id="path340"
             style="fill:none;stroke:#000000;stroke-width:15;stroke-linecap:butt;stroke-linejoin:miter;stroke-miterlimit:3.8599999;stroke-dasharray:none;stroke-opacity:1"
             d="m 3915,1990 -207,0"
             inkscape:connector-curvature="0" /><path
             id="path342"
             style="fill:none;stroke:#000000;stroke-width:15;stroke-linecap:butt;stroke-linejoin:miter;stroke-miterlimit:3.8599999;stroke-dasharray:none;stroke-opacity:1"
             d="m 3915,1930 -100,0"
             inkscape:connector-curvature="0" /><path
             id="path344"
             style="fill:#ffffff;fill-opacity:1;fill-rule:evenodd;stroke:none"
             d="m 3971,1844 0,-71 -59,-28 0,131"
             inkscape:connector-curvature="0" /><path
             id="path346"
             style="fill:none;stroke:#000000;stroke-width:5;stroke-linecap:butt;stroke-linejoin:miter;stroke-miterlimit:3.8599999;stroke-dasharray:none;stroke-opacity:1"
             d="m 3971,1844 0,-71 -59,-28 0,131 59,-32 z"
             inkscape:connector-curvature="0" /><path
             id="path348"
             style="fill:none;stroke:#000000;stroke-width:15;stroke-linecap:butt;stroke-linejoin:miter;stroke-miterlimit:3.8599999;stroke-dasharray:none;stroke-opacity:1"
             d="m 3915,1846 -207,0"
             inkscape:connector-curvature="0" /><path
             id="path350"
             style="fill:none;stroke:#000000;stroke-width:15;stroke-linecap:butt;stroke-linejoin:miter;stroke-miterlimit:3.8599999;stroke-dasharray:none;stroke-opacity:1"
             d="m 3915,1786 -100,0"
             inkscape:connector-curvature="0" /><path
             id="path352"
             style="fill:none;stroke:#000000;stroke-width:5;stroke-linecap:square;stroke-linejoin:miter;stroke-miterlimit:3.8599999;stroke-dasharray:none;stroke-opacity:1"
             d="m 4461,1865 -31,47 -32,-47"
             inkscape:connector-curvature="0" /><path
             id="path354"
             style="fill:none;stroke:#000000;stroke-width:5;stroke-linecap:butt;stroke-linejoin:miter;stroke-miterlimit:3.8599999;stroke-dasharray:none;stroke-opacity:1"
             d="m 4333,2166 -180,0 0,80 -173,0"
             inkscape:connector-curvature="0" /><path
             id="path356"
             style="fill:none;stroke:#000000;stroke-width:5;stroke-linecap:butt;stroke-linejoin:miter;stroke-miterlimit:3.8599999;stroke-dasharray:none;stroke-opacity:1"
             d="m 4333,2072 -225,0 0,27 -135,0"
             inkscape:connector-curvature="0" /><path
             id="path358"
             style="fill:none;stroke:#000000;stroke-width:5;stroke-linecap:butt;stroke-linejoin:miter;stroke-miterlimit:3.8599999;stroke-dasharray:none;stroke-opacity:1"
             d="m 4333,1986 -226,0 0,-34 -134,0"
             inkscape:connector-curvature="0" /><path
             id="path360"
             style="fill:none;stroke:#000000;stroke-width:5;stroke-linecap:butt;stroke-linejoin:miter;stroke-miterlimit:3.8599999;stroke-dasharray:none;stroke-opacity:1"
             d="m 4333,1912 -180,0 0,-100 -180,0"
             inkscape:connector-curvature="0" /><path
             id="path362"
             style="fill:none;stroke:#000000;stroke-width:5;stroke-linecap:butt;stroke-linejoin:miter;stroke-miterlimit:3.8599999;stroke-dasharray:none;stroke-opacity:1"
             d="m 4340,1119 353,0 0,360 -353,0 0,-360 z"
             inkscape:connector-curvature="0" /><g
             transform="scale(10,10)"
             id="g364"><text
               id="text366"
               style="font-variant:normal;font-weight:normal;font-size:8px;font-family:Times;-inkscape-font-specification:Times-Roman;writing-mode:lr-tb;fill:#000000;fill-opacity:1;fill-rule:nonzero;stroke:none"
               transform="matrix(1,0,0,-1,444.01,131.88)"><tspan
                 id="tspan368"
                 y="0"
                 x="0 5.336 10.224">BLE</tspan></text>
</g><path
             id="path370"
             style="fill:none;stroke:#000000;stroke-width:5;stroke-linecap:square;stroke-linejoin:miter;stroke-miterlimit:3.8599999;stroke-dasharray:none;stroke-opacity:1"
             d="m 4468,1125 -32,47 -31,-47"
             inkscape:connector-curvature="0" /><g
             transform="scale(10,10)"
             id="g372"><text
               id="text374"
               style="font-variant:normal;font-weight:bold;font-size:8px;font-family:Times;-inkscape-font-specification:Times-Bold;writing-mode:lr-tb;fill:#000000;fill-opacity:1;fill-rule:nonzero;stroke:none"
               transform="matrix(0,1,1,0,442.67,162.55)"><tspan
                 id="tspan376"
                 y="0"
                 x="0 2 4 6 8">. . .</tspan><tspan
                 id="tspan378"
                 y="-47.330002"
                 x="-2 0 2 4 6">. . .</tspan></text>
</g><path
             id="path380"
             style="fill:none;stroke:#000000;stroke-width:5;stroke-linecap:butt;stroke-linejoin:miter;stroke-miterlimit:3.8599999;stroke-dasharray:none;stroke-opacity:1"
             d="m 5053,2039 -366,0"
             inkscape:connector-curvature="0" /><path
             id="path382"
             style="fill:none;stroke:#000000;stroke-width:5;stroke-linecap:butt;stroke-linejoin:miter;stroke-miterlimit:3.8599999;stroke-dasharray:none;stroke-opacity:1"
             d="m 5053,1292 -360,0"
             inkscape:connector-curvature="0" /><path
             id="path384"
             style="fill:none;stroke:#000000;stroke-width:15;stroke-linecap:butt;stroke-linejoin:miter;stroke-miterlimit:3.8599999;stroke-dasharray:none;stroke-opacity:1"
             d="m 5053,1286 0,1073"
             inkscape:connector-curvature="0" /><path
             id="path386"
             style="fill:none;stroke:#000000;stroke-width:15;stroke-linecap:butt;stroke-linejoin:miter;stroke-miterlimit:3.8599999;stroke-dasharray:none;stroke-opacity:1"
             d="m 3827,2352 1226,0"
             inkscape:connector-curvature="0" /><path
             id="path388"
             style="fill:none;stroke:#000000;stroke-width:5;stroke-linecap:butt;stroke-linejoin:miter;stroke-miterlimit:3.8599999;stroke-dasharray:none;stroke-opacity:1"
             d="m 5000,1852 93,67"
             inkscape:connector-curvature="0" /><g
             transform="scale(10,10)"
             id="g390"><text
               id="text392"
               style="font-variant:normal;font-weight:bold;font-size:8px;font-family:Times;-inkscape-font-specification:Times-Bold;writing-mode:lr-tb;fill:#000000;fill-opacity:1;fill-rule:nonzero;stroke:none"
               transform="matrix(1,0,0,-1,512.01,187.88)"><tspan
                 id="tspan394"
                 y="0"
                 x="0">N</tspan></text>
</g><path
             id="path396"
             style="fill:#ffffff;fill-opacity:1;fill-rule:evenodd;stroke:none"
             d="m 3971,1557 0,-70 -59,-28 0,131"
             inkscape:connector-curvature="0" /><path
             id="path398"
             style="fill:none;stroke:#000000;stroke-width:5;stroke-linecap:butt;stroke-linejoin:miter;stroke-miterlimit:3.8599999;stroke-dasharray:none;stroke-opacity:1"
             d="m 3971,1557 0,-70 -59,-28 0,131 59,-33 z"
             inkscape:connector-curvature="0" /><path
             id="path400"
             style="fill:none;stroke:#000000;stroke-width:15;stroke-linecap:butt;stroke-linejoin:miter;stroke-miterlimit:3.8599999;stroke-dasharray:none;stroke-opacity:1"
             d="m 3915,1559 -207,0"
             inkscape:connector-curvature="0" /><path
             id="path402"
             style="fill:none;stroke:#000000;stroke-width:15;stroke-linecap:butt;stroke-linejoin:miter;stroke-miterlimit:3.8599999;stroke-dasharray:none;stroke-opacity:1"
             d="m 3915,1499 -100,0"
             inkscape:connector-curvature="0" /><path
             id="path404"
             style="fill:#ffffff;fill-opacity:1;fill-rule:evenodd;stroke:none"
             d="m 3971,1413 0,-71 -59,-28 0,131"
             inkscape:connector-curvature="0" /><path
             id="path406"
             style="fill:none;stroke:#000000;stroke-width:5;stroke-linecap:butt;stroke-linejoin:miter;stroke-miterlimit:3.8599999;stroke-dasharray:none;stroke-opacity:1"
             d="m 3971,1413 0,-71 -59,-28 0,131 59,-32 z"
             inkscape:connector-curvature="0" /><path
             id="path408"
             style="fill:none;stroke:#000000;stroke-width:15;stroke-linecap:butt;stroke-linejoin:miter;stroke-miterlimit:3.8599999;stroke-dasharray:none;stroke-opacity:1"
             d="m 3915,1414 -207,0"
             inkscape:connector-curvature="0" /><path
             id="path410"
             style="fill:none;stroke:#000000;stroke-width:15;stroke-linecap:butt;stroke-linejoin:miter;stroke-miterlimit:3.8599999;stroke-dasharray:none;stroke-opacity:1"
             d="m 3915,1354 -100,0"
             inkscape:connector-curvature="0" /><path
             id="path412"
             style="fill:#ffffff;fill-opacity:1;fill-rule:evenodd;stroke:none"
             d="m 3971,1268 0,-70 -59,-28 0,131"
             inkscape:connector-curvature="0" /><path
             id="path414"
             style="fill:none;stroke:#000000;stroke-width:5;stroke-linecap:butt;stroke-linejoin:miter;stroke-miterlimit:3.8599999;stroke-dasharray:none;stroke-opacity:1"
             d="m 3971,1268 0,-70 -59,-28 0,131 59,-33 z"
             inkscape:connector-curvature="0" /><path
             id="path416"
             style="fill:none;stroke:#000000;stroke-width:15;stroke-linecap:butt;stroke-linejoin:miter;stroke-miterlimit:3.8599999;stroke-dasharray:none;stroke-opacity:1"
             d="m 3915,1270 -207,0"
             inkscape:connector-curvature="0" /><path
             id="path418"
             style="fill:none;stroke:#000000;stroke-width:15;stroke-linecap:butt;stroke-linejoin:miter;stroke-miterlimit:3.8599999;stroke-dasharray:none;stroke-opacity:1"
             d="m 3915,1210 -100,0"
             inkscape:connector-curvature="0" /><path
             id="path420"
             style="fill:#ffffff;fill-opacity:1;fill-rule:evenodd;stroke:none"
             d="m 3971,1124 0,-71 -59,-28 0,131"
             inkscape:connector-curvature="0" /><path
             id="path422"
             style="fill:none;stroke:#000000;stroke-width:5;stroke-linecap:butt;stroke-linejoin:miter;stroke-miterlimit:3.8599999;stroke-dasharray:none;stroke-opacity:1"
             d="m 3971,1124 0,-71 -59,-28 0,131 59,-32 z"
             inkscape:connector-curvature="0" /><path
             id="path424"
             style="fill:none;stroke:#000000;stroke-width:15;stroke-linecap:butt;stroke-linejoin:miter;stroke-miterlimit:3.8599999;stroke-dasharray:none;stroke-opacity:1"
             d="m 3915,1126 -207,0"
             inkscape:connector-curvature="0" /><path
             id="path426"
             style="fill:none;stroke:#000000;stroke-width:15;stroke-linecap:butt;stroke-linejoin:miter;stroke-miterlimit:3.8599999;stroke-dasharray:none;stroke-opacity:1"
             d="m 3915,1066 -100,0"
             inkscape:connector-curvature="0" /><path
             id="path428"
             style="fill:none;stroke:#000000;stroke-width:5;stroke-linecap:butt;stroke-linejoin:miter;stroke-miterlimit:3.8599999;stroke-dasharray:none;stroke-opacity:1"
             d="m 4333,1446 -180,0 0,80 -173,0"
             inkscape:connector-curvature="0" /><path
             id="path430"
             style="fill:none;stroke:#000000;stroke-width:5;stroke-linecap:butt;stroke-linejoin:miter;stroke-miterlimit:3.8599999;stroke-dasharray:none;stroke-opacity:1"
             d="m 4333,1352 -225,0 0,27 -135,0"
             inkscape:connector-curvature="0" /><path
             id="path432"
             style="fill:none;stroke:#000000;stroke-width:5;stroke-linecap:butt;stroke-linejoin:miter;stroke-miterlimit:3.8599999;stroke-dasharray:none;stroke-opacity:1"
             d="m 4333,1266 -226,0 0,-34 -134,0"
             inkscape:connector-curvature="0" /><path
             id="path434"
             style="fill:none;stroke:#000000;stroke-width:5;stroke-linecap:butt;stroke-linejoin:miter;stroke-miterlimit:3.8599999;stroke-dasharray:none;stroke-opacity:1"
             d="m 4333,1192 -180,0 0,-100 -180,0"
             inkscape:connector-curvature="0" /><g
             transform="scale(10,10)"
             id="g436"><text
               id="text438"
               style="font-variant:normal;font-weight:bold;font-size:8px;font-family:Times;-inkscape-font-specification:Times-Bold;writing-mode:lr-tb;fill:#000000;fill-opacity:1;fill-rule:nonzero;stroke:none"
               transform="matrix(1,0,0,-1,454.01,168.55)"><tspan
                 id="tspan440"
                 y="0"
                 x="0">N</tspan></text>
<text
               id="text442"
               style="font-variant:normal;font-weight:normal;font-size:8px;font-family:Times;-inkscape-font-specification:Times-Roman;writing-mode:lr-tb;fill:#000000;fill-opacity:1;fill-rule:nonzero;stroke:none"
               transform="matrix(1,0,0,-1,449.33998,157.88)"><tspan
                 id="tspan444"
                 y="0"
                 x="0 5.336 10.224 15.112">BLEs</tspan></text>
</g><path
             id="path446"
             style="fill:none;stroke:#000000;stroke-width:5;stroke-linecap:butt;stroke-linejoin:miter;stroke-miterlimit:3.8599999;stroke-dasharray:none;stroke-opacity:1"
             d="m 3600,939 660,0 0,880 167,0 0,40"
             inkscape:connector-curvature="0" /><path
             id="path448"
             style="fill:none;stroke:#000000;stroke-width:5;stroke-linecap:butt;stroke-linejoin:miter;stroke-miterlimit:3.8599999;stroke-dasharray:none;stroke-opacity:1"
             d="m 4260,1012 180,0 0,100"
             inkscape:connector-curvature="0" /><path
             id="path450"
             style="fill:#000000;fill-opacity:1;fill-rule:nonzero;stroke:none"
             d="m 5215,1686 0,8 c -4.42,0 -8,-3.58 -8,-8 0,-4.42 3.58,-8 8,-8 4.42,0 8,3.58 8,8 0,4.42 -3.58,8 -8,8"
             inkscape:connector-curvature="0" /><path
             id="path452"
             style="fill:none;stroke:#000000;stroke-width:15;stroke-linecap:butt;stroke-linejoin:miter;stroke-miterlimit:3.8599999;stroke-dasharray:none;stroke-opacity:1"
             d="m 5223,1657 49,29 -49,28 0,-28 0,-29 z"
             inkscape:connector-curvature="0" /><path
             id="path454"
             style="fill:#000000;fill-opacity:1;fill-rule:evenodd;stroke:none"
             d="m 5223,1657 49,29 -49,28 0,-28"
             inkscape:connector-curvature="0" /><path
             id="path456"
             style="fill:none;stroke:#000000;stroke-width:15;stroke-linecap:butt;stroke-linejoin:miter;stroke-miterlimit:3.8599999;stroke-dasharray:none;stroke-opacity:1"
             d="m 5215,1686 -162,0"
             inkscape:connector-curvature="0" /><g
             transform="scale(10,10)"
             id="g458"><text
               id="text460"
               style="font-variant:normal;font-weight:bold;font-size:8px;font-family:Times;-inkscape-font-specification:Times-Bold;writing-mode:lr-tb;fill:#000000;fill-opacity:1;fill-rule:nonzero;stroke:none"
               transform="matrix(1,0,0,-1,538.01,167.88)"><tspan
                 id="tspan462"
                 y="0"
                 x="0">N</tspan></text>
<text
               id="text464"
               style="font-variant:normal;font-weight:normal;font-size:8px;font-family:Times;-inkscape-font-specification:Times-Roman;writing-mode:lr-tb;fill:#000000;fill-opacity:1;fill-rule:nonzero;stroke:none"
               transform="matrix(1,0,0,-1,529.34003,159.20998)"><tspan
                 id="tspan466"
                 y="0"
                 x="0 5.776 9.776 12 16 20 22.224001">Outputs</tspan><tspan
                 id="tspan468"
                 y="68"
                 x="-192 -186.664 -184.44 -180.44 -176.888">Clock</tspan></text>
</g><path
             id="path470"
             style="fill:none;stroke:#000000;stroke-width:15;stroke-linecap:butt;stroke-linejoin:miter;stroke-miterlimit:3.8599999;stroke-dasharray:none;stroke-opacity:1"
             d="m 3528,1127 194,0"
             inkscape:connector-curvature="0" /><g
             transform="scale(10,10)"
             id="g472"><text
               id="text474"
               style="font-variant:normal;font-weight:bold;font-size:8px;font-family:Times;-inkscape-font-specification:Times-Bold;writing-mode:lr-tb;fill:#000000;fill-opacity:1;fill-rule:nonzero;stroke:none"
               transform="matrix(1,0,0,-1,341.01,115.21)"><tspan
                 id="tspan476"
                 y="0"
                 x="0">I</tspan></text>
<text
               id="text478"
               style="font-variant:normal;font-weight:normal;font-size:8px;font-family:Times;-inkscape-font-specification:Times-Roman;writing-mode:lr-tb;fill:#000000;fill-opacity:1;fill-rule:nonzero;stroke:none"
               transform="matrix(1,0,0,-1,332.33998,106.55001)"><tspan
                 id="tspan480"
                 y="0"
                 x="0 2.664 6.664 10.664 14.664 16.888">Inputs</tspan></text>
</g><path
             id="path482"
             style="fill:none;stroke:#000000;stroke-width:5;stroke-linecap:butt;stroke-linejoin:miter;stroke-miterlimit:3.8599999;stroke-dasharray:none;stroke-opacity:1"
             d="m 3655,1652 93,60"
             inkscape:connector-curvature="0" /><g
             transform="scale(10,10)"
             id="g484"><text
               id="text486"
               style="font-variant:normal;font-weight:bold;font-size:8px;font-family:Times;-inkscape-font-specification:Times-Bold;writing-mode:lr-tb;fill:#000000;fill-opacity:1;fill-rule:nonzero;stroke:none"
               transform="matrix(1,0,0,-1,360.17,162.55)"><tspan
                 id="tspan488"
                 y="0"
                 x="0">I</tspan><tspan
                 id="tspan490"
                 y="74"
                 x="72.5 75.164001 79.612">(b)</tspan></text>
<text
               id="text492"
               style="font-variant:normal;font-weight:normal;font-size:8px;font-family:Times;-inkscape-font-specification:Times-Roman;writing-mode:lr-tb;fill:#000000;fill-opacity:1;fill-rule:nonzero;stroke:none"
               transform="matrix(1,0,0,-1,444.45003,88.55)"><tspan
                 id="tspan494"
                 y="0"
                 x="0 4.888 8.8879995 12.888 15.112 18.664 20.664 24.216 26.440001 30.440001 33.551998 35.776001 39.327999">Logic cluster</tspan></text>
</g><path
             id="path496"
             style="fill:#ffffff;fill-opacity:1;fill-rule:evenodd;stroke:none"
             d="m 3153,706 2394,0 0,93.0002 -2394,0 0,-93.0002 z"
             inkscape:connector-curvature="0" /><g
             transform="scale(10,10)"
             id="g498"><text
               id="text500"
               style="font-variant:normal;font-weight:normal;font-size:8px;font-family:Times;-inkscape-font-specification:Times-Roman;writing-mode:lr-tb;fill:#000000;fill-opacity:1;fill-rule:nonzero;stroke:none"
               transform="matrix(1,0,0,-1,332.35,74.55)"><tspan
                 id="tspan502"
                 y="0"
                 x="0 4.448 6.6719999 10.672 12.672 14.672 18.672001 20.672001 24.672001 29.120001 31.344 34.007999 38.007999 41.560001 43.784 47.784 50.448002 54 56 60 62.664001 64.664001 68.664001 72.216003 75.328003 77.552002 81.103996 83.103996 85.328003 89.328003 93.328003 95.552002 99.103996 101.104 104.656 106.88 110.432 116.656 120.208 124.208 126.432 128.43201 131.09599 136.43201 141.32001 146.20799 148.87199 150.87199 154.424 158.424 162.424 164.424 166.64799 170.64799 174.64799 176.87199 180.424 182.424 185.976 188.2 192.2 195.312 197.536 201.088 203.31">Fig. 1. Structure of basic logic element (BLE) and logic cluster.</tspan><tspan
                 id="tspan504"
                 y="-123.33"
                 x="112.99 116.99">#1</tspan><tspan
                 id="tspan506"
                 y="-48"
                 x="113.66002 117.66002">#N</tspan></text>
</g></g></g><g
         id="g508"><path
           id="path510"
           style="fill:#ffffff;fill-opacity:1;fill-rule:evenodd;stroke:none"
           d="m 540,6483 5040,0 0,717 -5040,0 0,-717 z"
           inkscape:connector-curvature="0" /><g
           transform="scale(10,10)"
           id="g512"><text
             id="text514"
             style="font-variant:normal;font-weight:bold;font-size:14px;font-family:Times;-inkscape-font-specification:Times-Bold;writing-mode:lr-tb;fill:#000000;fill-opacity:1;fill-rule:nonzero;stroke:none"
             transform="matrix(1,0,0,-1,58.64,710.67)"><tspan
               id="tspan516"
               y="0"
               x="0 10.108 14 21.784 27.23 31.892 38.108002 43.810001 48.472 57.810001 64.809998 70.255997 76.472 84.255997 87.755997 97.094002 104.094 111.094 114.986 121.202 124.702 134.03999 137.93201 144.93201 151.14799 158.93201 164.37801 167.87801 172.19 179.19 185.40601 188.90601 197.46001 206.01401 216.90601 227.01401 232.46001 237.12199 240.62199 250.73 256.69 262.90601 269.90601 274.56799 283.90601 288.56799 296.35199 302.56799 306.45999 312.67599 320.45999 326.67599 333.67599 337.17599 344.17599 349.62201 353.12201 356.62201 362.06799 369.85199 377.63599 385.42001 390.082 393.582 401.366 409.14999 416.14999 422.366 426.258 434.04199 441.04199 444.54199 451.54199 459.32599 467.10999 470.60999 478.39401 482.28601 488.50201">Cluster-Based Logic Blocks for FPGAs: Area-Effciency vs. Input Sharing and Size</tspan></text>
<text
             id="text518"
             style="font-variant:normal;font-weight:normal;font-size:12px;font-family:Times;-inkscape-font-specification:Times-Roman;writing-mode:lr-tb;fill:#000000;fill-opacity:1;fill-rule:nonzero;stroke:none"
             transform="matrix(1,0,0,-1,228.01,692)"><tspan
               id="tspan520"
               y="0"
               x="0 8.6639996 13.992 19.992001 25.992001 31.992001 37.992001 40.992001 48.995998 54.324001 57.66 62.987999 65.987999 71.316002 77.316002 83.316002 86.316002 90.984001 96.984001 102.984 108.312 111.648 117.648 122.976 128.976 131.976 139.98 145.98 150.64799">Vaughn Betz and Jonathan Rose</tspan></text>
<text
             id="text522"
             style="font-variant:normal;font-weight:normal;font-size:10px;font-family:Times;-inkscape-font-specification:Times-Roman;writing-mode:lr-tb;fill:#000000;fill-opacity:1;fill-rule:nonzero;stroke:none"
             transform="matrix(1,0,0,-1,154.77,676.33)"><tspan
               id="tspan524"
               y="0"
               x="0 7.2199998 11.66 16.66 21.1 24.43 27.209999 34.990002 39.43 44.43 47.209999 49.709999 54.709999 58.040001 60.540001 66.650002 69.43 73.870003 78.309998 81.089996 84.419998 87.199997 91.639999 96.080002 98.860001 101.36 105.8 110.8 115.8 118.3 124.97 129.97 137.75 142.75 147.75 150.53 154.97 158.3 160.8 166.91 171.91 176.91 179.69 184.69 189.13 193.57001 196.89999 199.67999 204.67999 209.67999 212.17999 214.67999 221.89999 226.89999 229.67999 234.67999 239.12 242.45 246.34 249.12 251.89999 256.89999 259.39999 264.39999 267.73001 270.23001 276.34 281.34 284.67001 289.67001 294.67001 297.45001">Department of Electrical and Computer Engineering, University of Toronto</tspan><tspan
               id="tspan526"
               y="12"
               x="20.4 25.4 30.4 32.900002 40.119999 42.900002 47.900002 52.900002 56.23 60.119999 62.619999 69.290001 74.290001 77.07 79.849998 84.290001 89.290001 93.730003 96.230003 102.9 107.9 112.34 117.34 119.84 122.34 128.45 133.45 136.78 141.78 146.78 149.56 154.56 157.06 159.56 166.78 171.78 174.56 179 182.33 185.11 190.11 192.61 195.11 201.78 209 216.22 223.44 230.66 237.88 242.88 251.77 256.76999 262.32999 264.82999 269.82999 277.04999">10 King’s College Road, Toronto, Ontario, CANADA M5S 3G4</tspan><tspan
               id="tspan528"
               y="24"
               x="81.559998 86.360001 91.360001 95.800003 100.8 105.8 110.8 115.8 118.3 120.8 123.58 128.02 133.02 137.46001 140.78999 145.59 154.8 159.24001 163.67999 168.12 173.12 175.62 180.62 183.39999 188.39999 191.73 196.73 201.73 204.50999 209.50999 212.00999 216.45">{vaughn, jayar}@eecg.utoronto.ca</tspan></text>
</g><path
           id="path530"
           style="fill:#ffffff;fill-opacity:1;fill-rule:evenodd;stroke:none"
           d="m 534,720 2460,0 0,181 -2460,0 0,-181 z"
           inkscape:connector-curvature="0" /><g
           transform="scale(10,10)"
           id="g532"><text
             id="text534"
             style="font-variant:normal;font-weight:normal;font-size:8px;font-family:Times;-inkscape-font-specification:Times-Roman;writing-mode:lr-tb;fill:#000000;fill-opacity:1;fill-rule:nonzero;stroke:none"
             transform="matrix(1,0,0,-1,53.4,84.77)"><tspan
               id="tspan536"
               y="0"
               x="0 4.888 8.8879995 11.112 14.224 18.624001 21.288 24.84 27.952 31.504 35.056 37.720001 41.271999 45.271999 49.672001 55.360001 58.911999 62.023998 66.424004 69.536003 73.536003 77.536003 81.536003 85.536003 88.199997 90.424004 93.975998 97.975998 102.376 106.376 110.376 114.776 117 121 124.552 128.952 131.616 135.616 138.28 142.28 144.944 151.168 154.72 156.944 159.168 163.168 167.168 171.56799 175.89 179.442 182.994 186.994 190.994 194.994 197.218 201.218 205.218 209.218 213.618 218.95399 222.506 226.506 228.73 231.394 234.946 239.34599 243.34599">This research was supported by the Information Technology Centre of</tspan><tspan
               id="tspan538"
               y="10"
               x="-0 5.776 9.776 12 15.552 18.216 20.440001 24.440001 26.440001 28.18 30.403999 34.403999 37.956001 39.695999 46.619999 50.172001 52.396 54.619999 58.172001 60.835999 62.576 67.912003 69.912003 71.652 76.099998 80.099998 86.323997 90.323997 93.875999 96.540001 98.279999 102.62 106.62 110.62 114.62 118.62 122.172 124.396 126.62 130.62 134.62 136.62 138.36 141.912 145.912 149.912 151.65199 155.20399 159.20399 160.944 166.72 171.168 176.056 181.392 186.728 188.468 192.468 196.468 200.468 204.468 206.20799 210.65601 214.20799 218.20799 222.20799 224.43201 227.98399 230.64799 233.75999 237.75999 239.98399 243.98399">Ontario, the Walter C. Sumner Foundation, and an NSERC 1967 Scholarship.</tspan></text>
</g><path
           id="path540"
           style="fill:none;stroke:#000000;stroke-width:5;stroke-linecap:square;stroke-linejoin:miter;stroke-miterlimit:3.8599999;stroke-dasharray:none;stroke-opacity:1"
           d="M 2985,945 535,945"
           inkscape:connector-curvature="0" /></g></g></g></svg>