<?xml version="1.0" encoding="UTF-8" standalone="no"?>
<svg
   xmlns:dc="http://purl.org/dc/elements/1.1/"
   xmlns:cc="http://creativecommons.org/ns#"
   xmlns:rdf="http://www.w3.org/1999/02/22-rdf-syntax-ns#"
   xmlns:svg="http://www.w3.org/2000/svg"
   xmlns="http://www.w3.org/2000/svg"
   viewBox="0 0 271.25 466.25"
   height="466.25"
   width="271.25"
   xml:space="preserve"
   version="1.1"
   id="svg2"><metadata
     id="metadata8"><rdf:RDF><cc:Work
         rdf:about=""><dc:format>image/svg+xml</dc:format><dc:type
           rdf:resource="http://purl.org/dc/dcmitype/StillImage" /></cc:Work></rdf:RDF></metadata><defs
     id="defs6"><clipPath
       id="clipPath18"
       clipPathUnits="userSpaceOnUse"><path
         id="path20"
         d="m 6.80078,3721.2 0,-3710.0008 2149.99922,0 0,3710.0008 -2149.99922,0 z" /></clipPath><clipPath
       id="clipPath40"
       clipPathUnits="userSpaceOnUse"><path
         style="clip-rule:evenodd"
         id="path42"
         d="m 6.80078,3721.2 0,-3710.0008 2149.99922,0 0,3710.0008 -2149.99922,0 z m 980.56222,-498.52 0,-95.11 37.797,0 0,95.11 0,0 -18.9,-75.59 -18.897,75.59 z" /></clipPath><clipPath
       id="clipPath50"
       clipPathUnits="userSpaceOnUse"><path
         id="path52"
         d="m 6.80078,3721.2 0,-3710.0008 2149.99922,0 0,3710.0008 -2149.99922,0 z" /></clipPath><clipPath
       id="clipPath62"
       clipPathUnits="userSpaceOnUse"><path
         style="clip-rule:evenodd"
         id="path64"
         d="m 6.80078,3721.2 0,-3710.0008 2149.99922,0 0,3710.0008 -2149.99922,0 z M 987.363,2655.77 l 0,-95.11 37.797,0 0,95.11 0,0 -18.9,-75.59 -18.897,75.59 z" /></clipPath><clipPath
       id="clipPath72"
       clipPathUnits="userSpaceOnUse"><path
         id="path74"
         d="m 6.80078,3721.2 0,-3710.0008 2149.99922,0 0,3710.0008 -2149.99922,0 z" /></clipPath><clipPath
       id="clipPath84"
       clipPathUnits="userSpaceOnUse"><path
         style="clip-rule:evenodd"
         id="path86"
         d="m 6.80078,3721.2 0,-3710.0008 2149.99922,0 0,3710.0008 -2149.99922,0 z M 987.363,2088.86 l 0,-95.11 37.797,0 0,95.11 0,0 -18.9,-75.59 -18.897,75.59 z" /></clipPath><clipPath
       id="clipPath94"
       clipPathUnits="userSpaceOnUse"><path
         id="path96"
         d="m 6.80078,3721.2 0,-3710.0008 2149.99922,0 0,3710.0008 -2149.99922,0 z" /></clipPath><clipPath
       id="clipPath106"
       clipPathUnits="userSpaceOnUse"><path
         style="clip-rule:evenodd"
         id="path108"
         d="m 6.80078,3721.2 0,-3710.0008 2149.99922,0 0,3710.0008 -2149.99922,0 z M 987.363,1521.95 l 0,-95.11 37.797,0 0,95.11 0,0 -18.9,-75.59 -18.897,75.59 z" /></clipPath><clipPath
       id="clipPath116"
       clipPathUnits="userSpaceOnUse"><path
         id="path118"
         d="m 6.80078,3721.2 0,-3710.0008 2149.99922,0 0,3710.0008 -2149.99922,0 z" /></clipPath><clipPath
       id="clipPath128"
       clipPathUnits="userSpaceOnUse"><path
         style="clip-rule:evenodd"
         id="path130"
         d="m 6.80078,3721.2 0,-3710.0008 2149.99922,0 0,3710.0008 -2149.99922,0 z M 987.363,955.043 l 0,-95.117 37.797,0 0,95.117 0,0 -18.9,-75.59 -18.897,75.59 z" /></clipPath><clipPath
       id="clipPath138"
       clipPathUnits="userSpaceOnUse"><path
         id="path140"
         d="m 6.80078,3721.2 0,-3710.0008 2149.99922,0 0,3710.0008 -2149.99922,0 z" /></clipPath><clipPath
       id="clipPath150"
       clipPathUnits="userSpaceOnUse"><path
         style="clip-rule:evenodd"
         id="path152"
         d="m 6.80078,3721.2 0,-3710.0008 2149.99922,0 0,3710.0008 -2149.99922,0 z M 987.363,388.133 l 0,-95.117 37.797,0 0,95.117 0,0 -18.9,-75.59 -18.897,75.59 z" /></clipPath><clipPath
       id="clipPath160"
       clipPathUnits="userSpaceOnUse"><path
         id="path162"
         d="m 6.80078,3721.2 0,-3710.0008 2149.99922,0 0,3710.0008 -2149.99922,0 z" /></clipPath></defs><g
     transform="matrix(1.25,0,0,-1.25,0,466.25)"
     id="g10"><g
       transform="scale(0.1,0.1)"
       id="g12"><g
         id="g14"><g
           clip-path="url(#clipPath18)"
           id="g16"><path
             id="path22"
             style="fill:none;stroke:#000000;stroke-width:4.72424984;stroke-linecap:butt;stroke-linejoin:miter;stroke-miterlimit:10;stroke-dasharray:none;stroke-opacity:1"
             d="m 155.895,3420.47 1842.46,0 0,283.457 -1842.46,0 0,-283.457 z" /><path
             id="path24"
             style="fill:none;stroke:#000000;stroke-width:4.72424984;stroke-linecap:butt;stroke-linejoin:miter;stroke-miterlimit:10;stroke-dasharray:none;stroke-opacity:1"
             d="m 14.168,2711.83 2125.91,0 0,425.184 -2125.91,0 0,-425.184 z" /><path
             id="path26"
             style="fill:none;stroke:#000000;stroke-width:4.72424984;stroke-linecap:butt;stroke-linejoin:miter;stroke-miterlimit:10;stroke-dasharray:none;stroke-opacity:1"
             d="m 155.895,2286.65 1842.46,0 0,283.457 -1842.46,0 0,-283.457 z" /><path
             id="path28"
             style="fill:none;stroke:#000000;stroke-width:4.72424984;stroke-linecap:butt;stroke-linejoin:miter;stroke-miterlimit:10;stroke-dasharray:none;stroke-opacity:1"
             d="m 439.352,1152.83 1133.82,0 0,283.457 -1133.82,0 0,-283.457 z" /><path
             id="path30"
             style="fill:none;stroke:#000000;stroke-width:4.72424984;stroke-linecap:butt;stroke-linejoin:miter;stroke-miterlimit:10;stroke-dasharray:none;stroke-opacity:1"
             d="m 439.352,1719.74 1133.82,0 0,283.457 -1133.82,0 0,-283.457 z" /><path
             id="path32"
             style="fill:none;stroke:#000000;stroke-width:4.72424984;stroke-linecap:butt;stroke-linejoin:miter;stroke-miterlimit:10;stroke-dasharray:none;stroke-opacity:1"
             d="m 439.352,585.922 1133.82,0 0,283.453 -1133.82,0 0,-283.453 z" /><path
             id="path34"
             style="fill:none;stroke:#000000;stroke-width:4.72424984;stroke-linecap:butt;stroke-linejoin:miter;stroke-miterlimit:10;stroke-dasharray:none;stroke-opacity:1"
             d="m 127.551,19.0117 1842.46,0 0,283.453 -1842.46,0 0,-283.453 z" /></g></g><g
         id="g36"><g
           clip-path="url(#clipPath40)"
           id="g38"><path
             id="path44"
             style="fill:none;stroke:#000000;stroke-width:4.72424984;stroke-linecap:butt;stroke-linejoin:miter;stroke-miterlimit:10;stroke-dasharray:none;stroke-opacity:1"
             d="m 1006.26,3420.47 0,-283.45" /></g></g><g
         id="g46"><g
           clip-path="url(#clipPath50)"
           id="g48"><path
             id="path54"
             style="fill:#000000;fill-opacity:1;fill-rule:evenodd;stroke:none"
             d="m 987.363,3222.68 18.897,-75.59 18.9,75.59 -37.797,0" /><path
             id="path56"
             style="fill:none;stroke:#000000;stroke-width:4.72424984;stroke-linecap:butt;stroke-linejoin:miter;stroke-miterlimit:10;stroke-dasharray:none;stroke-opacity:1"
             d="m 987.363,3222.68 18.897,-75.59 18.9,75.59 -37.797,0 z" /></g></g><g
         id="g58"><g
           clip-path="url(#clipPath62)"
           id="g60"><path
             id="path66"
             style="fill:none;stroke:#000000;stroke-width:4.72424984;stroke-linecap:butt;stroke-linejoin:miter;stroke-miterlimit:10;stroke-dasharray:none;stroke-opacity:1"
             d="m 1006.26,2711.83 0,-141.72" /></g></g><g
         id="g68"><g
           clip-path="url(#clipPath72)"
           id="g70"><path
             id="path76"
             style="fill:#000000;fill-opacity:1;fill-rule:evenodd;stroke:none"
             d="m 987.363,2655.77 18.897,-75.59 18.9,75.59 -37.797,0" /><path
             id="path78"
             style="fill:none;stroke:#000000;stroke-width:4.72424984;stroke-linecap:butt;stroke-linejoin:miter;stroke-miterlimit:10;stroke-dasharray:none;stroke-opacity:1"
             d="m 987.363,2655.77 18.897,-75.59 18.9,75.59 -37.797,0 z" /></g></g><g
         id="g80"><g
           clip-path="url(#clipPath84)"
           id="g82"><path
             id="path88"
             style="fill:none;stroke:#000000;stroke-width:4.72424984;stroke-linecap:butt;stroke-linejoin:miter;stroke-miterlimit:10;stroke-dasharray:none;stroke-opacity:1"
             d="m 1006.26,2286.65 0,-283.45" /></g></g><g
         id="g90"><g
           clip-path="url(#clipPath94)"
           id="g92"><path
             id="path98"
             style="fill:#000000;fill-opacity:1;fill-rule:evenodd;stroke:none"
             d="m 987.363,2088.86 18.897,-75.59 18.9,75.59 -37.797,0" /><path
             id="path100"
             style="fill:none;stroke:#000000;stroke-width:4.72424984;stroke-linecap:butt;stroke-linejoin:miter;stroke-miterlimit:10;stroke-dasharray:none;stroke-opacity:1"
             d="m 987.363,2088.86 18.897,-75.59 18.9,75.59 -37.797,0 z" /></g></g><g
         id="g102"><g
           clip-path="url(#clipPath106)"
           id="g104"><path
             id="path110"
             style="fill:none;stroke:#000000;stroke-width:4.72424984;stroke-linecap:butt;stroke-linejoin:miter;stroke-miterlimit:10;stroke-dasharray:none;stroke-opacity:1"
             d="m 1006.26,1719.74 0,-283.45" /></g></g><g
         id="g112"><g
           clip-path="url(#clipPath116)"
           id="g114"><path
             id="path120"
             style="fill:#000000;fill-opacity:1;fill-rule:evenodd;stroke:none"
             d="m 987.363,1521.95 18.897,-75.59 18.9,75.59 -37.797,0" /><path
             id="path122"
             style="fill:none;stroke:#000000;stroke-width:4.72424984;stroke-linecap:butt;stroke-linejoin:miter;stroke-miterlimit:10;stroke-dasharray:none;stroke-opacity:1"
             d="m 987.363,1521.95 18.897,-75.59 18.9,75.59 -37.797,0 z" /></g></g><g
         id="g124"><g
           clip-path="url(#clipPath128)"
           id="g126"><path
             id="path132"
             style="fill:none;stroke:#000000;stroke-width:4.72424984;stroke-linecap:butt;stroke-linejoin:miter;stroke-miterlimit:10;stroke-dasharray:none;stroke-opacity:1"
             d="m 1006.26,1152.83 0,-283.455" /></g></g><g
         id="g134"><g
           clip-path="url(#clipPath138)"
           id="g136"><path
             id="path142"
             style="fill:#000000;fill-opacity:1;fill-rule:evenodd;stroke:none"
             d="m 987.363,955.043 18.897,-75.59 18.9,75.59 -37.797,0" /><path
             id="path144"
             style="fill:none;stroke:#000000;stroke-width:4.72424984;stroke-linecap:butt;stroke-linejoin:miter;stroke-miterlimit:10;stroke-dasharray:none;stroke-opacity:1"
             d="m 987.363,955.043 18.897,-75.59 18.9,75.59 -37.797,0 z" /></g></g><g
         id="g146"><g
           clip-path="url(#clipPath150)"
           id="g148"><path
             id="path154"
             style="fill:none;stroke:#000000;stroke-width:4.72424984;stroke-linecap:butt;stroke-linejoin:miter;stroke-miterlimit:10;stroke-dasharray:none;stroke-opacity:1"
             d="m 1006.26,585.922 0,-283.457" /></g></g><g
         id="g156"><g
           clip-path="url(#clipPath160)"
           id="g158"><path
             id="path164"
             style="fill:#000000;fill-opacity:1;fill-rule:evenodd;stroke:none"
             d="m 987.363,388.133 18.897,-75.59 18.9,75.59 -37.797,0" /><path
             id="path166"
             style="fill:none;stroke:#000000;stroke-width:4.72424984;stroke-linecap:butt;stroke-linejoin:miter;stroke-miterlimit:10;stroke-dasharray:none;stroke-opacity:1"
             d="m 987.363,388.133 18.897,-75.59 18.9,75.59 -37.797,0 z" /></g></g><g
         transform="scale(10,10)"
         id="g168"><text
           id="text170"
           style="font-variant:normal;font-weight:normal;font-size:11.9552002px;font-family:CMTT12;-inkscape-font-specification:CMTT12;writing-mode:lr-tb;fill:#000000;fill-opacity:1;fill-rule:nonzero;stroke:none"
           transform="matrix(1,0,0,-1,26.9602,353.44)"><tspan
             id="tspan172"
             y="0"
             x="0 6.1250129 12.250029 18.37504 24.500053 30.625059 36.750072 42.875084 49.000092 55.125103 61.250118 67.375122 73.500137 79.625145 85.75016 91.875168 98.000175 104.12519 110.2502 116.37521 122.50023">Circuit(VHDL,Verilog)</tspan><tspan
             id="tspan174"
             y="65.159798"
             x="-11.2801 -5.1550875 0.96992528 7.0949378 13.219951 19.344967 25.469978 31.594992 37.719997 43.845009 56.450119 62.57513 74.82032 80.94532 87.070343 93.195351 105.68022 111.80523 117.93025 130.29527 136.42027 142.5453">SynthesizetoLUTsandFFs</tspan><tspan
             id="tspan176"
             y="116.2797"
             x="11.4 17.525013 23.650028 29.775042 42.139992 48.265007 54.390011 60.515026 72.879974 79.004982 85.130005 91.255013 97.380013 103.50504 109.63004 115.75505">PackintoClusters</tspan><tspan
             id="tspan178"
             y="170.0399"
             x="28.319901 34.444912 40.56992 46.694931 52.819946 58.94495 65.069962 71.194977 77.319992">Placement</tspan><tspan
             id="tspan180"
             y="226.80009"
             x="31.19998 37.324993 43.450001 49.575012 55.700024 61.825031 67.950043">Routing</tspan><tspan
             id="tspan182"
             y="283.43991"
             x="19.91988 26.044893 32.169899 38.29491 44.419926 50.54493 62.910122 69.035133 75.160141 81.285164 87.410164 93.535187 99.660194 105.7852">TimingAnalysis</tspan><tspan
             id="tspan184"
             y="343.07971"
             x="2.8796799 9.004693 15.129708 21.254721 27.379734 33.504742 39.629753 45.754765 51.879772 58.004784 70.609894 76.734901 82.859917 88.984924 95.109932 101.23495 107.35995 113.48496 119.60999 125.73499">BitstsreamGeneration</tspan></text>
</g></g></g></svg>