<?xml version="1.0" encoding="UTF-8" standalone="no"?>
<svg
   xmlns:dc="http://purl.org/dc/elements/1.1/"
   xmlns:cc="http://creativecommons.org/ns#"
   xmlns:rdf="http://www.w3.org/1999/02/22-rdf-syntax-ns#"
   xmlns:svg="http://www.w3.org/2000/svg"
   xmlns="http://www.w3.org/2000/svg"
   viewBox="0 0 485.97125 293.75"
   height="293.75"
   width="485.97125"
   xml:space="preserve"
   version="1.1"
   id="svg2"><metadata
     id="metadata8"><rdf:RDF><cc:Work
         rdf:about=""><dc:format>image/svg+xml</dc:format><dc:type
           rdf:resource="http://purl.org/dc/dcmitype/StillImage" /></cc:Work></rdf:RDF></metadata><defs
     id="defs6"><clipPath
       id="clipPath12"
       clipPathUnits="userSpaceOnUse"><path
         id="path14"
         d="m 0,0 594.75,0 0,841.5 L 0,841.5 0,0 Z" /></clipPath></defs><g
     clip-path="url(#clipPath12)"
     transform="matrix(1.25,0,0,-1.25,-172.4275,683.09375)"
     id="g10"><text
       id="text16"
       style="font-variant:normal;font-weight:normal;font-size:12.02499962px;writing-mode:lr-tb;fill:#000000;fill-opacity:1;fill-rule:nonzero;stroke:none"
       transform="matrix(1,0,0,-1,466.92,510.33)"><tspan
         id="tspan18"
         y="0"
         x="0 6 12 18 24 30 36 42 48 54 60">Short wire </tspan></text>
<text
       id="text20"
       style="font-variant:normal;font-weight:normal;font-size:12px;writing-mode:lr-tb;fill:#000000;fill-opacity:1;fill-rule:nonzero;stroke:none"
       transform="matrix(1,0,0,-1,475.95,495.9)"><tspan
         id="tspan22"
         y="0"
         x="0 6 12 18 24 30 36">segment</tspan></text>
<path
       id="path24"
       style="fill:none;stroke:#000000;stroke-width:0.75075001;stroke-linecap:round;stroke-linejoin:round;stroke-miterlimit:10;stroke-dasharray:none;stroke-opacity:1"
       d="m 327.58,525.15 0,-204.95" /><path
       id="path26"
       style="fill:none;stroke:#000000;stroke-width:0.75075001;stroke-linecap:round;stroke-linejoin:round;stroke-miterlimit:10;stroke-dasharray:none;stroke-opacity:1"
       d="m 292.77,525.15 0,-204.95" /><path
       id="path28"
       style="fill:none;stroke:#000000;stroke-width:0.75075001;stroke-linecap:round;stroke-linejoin:round;stroke-miterlimit:10;stroke-dasharray:none;stroke-opacity:1"
       d="m 304.38,525.15 0,-204.95" /><path
       id="path30"
       style="fill:none;stroke:#000000;stroke-width:0.75075001;stroke-linecap:round;stroke-linejoin:round;stroke-miterlimit:10;stroke-dasharray:none;stroke-opacity:1"
       d="m 449.78,457.87 -234.35,0" /><path
       id="path32"
       style="fill:none;stroke:#000000;stroke-width:0.75075001;stroke-linecap:round;stroke-linejoin:round;stroke-miterlimit:10;stroke-dasharray:none;stroke-opacity:1"
       d="m 449.78,446.27 -234.35,0" /><path
       id="path34"
       style="fill:none;stroke:#000000;stroke-width:0.75075001;stroke-linecap:round;stroke-linejoin:round;stroke-miterlimit:10;stroke-dasharray:none;stroke-opacity:1"
       d="m 449.78,434.66 -234.35,0" /><path
       id="path36"
       style="fill:none;stroke:#000000;stroke-width:0.75075001;stroke-linecap:round;stroke-linejoin:round;stroke-miterlimit:10;stroke-dasharray:none;stroke-opacity:1"
       d="m 315.98,525.15 0,-204.95" /><path
       id="path38"
       style="fill:none;stroke:#000000;stroke-width:0.75075001;stroke-linecap:round;stroke-linejoin:round;stroke-miterlimit:10;stroke-dasharray:none;stroke-opacity:1"
       d="m 449.78,423.06 -234.35,0" /><path
       id="path40"
       style="fill:none;stroke:#000000;stroke-width:0.75075001;stroke-linecap:round;stroke-linejoin:round;stroke-miterlimit:10;stroke-dasharray:none;stroke-opacity:1"
       d="m 414.59,525.15 0,-204.95" /><path
       id="path42"
       style="fill:none;stroke:#000000;stroke-width:0.75075001;stroke-linecap:round;stroke-linejoin:round;stroke-miterlimit:10;stroke-dasharray:none;stroke-opacity:1"
       d="m 426.19,525.15 0,-204.95" /><path
       id="path44"
       style="fill:none;stroke:#000000;stroke-width:0.75075001;stroke-linecap:round;stroke-linejoin:round;stroke-miterlimit:10;stroke-dasharray:none;stroke-opacity:1"
       d="m 449.39,525.15 0,-204.95" /><path
       id="path46"
       style="fill:none;stroke:#000000;stroke-width:0.75075001;stroke-linecap:round;stroke-linejoin:round;stroke-miterlimit:10;stroke-dasharray:none;stroke-opacity:1"
       d="m 449.78,355.39 -234.35,0" /><path
       id="path48"
       style="fill:none;stroke:#000000;stroke-width:0.75075001;stroke-linecap:round;stroke-linejoin:round;stroke-miterlimit:10;stroke-dasharray:none;stroke-opacity:1"
       d="m 449.78,343.79 -234.35,0" /><path
       id="path50"
       style="fill:none;stroke:#000000;stroke-width:0.75075001;stroke-linecap:round;stroke-linejoin:round;stroke-miterlimit:10;stroke-dasharray:none;stroke-opacity:1"
       d="m 449.78,320.59 -234.35,0" /><path
       id="path52"
       style="fill:#ffffff;fill-opacity:1;fill-rule:evenodd;stroke:none"
       d="m 285.04,415.33 50.272,0 0,50.272 -50.272,0 0,-50.272 z" /><path
       id="path54"
       style="fill:none;stroke:#000000;stroke-width:0.75075001;stroke-linecap:round;stroke-linejoin:round;stroke-miterlimit:10;stroke-dasharray:none;stroke-opacity:1"
       d="m 285.04,415.33 50.272,0 0,50.272 -50.272,0 0,-50.272 z" /><path
       id="path56"
       style="fill:#ffffff;fill-opacity:1;fill-rule:evenodd;stroke:none"
       d="m 407.24,416.1 50.272,0 0,50.272 -50.272,0 0,-50.272 z" /><path
       id="path58"
       style="fill:none;stroke:#000000;stroke-width:0.75075001;stroke-linecap:round;stroke-linejoin:round;stroke-miterlimit:10;stroke-dasharray:none;stroke-opacity:1"
       d="m 407.24,416.1 50.272,0 0,50.272 -50.272,0 0,-50.272 z" /><path
       id="path60"
       style="fill:#ffffff;fill-opacity:1;fill-rule:evenodd;stroke:none"
       d="m 407.24,312.85 50.272,0 0,50.272 -50.272,0 0,-50.272 z" /><path
       id="path62"
       style="fill:none;stroke:#000000;stroke-width:0.75075001;stroke-linecap:round;stroke-linejoin:round;stroke-miterlimit:10;stroke-dasharray:none;stroke-opacity:1"
       d="m 407.24,312.85 50.272,0 0,50.272 -50.272,0 0,-50.272 z" /><path
       id="path64"
       style="fill:#ffffff;fill-opacity:1;fill-rule:evenodd;stroke:none"
       d="m 285.04,312.85 50.272,0 0,50.272 -50.272,0 0,-50.272 z" /><path
       id="path66"
       style="fill:none;stroke:#000000;stroke-width:0.75075001;stroke-linecap:round;stroke-linejoin:round;stroke-miterlimit:10;stroke-dasharray:none;stroke-opacity:1"
       d="m 285.04,312.85 50.272,0 0,50.272 -50.272,0 0,-50.272 z" /><path
       id="path68"
       style="fill:#96afcf;fill-opacity:1;fill-rule:evenodd;stroke:none"
       d="m 350.78,372.02 38.671,0 0,39.444 -38.671,0 0,-39.444 z" /><path
       id="path70"
       style="fill:none;stroke:#000000;stroke-width:0.75075001;stroke-linecap:round;stroke-linejoin:round;stroke-miterlimit:10;stroke-dasharray:none;stroke-opacity:1"
       d="m 350.78,372.02 38.671,0 0,39.444 -38.671,0 0,-39.444 z" /><text
       id="text72"
       style="font-variant:normal;font-weight:normal;font-size:12px;font-family:Calibri;-inkscape-font-specification:Calibri;writing-mode:lr-tb;fill:#000000;fill-opacity:1;fill-rule:nonzero;stroke:none"
       transform="matrix(1,0,0,-1,361.32,387.73)"><tspan
         id="tspan74"
         y="0"
         x="0 5.244 12">LAB</tspan></text>
<path
       id="path76"
       style="fill:#262626;fill-opacity:1;fill-rule:evenodd;stroke:none"
       d="m 346.14,381.69 4.6405,0 0,5.4139 -4.6405,0 0,-5.4139 z" /><path
       id="path78"
       style="fill:#262626;fill-opacity:1;fill-rule:evenodd;stroke:none"
       d="m 374.76,366.6 4.6405,0 0,5.4139 -4.6405,0 0,-5.4139 z" /><path
       id="path80"
       style="fill:#262626;fill-opacity:1;fill-rule:evenodd;stroke:none"
       d="m 389.45,398.31 4.6405,0 0,5.4139 -4.6405,0 0,-5.4139 z" /><path
       id="path82"
       style="fill:#262626;fill-opacity:1;fill-rule:evenodd;stroke:none"
       d="m 360.06,411.46 4.6405,0 0,5.4139 -4.6405,0 0,-5.4139 z" /><path
       id="path84"
       style="fill:#96afcf;fill-opacity:1;fill-rule:evenodd;stroke:none"
       d="m 350.78,472.56 38.671,0 0,39.444 -38.671,0 0,-39.444 z" /><path
       id="path86"
       style="fill:none;stroke:#000000;stroke-width:0.75075001;stroke-linecap:round;stroke-linejoin:round;stroke-miterlimit:10;stroke-dasharray:none;stroke-opacity:1"
       d="m 350.78,472.56 38.671,0 0,39.444 -38.671,0 0,-39.444 z" /><text
       id="text88"
       style="font-variant:normal;font-weight:normal;font-size:12.02499962px;font-family:Calibri;-inkscape-font-specification:Calibri;writing-mode:lr-tb;fill:#000000;fill-opacity:1;fill-rule:nonzero;stroke:none"
       transform="matrix(1,0,0,-1,361.32,488.38)"><tspan
         id="tspan90"
         y="0"
         x="0 5.2428999 11.988925">LAB</tspan></text>
<path
       id="path92"
       style="fill:#262626;fill-opacity:1;fill-rule:evenodd;stroke:none"
       d="m 346.14,482.23 4.6405,0 0,5.4139 -4.6405,0 0,-5.4139 z" /><path
       id="path94"
       style="fill:#262626;fill-opacity:1;fill-rule:evenodd;stroke:none"
       d="m 374.76,467.15 4.6405,0 0,5.4139 -4.6405,0 0,-5.4139 z" /><path
       id="path96"
       style="fill:#262626;fill-opacity:1;fill-rule:evenodd;stroke:none"
       d="m 389.45,498.86 4.6405,0 0,5.4139 -4.6405,0 0,-5.4139 z" /><path
       id="path98"
       style="fill:#262626;fill-opacity:1;fill-rule:evenodd;stroke:none"
       d="m 360.06,512.01 4.6405,0 0,5.4139 -4.6405,0 0,-5.4139 z" /><path
       id="path100"
       style="fill:#96afcf;fill-opacity:1;fill-rule:evenodd;stroke:none"
       d="m 230.9,472.56 38.671,0 0,39.444 -38.671,0 0,-39.444 z" /><path
       id="path102"
       style="fill:none;stroke:#000000;stroke-width:0.75075001;stroke-linecap:round;stroke-linejoin:round;stroke-miterlimit:10;stroke-dasharray:none;stroke-opacity:1"
       d="m 230.9,472.56 38.671,0 0,39.444 -38.671,0 0,-39.444 z" /><text
       id="text104"
       style="font-variant:normal;font-weight:normal;font-size:12.02499962px;font-family:Calibri;-inkscape-font-specification:Calibri;writing-mode:lr-tb;fill:#000000;fill-opacity:1;fill-rule:nonzero;stroke:none"
       transform="matrix(1,0,0,-1,241.27,488.38)"><tspan
         id="tspan106"
         y="0"
         x="0 5.2669501 12.037025">LAB</tspan></text>
<path
       id="path108"
       style="fill:#262626;fill-opacity:1;fill-rule:evenodd;stroke:none"
       d="m 226.26,482.23 4.6405,0 0,5.4139 -4.6405,0 0,-5.4139 z" /><path
       id="path110"
       style="fill:#262626;fill-opacity:1;fill-rule:evenodd;stroke:none"
       d="m 254.88,467.15 4.6405,0 0,5.4139 -4.6405,0 0,-5.4139 z" /><path
       id="path112"
       style="fill:#262626;fill-opacity:1;fill-rule:evenodd;stroke:none"
       d="m 269.57,498.86 4.6405,0 0,5.4139 -4.6405,0 0,-5.4139 z" /><path
       id="path114"
       style="fill:#262626;fill-opacity:1;fill-rule:evenodd;stroke:none"
       d="m 240.18,512.01 4.6405,0 0,5.4139 -4.6405,0 0,-5.4139 z" /><path
       id="path116"
       style="fill:#96afcf;fill-opacity:1;fill-rule:evenodd;stroke:none"
       d="m 230.9,372.02 38.671,0 0,39.444 -38.671,0 0,-39.444 z" /><path
       id="path118"
       style="fill:none;stroke:#000000;stroke-width:0.75075001;stroke-linecap:round;stroke-linejoin:round;stroke-miterlimit:10;stroke-dasharray:none;stroke-opacity:1"
       d="m 230.9,372.02 38.671,0 0,39.444 -38.671,0 0,-39.444 z" /><text
       id="text120"
       style="font-variant:normal;font-weight:normal;font-size:12px;font-family:Calibri;-inkscape-font-specification:Calibri;writing-mode:lr-tb;fill:#000000;fill-opacity:1;fill-rule:nonzero;stroke:none"
       transform="matrix(1,0,0,-1,241.27,387.73)"><tspan
         id="tspan122"
         y="0"
         x="0 5.2680001 12.048">LAB</tspan></text>
<path
       id="path124"
       style="fill:#262626;fill-opacity:1;fill-rule:evenodd;stroke:none"
       d="m 226.26,381.69 4.6405,0 0,5.4139 -4.6405,0 0,-5.4139 z" /><path
       id="path126"
       style="fill:#262626;fill-opacity:1;fill-rule:evenodd;stroke:none"
       d="m 254.88,366.6 4.6405,0 0,5.4139 -4.6405,0 0,-5.4139 z" /><path
       id="path128"
       style="fill:#262626;fill-opacity:1;fill-rule:evenodd;stroke:none"
       d="m 269.57,398.31 4.6405,0 0,5.4139 -4.6405,0 0,-5.4139 z" /><path
       id="path130"
       style="fill:#262626;fill-opacity:1;fill-rule:evenodd;stroke:none"
       d="m 240.18,411.46 4.6405,0 0,5.4139 -4.6405,0 0,-5.4139 z" /><path
       id="path132"
       style="fill:none;stroke:#000000;stroke-width:0.75075001;stroke-linecap:round;stroke-linejoin:round;stroke-miterlimit:10;stroke-dasharray:none;stroke-opacity:1"
       d="m 257.2,469.47 0,-34.81" /><path
       id="path134"
       style="fill:none;stroke:#000000;stroke-width:0.75075001;stroke-linecap:round;stroke-linejoin:round;stroke-miterlimit:10;stroke-dasharray:none;stroke-opacity:1"
       d="m 255.26,459.8 3.91,-3.9" /><path
       id="path136"
       style="fill:none;stroke:#000000;stroke-width:0.75075001;stroke-linecap:round;stroke-linejoin:round;stroke-miterlimit:10;stroke-dasharray:none;stroke-opacity:1"
       d="m 259.1,459.76 -3.84,-3.83" /><path
       id="path138"
       style="fill:none;stroke:#000000;stroke-width:0.75075001;stroke-linecap:round;stroke-linejoin:round;stroke-miterlimit:10;stroke-dasharray:none;stroke-opacity:1"
       d="m 255.26,436.63 3.91,-3.9" /><path
       id="path140"
       style="fill:none;stroke:#000000;stroke-width:0.75075001;stroke-linecap:round;stroke-linejoin:round;stroke-miterlimit:10;stroke-dasharray:none;stroke-opacity:1"
       d="m 259.1,436.6 -3.84,-3.83" /><path
       id="path142"
       style="fill:none;stroke:#000000;stroke-width:0.75075001;stroke-linecap:round;stroke-linejoin:round;stroke-miterlimit:10;stroke-dasharray:none;stroke-opacity:1"
       d="m 240.53,448.2 3.91,-3.9" /><path
       id="path144"
       style="fill:none;stroke:#000000;stroke-width:0.75075001;stroke-linecap:round;stroke-linejoin:round;stroke-miterlimit:10;stroke-dasharray:none;stroke-opacity:1"
       d="m 244.37,448.16 -3.84,-3.83" /><path
       id="path146"
       style="fill:none;stroke:#000000;stroke-width:0.75075001;stroke-linecap:round;stroke-linejoin:round;stroke-miterlimit:10;stroke-dasharray:none;stroke-opacity:1"
       d="m 240.53,425.03 3.91,-3.9" /><path
       id="path148"
       style="fill:none;stroke:#000000;stroke-width:0.75075001;stroke-linecap:round;stroke-linejoin:round;stroke-miterlimit:10;stroke-dasharray:none;stroke-opacity:1"
       d="m 244.37,425 -3.84,-3.84" /><path
       id="path150"
       style="fill:none;stroke:#000000;stroke-width:0.75075001;stroke-linecap:round;stroke-linejoin:round;stroke-miterlimit:10;stroke-dasharray:none;stroke-opacity:1"
       d="m 242.47,446.27 0,-32.87" /><path
       id="path152"
       style="fill:none;stroke:#000000;stroke-width:0.75075001;stroke-linecap:round;stroke-linejoin:round;stroke-miterlimit:10;stroke-dasharray:none;stroke-opacity:1"
       d="m 377.06,366.99 0,-34.8" /><path
       id="path154"
       style="fill:none;stroke:#000000;stroke-width:0.75075001;stroke-linecap:round;stroke-linejoin:round;stroke-miterlimit:10;stroke-dasharray:none;stroke-opacity:1"
       d="m 375.13,357.32 3.9,-3.9" /><path
       id="path156"
       style="fill:none;stroke:#000000;stroke-width:0.75075001;stroke-linecap:round;stroke-linejoin:round;stroke-miterlimit:10;stroke-dasharray:none;stroke-opacity:1"
       d="m 378.96,357.29 -3.83,-3.83" /><path
       id="path158"
       style="fill:none;stroke:#000000;stroke-width:0.75075001;stroke-linecap:round;stroke-linejoin:round;stroke-miterlimit:10;stroke-dasharray:none;stroke-opacity:1"
       d="m 375.13,334.16 3.9,-3.91" /><path
       id="path160"
       style="fill:none;stroke:#000000;stroke-width:0.75075001;stroke-linecap:round;stroke-linejoin:round;stroke-miterlimit:10;stroke-dasharray:none;stroke-opacity:1"
       d="m 378.96,334.12 -3.83,-3.83" /><path
       id="path162"
       style="fill:none;stroke:#000000;stroke-width:0.75075001;stroke-linecap:round;stroke-linejoin:round;stroke-miterlimit:10;stroke-dasharray:none;stroke-opacity:1"
       d="m 360.45,448.2 3.9,-3.9" /><path
       id="path164"
       style="fill:none;stroke:#000000;stroke-width:0.75075001;stroke-linecap:round;stroke-linejoin:round;stroke-miterlimit:10;stroke-dasharray:none;stroke-opacity:1"
       d="m 364.28,448.16 -3.83,-3.83" /><path
       id="path166"
       style="fill:none;stroke:#000000;stroke-width:0.75075001;stroke-linecap:round;stroke-linejoin:round;stroke-miterlimit:10;stroke-dasharray:none;stroke-opacity:1"
       d="m 360.45,425.03 3.9,-3.9" /><path
       id="path168"
       style="fill:none;stroke:#000000;stroke-width:0.75075001;stroke-linecap:round;stroke-linejoin:round;stroke-miterlimit:10;stroke-dasharray:none;stroke-opacity:1"
       d="m 364.28,425 -3.83,-3.84" /><path
       id="path170"
       style="fill:none;stroke:#000000;stroke-width:0.75075001;stroke-linecap:round;stroke-linejoin:round;stroke-miterlimit:10;stroke-dasharray:none;stroke-opacity:1"
       d="m 362.38,446.27 0,-32.87" /><path
       id="path172"
       style="fill:none;stroke:#000000;stroke-width:0.75075001;stroke-linecap:round;stroke-linejoin:round;stroke-miterlimit:10;stroke-dasharray:none;stroke-opacity:1"
       d="m 377.04,469.47 0,-34.81" /><path
       id="path174"
       style="fill:none;stroke:#000000;stroke-width:0.75075001;stroke-linecap:round;stroke-linejoin:round;stroke-miterlimit:10;stroke-dasharray:none;stroke-opacity:1"
       d="m 375.11,459.8 3.9,-3.9" /><path
       id="path176"
       style="fill:none;stroke:#000000;stroke-width:0.75075001;stroke-linecap:round;stroke-linejoin:round;stroke-miterlimit:10;stroke-dasharray:none;stroke-opacity:1"
       d="m 378.94,459.76 -3.83,-3.83" /><path
       id="path178"
       style="fill:none;stroke:#000000;stroke-width:0.75075001;stroke-linecap:round;stroke-linejoin:round;stroke-miterlimit:10;stroke-dasharray:none;stroke-opacity:1"
       d="m 375.11,436.63 3.9,-3.9" /><path
       id="path180"
       style="fill:none;stroke:#000000;stroke-width:0.75075001;stroke-linecap:round;stroke-linejoin:round;stroke-miterlimit:10;stroke-dasharray:none;stroke-opacity:1"
       d="m 378.94,436.6 -3.83,-3.83" /><path
       id="path182"
       style="fill:none;stroke:#000000;stroke-width:0.75075001;stroke-linecap:round;stroke-linejoin:round;stroke-miterlimit:10;stroke-dasharray:none;stroke-opacity:1"
       d="m 317.95,402.99 -3.91,-3.9" /><path
       id="path184"
       style="fill:none;stroke:#000000;stroke-width:0.75075001;stroke-linecap:round;stroke-linejoin:round;stroke-miterlimit:10;stroke-dasharray:none;stroke-opacity:1"
       d="m 317.91,399.16 -3.83,3.83" /><path
       id="path186"
       style="fill:none;stroke:#000000;stroke-width:0.75075001;stroke-linecap:round;stroke-linejoin:round;stroke-miterlimit:10;stroke-dasharray:none;stroke-opacity:1"
       d="m 294.74,402.99 -3.9,-3.9" /><path
       id="path188"
       style="fill:none;stroke:#000000;stroke-width:0.75075001;stroke-linecap:round;stroke-linejoin:round;stroke-miterlimit:10;stroke-dasharray:none;stroke-opacity:1"
       d="m 294.71,399.16 -3.83,3.83" /><path
       id="path190"
       style="fill:none;stroke:#000000;stroke-width:0.75075001;stroke-linecap:round;stroke-linejoin:round;stroke-miterlimit:10;stroke-dasharray:none;stroke-opacity:1"
       d="m 316.01,401.06 -44.5,0" /><path
       id="path192"
       style="fill:none;stroke:#000000;stroke-width:0.75075001;stroke-linecap:round;stroke-linejoin:round;stroke-miterlimit:10;stroke-dasharray:none;stroke-opacity:1"
       d="m 345.95,384.43 -41.54,0" /><path
       id="path194"
       style="fill:none;stroke:#000000;stroke-width:0.75075001;stroke-linecap:round;stroke-linejoin:round;stroke-miterlimit:10;stroke-dasharray:none;stroke-opacity:1"
       d="m 329.51,386.36 -3.9,-3.9" /><path
       id="path196"
       style="fill:none;stroke:#000000;stroke-width:0.75075001;stroke-linecap:round;stroke-linejoin:round;stroke-miterlimit:10;stroke-dasharray:none;stroke-opacity:1"
       d="m 329.48,382.53 -3.84,3.83" /><path
       id="path198"
       style="fill:none;stroke:#000000;stroke-width:0.75075001;stroke-linecap:round;stroke-linejoin:round;stroke-miterlimit:10;stroke-dasharray:none;stroke-opacity:1"
       d="m 306.34,386.36 -3.9,-3.9" /><path
       id="path200"
       style="fill:none;stroke:#000000;stroke-width:0.75075001;stroke-linecap:round;stroke-linejoin:round;stroke-miterlimit:10;stroke-dasharray:none;stroke-opacity:1"
       d="m 306.31,382.53 -3.83,3.83" /><path
       id="path202"
       style="fill:none;stroke:#000000;stroke-width:0.75075001;stroke-linecap:round;stroke-linejoin:round;stroke-miterlimit:10;stroke-dasharray:none;stroke-opacity:1"
       d="m 257.18,366.99 0,-34.8" /><path
       id="path204"
       style="fill:none;stroke:#000000;stroke-width:0.75075001;stroke-linecap:round;stroke-linejoin:round;stroke-miterlimit:10;stroke-dasharray:none;stroke-opacity:1"
       d="m 255.25,357.32 3.9,-3.9" /><path
       id="path206"
       style="fill:none;stroke:#000000;stroke-width:0.75075001;stroke-linecap:round;stroke-linejoin:round;stroke-miterlimit:10;stroke-dasharray:none;stroke-opacity:1"
       d="m 259.08,357.29 -3.83,-3.83" /><path
       id="path208"
       style="fill:none;stroke:#000000;stroke-width:0.75075001;stroke-linecap:round;stroke-linejoin:round;stroke-miterlimit:10;stroke-dasharray:none;stroke-opacity:1"
       d="m 255.25,334.16 3.9,-3.91" /><path
       id="path210"
       style="fill:none;stroke:#000000;stroke-width:0.75075001;stroke-linecap:round;stroke-linejoin:round;stroke-miterlimit:10;stroke-dasharray:none;stroke-opacity:1"
       d="m 259.08,334.12 -3.83,-3.83" /><path
       id="path212"
       style="fill:none;stroke:#000000;stroke-width:0.75075001;stroke-linecap:round;stroke-linejoin:round;stroke-miterlimit:10;stroke-dasharray:none;stroke-opacity:1"
       d="m 317.95,503.53 -3.91,-3.9" /><path
       id="path214"
       style="fill:none;stroke:#000000;stroke-width:0.75075001;stroke-linecap:round;stroke-linejoin:round;stroke-miterlimit:10;stroke-dasharray:none;stroke-opacity:1"
       d="m 317.91,499.7 -3.83,3.83" /><path
       id="path216"
       style="fill:none;stroke:#000000;stroke-width:0.75075001;stroke-linecap:round;stroke-linejoin:round;stroke-miterlimit:10;stroke-dasharray:none;stroke-opacity:1"
       d="m 294.74,503.53 -3.9,-3.9" /><path
       id="path218"
       style="fill:none;stroke:#000000;stroke-width:0.75075001;stroke-linecap:round;stroke-linejoin:round;stroke-miterlimit:10;stroke-dasharray:none;stroke-opacity:1"
       d="m 294.71,499.7 -3.83,3.83" /><path
       id="path220"
       style="fill:none;stroke:#000000;stroke-width:0.75075001;stroke-linecap:round;stroke-linejoin:round;stroke-miterlimit:10;stroke-dasharray:none;stroke-opacity:1"
       d="m 316.01,501.6 -44.5,0" /><path
       id="path222"
       style="fill:none;stroke:#000000;stroke-width:0.75075001;stroke-linecap:round;stroke-linejoin:round;stroke-miterlimit:10;stroke-dasharray:none;stroke-opacity:1"
       d="m 345.95,484.97 -41.54,0" /><path
       id="path224"
       style="fill:none;stroke:#000000;stroke-width:0.75075001;stroke-linecap:round;stroke-linejoin:round;stroke-miterlimit:10;stroke-dasharray:none;stroke-opacity:1"
       d="m 329.51,486.9 -3.9,-3.9" /><path
       id="path226"
       style="fill:none;stroke:#000000;stroke-width:0.75075001;stroke-linecap:round;stroke-linejoin:round;stroke-miterlimit:10;stroke-dasharray:none;stroke-opacity:1"
       d="m 329.48,483.07 -3.84,3.83" /><path
       id="path228"
       style="fill:none;stroke:#000000;stroke-width:0.75075001;stroke-linecap:round;stroke-linejoin:round;stroke-miterlimit:10;stroke-dasharray:none;stroke-opacity:1"
       d="m 306.34,486.9 -3.9,-3.9" /><path
       id="path230"
       style="fill:none;stroke:#000000;stroke-width:0.75075001;stroke-linecap:round;stroke-linejoin:round;stroke-miterlimit:10;stroke-dasharray:none;stroke-opacity:1"
       d="m 306.31,483.07 -3.83,3.83" /><path
       id="path232"
       style="fill:none;stroke:#000000;stroke-width:0.75075001;stroke-linecap:round;stroke-linejoin:round;stroke-miterlimit:10;stroke-dasharray:none;stroke-opacity:1"
       d="m 439.76,503.53 -3.9,-3.9" /><path
       id="path234"
       style="fill:none;stroke:#000000;stroke-width:0.75075001;stroke-linecap:round;stroke-linejoin:round;stroke-miterlimit:10;stroke-dasharray:none;stroke-opacity:1"
       d="m 439.72,499.7 -3.83,3.83" /><path
       id="path236"
       style="fill:none;stroke:#000000;stroke-width:0.75075001;stroke-linecap:round;stroke-linejoin:round;stroke-miterlimit:10;stroke-dasharray:none;stroke-opacity:1"
       d="m 416.56,503.53 -3.91,-3.9" /><path
       id="path238"
       style="fill:none;stroke:#000000;stroke-width:0.75075001;stroke-linecap:round;stroke-linejoin:round;stroke-miterlimit:10;stroke-dasharray:none;stroke-opacity:1"
       d="m 416.52,499.7 -3.83,3.83" /><path
       id="path240"
       style="fill:none;stroke:#000000;stroke-width:0.75075001;stroke-linecap:round;stroke-linejoin:round;stroke-miterlimit:10;stroke-dasharray:none;stroke-opacity:1"
       d="m 437.82,501.6 -44.5,0" /><path
       id="path242"
       style="fill:none;stroke:#000000;stroke-width:0.75075001;stroke-linecap:round;stroke-linejoin:round;stroke-miterlimit:10;stroke-dasharray:none;stroke-opacity:1"
       d="m 439.76,402.95 -3.9,-3.9" /><path
       id="path244"
       style="fill:none;stroke:#000000;stroke-width:0.75075001;stroke-linecap:round;stroke-linejoin:round;stroke-miterlimit:10;stroke-dasharray:none;stroke-opacity:1"
       d="m 439.72,399.12 -3.83,3.83" /><path
       id="path246"
       style="fill:none;stroke:#000000;stroke-width:0.75075001;stroke-linecap:round;stroke-linejoin:round;stroke-miterlimit:10;stroke-dasharray:none;stroke-opacity:1"
       d="m 416.56,402.95 -3.91,-3.9" /><path
       id="path248"
       style="fill:none;stroke:#000000;stroke-width:0.75075001;stroke-linecap:round;stroke-linejoin:round;stroke-miterlimit:10;stroke-dasharray:none;stroke-opacity:1"
       d="m 416.52,399.12 -3.83,3.83" /><path
       id="path250"
       style="fill:none;stroke:#000000;stroke-width:0.75075001;stroke-linecap:round;stroke-linejoin:round;stroke-miterlimit:10;stroke-dasharray:none;stroke-opacity:1"
       d="m 437.82,401.02 -44.5,0" /><path
       id="path252"
       style="fill:none;stroke:#000000;stroke-width:0.75075001;stroke-linecap:round;stroke-linejoin:round;stroke-miterlimit:10;stroke-dasharray:none;stroke-opacity:1"
       d="m 407.24,332.19 -191.81,0" /><path
       id="path254"
       style="fill:none;stroke:#000000;stroke-width:0.75075001;stroke-linecap:round;stroke-linejoin:round;stroke-miterlimit:10;stroke-dasharray:none;stroke-opacity:1"
       d="m 327.58,465.6 0,-50.27" /><path
       id="path256"
       style="fill:none;stroke:#000000;stroke-width:2.25;stroke-linecap:round;stroke-linejoin:round;stroke-miterlimit:10;stroke-dasharray:none;stroke-opacity:1"
       d="m 437.79,525.15 0,-161.64" /><path
       id="path258"
       style="fill:none;stroke:#000000;stroke-width:0.75075001;stroke-linecap:round;stroke-linejoin:round;stroke-miterlimit:10;stroke-dasharray:none;stroke-opacity:1"
       d="m 407.24,434.66 50.27,0" /><path
       id="path260"
       style="fill:none;stroke:#000000;stroke-width:0.75075001;stroke-linecap:round;stroke-linejoin:round;stroke-miterlimit:10;stroke-dasharray:none;stroke-opacity:1"
       d="m 315.98,363.12 0,-50.27" /><path
       id="path262"
       style="fill:none;stroke:#000000;stroke-width:0.75075001;stroke-linecap:round;stroke-linejoin:round;stroke-miterlimit:10;stroke-dasharray:none;stroke-opacity:1"
       d="m 285.04,423.06 50.27,0" /><g
       id="g264"><path
         id="path266"
         style="fill:none;stroke:#000000;stroke-width:0.75075001;stroke-linecap:round;stroke-linejoin:round;stroke-miterlimit:10;stroke-dasharray:5.2552, 3.7537;stroke-dashoffset:0;stroke-opacity:0.49803999"
         d="m 274.99,441.24 c 0,13.24 -10.74,23.97 -23.98,23.97 -13.24,0 -23.98,-10.73 -23.98,-23.97 0,-13.24 10.74,-23.98 23.98,-23.98 13.24,0 23.98,10.74 23.98,23.98 z" /></g><g
       id="g268"><path
         id="path270"
         style="fill:none;stroke:#000000;stroke-width:0.75075001;stroke-linecap:round;stroke-linejoin:round;stroke-miterlimit:10;stroke-dasharray:5.2552, 3.7537;stroke-dashoffset:0;stroke-opacity:0.6"
         d="m 315.98,415.33 0,50.27 -30.94,-30.94 30.94,-19.33 z" /></g><g
       id="g272"><path
         id="path274"
         style="fill:none;stroke:#000000;stroke-width:0.75075001;stroke-linecap:round;stroke-linejoin:round;stroke-miterlimit:10;stroke-dasharray:5.2552, 3.7537;stroke-dashoffset:0;stroke-opacity:0.6"
         d="m 315.98,465.6 19.33,-30.94 -19.33,-19.33" /></g><path
       id="path276"
       style="fill:none;stroke:#000000;stroke-width:0.75075001;stroke-linecap:round;stroke-linejoin:round;stroke-miterlimit:10;stroke-dasharray:none;stroke-opacity:1"
       d="m 285.04,434.66 50.27,0" /><path
       id="path278"
       style="fill:none;stroke:#000000;stroke-width:2.25;stroke-linecap:round;stroke-linejoin:round;stroke-miterlimit:10;stroke-dasharray:none;stroke-opacity:1"
       d="m 335.91,457.87 70.86,0" /><text
       id="text280"
       style="font-variant:normal;font-weight:normal;font-size:12px;writing-mode:lr-tb;fill:#000000;fill-opacity:1;fill-rule:nonzero;stroke:none"
       transform="matrix(1,0,0,-1,472.5,444.48)"><tspan
         id="tspan282"
         y="0"
         x="0 6 12 18 24 30 36 42 48 54">Long wire </tspan></text>
<text
       id="text284"
       style="font-variant:normal;font-weight:normal;font-size:12.02499962px;writing-mode:lr-tb;fill:#000000;fill-opacity:1;fill-rule:nonzero;stroke:none"
       transform="matrix(1,0,0,-1,478.5,430.07)"><tspan
         id="tspan286"
         y="0"
         x="0 6.0250001 12.05 18.075001 24.1 30.125 36.150002">segment</tspan></text>
<text
       id="text288"
       style="font-variant:normal;font-weight:normal;font-size:12.02499962px;writing-mode:lr-tb;fill:#000000;fill-opacity:1;fill-rule:nonzero;stroke:none"
       transform="matrix(1,0,0,-1,484.77,365.63)"><tspan
         id="tspan290"
         y="0"
         x="0 6 12 18 24 30">Switch</tspan></text>
<text
       id="text292"
       style="font-variant:normal;font-weight:normal;font-size:12px;writing-mode:lr-tb;fill:#000000;fill-opacity:1;fill-rule:nonzero;stroke:none"
       transform="matrix(1,0,0,-1,487.78,351.2)"><tspan
         id="tspan294"
         y="0"
         x="0 6 12 18 24">block</tspan></text>
<text
       id="text296"
       style="font-variant:normal;font-weight:normal;font-size:12.02499962px;writing-mode:lr-tb;fill:#000000;fill-opacity:1;fill-rule:nonzero;stroke:none"
       transform="matrix(1,0,0,-1,207.35,534.33)"><tspan
         id="tspan298"
         y="0"
         x="0 6 12 18 24 30 36 42 48 54 60 66 72 78 84 90 96 102 108 114 120 126 132 138 144 150 156">Programmable routing switch</tspan></text>
<text
       id="text300"
       style="font-variant:normal;font-weight:normal;font-size:12.02499962px;writing-mode:lr-tb;fill:#000000;fill-opacity:1;fill-rule:nonzero;stroke:none"
       transform="matrix(1,0,0,-1,157.55,506.55)"><tspan
         id="tspan302"
         y="0"
         x="0 6.0250001 12.05 18.075001 24.1">Logic</tspan></text>
<text
       id="text304"
       style="font-variant:normal;font-weight:normal;font-size:12px;writing-mode:lr-tb;fill:#000000;fill-opacity:1;fill-rule:nonzero;stroke:none"
       transform="matrix(1,0,0,-1,157.55,492.13)"><tspan
         id="tspan306"
         y="0"
         x="0 6.0250001 12.05 18.075001 24.1">block</tspan></text>
<text
       id="text308"
       style="font-variant:normal;font-weight:normal;font-size:12.02499962px;writing-mode:lr-tb;fill:#000000;fill-opacity:1;fill-rule:nonzero;stroke:none"
       transform="matrix(1,0,0,-1,145.5,449.5)"><tspan
         id="tspan310"
         y="0"
         x="0 6.0250001 12.05 18.075001 24.1 30.125 36.150002 42.174999 48.200001 54.224998">Connection</tspan></text>
<text
       id="text312"
       style="font-variant:normal;font-weight:normal;font-size:12px;writing-mode:lr-tb;fill:#000000;fill-opacity:1;fill-rule:nonzero;stroke:none"
       transform="matrix(1,0,0,-1,160.52,435.08)"><tspan
         id="tspan314"
         y="0"
         x="0 6 12 18 24">block</tspan></text>
<text
       id="text316"
       style="font-variant:normal;font-weight:normal;font-size:12px;writing-mode:lr-tb;fill:#000000;fill-opacity:1;fill-rule:nonzero;stroke:none"
       transform="matrix(1,0,0,-1,139.85,399.65)"><tspan
         id="tspan318"
         y="0"
         x="0 6.0250001 12.05 18.075001 24.1 30.125 36.150002 42.174999 48.200001 54.224998 60.25 66.275002 72.300003">Programmable </tspan></text>
<text
       id="text320"
       style="font-variant:normal;font-weight:normal;font-size:12px;writing-mode:lr-tb;fill:#000000;fill-opacity:1;fill-rule:nonzero;stroke:none"
       transform="matrix(1,0,0,-1,145.88,385.22)"><tspan
         id="tspan322"
         y="0"
         x="0 6 12 18 24 30 36 42 48 54 60">connection </tspan></text>
<text
       id="text324"
       style="font-variant:normal;font-weight:normal;font-size:12px;writing-mode:lr-tb;fill:#000000;fill-opacity:1;fill-rule:nonzero;stroke:none"
       transform="matrix(1,0,0,-1,166.9,370.83)"><tspan
         id="tspan326"
         y="0"
         x="0 6 12">box</tspan></text>
<path
       id="path328"
       style="fill:none;stroke:#000000;stroke-width:0.75075001;stroke-linecap:round;stroke-linejoin:round;stroke-miterlimit:10;stroke-dasharray:none;stroke-opacity:1"
       d="M 472.19,502.76 394.11,460.23" /><path
       id="path330"
       style="fill:#000000;fill-opacity:1;fill-rule:evenodd;stroke:none"
       d="m 389.76,457.87 4.18,6 c 0.08,-2.3 1.24,-4.43 3.13,-5.75 l -7.31,-0.25 z" /><path
       id="path332"
       style="fill:none;stroke:#000000;stroke-width:0.75075001;stroke-linecap:round;stroke-linejoin:round;stroke-miterlimit:10;stroke-dasharray:none;stroke-opacity:1"
       d="M 477.85,427.06 441.29,390.5" /><path
       id="path334"
       style="fill:#000000;fill-opacity:1;fill-rule:evenodd;stroke:none"
       d="m 437.79,387 2.31,6.94 c 0.73,-2.19 2.44,-3.9 4.63,-4.63 L 437.79,387 Z" /><path
       id="path336"
       style="fill:none;stroke:#000000;stroke-width:0.75075001;stroke-linecap:round;stroke-linejoin:round;stroke-miterlimit:10;stroke-dasharray:none;stroke-opacity:1"
       d="M 481.89,361.03 461.04,340.49" /><path
       id="path338"
       style="fill:#000000;fill-opacity:1;fill-rule:evenodd;stroke:none"
       d="m 457.51,337.02 2.37,6.92 c 0.71,-2.19 2.41,-3.92 4.59,-4.66 l -6.96,-2.26 z" /><path
       id="path340"
       style="fill:none;stroke:#000000;stroke-width:0.75075001;stroke-linecap:round;stroke-linejoin:round;stroke-miterlimit:10;stroke-dasharray:none;stroke-opacity:1"
       d="m 272.14,532.35 19.5,-82.88" /><path
       id="path342"
       style="fill:#000000;fill-opacity:1;fill-rule:evenodd;stroke:none"
       d="m 292.77,444.65 -4.68,5.62 c 2.24,-0.53 4.6,0.02 6.37,1.49 l -1.69,-7.11 z" /><path
       id="path344"
       style="fill:none;stroke:#000000;stroke-width:0.75075001;stroke-linecap:round;stroke-linejoin:round;stroke-miterlimit:10;stroke-dasharray:none;stroke-opacity:1"
       d="m 188.5,502.76 37.52,-6.27" /><path
       id="path346"
       style="fill:#000000;fill-opacity:1;fill-rule:evenodd;stroke:none"
       d="m 230.9,495.67 -6.99,-2.14 c 1.36,1.86 1.76,4.25 1.08,6.45 l 5.91,-4.31 z" /><path
       id="path348"
       style="fill:none;stroke:#000000;stroke-width:0.75075001;stroke-linecap:round;stroke-linejoin:round;stroke-miterlimit:10;stroke-dasharray:none;stroke-opacity:1"
       d="m 193.58,446.07 28.58,-4.78" /><path
       id="path350"
       style="fill:#000000;fill-opacity:1;fill-rule:evenodd;stroke:none"
       d="m 227.05,440.47 -6.99,-2.14 c 1.35,1.86 1.75,4.25 1.08,6.45 l 5.91,-4.31 z" /><path
       id="path352"
       style="fill:none;stroke:#000000;stroke-width:0.75075001;stroke-linecap:round;stroke-linejoin:round;stroke-miterlimit:10;stroke-dasharray:none;stroke-opacity:1"
       d="m 210.36,396.46 29.43,45.64" /><path
       id="path354"
       style="fill:#000000;fill-opacity:1;fill-rule:evenodd;stroke:none"
       d="m 242.47,446.27 -0.8,-7.27 c -1.17,1.98 -3.21,3.29 -5.49,3.54 l 6.29,3.73 z" /></g></svg>