<?xml version="1.0" encoding="UTF-8" standalone="no"?>
<svg
   xmlns:dc="http://purl.org/dc/elements/1.1/"
   xmlns:cc="http://creativecommons.org/ns#"
   xmlns:rdf="http://www.w3.org/1999/02/22-rdf-syntax-ns#"
   xmlns:svg="http://www.w3.org/2000/svg"
   xmlns="http://www.w3.org/2000/svg"
   id="svg4280"
   version="1.1"
   viewBox="0 0 194.00455 131.00795"
   height="131.00795mm"
   width="194.00455mm">
  <defs
     id="defs4274">
    <clipPath
       id="clipPath430"
       clipPathUnits="userSpaceOnUse">
      <path
         style="clip-rule:evenodd"
         id="path428"
         d="M -6.104e-6,486 H 864 V 0 H -6.104e-6" />
    </clipPath>
    <clipPath
       id="clipPath420"
       clipPathUnits="userSpaceOnUse">
      <path
         style="clip-rule:evenodd"
         id="path418"
         d="M 0,486 H 864 V 0 H -3.052e-6" />
    </clipPath>
    <clipPath
       id="clipPath410"
       clipPathUnits="userSpaceOnUse">
      <path
         style="clip-rule:evenodd"
         id="path408"
         d="M -6.104e-6,486 H 864 V 0 H -3.052e-6" />
    </clipPath>
    <clipPath
       id="clipPath284"
       clipPathUnits="userSpaceOnUse">
      <path
         style="clip-rule:evenodd"
         id="path282"
         d="M -1.2207e-4,486 H 864 V 3.052e-6 H -6.104e-6" />
    </clipPath>
    <clipPath
       id="clipPath274"
       clipPathUnits="userSpaceOnUse">
      <path
         style="clip-rule:evenodd"
         id="path272"
         d="M -6.104e-6,486 H 864 V 3.052e-6 H -6.104e-6" />
    </clipPath>
    <clipPath
       id="clipPath264"
       clipPathUnits="userSpaceOnUse">
      <path
         style="clip-rule:evenodd"
         id="path262"
         d="M -3.052e-6,486 H 864 V 3.052e-6 H -3.052e-6" />
    </clipPath>
    <clipPath
       id="clipPath254"
       clipPathUnits="userSpaceOnUse">
      <path
         style="clip-rule:evenodd"
         id="path252"
         d="M -3.052e-6,486 H 864 V 3.052e-6 H -3.052e-6" />
    </clipPath>
    <clipPath
       id="clipPath244"
       clipPathUnits="userSpaceOnUse">
      <path
         style="clip-rule:evenodd"
         id="path242"
         d="M -1.526e-6,486 H 864 V 3.052e-6 H -1.526e-6" />
    </clipPath>
    <clipPath
       id="clipPath234"
       clipPathUnits="userSpaceOnUse">
      <path
         style="clip-rule:evenodd"
         id="path232"
         d="M -6.104e-6,486 H 864 V 0 L -6.104e-6,3.052e-6" />
    </clipPath>
    <clipPath
       id="clipPath224"
       clipPathUnits="userSpaceOnUse">
      <path
         style="clip-rule:evenodd"
         id="path222"
         d="M 0,486 H 864 V 0 L 0,3.052e-6" />
    </clipPath>
    <clipPath
       id="clipPath214"
       clipPathUnits="userSpaceOnUse">
      <path
         style="clip-rule:evenodd"
         id="path212"
         d="M -3.052e-6,486 H 864 V 0 L -6.104e-6,3.052e-6" />
    </clipPath>
    <clipPath
       id="clipPath204"
       clipPathUnits="userSpaceOnUse">
      <path
         style="clip-rule:evenodd"
         id="path202"
         d="M -1.526e-6,486 H 864 V 3.052e-6 L -1.526e-6,6.104e-6" />
    </clipPath>
  </defs>
  <metadata
     id="metadata4277">
    <rdf:RDF>
      <cc:Work
         rdf:about="">
        <dc:format>image/svg+xml</dc:format>
        <dc:type
           rdf:resource="http://purl.org/dc/dcmitype/StillImage" />
        <dc:title></dc:title>
      </cc:Work>
    </rdf:RDF>
  </metadata>
  <g
     transform="translate(621.63323,174.45041)"
     id="layer1">
    <path
       id="path110"
       style="fill:#ffff99;fill-opacity:1;fill-rule:evenodd;stroke:none;stroke-width:0.35277775"
       d="m -483.59232,-66.454546 h 40.65763 v -7.52687 l 15.05656,15.05585 -15.05656,15.05726 v -7.52863 h -40.65763 l 7.52827,-7.52863 z" />
    <path
       id="path112"
       style="fill:none;stroke:#262626;stroke-width:0.35277775;stroke-linecap:butt;stroke-linejoin:miter;stroke-miterlimit:10;stroke-dasharray:none;stroke-opacity:1"
       d="m -483.59232,-66.454546 h 40.65763 v -7.52687 l 15.05656,15.05585 -15.05656,15.05726 v -7.52863 h -40.65763 l 7.52827,-7.52863 z" />
    <text
       id="text116"
       style="font-variant:normal;font-weight:bold;font-size:4.95299959px;font-family:'Arial Narrow';-inkscape-font-specification:'Arial Narrow Bold';writing-mode:lr-tb;fill:#000000;fill-opacity:1;fill-rule:nonzero;stroke:none;stroke-width:0.35277775"
       x="-463.93201"
       y="-59.971905">
      <tspan
         id="tspan114"
         y="-59.971905"
         x="-463.93201 -461.22272 -458.96414 -456.4827 -453.98639 -452.92645 -451.57428 -449.07797 -447.49796"
         style="stroke-width:0.35277775">Send for</tspan>
    </text>
    <text
       id="text120"
       style="font-variant:normal;font-weight:bold;font-size:4.95299959px;font-family:'Arial Narrow';-inkscape-font-specification:'Arial Narrow Bold';writing-mode:lr-tb;fill:#000000;fill-opacity:1;fill-rule:nonzero;stroke:none;stroke-width:0.35277775"
       x="-465.20203"
       y="-54.129902">
      <tspan
         id="tspan118"
         y="-54.129902"
         x="-465.20203 -462.95831 -460.7146 -458.47089 -456.22717 -453.73584 -452.38367 -451.24448 -448.75311"
         style="stroke-width:0.35277775">execution</tspan>
    </text>
    <path
       id="path122"
       style="fill:#ddf3ea;fill-opacity:1;fill-rule:evenodd;stroke:none;stroke-width:0.35277775"
       d="m -581.04365,-66.454546 h 90.66035 v -7.52687 l 15.06009,15.05585 -15.06009,15.05726 v -7.52863 h -90.66035 l 7.52827,-7.52863 z" />
    <path
       id="path124"
       style="fill:none;stroke:#262626;stroke-width:0.35277775;stroke-linecap:butt;stroke-linejoin:miter;stroke-miterlimit:10;stroke-dasharray:none;stroke-opacity:1"
       d="m -581.04365,-66.454546 h 90.66035 v -7.52687 l 15.06009,15.05585 -15.06009,15.05726 v -7.52863 h -90.66035 l 7.52827,-7.52863 z" />
    <text
       id="text128"
       style="font-variant:normal;font-weight:bold;font-size:4.96146631px;font-family:'Arial Narrow';-inkscape-font-specification:'Arial Narrow Bold';writing-mode:lr-tb;fill:#000000;fill-opacity:1;fill-rule:nonzero;stroke:none;stroke-width:0.35277775"
       x="-554.32074"
       y="-57.033962">
      <tspan
         id="tspan126"
         y="-57.033962"
         x="-554.32074 -551.39844 -549.83063 -547.58801 -545.34546 -543.99097 -541.74841 -540.56757 -538.08185 -535.8194 -534.46497 -532.22729 -531.09613 -528.83368 -526.34796 -523.85236 -522.75092 -520.50836 -518.94055 -516.45483 -513.94928 -510.3522 -508.10965 -505.62396 -504.26947"
         style="stroke-width:0.35277775">Create data and arguments</tspan>
    </text>
    <path
       id="path130"
       style="fill:#d2d2f4;fill-opacity:1;fill-rule:evenodd;stroke:none;stroke-width:0.35277775"
       d="m -614.21887,-151.10216 h 178.75954 v -8.68186 h -178.75954 z" />
    <path
       id="path132"
       style="fill:none;stroke:#262626;stroke-width:0.35277775;stroke-linecap:butt;stroke-linejoin:round;stroke-miterlimit:10;stroke-dasharray:none;stroke-opacity:1"
       d="m -614.21887,-151.10216 h 178.75954 v -8.68186 h -178.75954 z" />
    <text
       id="text136"
       style="font-variant:normal;font-weight:bold;font-size:4.95299959px;font-family:'Arial Narrow';-inkscape-font-specification:'Arial Narrow Bold';writing-mode:lr-tb;fill:#000000;fill-opacity:1;fill-rule:nonzero;stroke:none;stroke-width:0.35277775"
       x="-532.37445"
       y="-153.57866">
      <tspan
         id="tspan134"
         y="-153.57866"
         x="-532.37445 -529.44226 -526.96082 -524.46448 -523.1123 -520.85376 -518.62488"
         style="stroke-width:0.35277775">Context</tspan>
    </text>
    <path
       id="path138"
       style="fill:#c0e399;fill-opacity:1;fill-rule:evenodd;stroke:none;stroke-width:0.35277775"
       d="m -614.21887,-123.98061 h 42.22749 v -18.04952 h -42.22749 z" />
    <path
       id="path140"
       style="fill:none;stroke:#262626;stroke-width:0.35277775;stroke-linecap:butt;stroke-linejoin:round;stroke-miterlimit:10;stroke-dasharray:none;stroke-opacity:1"
       d="m -614.21887,-123.98061 h 42.22749 v -18.04952 h -42.22749 z" />
    <text
       id="text144"
       style="font-variant:normal;font-weight:bold;font-size:4.95299959px;font-family:'Arial Narrow';-inkscape-font-specification:'Arial Narrow Bold';writing-mode:lr-tb;fill:#000000;fill-opacity:1;fill-rule:nonzero;stroke:none;stroke-width:0.35277775"
       x="-602.57367"
       y="-131.13495">
      <tspan
         id="tspan142"
         y="-131.13495"
         x="-602.57367 -599.86438 -598.28436 -595.80292 -593.30664 -591.72662 -589.49774 -585.88702"
         style="stroke-width:0.35277775">Programs</tspan>
    </text>
    <path
       id="path146"
       style="fill:#c0e399;fill-opacity:1;fill-rule:evenodd;stroke:none;stroke-width:0.35277775"
       d="m -568.54474,-123.98061 h 38.68561 v -18.04952 h -38.68561 z" />
    <path
       id="path148"
       style="fill:none;stroke:#262626;stroke-width:0.35277775;stroke-linecap:butt;stroke-linejoin:round;stroke-miterlimit:10;stroke-dasharray:none;stroke-opacity:1"
       d="m -568.54474,-123.98061 h 38.68561 v -18.04952 h -38.68561 z" />
    <text
       id="text152"
       style="font-variant:normal;font-weight:bold;font-size:4.95299959px;font-family:'Arial Narrow';-inkscape-font-specification:'Arial Narrow Bold';writing-mode:lr-tb;fill:#000000;fill-opacity:1;fill-rule:nonzero;stroke:none;stroke-width:0.35277775"
       x="-556.63141"
       y="-131.13495">
      <tspan
         id="tspan150"
         y="-131.13495"
         x="-556.63141 -553.69928 -551.46545 -549.88544 -547.40399 -545.14545 -544.01611"
         style="stroke-width:0.35277775">Kernels</tspan>
    </text>
    <path
       id="path154"
       style="fill:#c0e399;fill-opacity:1;fill-rule:evenodd;stroke:none;stroke-width:0.35277775"
       d="m -526.31371,-123.98061 h 42.13225 v -18.04952 h -42.13225 z" />
    <path
       id="path156"
       style="fill:none;stroke:#262626;stroke-width:0.35277775;stroke-linecap:butt;stroke-linejoin:round;stroke-miterlimit:10;stroke-dasharray:none;stroke-opacity:1"
       d="m -526.31371,-123.98061 h 42.13225 v -18.04952 h -42.13225 z" />
    <text
       id="text160"
       style="font-variant:normal;font-weight:bold;font-size:4.95299959px;font-family:'Arial Narrow';-inkscape-font-specification:'Arial Narrow Bold';writing-mode:lr-tb;fill:#000000;fill-opacity:1;fill-rule:nonzero;stroke:none;stroke-width:0.35277775"
       x="-513.01044"
       y="-134.07358">
      <tspan
         id="tspan158"
         y="-134.07358"
         x="-513.01044 -509.62756 -507.36899 -503.78302 -501.29166 -499.71167"
         style="stroke-width:0.35277775">Memory</tspan>
    </text>
    <text
       id="text164"
       style="font-variant:normal;font-weight:bold;font-size:4.95299959px;font-family:'Arial Narrow';-inkscape-font-specification:'Arial Narrow Bold';writing-mode:lr-tb;fill:#000000;fill-opacity:1;fill-rule:nonzero;stroke:none;stroke-width:0.35277775"
       x="-512.67181"
       y="-128.23158">
      <tspan
         id="tspan162"
         y="-128.23158"
         x="-512.67181 -509.50186 -507.01053 -505.88123 -503.62265 -501.37897 -500.02676"
         style="stroke-width:0.35277775">Objects</tspan>
    </text>
    <path
       id="path166"
       style="fill:#c0e399;fill-opacity:1;fill-rule:evenodd;stroke:none;stroke-width:0.35277775"
       d="m -480.63957,-123.98061 h 45.18377 v -18.04952 h -45.18377 z" />
    <path
       id="path168"
       style="fill:none;stroke:#262626;stroke-width:0.35277775;stroke-linecap:butt;stroke-linejoin:round;stroke-miterlimit:10;stroke-dasharray:none;stroke-opacity:1"
       d="m -480.63957,-123.98061 h 45.18377 v -18.04952 h -45.18377 z" />
    <text
       id="text172"
       style="font-variant:normal;font-weight:bold;font-size:4.95299959px;font-family:'Arial Narrow';-inkscape-font-specification:'Arial Narrow Bold';writing-mode:lr-tb;fill:#000000;fill-opacity:1;fill-rule:nonzero;stroke:none;stroke-width:0.35277775"
       x="-467.9678"
       y="-134.07358">
      <tspan
         id="tspan170"
         y="-134.07358"
         x="-467.9678 -465.03561 -462.55417 -458.94345 -455.35251 -453.1088 -450.61743"
         style="stroke-width:0.35277775">Command</tspan>
    </text>
    <text
       id="text176"
       style="font-variant:normal;font-weight:bold;font-size:4.95299959px;font-family:'Arial Narrow';-inkscape-font-specification:'Arial Narrow Bold';writing-mode:lr-tb;fill:#000000;fill-opacity:1;fill-rule:nonzero;stroke:none;stroke-width:0.35277775"
       x="-464.36948"
       y="-128.23158">
      <tspan
         id="tspan174"
         y="-128.23158"
         x="-464.36948 -461.19955 -458.70819 -456.46448 -453.97311"
         style="stroke-width:0.35277775">Queue</tspan>
    </text>
    <path
       id="path178"
       style="fill:#f2f2f2;fill-opacity:1;fill-rule:evenodd;stroke:none;stroke-width:0.35277775"
       d="m -604.17882,-81.897748 h 32.1885 v -33.106782 h -32.1885 z" />
    <path
       id="path180"
       style="fill:none;stroke:#262626;stroke-width:0.35277775;stroke-linecap:butt;stroke-linejoin:round;stroke-miterlimit:10;stroke-dasharray:none;stroke-opacity:1"
       d="m -604.17882,-81.897748 h 32.1885 v -33.106782 h -32.1885 z" />
    <path
       id="path182"
       style="fill:#f2f2f2;fill-opacity:1;fill-rule:evenodd;stroke:none;stroke-width:0.35277775"
       d="m -568.54474,-75.815859 h 40.55533 v -39.186551 h -40.55533 z" />
    <path
       id="path184"
       style="fill:none;stroke:#262626;stroke-width:0.35277775;stroke-linecap:butt;stroke-linejoin:round;stroke-miterlimit:10;stroke-dasharray:none;stroke-opacity:1"
       d="m -568.54474,-75.815859 h 40.55533 v -39.186551 h -40.55533 z" />
    <path
       id="path186"
       style="fill:#f2f2f2;fill-opacity:1;fill-rule:evenodd;stroke:none;stroke-width:0.35277775"
       d="m -480.63957,-75.815859 h 42.13225 v -39.186551 h -42.13225 z" />
    <path
       id="path188"
       style="fill:none;stroke:#262626;stroke-width:0.35277775;stroke-linecap:butt;stroke-linejoin:round;stroke-miterlimit:10;stroke-dasharray:none;stroke-opacity:1"
       d="m -480.63957,-75.815859 h 42.13225 v -39.186551 h -42.13225 z" />
    <path
       id="path190"
       style="fill:#d2d2f4;fill-opacity:1;fill-rule:evenodd;stroke:none;stroke-width:0.35277775"
       d="m -621.2074,-66.454546 h 33.17522 v -7.52687 l 15.06008,15.05585 -15.06008,15.05726 v -7.52863 h -33.17522 l 7.52828,-7.52863 z" />
    <path
       id="path192"
       style="fill:none;stroke:#262626;stroke-width:0.35277775;stroke-linecap:butt;stroke-linejoin:miter;stroke-miterlimit:8;stroke-dasharray:none;stroke-opacity:1"
       d="m -621.2074,-66.454546 h 33.17522 v -7.52687 l 15.06008,15.05585 -15.06008,15.05726 v -7.52863 h -33.17522 l 7.52828,-7.52863 z" />
    <text
       id="text196"
       style="font-variant:normal;font-weight:bold;font-size:4.96146631px;font-family:'Arial Narrow';-inkscape-font-specification:'Arial Narrow Bold';writing-mode:lr-tb;fill:#000000;fill-opacity:1;fill-rule:nonzero;stroke:none;stroke-width:0.35277775"
       x="-605.11371"
       y="-57.033962">
      <tspan
         id="tspan194"
         y="-57.033962"
         x="-605.11371 -602.19135 -599.70569 -596.08875 -593.60309 -592.46191 -591.33075"
         style="stroke-width:0.35277775">Compile</tspan>
    </text>
    <g
       id="g198"
       transform="matrix(0.35277777,0,0,-0.35277777,-678.3574,-36.459976)">
      <g
         clip-path="url(#clipPath204)"
         id="g200">
        <path
           id="path206"
           style="fill:#404040;fill-opacity:1;fill-rule:nonzero;stroke:none"
           d="m 241.06,302.26 0.21,19.72 1,-0.01 -0.21,-19.72 z m 2.51,0.97 -2.05,-3.97 -1.95,4.02 z m -3.81,17.77 2.04,3.97 1.96,-4.02 z" />
      </g>
    </g>
    <g
       id="g208"
       transform="matrix(0.35277777,0,0,-0.35277777,-678.3574,-36.459976)">
      <g
         clip-path="url(#clipPath214)"
         id="g210">
        <path
           id="path216"
           style="fill:#404040;fill-opacity:1;fill-rule:nonzero;stroke:none"
           d="m 370.77,302.26 v 19.71 h 1 v -19.71 z m 2.5,1 -2,-4 -2,4 z m -4,17.71 2,4 2,-4 z" />
      </g>
    </g>
    <g
       id="g218"
       transform="matrix(0.35277777,0,0,-0.35277777,-678.3574,-36.459976)">
      <g
         clip-path="url(#clipPath224)"
         id="g220">
        <path
           id="path226"
           style="fill:#404040;fill-opacity:1;fill-rule:nonzero;stroke:none"
           d="m 489.95,302.54 0.22,19.44 1,-0.01 -0.22,-19.45 z m 2.51,0.97 -2.04,-3.98 -1.96,4.02 z m -3.8,17.49 2.04,3.97 1.96,-4.02 z" />
      </g>
    </g>
    <g
       id="g228"
       transform="matrix(0.35277777,0,0,-0.35277777,-678.3574,-36.459976)">
      <g
         clip-path="url(#clipPath234)"
         id="g230">
        <path
           id="path236"
           style="fill:#404040;fill-opacity:1;fill-rule:nonzero;stroke:none"
           d="m 624.17,302.53 0.21,19.72 1,-0.01 -0.21,-19.72 z m 2.51,0.98 -2.05,-3.98 -1.95,4.02 z m -3.81,17.76 2.04,3.98 1.96,-4.02 z" />
      </g>
    </g>
    <g
       id="g238"
       transform="matrix(0.35277777,0,0,-0.35277777,-678.3574,-36.459976)">
      <g
         clip-path="url(#clipPath244)"
         id="g240">
        <path
           id="path246"
           style="fill:#404040;fill-opacity:1;fill-rule:nonzero;stroke:none"
           d="m 241.3,225.65 v 19.44 h 1 v -19.44 z m 2.5,1 -2,-4 -2,4 z m -4,17.44 2,4 2,-4 z" />
      </g>
    </g>
    <g
       id="g248"
       transform="matrix(0.35277777,0,0,-0.35277777,-678.3574,-36.459976)">
      <g
         clip-path="url(#clipPath254)"
         id="g250">
        <path
           id="path256"
           style="fill:#404040;fill-opacity:1;fill-rule:nonzero;stroke:none"
           d="m 360.76,225.65 0.21,19.45 1,-0.01 -0.21,-19.45 z m 2.51,0.97 -2.04,-3.97 -1.96,4.02 z m -3.81,17.49 2.05,3.98 1.95,-4.02 z" />
      </g>
    </g>
    <g
       id="g258"
       transform="matrix(0.35277777,0,0,-0.35277777,-678.3574,-36.459976)">
      <g
         clip-path="url(#clipPath264)"
         id="g260">
        <path
           id="path266"
           style="fill:#404040;fill-opacity:1;fill-rule:nonzero;stroke:none"
           d="m 488.56,225.65 0.21,19.45 1,-0.01 -0.21,-19.45 z m 2.51,0.97 -2.04,-3.97 -1.96,4.02 z m -3.81,17.49 2.04,3.98 1.96,-4.02 z" />
      </g>
    </g>
    <g
       id="g268"
       transform="matrix(0.35277777,0,0,-0.35277777,-678.3574,-36.459976)">
      <g
         clip-path="url(#clipPath274)"
         id="g270">
        <path
           id="path276"
           style="fill:#404040;fill-opacity:1;fill-rule:nonzero;stroke:none"
           d="m 619.7,225.65 0.22,19.45 1,-0.01 -0.22,-19.45 z m 2.51,0.97 -2.04,-3.97 -1.96,4.02 z m -3.8,17.49 2.04,3.98 1.96,-4.02 z" />
      </g>
    </g>
    <g
       id="g278"
       transform="matrix(0.35277777,0,0,-0.35277777,-678.3574,-36.459976)">
      <g
         clip-path="url(#clipPath284)"
         id="g280">
        <path
           id="path286"
           style="fill:#404040;fill-opacity:1;fill-rule:nonzero;stroke:none"
           d="m 546.3,174.48 0.25,70.61 h 1 l -0.25,-70.61 z m 2.5,1 -2.02,-4 -1.98,4.01 z m -3.75,68.62 2.01,3.99 1.99,-4.01 z" />
      </g>
    </g>
    <path
       id="path288"
       style="fill:#f2f2f2;fill-opacity:1;fill-rule:evenodd;stroke:none;stroke-width:0.35277775"
       d="m -607.62193,-78.807415 h 31.59795 v -33.203445 h -31.59795 z" />
    <path
       id="path290"
       style="fill:none;stroke:#262626;stroke-width:0.35277775;stroke-linecap:butt;stroke-linejoin:round;stroke-miterlimit:8;stroke-dasharray:none;stroke-opacity:1"
       d="m -607.62193,-78.807415 h 31.59795 v -33.203445 h -31.59795 z" />
    <path
       id="path292"
       style="fill:#f2f2f2;fill-opacity:1;fill-rule:evenodd;stroke:none;stroke-width:0.35277775"
       d="m -613.72499,-75.815859 h 34.15736 v -33.107131 h -34.15736 z" />
    <path
       id="path294"
       style="fill:none;stroke:#262626;stroke-width:0.35277775;stroke-linecap:butt;stroke-linejoin:round;stroke-miterlimit:8;stroke-dasharray:none;stroke-opacity:1"
       d="m -613.72499,-75.815859 h 34.15736 v -33.107131 h -34.15736 z" />
    <text
       id="text298"
       style="font-variant:normal;font-weight:bold;font-size:4.95299959px;font-family:'Arial Narrow';-inkscape-font-specification:'Arial Narrow Bold';writing-mode:lr-tb;fill:#000000;fill-opacity:1;fill-rule:nonzero;stroke:none;stroke-width:0.35277775"
       x="-606.11206"
       y="-90.494949">
      <tspan
         id="tspan296"
         y="-90.494949"
         x="-606.11206 -603.40277 -601.82275 -599.34131 -596.84497 -595.26495 -593.03613 -589.42535"
         style="stroke-width:0.35277775">Programs</tspan>
    </text>
    <path
       id="path300"
       style="fill:#f2f2f2;fill-opacity:1;fill-rule:evenodd;stroke:none;stroke-width:0.35277775"
       d="m -565.49321,-102.35886 h 35.1416 v -9.07309 h -35.1416 z" />
    <path
       id="path302"
       style="fill:none;stroke:#262626;stroke-width:0.35277775;stroke-linecap:butt;stroke-linejoin:round;stroke-miterlimit:8;stroke-dasharray:none;stroke-opacity:1"
       d="m -565.49321,-102.35886 h 35.1416 v -9.07309 h -35.1416 z" />
    <text
       id="text306"
       style="font-variant:normal;font-weight:bold;font-size:4.95299959px;font-family:'Arial Narrow';-inkscape-font-specification:'Arial Narrow Bold';writing-mode:lr-tb;fill:#000000;fill-opacity:1;fill-rule:nonzero;stroke:none;stroke-width:0.35277775"
       x="-555.31909"
       y="-105.02233">
      <tspan
         id="tspan304"
         y="-105.02233"
         x="-555.31909 -552.3869 -550.15314 -548.57312 -546.09167 -543.83307 -542.7038"
         style="stroke-width:0.35277775">Kernel0</tspan>
    </text>
    <path
       id="path308"
       style="fill:#f2f2f2;fill-opacity:1;fill-rule:evenodd;stroke:none;stroke-width:0.35277775"
       d="m -565.49321,-90.875942 h 35.1416 v -9.073092 h -35.1416 z" />
    <path
       id="path310"
       style="fill:none;stroke:#262626;stroke-width:0.35277775;stroke-linecap:butt;stroke-linejoin:round;stroke-miterlimit:8;stroke-dasharray:none;stroke-opacity:1"
       d="m -565.49321,-90.875942 h 35.1416 v -9.073092 h -35.1416 z" />
    <text
       id="text314"
       style="font-variant:normal;font-weight:bold;font-size:4.95299959px;font-family:'Arial Narrow';-inkscape-font-specification:'Arial Narrow Bold';writing-mode:lr-tb;fill:#000000;fill-opacity:1;fill-rule:nonzero;stroke:none;stroke-width:0.35277775"
       x="-555.31909"
       y="-93.532356">
      <tspan
         id="tspan312"
         y="-93.532356"
         x="-555.31909 -552.3869 -550.15314 -548.57312 -546.09167 -543.83307 -542.7038"
         style="stroke-width:0.35277775">Kernel1</tspan>
    </text>
    <path
       id="path316"
       style="fill:#f2f2f2;fill-opacity:1;fill-rule:evenodd;stroke:none;stroke-width:0.35277775"
       d="m -565.49321,-79.389498 h 35.1416 v -9.073089 h -35.1416 z" />
    <path
       id="path318"
       style="fill:none;stroke:#262626;stroke-width:0.35277775;stroke-linecap:butt;stroke-linejoin:round;stroke-miterlimit:8;stroke-dasharray:none;stroke-opacity:1"
       d="m -565.49321,-79.389498 h 35.1416 v -9.073089 h -35.1416 z" />
    <text
       id="text322"
       style="font-variant:normal;font-weight:bold;font-size:4.95299959px;font-family:'Arial Narrow';-inkscape-font-specification:'Arial Narrow Bold';writing-mode:lr-tb;fill:#000000;fill-opacity:1;fill-rule:nonzero;stroke:none;stroke-width:0.35277775"
       x="-555.31909"
       y="-82.045914">
      <tspan
         id="tspan320"
         y="-82.045914"
         x="-555.31909 -552.3869 -550.15314 -548.57312 -546.09167 -543.83307 -542.7038"
         style="stroke-width:0.35277775">Kernel2</tspan>
    </text>
    <path
       id="path324"
       style="fill:#f2f2f2;fill-opacity:1;fill-rule:evenodd;stroke:none;stroke-width:0.35277775"
       d="m -521.19491,-105.9325 h 31.69638 v -9.07309 h -31.69638 z" />
    <path
       id="path326"
       style="fill:none;stroke:#262626;stroke-width:0.35277775;stroke-linecap:butt;stroke-linejoin:round;stroke-miterlimit:8;stroke-dasharray:none;stroke-opacity:1"
       d="m -521.19491,-105.9325 h 31.69638 v -9.07309 h -31.69638 z" />
    <path
       id="path328"
       style="fill:#f2f2f2;fill-opacity:1;fill-rule:evenodd;stroke:none;stroke-width:0.35277775"
       d="m -523.36096,-101.68505 h 31.69638 v -8.97643 h -31.69638 z" />
    <path
       id="path330"
       style="fill:none;stroke:#262626;stroke-width:0.35277775;stroke-linecap:butt;stroke-linejoin:round;stroke-miterlimit:8;stroke-dasharray:none;stroke-opacity:1"
       d="m -523.36096,-101.68505 h 31.69638 v -8.97643 h -31.69638 z" />
    <text
       id="text334"
       style="font-variant:normal;font-weight:bold;font-size:4.95299959px;font-family:'Arial Narrow';-inkscape-font-specification:'Arial Narrow Bold';writing-mode:lr-tb;fill:#000000;fill-opacity:1;fill-rule:nonzero;stroke:none;stroke-width:0.35277775"
       x="-514.50269"
       y="-104.29561">
      <tspan
         id="tspan332"
         y="-104.29561"
         x="-514.50269 -513.37341 -509.7627 -507.50412 -505.02267 -502.7641"
         style="stroke-width:0.35277775">Images</tspan>
    </text>
    <path
       id="path336"
       style="fill:#f2f2f2;fill-opacity:1;fill-rule:evenodd;stroke:none;stroke-width:0.35277775"
       d="m -515.48696,-87.880859 h 31.59795 v -9.073091 h -31.59795 z" />
    <path
       id="path338"
       style="fill:none;stroke:#262626;stroke-width:0.35277775;stroke-linecap:butt;stroke-linejoin:round;stroke-miterlimit:8;stroke-dasharray:none;stroke-opacity:1"
       d="m -515.48696,-87.880859 h 31.59795 v -9.073091 h -31.59795 z" />
    <path
       id="path340"
       style="fill:#f2f2f2;fill-opacity:1;fill-rule:evenodd;stroke:none;stroke-width:0.35277775"
       d="m -517.65302,-83.636942 h 31.59795 v -8.976429 h -31.59795 z" />
    <path
       id="path342"
       style="fill:none;stroke:#262626;stroke-width:0.35277775;stroke-linecap:butt;stroke-linejoin:round;stroke-miterlimit:8;stroke-dasharray:none;stroke-opacity:1"
       d="m -517.65302,-83.636942 h 31.59795 v -8.976429 h -31.59795 z" />
    <text
       id="text346"
       style="font-variant:normal;font-weight:bold;font-size:4.95299959px;font-family:'Arial Narrow';-inkscape-font-specification:'Arial Narrow Bold';writing-mode:lr-tb;fill:#000000;fill-opacity:1;fill-rule:nonzero;stroke:none;stroke-width:0.35277775"
       x="-508.92178"
       y="-86.243973">
      <tspan
         id="tspan344"
         y="-86.243973"
         x="-508.92178 -505.98959 -503.50815 -502.15598 -500.8038 -498.54523 -496.98505"
         style="stroke-width:0.35277775">Buffers</tspan>
    </text>
    <text
       id="text350"
       style="font-variant:normal;font-weight:bold;font-size:4.96146631px;font-family:'Arial Narrow';-inkscape-font-specification:'Arial Narrow Bold';writing-mode:lr-tb;fill:#000000;fill-opacity:1;fill-rule:nonzero;stroke:none;stroke-width:0.35277775"
       x="-469.55176"
       y="-84.508308">
      <tspan
         id="tspan348"
         y="-84.508308"
         x="-469.55176 -468.42056 -465.91501 -464.81357 -462.32788 -460.74518 -458.25946 -455.99704 -454.44409 -453.3129 -450.3757"
         style="stroke-width:0.35277775">In order &amp;</tspan>
    </text>
    <text
       id="text354"
       style="font-variant:normal;font-weight:bold;font-size:4.95299959px;font-family:'Arial Narrow';-inkscape-font-specification:'Arial Narrow Bold';writing-mode:lr-tb;fill:#000000;fill-opacity:1;fill-rule:nonzero;stroke:none;stroke-width:0.35277775"
       x="-470.82178"
       y="-78.581642">
      <tspan
         id="tspan352"
         y="-78.581642"
         x="-470.82178 -468.33041 -465.83905 -464.48688 -463.38235 -460.89102 -459.53882 -458.39963 -455.90829 -454.32828 -451.84683 -449.58826"
         style="stroke-width:0.35277775">out of order</tspan>
    </text>
    <path
       id="path356"
       style="fill:#f2f2f2;fill-opacity:1;fill-rule:evenodd;stroke:none;stroke-width:0.35277775"
       d="m -471.68255,-96.375746 h 10.43411 v -14.864294 h -10.43411 z" />
    <path
       id="path358"
       style="fill:none;stroke:#262626;stroke-width:0.35277775;stroke-linecap:butt;stroke-linejoin:round;stroke-miterlimit:8;stroke-dasharray:none;stroke-opacity:1"
       d="m -471.68255,-96.375746 h 10.43411 v -14.864294 h -10.43411 z" />
    <path
       id="path360"
       style="fill:#f2f2f2;fill-opacity:1;fill-rule:evenodd;stroke:none;stroke-width:0.35277775"
       d="m -474.6353,-93.867496 h 10.33569 v -14.960954 h -10.33569 z" />
    <path
       id="path362"
       style="fill:none;stroke:#262626;stroke-width:0.35277775;stroke-linecap:butt;stroke-linejoin:round;stroke-miterlimit:8;stroke-dasharray:none;stroke-opacity:1"
       d="m -474.6353,-93.867496 h 10.33569 v -14.960954 h -10.33569 z" />
    <path
       id="path364"
       style="fill:#f2f2f2;fill-opacity:1;fill-rule:evenodd;stroke:none;stroke-width:0.35277775"
       d="m -477.68682,-91.454496 h 10.4341 v -14.960954 h -10.4341 z" />
    <path
       id="path366"
       style="fill:none;stroke:#262626;stroke-width:0.35277775;stroke-linecap:butt;stroke-linejoin:round;stroke-miterlimit:8;stroke-dasharray:none;stroke-opacity:1"
       d="m -477.68682,-91.454496 h 10.4341 v -14.960954 h -10.4341 z" />
    <path
       id="path368"
       style="fill:#f2f2f2;fill-opacity:1;fill-rule:evenodd;stroke:none;stroke-width:0.35277775"
       d="m -450.51941,-97.053079 h 10.33569 v -14.960951 h -10.33569 z" />
    <path
       id="path370"
       style="fill:none;stroke:#262626;stroke-width:0.35277775;stroke-linecap:butt;stroke-linejoin:round;stroke-miterlimit:8;stroke-dasharray:none;stroke-opacity:1"
       d="m -450.51941,-97.053079 h 10.33569 v -14.960951 h -10.33569 z" />
    <path
       id="path372"
       style="fill:#f2f2f2;fill-opacity:1;fill-rule:evenodd;stroke:none;stroke-width:0.35277775"
       d="m -453.57094,-94.640079 h 10.33569 v -14.864291 h -10.33569 z" />
    <path
       id="path374"
       style="fill:none;stroke:#262626;stroke-width:0.35277775;stroke-linecap:butt;stroke-linejoin:round;stroke-miterlimit:8;stroke-dasharray:none;stroke-opacity:1"
       d="m -453.57094,-94.640079 h 10.33569 v -14.864291 h -10.33569 z" />
    <path
       id="path376"
       style="fill:#f2f2f2;fill-opacity:1;fill-rule:evenodd;stroke:none;stroke-width:0.35277775"
       d="m -456.62246,-92.227079 h 10.4341 v -14.864291 h -10.4341 z" />
    <path
       id="path378"
       style="fill:none;stroke:#262626;stroke-width:0.35277775;stroke-linecap:butt;stroke-linejoin:round;stroke-miterlimit:8;stroke-dasharray:none;stroke-opacity:1"
       d="m -456.62246,-92.227079 h 10.4341 v -14.864291 h -10.4341 z" />
    <path
       id="path380"
       style="fill:#f2f2f2;fill-opacity:1;fill-rule:evenodd;stroke:none;stroke-width:0.35277775"
       d="m -596.26249,-165.58016 h 42.2275 v -8.69386 h -42.2275 z" />
    <path
       id="path382"
       style="fill:none;stroke:#262626;stroke-width:0.35277775;stroke-linecap:butt;stroke-linejoin:round;stroke-miterlimit:8;stroke-dasharray:none;stroke-opacity:1"
       d="m -596.26249,-165.58016 h 42.2275 v -8.69386 h -42.2275 z" />
    <text
       id="text386"
       style="font-variant:normal;font-weight:bold;font-size:4.95299959px;font-family:'Arial Narrow';-inkscape-font-specification:'Arial Narrow Bold';writing-mode:lr-tb;fill:#000000;fill-opacity:1;fill-rule:nonzero;stroke:none;stroke-width:0.35277775"
       x="-579.40674"
       y="-168.06725">
      <tspan
         id="tspan384"
         y="-168.06725"
         x="-579.40674 -576.47461 -573.76532"
         style="stroke-width:0.35277775">CPU</tspan>
    </text>
    <path
       id="path388"
       style="fill:#f2f2f2;fill-opacity:1;fill-rule:evenodd;stroke:none;stroke-width:0.35277775"
       d="m -548.15418,-165.58016 h 42.2275 v -8.69386 h -42.2275 z" />
    <path
       id="path390"
       style="fill:none;stroke:#262626;stroke-width:0.35277775;stroke-linecap:butt;stroke-linejoin:round;stroke-miterlimit:8;stroke-dasharray:none;stroke-opacity:1"
       d="m -548.15418,-165.58016 h 42.2275 v -8.69386 h -42.2275 z" />
    <text
       id="text394"
       style="font-variant:normal;font-weight:bold;font-size:4.95299959px;font-family:'Arial Narrow';-inkscape-font-specification:'Arial Narrow Bold';writing-mode:lr-tb;fill:#000000;fill-opacity:1;fill-rule:nonzero;stroke:none;stroke-width:0.35277775"
       x="-531.4184"
       y="-168.06725">
      <tspan
         id="tspan392"
         y="-168.06725"
         x="-531.4184 -528.24847 -525.53918"
         style="stroke-width:0.35277775">GPU</tspan>
    </text>
    <path
       id="path396"
       style="fill:#f2f2f2;fill-opacity:1;fill-rule:evenodd;stroke:none;stroke-width:0.35277775"
       d="m -500.04235,-165.58016 h 42.2275 v -8.69386 h -42.2275 z" />
    <path
       id="path398"
       style="fill:none;stroke:#262626;stroke-width:0.35277775;stroke-linecap:butt;stroke-linejoin:round;stroke-miterlimit:8;stroke-dasharray:none;stroke-opacity:1"
       d="m -500.04235,-165.58016 h 42.2275 v -8.69386 h -42.2275 z" />
    <text
       id="text402"
       style="font-variant:normal;font-weight:bold;font-size:4.95299959px;font-family:'Arial Narrow';-inkscape-font-specification:'Arial Narrow Bold';writing-mode:lr-tb;fill:#000000;fill-opacity:1;fill-rule:nonzero;stroke:none;stroke-width:0.35277775"
       x="-483.09137"
       y="-168.06725">
      <tspan
         id="tspan400"
         y="-168.06725"
         x="-483.09137 -480.15921 -477.44992"
         style="stroke-width:0.35277775">DSP</tspan>
    </text>
    <g
       id="g404"
       transform="matrix(0.35277777,0,0,-0.35277777,-678.3574,-36.459976)">
      <g
         clip-path="url(#clipPath410)"
         id="g406">
        <path
           id="path412"
           style="fill:#404040;fill-opacity:1;fill-rule:nonzero;stroke:none"
           d="m 291.92,352.59 0.18,10.43 1,-0.01 -0.18,-10.43 z m 2.52,0.96 -2.07,-3.96 -1.93,4.03 z m -3.86,8.5 2.07,3.96 1.93,-4.03 z" />
      </g>
    </g>
    <g
       id="g414"
       transform="matrix(0.35277777,0,0,-0.35277777,-678.3574,-36.459976)">
      <g
         clip-path="url(#clipPath420)"
         id="g416">
        <path
           id="path422"
           style="fill:#404040;fill-opacity:1;fill-rule:nonzero;stroke:none"
           d="m 428.3,352.59 0.17,10.43 1,-0.01 -0.17,-10.43 z m 2.51,0.96 -2.06,-3.96 -1.94,4.03 z m -3.85,8.5 2.07,3.96 1.93,-4.03 z" />
      </g>
    </g>
    <g
       id="g424"
       transform="matrix(0.35277777,0,0,-0.35277777,-678.3574,-36.459976)">
      <g
         clip-path="url(#clipPath430)"
         id="g426">
        <path
           id="path432"
           style="fill:#404040;fill-opacity:1;fill-rule:nonzero;stroke:none"
           d="m 564.67,352.59 0.18,10.43 1,-0.01 -0.18,-10.43 z m 2.52,0.96 -2.07,-3.96 -1.93,4.03 z m -3.86,8.5 2.07,3.96 1.93,-4.03 z" />
      </g>
    </g>
  </g>
</svg>
