<?xml version="1.0" encoding="UTF-8" standalone="no"?>
<svg
   xmlns:dc="http://purl.org/dc/elements/1.1/"
   xmlns:cc="http://creativecommons.org/ns#"
   xmlns:rdf="http://www.w3.org/1999/02/22-rdf-syntax-ns#"
   xmlns:svg="http://www.w3.org/2000/svg"
   xmlns="http://www.w3.org/2000/svg"
   viewBox="0 0 1117.3333 984"
   height="984"
   width="1117.3333"
   xml:space="preserve"
   id="svg2"
   version="1.1"><metadata
     id="metadata8"><rdf:RDF><cc:Work
         rdf:about=""><dc:format>image/svg+xml</dc:format><dc:type
           rdf:resource="http://purl.org/dc/dcmitype/StillImage" /></cc:Work></rdf:RDF></metadata><defs
     id="defs6"><clipPath
       id="clipPath20"
       clipPathUnits="userSpaceOnUse"><path
         id="path18"
         d="M 6.80078,7369.6 V 9.60156 H 8366.8 V 7369.6 Z" /></clipPath></defs><g
     transform="matrix(1.3333333,0,0,-1.3333333,0,984)"
     id="g10"><g
       transform="scale(0.1)"
       id="g12"><g
         id="g14"><g
           clip-path="url(#clipPath20)"
           id="g16"><path
             id="path22"
             style="fill:none;stroke:#000000;stroke-width:28.34550095;stroke-linecap:butt;stroke-linejoin:miter;stroke-miterlimit:10;stroke-dasharray:none;stroke-opacity:1"
             d="M 5402.17,6812.16 V 37.5898" /><path
             id="path24"
             style="fill:none;stroke:#000000;stroke-width:28.34550095;stroke-linecap:butt;stroke-linejoin:miter;stroke-miterlimit:10;stroke-dasharray:none;stroke-opacity:1"
             d="m 2567.62,37.5898 h 5669.1 v 5669.1 h -5669.1 z" /><path
             id="path26"
             style="fill:none;stroke:#000000;stroke-width:28.34550095;stroke-linecap:butt;stroke-linejoin:miter;stroke-miterlimit:10;stroke-dasharray:none;stroke-opacity:1"
             d="m 1433.8,2900.48 6831.27,-28.34" /><path
             id="path28"
             style="fill:none;stroke:#000000;stroke-width:28.34550095;stroke-linecap:butt;stroke-linejoin:miter;stroke-miterlimit:10;stroke-dasharray:none;stroke-opacity:1"
             d="M 2567.62,5706.69 H 1433.8" /><path
             id="path30"
             style="fill:none;stroke:#000000;stroke-width:28.34550095;stroke-linecap:butt;stroke-linejoin:miter;stroke-miterlimit:10;stroke-dasharray:none;stroke-opacity:1"
             d="M 2567.62,37.5898 H 1433.8" /><path
             id="path32"
             style="fill:none;stroke:#000000;stroke-width:28.34550095;stroke-linecap:butt;stroke-linejoin:miter;stroke-miterlimit:10;stroke-dasharray:none;stroke-opacity:1"
             d="M 2567.62,5706.69 V 6840.51" /><path
             id="path34"
             style="fill:none;stroke:#000000;stroke-width:28.34550095;stroke-linecap:butt;stroke-linejoin:miter;stroke-miterlimit:10;stroke-dasharray:none;stroke-opacity:1"
             d="M 8236.72,5735.04 V 6868.86" /><g
             transform="scale(10)"
             id="g36"><text
               id="text72"
               style="font-variant:normal;font-weight:normal;font-size:60.47040176px;font-family:Times;-inkscape-font-specification:Times-Roman;writing-mode:lr-tb;fill:#000000;fill-opacity:1;fill-rule:nonzero;stroke:none"
               transform="matrix(1,0,0,-1,1.65234,188.005)"><tspan
                 id="tspan38"
                 y="0"
                 x="0 53.758186 83.993385 100.80415 117.61493 134.4257 164.6609 181.47166">Multiple</tspan><tspan
                 id="tspan40"
                 y="-303.297"
                 x="5.6691399 39.290684 56.101452 86.336655 116.57185 133.38263">Single</tspan><tspan
                 id="tspan42"
                 y="-496.047"
                 x="561.24115 614.99933 645.2345 662.04529 678.85608 695.66681 725.90204 742.71283">Multiple</tspan><tspan
                 id="tspan44"
                 y="-498.88138"
                 x="300.46213 334.08368 350.89444 381.12964 411.36487 428.17563">Single</tspan><tspan
                 id="tspan46"
                 y="-433.68689"
                 x="623.60114 667.26074 694.10962 710.92041">Data</tspan><tspan
                 id="tspan48"
                 y="-218.26088"
                 x="28.34614 48.482784 78.717979 102.24097 119.05174 139.18839">Instr.</tspan><tspan
                 id="tspan50"
                 y="68.028122"
                 x="45.353539 65.490181 95.72538 119.24837 136.05914 156.19579">Instr.</tspan><tspan
                 id="tspan52"
                 y="-433.68689"
                 x="323.13953 366.79916 393.64804 410.4588">Data</tspan><tspan
                 id="tspan54"
                 y="62.359119"
                 x="328.80869 382.56686 402.70352 436.32504">MISD</tspan><tspan
                 id="tspan56"
                 y="-260.77988"
                 x="337.31259 377.64633 411.26788">CPU</tspan><tspan
                 id="tspan58"
                 y="-161.57088"
                 x="286.29068 313.13956 328.25714 358.49234 373.60995 403.84515 434.08035 464.31555">e.g 8086</tspan><tspan
                 id="tspan60"
                 y="-311.80188"
                 x="541.39972 585.05933 618.68085 662.34052 677.45807 721.11774 754.73926">VPU,GPU</tspan><tspan
                 id="tspan62"
                 y="-215.42728"
                 x="538.56494 565.41376 580.53137 610.7666 625.88416 666.21796 706.5517 750.2113">e.g CRAY</tspan><tspan
                 id="tspan64"
                 y="-141.72928"
                 x="561.24152 604.90112 648.56079 668.69745 712.35706 732.49371">NVIDIA</tspan><tspan
                 id="tspan66"
                 y="-11.34028"
                 x="552.73798 606.49622 636.73138 653.54218 670.35291 687.1637 714.01257 744.24774 764.3844">Multicore</tspan><tspan
                 id="tspan68"
                 y="85.034317"
                 x="544.23407 571.08295 586.20056 616.43573">e.g </tspan><tspan
                 id="tspan70"
                 y="147.39452"
                 x="547.06885 567.20551 597.44067 614.25146 641.10034 657.91113 673.02869 689.83948">Intel i7</tspan></text>
</g></g></g></g></g></svg>