<?xml version="1.0" encoding="UTF-8" standalone="no"?>
<svg
   xmlns:dc="http://purl.org/dc/elements/1.1/"
   xmlns:cc="http://creativecommons.org/ns#"
   xmlns:rdf="http://www.w3.org/1999/02/22-rdf-syntax-ns#"
   xmlns:svg="http://www.w3.org/2000/svg"
   xmlns="http://www.w3.org/2000/svg"
   viewBox="0 0 1130 1066.25"
   height="1066.25"
   width="1130"
   xml:space="preserve"
   version="1.1"
   id="svg2"><metadata
     id="metadata8"><rdf:RDF><cc:Work
         rdf:about=""><dc:format>image/svg+xml</dc:format><dc:type
           rdf:resource="http://purl.org/dc/dcmitype/StillImage" /></cc:Work></rdf:RDF></metadata><defs
     id="defs6"><clipPath
       id="clipPath18"
       clipPathUnits="userSpaceOnUse"><path
         id="path20"
         d="m 6.80078,6.40234 9020.00002,0 0,8509.99996 -9020.00002,0 0,-8509.99996 z" /></clipPath><clipPath
       id="clipPath38"
       clipPathUnits="userSpaceOnUse"><path
         style="clip-rule:evenodd"
         id="path40"
         d="m 6.80078,8516.4 0,-8509.99766 9019.99922,0 0,8509.99766 -9019.99922,0 z M 2032.2,7609.33 l 180.78,0 0,75.59 -180.78,0 0,0 151.18,-37.79 -151.18,-37.8 z" /></clipPath><clipPath
       id="clipPath48"
       clipPathUnits="userSpaceOnUse"><path
         id="path50"
         d="m 6.80078,6.40234 9020.00002,0 0,8509.99996 -9020.00002,0 0,-8509.99996 z" /></clipPath><clipPath
       id="clipPath60"
       clipPathUnits="userSpaceOnUse"><path
         style="clip-rule:evenodd"
         id="path62"
         d="m 6.80078,8516.4 0,-8509.99766 9019.99922,0 0,8509.99766 -9019.99922,0 z M 6000.57,3074.05 l 180.78,0 0,75.59 -180.78,0 0,0 151.17,-37.8 -151.17,-37.79 z" /></clipPath><clipPath
       id="clipPath70"
       clipPathUnits="userSpaceOnUse"><path
         id="path72"
         d="m 6.80078,6.40234 9020.00002,0 0,8509.99996 -9020.00002,0 0,-8509.99996 z" /></clipPath><clipPath
       id="clipPath82"
       clipPathUnits="userSpaceOnUse"><path
         style="clip-rule:evenodd"
         id="path84"
         d="m 6.80078,8516.4 0,-8509.99766 9019.99922,0 0,8509.99766 -9019.99922,0 z M 1581.19,1278.84 l -180.78,0 0,-75.59 180.78,0 0,0 -151.18,37.79 151.18,37.8 z" /></clipPath><clipPath
       id="clipPath92"
       clipPathUnits="userSpaceOnUse"><path
         id="path94"
         d="m 6.80078,6.40234 9020.00002,0 0,8509.99996 -9020.00002,0 0,-8509.99996 z" /></clipPath><clipPath
       id="clipPath104"
       clipPathUnits="userSpaceOnUse"><path
         style="clip-rule:evenodd"
         id="path106"
         d="m 6.80078,8516.4 0,-8509.99766 9019.99922,0 0,8509.99766 -9019.99922,0 z M 6255.68,2960.67 l 180.78,0 0,75.59 -180.78,0 0,0 151.17,-37.8 -151.17,-37.79 z" /></clipPath><clipPath
       id="clipPath114"
       clipPathUnits="userSpaceOnUse"><path
         id="path116"
         d="m 6.80078,6.40234 9020.00002,0 0,8509.99996 -9020.00002,0 0,-8509.99996 z" /></clipPath><clipPath
       id="clipPath126"
       clipPathUnits="userSpaceOnUse"><path
         style="clip-rule:evenodd"
         id="path128"
         d="m 6.80078,8516.4 0,-8509.99766 9019.99922,0 0,8509.99766 -9019.99922,0 z M 6085.61,2053.61 l 180.78,0 0,75.59 -180.78,0 0,0 151.17,-37.79 -151.17,-37.8 z" /></clipPath><clipPath
       id="clipPath136"
       clipPathUnits="userSpaceOnUse"><path
         id="path138"
         d="m 6.80078,6.40234 9020.00002,0 0,8509.99996 -9020.00002,0 0,-8509.99996 z" /></clipPath><clipPath
       id="clipPath162"
       clipPathUnits="userSpaceOnUse"><path
         style="clip-rule:evenodd"
         id="path164"
         d="m 6.80078,8516.4 0,-8509.99766 9019.99922,0 0,8509.99766 -9019.99922,0 z M 6956.13,3084.76 l 0,-180.78 75.58,0 0,180.78 0,0 -37.79,-151.18 -37.79,151.18 z" /></clipPath><clipPath
       id="clipPath172"
       clipPathUnits="userSpaceOnUse"><path
         id="path174"
         d="m 6.80078,6.40234 9020.00002,0 0,8509.99996 -9020.00002,0 0,-8509.99996 z" /></clipPath><clipPath
       id="clipPath188"
       clipPathUnits="userSpaceOnUse"><path
         style="clip-rule:evenodd"
         id="path190"
         d="m 6.80078,8516.4 0,-8509.99766 9019.99922,0 0,8509.99766 -9019.99922,0 z M 7126.2,4502.04 l 0,-180.79 75.59,0 0,180.79 0,0 -37.8,-151.18 -37.79,151.18 z" /></clipPath><clipPath
       id="clipPath198"
       clipPathUnits="userSpaceOnUse"><path
         id="path200"
         d="m 6.80078,6.40234 9020.00002,0 0,8509.99996 -9020.00002,0 0,-8509.99996 z" /></clipPath><clipPath
       id="clipPath210"
       clipPathUnits="userSpaceOnUse"><path
         style="clip-rule:evenodd"
         id="path212"
         d="m 6.80078,8516.4 0,-8509.99766 9019.99922,0 0,8509.99766 -9019.99922,0 z M 6984.47,4870.53 l 0,-180.78 75.59,0 0,180.78 0,0 -37.79,-151.18 -37.8,151.18 z" /></clipPath><clipPath
       id="clipPath220"
       clipPathUnits="userSpaceOnUse"><path
         id="path222"
         d="m 6.80078,6.40234 9020.00002,0 0,8509.99996 -9020.00002,0 0,-8509.99996 z" /></clipPath><clipPath
       id="clipPath232"
       clipPathUnits="userSpaceOnUse"><path
         style="clip-rule:evenodd"
         id="path234"
         d="m 6.80078,8516.4 0,-8509.99766 9019.99922,0 0,8509.99766 -9019.99922,0 z M 5121.86,5710.18 l 180.78,0 0,75.59 -180.78,0 0,0 151.17,-37.79 -151.17,-37.8 z" /></clipPath><clipPath
       id="clipPath242"
       clipPathUnits="userSpaceOnUse"><path
         id="path244"
         d="m 6.80078,6.40234 9020.00002,0 0,8509.99996 -9020.00002,0 0,-8509.99996 z" /></clipPath><clipPath
       id="clipPath254"
       clipPathUnits="userSpaceOnUse"><path
         style="clip-rule:evenodd"
         id="path256"
         d="m 6.80078,8516.4 0,-8509.99766 9019.99922,0 0,8509.99766 -9019.99922,0 z M 5178.55,4009.45 l 180.78,0 0,75.59 -180.78,0 0,0 151.17,-37.79 -151.17,-37.8 z" /></clipPath><clipPath
       id="clipPath264"
       clipPathUnits="userSpaceOnUse"><path
         id="path266"
         d="m 6.80078,6.40234 9020.00002,0 0,8509.99996 -9020.00002,0 0,-8509.99996 z" /></clipPath><clipPath
       id="clipPath278"
       clipPathUnits="userSpaceOnUse"><path
         style="clip-rule:evenodd"
         id="path280"
         d="m 6.80078,8516.4 0,-8509.99766 9019.99922,0 0,8509.99766 -9019.99922,0 z M 5886.55,1896.77 l 180.79,-1.26 0.62,75.59 -180.78,1.26 0,0 151.18,-39.06 -151.81,-36.53 z" /></clipPath><clipPath
       id="clipPath288"
       clipPathUnits="userSpaceOnUse"><path
         id="path290"
         d="m 6.80078,6.40234 9020.00002,0 0,8509.99996 -9020.00002,0 0,-8509.99996 z" /></clipPath><clipPath
       id="clipPath300"
       clipPathUnits="userSpaceOnUse"><path
         style="clip-rule:evenodd"
         id="path302"
         d="m 6.80078,8516.4 0,-8509.99766 9019.99922,0 0,8509.99766 -9019.99922,0 z M 6142.29,2280.38 l 180.78,0 0,75.58 -180.78,0 0,0 151.18,-37.79 -151.18,-37.79 z" /></clipPath><clipPath
       id="clipPath310"
       clipPathUnits="userSpaceOnUse"><path
         id="path312"
         d="m 6.80078,6.40234 9020.00002,0 0,8509.99996 -9020.00002,0 0,-8509.99996 z" /></clipPath><clipPath
       id="clipPath322"
       clipPathUnits="userSpaceOnUse"><path
         style="clip-rule:evenodd"
         id="path324"
         d="m 6.80078,8516.4 0,-8509.99766 9019.99922,0 0,8509.99766 -9019.99922,0 z M 1862.13,1996.92 l 180.78,0 0,75.59 -180.78,0 0,0 151.17,-37.8 -151.17,-37.79 z" /></clipPath><clipPath
       id="clipPath332"
       clipPathUnits="userSpaceOnUse"><path
         id="path334"
         d="m 6.80078,6.40234 9020.00002,0 0,8509.99996 -9020.00002,0 0,-8509.99996 z" /></clipPath><clipPath
       id="clipPath344"
       clipPathUnits="userSpaceOnUse"><path
         style="clip-rule:evenodd"
         id="path346"
         d="m 6.80078,8516.4 0,-8509.99766 9019.99922,0 0,8509.99766 -9019.99922,0 z M 3931.34,3896.07 l 180.79,0 0,75.59 -180.79,0 0,0 151.18,-37.8 -151.18,-37.79 z" /></clipPath><clipPath
       id="clipPath354"
       clipPathUnits="userSpaceOnUse"><path
         id="path356"
         d="m 6.80078,6.40234 9020.00002,0 0,8509.99996 -9020.00002,0 0,-8509.99996 z" /></clipPath></defs><g
     transform="matrix(1.25,0,0,-1.25,0,1066.25)"
     id="g10"><g
       transform="scale(0.1,0.1)"
       id="g12"><g
         id="g14"><g
           clip-path="url(#clipPath18)"
           id="g16"><path
             id="path22"
             style="fill:none;stroke:#000000;stroke-width:9.44849968;stroke-linecap:butt;stroke-linejoin:miter;stroke-miterlimit:10;stroke-dasharray:none;stroke-opacity:1"
             d="m 1353.16,560.75 7653.29,0 0,7936.74 -7653.29,0 0,-7936.74 z" /><path
             id="path24"
             style="fill:none;stroke:#000000;stroke-width:9.44849968;stroke-linecap:butt;stroke-linejoin:miter;stroke-miterlimit:10;stroke-dasharray:none;stroke-opacity:1"
             d="m 4102.68,3253.57 453.527,0 0,1388.93 -453.527,0 0,-1388.93 z" /><path
             id="path26"
             style="fill:none;stroke:#000000;stroke-width:9.44849968;stroke-linecap:butt;stroke-linejoin:miter;stroke-miterlimit:10;stroke-dasharray:none;stroke-opacity:1"
             d="m 2033.46,1297.73 453.527,0 0,1388.93 -453.527,0 0,-1388.93 z" /><path
             id="path28"
             style="fill:none;stroke:#000000;stroke-width:9.44849968;stroke-linecap:butt;stroke-linejoin:miter;stroke-miterlimit:10;stroke-dasharray:none;stroke-opacity:1"
             d="m 5321.54,7647.13 3401.46,0" /><path
             id="path30"
             style="fill:none;stroke:#000000;stroke-width:9.44849968;stroke-linecap:butt;stroke-linejoin:miter;stroke-miterlimit:10;stroke-dasharray:none;stroke-opacity:1"
             d="m 5293.19,6796.76 3401.46,0" /><path
             id="path32"
             style="fill:none;stroke:#000000;stroke-width:9.44849968;stroke-linecap:butt;stroke-linejoin:miter;stroke-miterlimit:10;stroke-dasharray:none;stroke-opacity:1"
             d="m 7022.27,7647.13 0,-822.02" /></g></g><g
         id="g34"><g
           clip-path="url(#clipPath38)"
           id="g36"><path
             id="path42"
             style="fill:none;stroke:#000000;stroke-width:9.44849968;stroke-linecap:butt;stroke-linejoin:miter;stroke-miterlimit:10;stroke-dasharray:none;stroke-opacity:1"
             d="m 1381.51,7647.13 822.02,0" /></g></g><g
         id="g44"><g
           clip-path="url(#clipPath48)"
           id="g46"><path
             id="path52"
             style="fill:#000000;fill-opacity:1;fill-rule:evenodd;stroke:none"
             d="m 2032.2,7609.33 151.18,37.8 -151.18,37.79 0,-75.59" /><path
             id="path54"
             style="fill:none;stroke:#000000;stroke-width:9.44849968;stroke-linecap:butt;stroke-linejoin:miter;stroke-miterlimit:10;stroke-dasharray:none;stroke-opacity:1"
             d="m 2032.2,7609.33 151.18,37.8 -151.18,37.79 0,-75.59 z" /></g></g><g
         id="g56"><g
           clip-path="url(#clipPath60)"
           id="g58"><path
             id="path64"
             style="fill:none;stroke:#000000;stroke-width:9.44849968;stroke-linecap:butt;stroke-linejoin:miter;stroke-miterlimit:10;stroke-dasharray:none;stroke-opacity:1"
             d="m 4187.71,3111.84 1984.19,0" /></g></g><g
         id="g66"><g
           clip-path="url(#clipPath70)"
           id="g68"><path
             id="path74"
             style="fill:#000000;fill-opacity:1;fill-rule:evenodd;stroke:none"
             d="m 6000.57,3074.05 151.17,37.79 -151.17,37.8 0,-75.59" /><path
             id="path76"
             style="fill:none;stroke:#000000;stroke-width:9.44849968;stroke-linecap:butt;stroke-linejoin:miter;stroke-miterlimit:10;stroke-dasharray:none;stroke-opacity:1"
             d="m 6000.57,3074.05 151.17,37.79 -151.17,37.8 0,-75.59 z" /></g></g><g
         id="g78"><g
           clip-path="url(#clipPath82)"
           id="g80"><path
             id="path86"
             style="fill:none;stroke:#000000;stroke-width:9.44849968;stroke-linecap:butt;stroke-linejoin:miter;stroke-miterlimit:10;stroke-dasharray:none;stroke-opacity:1"
             d="m 6200.25,1241.04 -4790.39,0" /></g></g><g
         id="g88"><g
           clip-path="url(#clipPath92)"
           id="g90"><path
             id="path96"
             style="fill:#000000;fill-opacity:1;fill-rule:evenodd;stroke:none"
             d="m 1581.19,1278.84 -151.18,-37.8 151.18,-37.79 0,75.59" /><path
             id="path98"
             style="fill:none;stroke:#000000;stroke-width:9.44849968;stroke-linecap:butt;stroke-linejoin:miter;stroke-miterlimit:10;stroke-dasharray:none;stroke-opacity:1"
             d="m 1581.19,1278.84 -151.18,-37.8 151.18,-37.79 0,75.59 z" /></g></g><g
         id="g100"><g
           clip-path="url(#clipPath104)"
           id="g102"><path
             id="path108"
             style="fill:none;stroke:#0000ff;stroke-width:9.44849968;stroke-linecap:butt;stroke-linejoin:miter;stroke-miterlimit:10;stroke-dasharray:56.691;stroke-dashoffset:0;stroke-opacity:1"
             d="m 956.328,7250.29 28.344,-28.35 85.038,0 28.34,-28.34 56.7,0 28.34,-28.35 113.38,0 0,-28.34 481.88,0 28.34,28.34 85.04,0 28.34,28.35 226.77,0 28.34,28.34 28.35,28.35 85.04,0 0,28.34 113.38,0 28.34,28.35 85.04,0 28.35,-28.35 56.69,0 28.34,-28.34 0,-28.35 28.35,0 0,-28.34 28.34,0 28.35,-28.35 0,-28.34 28.34,-28.35 0,-28.35 28.35,0 0,-56.69 28.35,-28.34 0,-85.04 28.34,0 0,-113.38 28.35,0 0,-85.04 28.34,-28.34 0,-113.38 28.35,0 0,-396.84 28.34,-28.35 0,-226.76 28.35,-28.35 0,-170.07 28.34,-28.34 0,-170.08 28.35,-28.34 0,-765.33 28.34,-56.69 0,-28.35 28.35,-56.69 0,-226.76 28.35,0 0,-28.35 28.34,-28.34 0,-113.39 28.35,-28.34 28.34,-56.69 0,-28.35 28.35,-28.34 0,-56.7 28.34,-28.34 0,-28.35 28.35,-28.34 0,-28.35 28.34,-28.34 0,-56.69 28.35,0 0,-56.69 28.35,0 0,-28.35 28.34,-28.35 0,-28.34 28.35,0 0,-56.69 28.34,0 28.35,-28.35 0,-28.34 28.34,-28.35 28.35,-28.34 0,-28.35 28.34,0 0,-28.35 28.35,0 0,-28.34 28.34,0 0,-28.35 28.35,0 0,-28.34 28.35,0 28.34,-28.35 28.35,0 0,-28.34 28.34,0 28.35,-28.35 28.34,0 28.35,-28.34 28.34,0 28.35,-28.35 28.35,0 0,-28.34 56.69,0 28.34,-28.35 113.38,0 28.35,-28.35 28.34,0 28.35,-28.34 311.8,0 28.35,-28.35 56.69,0 28.34,-28.34 283.46,0 0,-28.35 28.34,0 28.35,-28.34 85.04,0 0,-28.35 198.41,0 28.35,-28.34 850.36,0 28.35,28.34 170.07,0 28.35,28.35 28.34,0 0,28.34 28.35,0" /></g></g><g
         id="g110"><g
           clip-path="url(#clipPath114)"
           id="g112"><path
             id="path118"
             style="fill:#0000ff;fill-opacity:1;fill-rule:evenodd;stroke:none"
             d="m 6255.68,2960.67 151.17,37.79 -151.17,37.8 0,-75.59" /><path
             id="path120"
             style="fill:none;stroke:#0000ff;stroke-width:9.44849968;stroke-linecap:butt;stroke-linejoin:miter;stroke-miterlimit:10;stroke-dasharray:none;stroke-opacity:1"
             d="m 6255.68,2960.67 151.17,37.79 -151.17,37.8 0,-75.59 z" /></g></g><g
         id="g122"><g
           clip-path="url(#clipPath126)"
           id="g124"><path
             id="path130"
             style="fill:none;stroke:#ff0000;stroke-width:9.44849968;stroke-linecap:butt;stroke-linejoin:miter;stroke-miterlimit:10;stroke-dasharray:56.691;stroke-dashoffset:0;stroke-opacity:1"
             d="m 1098.05,6853.45 0,-28.34 28.35,0 28.35,-28.35 28.34,-28.35 85.04,0 28.34,-28.34 28.35,-28.35 226.76,0 28.35,-28.34 850.36,0 28.35,-28.35 56.69,0 0,-28.34 28.35,-28.35 28.34,-28.34 0,-85.04 28.35,-28.35 0,-56.69 28.34,-28.34 0,-368.49 -28.34,-28.35 0,-85.04 -28.35,-28.34 0,-113.38 -28.34,-28.35 0,-170.07 -28.35,-56.69 0,-283.46 -28.35,-85.03 0,-85.04 -28.34,-56.69 0,-85.04 -28.35,-85.04 0,-311.8 -28.34,-56.69 0,-28.34 -28.35,-28.35 0,-311.8 -28.34,-28.34 0,-311.8 -28.35,0 0,-396.84 28.35,-28.35 0,-28.34 28.34,-28.35 0,-28.34 28.35,-28.35 0,-28.34 28.34,-28.35 0,-56.69 28.35,0 28.34,-28.35 0,-28.34 28.35,-28.35 28.35,-28.34 0,-28.35 28.34,0 0,-28.34 28.35,-28.35 0,-28.35 28.34,0 28.35,-28.34 0,-85.04 28.34,-28.34 28.35,-28.35 0,-56.69 28.34,0 0,-28.34 28.35,0 28.35,-28.35 0,-28.35 28.34,0 0,-28.34 28.35,0 0,-28.35 28.34,0 0,-28.34 28.35,0 28.34,-28.35 28.35,-28.34 28.34,0 0,-28.35 56.69,0 0,-28.34 28.35,0 0,-28.35 113.38,0 28.35,-28.35 28.34,-28.34 85.04,0 28.35,-28.35 1020.43,0 28.35,-28.34 283.45,0 56.7,-28.34 198.41,0 28.35,-28.35 113.38,0 28.35,-28.35 425.18,0 28.34,-28.34 680.3,0" /></g></g><g
         id="g132"><g
           clip-path="url(#clipPath136)"
           id="g134"><path
             id="path140"
             style="fill:#ff0000;fill-opacity:1;fill-rule:evenodd;stroke:none"
             d="m 6085.61,2053.61 151.17,37.8 -151.17,37.79 0,-75.59" /><path
             id="path142"
             style="fill:none;stroke:#ff0000;stroke-width:9.44849968;stroke-linecap:butt;stroke-linejoin:miter;stroke-miterlimit:10;stroke-dasharray:none;stroke-opacity:1"
             d="m 6085.61,2053.61 151.17,37.8 -151.17,37.79 0,-75.59 z" /><path
             id="path144"
             style="fill:none;stroke:#000000;stroke-width:9.44849968;stroke-linecap:butt;stroke-linejoin:miter;stroke-miterlimit:10;stroke-dasharray:none;stroke-opacity:1"
             d="m 20.9258,560.75 1332.24,0 0,7936.74 -1332.24,0 0,-7936.74 z" /><path
             id="path146"
             style="fill:none;stroke:#000000;stroke-width:9.44849968;stroke-linecap:butt;stroke-linejoin:miter;stroke-miterlimit:10;stroke-dasharray:none;stroke-opacity:1"
             d="m 6228.59,7647.13 0,-822.02" /><path
             id="path148"
             style="fill:none;stroke:#000000;stroke-width:9.44849968;stroke-linecap:butt;stroke-linejoin:miter;stroke-miterlimit:10;stroke-dasharray:none;stroke-opacity:1"
             d="m 7759.25,7647.13 0,-822.02" /><path
             id="path150"
             style="fill:none;stroke:#000000;stroke-width:9.44849968;stroke-linecap:butt;stroke-linejoin:miter;stroke-miterlimit:10;stroke-dasharray:none;stroke-opacity:1"
             d="m 5321.54,5266.1 3401.46,0 0,2947.93 -3401.46,0 0,-2947.93 z" /><path
             id="path152"
             style="fill:none;stroke:#000000;stroke-width:9.44849968;stroke-linecap:butt;stroke-linejoin:miter;stroke-miterlimit:10;stroke-dasharray:none;stroke-opacity:1"
             d="m 5321.54,6116.47 3401.46,0" /><path
             id="path154"
             style="fill:none;stroke:#000000;stroke-width:9.44849968;stroke-linecap:butt;stroke-linejoin:miter;stroke-miterlimit:10;stroke-dasharray:none;stroke-opacity:1"
             d="m 6965.57,6116.47 0,-850.37" /><path
             id="path156"
             style="fill:none;stroke:#000000;stroke-width:9.44849968;stroke-linecap:butt;stroke-linejoin:miter;stroke-miterlimit:10;stroke-dasharray:none;stroke-opacity:1"
             d="m 6115.21,645.785 1700.73,0 0,2267.64 -1700.73,0 0,-2267.64 z" /></g></g><g
         id="g158"><g
           clip-path="url(#clipPath162)"
           id="g160"><path
             id="path166"
             style="fill:none;stroke:#000000;stroke-width:9.44849968;stroke-linecap:butt;stroke-linejoin:miter;stroke-miterlimit:10;stroke-dasharray:none;stroke-opacity:1"
             d="m 6993.92,3480.34 0,-566.91" /></g></g><g
         id="g168"><g
           clip-path="url(#clipPath172)"
           id="g170"><path
             id="path176"
             style="fill:#000000;fill-opacity:1;fill-rule:evenodd;stroke:none"
             d="m 6956.13,3084.76 37.79,-151.18 37.79,151.18 -75.58,0" /><path
             id="path178"
             style="fill:none;stroke:#000000;stroke-width:9.44849968;stroke-linecap:butt;stroke-linejoin:miter;stroke-miterlimit:10;stroke-dasharray:none;stroke-opacity:1"
             d="m 6956.13,3084.76 37.79,-151.18 37.79,151.18 -75.58,0 z" /><path
             id="path180"
             style="fill:none;stroke:#000000;stroke-width:9.44849968;stroke-linecap:butt;stroke-linejoin:miter;stroke-miterlimit:10;stroke-dasharray:none;stroke-opacity:1"
             d="M 7112.34,3360.66 6885.58,3162.24" /><path
             id="path182"
             style="fill:none;stroke:#000000;stroke-width:9.44849968;stroke-linecap:butt;stroke-linejoin:miter;stroke-miterlimit:10;stroke-dasharray:none;stroke-opacity:1"
             d="m 5349.88,3480.34 3344.77,0 0,1247.2 -3344.77,0 0,-1247.2 z" /></g></g><g
         id="g184"><g
           clip-path="url(#clipPath188)"
           id="g186"><path
             id="path192"
             style="fill:none;stroke:#008f00;stroke-width:9.44849968;stroke-linecap:butt;stroke-linejoin:miter;stroke-miterlimit:10;stroke-dasharray:56.691;stroke-dashoffset:0;stroke-opacity:1"
             d="m 899.637,7618.78 56.691,0 28.344,-28.35 623.598,0 28.35,28.35 170.07,0 0,28.35 85.04,0 28.34,28.34 28.35,28.35 56.69,0 0,28.34 822.02,0 28.35,-28.34 170.07,0 28.34,-28.35 141.73,0 0,-28.34 28.35,0 0,-28.35 56.69,0 0,-28.35 28.34,-28.34 56.7,0 28.34,-28.35 0,-28.34 28.35,0 28.34,-28.35 28.35,0 28.34,-28.34 0,-56.69 28.35,-28.35 0,-85.04 28.34,0 0,-283.45 28.35,0 0,-56.69 28.34,-28.35 0,-56.69 28.35,0 0,-56.69 28.35,-28.35 0,-28.34 28.34,0 0,-28.35 28.35,0 0,-28.34 28.34,0 28.35,-28.35 56.69,-28.34 28.34,-28.35 28.35,0 28.35,-28.34 56.69,0 28.34,-28.35 28.35,0 0,-28.35 85.03,0 0,-28.34 141.73,0 0,-28.35 1388.93,0 0,28.35 453.53,0 28.34,-28.35 56.7,0 0,-28.34 56.69,0 56.69,-28.35 28.34,0 28.35,-28.34 28.34,0 0,-28.35 56.7,0 0,-28.34 56.69,0 0,-28.35 28.34,0 28.35,-28.34 28.34,0 28.35,-28.35 0,-28.35 56.69,0 0,-28.34 28.34,0 28.35,-28.35 28.35,-28.34 28.34,-28.35 0,-28.34 28.35,-28.35 28.34,-28.34 28.35,-28.35 0,-28.35 28.34,-28.34 28.35,-28.35 0,-85.03 28.34,-28.35 0,-85.03 28.35,-28.35 0,-141.73 28.35,-28.34 0,-56.69 28.34,-28.35 0,-141.73 28.35,-28.34 0,-28.35 28.34,-28.34 0,-425.19 28.35,-28.34 0,-56.69 28.34,-28.35 0,-311.8" /></g></g><g
         id="g194"><g
           clip-path="url(#clipPath198)"
           id="g196"><path
             id="path202"
             style="fill:#008f00;fill-opacity:1;fill-rule:evenodd;stroke:none"
             d="m 7126.2,4502.04 37.79,-151.18 37.8,151.18 -75.59,0" /><path
             id="path204"
             style="fill:none;stroke:#008f00;stroke-width:9.44849968;stroke-linecap:butt;stroke-linejoin:miter;stroke-miterlimit:10;stroke-dasharray:none;stroke-opacity:1"
             d="m 7126.2,4502.04 37.79,-151.18 37.8,151.18 -75.59,0 z" /></g></g><g
         id="g206"><g
           clip-path="url(#clipPath210)"
           id="g208"><path
             id="path214"
             style="fill:none;stroke:#000000;stroke-width:9.44849968;stroke-linecap:butt;stroke-linejoin:miter;stroke-miterlimit:10;stroke-dasharray:none;stroke-opacity:1"
             d="m 7022.27,5266.1 0,-566.91" /></g></g><g
         id="g216"><g
           clip-path="url(#clipPath220)"
           id="g218"><path
             id="path224"
             style="fill:#000000;fill-opacity:1;fill-rule:evenodd;stroke:none"
             d="m 6984.47,4870.53 37.8,-151.18 37.79,151.18 -75.59,0" /><path
             id="path226"
             style="fill:none;stroke:#000000;stroke-width:9.44849968;stroke-linecap:butt;stroke-linejoin:miter;stroke-miterlimit:10;stroke-dasharray:none;stroke-opacity:1"
             d="m 6984.47,4870.53 37.8,-151.18 37.79,151.18 -75.59,0 z" /></g></g><g
         id="g228"><g
           clip-path="url(#clipPath232)"
           id="g230"><path
             id="path236"
             style="fill:none;stroke:#000000;stroke-width:9.44849968;stroke-linecap:butt;stroke-linejoin:miter;stroke-miterlimit:10;stroke-dasharray:none;stroke-opacity:1"
             d="m 4131.02,5747.98 1162.17,0" /></g></g><g
         id="g238"><g
           clip-path="url(#clipPath242)"
           id="g240"><path
             id="path246"
             style="fill:#000000;fill-opacity:1;fill-rule:evenodd;stroke:none"
             d="m 5121.86,5710.18 151.17,37.8 -151.17,37.79 0,-75.59" /><path
             id="path248"
             style="fill:none;stroke:#000000;stroke-width:9.44849968;stroke-linecap:butt;stroke-linejoin:miter;stroke-miterlimit:10;stroke-dasharray:none;stroke-opacity:1"
             d="m 5121.86,5710.18 151.17,37.8 -151.17,37.79 0,-75.59 z" /></g></g><g
         id="g250"><g
           clip-path="url(#clipPath254)"
           id="g252"><path
             id="path258"
             style="fill:none;stroke:#000000;stroke-width:9.44849968;stroke-linecap:butt;stroke-linejoin:miter;stroke-miterlimit:10;stroke-dasharray:none;stroke-opacity:1"
             d="m 4556.21,4047.25 793.67,0" /></g></g><g
         id="g260"><g
           clip-path="url(#clipPath264)"
           id="g262"><path
             id="path268"
             style="fill:#000000;fill-opacity:1;fill-rule:evenodd;stroke:none"
             d="m 5178.55,4009.45 151.17,37.8 -151.17,37.79 0,-75.59" /><path
             id="path270"
             style="fill:none;stroke:#000000;stroke-width:9.44849968;stroke-linecap:butt;stroke-linejoin:miter;stroke-miterlimit:10;stroke-dasharray:none;stroke-opacity:1"
             d="m 5178.55,4009.45 151.17,37.8 -151.17,37.79 0,-75.59 z" /><path
             id="path272"
             style="fill:none;stroke:#000000;stroke-width:9.44849968;stroke-linecap:butt;stroke-linejoin:miter;stroke-miterlimit:10;stroke-dasharray:none;stroke-opacity:1"
             d="m 2203.53,2856.73 1388.93,0 0,5357.3 -1388.93,0 0,-5357.3 z" /></g></g><g
         id="g274"><g
           clip-path="url(#clipPath278)"
           id="g276"><path
             id="path282"
             style="fill:none;stroke:#000000;stroke-width:9.44849968;stroke-linecap:butt;stroke-linejoin:miter;stroke-miterlimit:10;stroke-dasharray:none;stroke-opacity:1"
             d="M 2543.68,1961.65 6058.52,1933.3" /></g></g><g
         id="g284"><g
           clip-path="url(#clipPath288)"
           id="g286"><path
             id="path292"
             style="fill:#000000;fill-opacity:1;fill-rule:evenodd;stroke:none"
             d="m 5886.55,1896.77 151.81,36.53 -151.18,39.06 -0.63,-75.59" /><path
             id="path294"
             style="fill:none;stroke:#000000;stroke-width:9.44849968;stroke-linecap:butt;stroke-linejoin:miter;stroke-miterlimit:10;stroke-dasharray:none;stroke-opacity:1"
             d="m 5886.55,1896.77 151.81,36.53 -151.18,39.06 -0.63,-75.59 z" /></g></g><g
         id="g296"><g
           clip-path="url(#clipPath300)"
           id="g298"><path
             id="path304"
             style="fill:none;stroke:#0000ff;stroke-width:9.44849968;stroke-linecap:butt;stroke-linejoin:miter;stroke-miterlimit:10;stroke-dasharray:56.691;stroke-dashoffset:0;stroke-opacity:1"
             d="m 3932.61,3196.88 -28.35,0 0,-28.34 28.35,0 0,-226.77 28.34,-28.34 0,-28.35 28.35,0 0,-85.04 28.34,0 0,-28.34 28.35,-28.35 0,-28.34 28.34,-28.35 0,-28.34 28.35,0 0,-28.35 28.34,-28.34 0,-28.35 28.35,-28.35 0,-28.34 56.69,0 0,-56.69 113.38,0 0,-28.35 28.35,0 0,-28.34 85.03,0 0,-28.35 113.39,0 28.34,-28.34 85.04,0 28.34,-28.35 198.42,0 28.35,-28.35 595.25,0 28.35,28.35 765.33,0" /></g></g><g
         id="g306"><g
           clip-path="url(#clipPath310)"
           id="g308"><path
             id="path314"
             style="fill:#0000ff;fill-opacity:1;fill-rule:evenodd;stroke:none"
             d="m 6142.29,2280.38 151.18,37.79 -151.18,37.79 0,-75.58" /><path
             id="path316"
             style="fill:none;stroke:#0000ff;stroke-width:9.44849968;stroke-linecap:butt;stroke-linejoin:miter;stroke-miterlimit:10;stroke-dasharray:none;stroke-opacity:1"
             d="m 6142.29,2280.38 151.18,37.79 -151.18,37.79 0,-75.58 z" /></g></g><g
         id="g318"><g
           clip-path="url(#clipPath322)"
           id="g320"><path
             id="path326"
             style="fill:none;stroke:#000000;stroke-width:9.44849968;stroke-linecap:butt;stroke-linejoin:miter;stroke-miterlimit:10;stroke-dasharray:none;stroke-opacity:1"
             d="m 1353.16,2034.71 680.3,0" /></g></g><g
         id="g328"><g
           clip-path="url(#clipPath332)"
           id="g330"><path
             id="path336"
             style="fill:#000000;fill-opacity:1;fill-rule:evenodd;stroke:none"
             d="m 1862.13,1996.92 151.17,37.79 -151.17,37.8 0,-75.59" /><path
             id="path338"
             style="fill:none;stroke:#000000;stroke-width:9.44849968;stroke-linecap:butt;stroke-linejoin:miter;stroke-miterlimit:10;stroke-dasharray:none;stroke-opacity:1"
             d="m 1862.13,1996.92 151.17,37.79 -151.17,37.8 0,-75.59 z" /></g></g><g
         id="g340"><g
           clip-path="url(#clipPath344)"
           id="g342"><path
             id="path348"
             style="fill:none;stroke:#000000;stroke-width:9.44849968;stroke-linecap:butt;stroke-linejoin:miter;stroke-miterlimit:10;stroke-dasharray:none;stroke-opacity:1"
             d="m 3564.11,3933.86 538.57,0" /></g></g><g
         id="g350"><g
           clip-path="url(#clipPath354)"
           id="g352"><path
             id="path358"
             style="fill:#000000;fill-opacity:1;fill-rule:evenodd;stroke:none"
             d="m 3931.34,3896.07 151.18,37.79 -151.18,37.8 0,-75.59" /><path
             id="path360"
             style="fill:none;stroke:#000000;stroke-width:9.44849968;stroke-linecap:butt;stroke-linejoin:miter;stroke-miterlimit:10;stroke-dasharray:none;stroke-opacity:1"
             d="m 3931.34,3896.07 151.18,37.79 -151.18,37.8 0,-75.59 z" /></g></g><g
         transform="scale(10,10)"
         id="g362"><text
           id="text364"
           style="font-variant:normal;font-weight:normal;font-size:24.78709984px;font-family:CMTT12;-inkscape-font-specification:CMTT12;writing-mode:lr-tb;fill:#000000;fill-opacity:1;fill-rule:nonzero;stroke:none"
           transform="matrix(1,0,0,-1,424.52,390.52)"><tspan
             id="tspan366"
             y="0"
             x="0">M</tspan><tspan
             id="tspan368"
             y="-34.080101"
             x="0">S</tspan><tspan
             id="tspan370"
             y="65.159698"
             x="0">U</tspan><tspan
             id="tspan372"
             y="31.079599"
             x="0">M</tspan><tspan
             id="tspan374"
             y="195.59959"
             x="-207">M</tspan><tspan
             id="tspan376"
             y="161.5195"
             x="-207">S</tspan><tspan
             id="tspan378"
             y="260.75931"
             x="-207">U</tspan><tspan
             id="tspan380"
             y="226.6792"
             x="-207">M</tspan><tspan
             id="tspan382"
             y="-405.4808"
             x="209.75999 222.48001 235.19998 260.75998 273.48001 286.19995 298.91998 311.63995 324.35995 350.04004 362.76004 375.48001">ARMCORTEXA53</tspan><tspan
             id="tspan384"
             y="124.6792"
             x="204.11977 216.83978 229.55975 242.27975 267.83966 280.55969 293.27966 305.99966 318.71964 331.43964">DRAMMemory</tspan><tspan
             id="tspan386"
             y="-167.28081"
             x="-158.76022 -146.04022 -133.32021 -120.60019 -107.88016 -95.160141 -82.440132 -69.720116 -57.000103 -44.28009 -31.560078 -18.84004">Interconnect</tspan><tspan
             id="tspan388"
             y="-260.8808"
             x="215.39977 228.11978 253.67984 266.39984 279.11981 291.83984 304.55978 330.23999 342.95999 355.67996 381.23996 393.95999 406.68005">L1CACHE(32KB)</tspan><tspan
             id="tspan390"
             y="-224.041"
             x="14.15977 26.879784 39.599747">ACP</tspan><tspan
             id="tspan392"
             y="-328.92099"
             x="150.23978 162.95978 175.67975 188.39977">CPU0</tspan><tspan
             id="tspan394"
             y="257.879"
             x="-283.56024 -270.84024 -258.12021 -245.40022 -232.68022 -219.96022 -207.2402 -194.52019 -181.80017 -169.08017 -156.36015 -130.44019 -117.72017 -105.00015 -92.280144">HPS-TO-FPGA(LW)</tspan><tspan
             id="tspan396"
             y="-385.561"
             x="-291.96024 -279.24023 -266.5202 -253.80022 -241.08022 -228.36021 -215.6402 -202.9202 -190.20018 -177.48016 -164.76015">FPGA-TO-HPS</tspan><tspan
             id="tspan398"
             y="377.039"
             x="-192.84033 -180.12032 -167.4003 -154.6803 -129.00041 -116.2804 -103.56039 -90.84037 -78.120338 -65.400322 -52.680309 -39.960297 -27.240284 -1.4400853 11.279927 23.999891 36.719906 49.439869 62.159882 87.839958 100.55997 113.27994 125.99995 138.71991">HARDPROCESSORSYSTEM(HPS)</tspan><tspan
             id="tspan400"
             y="-51.120998"
             x="-374.28033">A</tspan><tspan
             id="tspan402"
             y="-104.8808"
             x="-374.28033">G</tspan><tspan
             id="tspan404"
             y="-156.0007"
             x="-374.28033">P</tspan><tspan
             id="tspan406"
             y="-207.0007"
             x="-374.28033">F</tspan><tspan
             id="tspan408"
             y="-328.92068"
             x="221.03967 233.75969 246.47964 259.19965">CPU1</tspan><tspan
             id="tspan410"
             y="-326.04062"
             x="289.07947 301.79947 314.51944 327.23947 379.7995 392.51953 405.23959 417.95956">CPU2CPU3</tspan><tspan
             id="tspan412"
             y="-170.16061"
             x="110.51947 123.23948 135.95944 148.67946 161.39943 187.07961 199.79962 212.51958 225.23959">SNOOPUNIT</tspan><tspan
             id="tspan414"
             y="-167.28053"
             x="286.31946 299.03949 324.59955 337.31955 350.03952 362.75952 375.47949 401.03937 413.75943 439.31952 452.03958 464.75964">L2Cache(1MB)</tspan><tspan
             id="tspan416"
             y="-5.76054"
             x="201.23978 213.95978 226.67975">CCI</tspan><tspan
             id="tspan418"
             y="-28.440639"
             x="33.95977 46.679783 59.399746">ACE</tspan><tspan
             id="tspan420"
             y="184.19936"
             x="-158.76022 -146.04022 -133.32021 -120.60019 -107.88016 -95.160141 -82.440132 -69.720116 -57.000103 -44.28009 -31.560078 -18.84004 -6.1200285">FPGA-TO-SDRAM</tspan></text>
</g></g></g></svg>