<?xml version="1.0" encoding="UTF-8" standalone="no"?>
<svg
   xmlns:dc="http://purl.org/dc/elements/1.1/"
   xmlns:cc="http://creativecommons.org/ns#"
   xmlns:rdf="http://www.w3.org/1999/02/22-rdf-syntax-ns#"
   xmlns:svg="http://www.w3.org/2000/svg"
   xmlns="http://www.w3.org/2000/svg"
   viewBox="0 0 786.66669 952"
   height="952"
   width="786.66669"
   xml:space="preserve"
   id="svg2"
   version="1.1"><metadata
     id="metadata8"><rdf:RDF><cc:Work
         rdf:about=""><dc:format>image/svg+xml</dc:format><dc:type
           rdf:resource="http://purl.org/dc/dcmitype/StillImage" /></cc:Work></rdf:RDF></metadata><defs
     id="defs6"><clipPath
       id="clipPath20"
       clipPathUnits="userSpaceOnUse"><path
         id="path18"
         d="M 6.80078,7.19922 H 5886.8008 V 7127.1992 H 6.80078 Z" /></clipPath><clipPath
       id="clipPath30"
       clipPathUnits="userSpaceOnUse"><path
         style="clip-rule:evenodd"
         id="path28"
         d="M 6.80078,7.19922 H 5886.8008 V 7127.1992 H 6.80078 Z M 4033.2,3416.27 h -13.24 l -31.49,178.26 h 75.59 z" /></clipPath><clipPath
       id="clipPath40"
       clipPathUnits="userSpaceOnUse"><path
         id="path38"
         d="M 6.80078,7.19922 H 5886.8008 V 7127.1992 H 6.80078 Z" /></clipPath><clipPath
       id="clipPath54"
       clipPathUnits="userSpaceOnUse"><path
         style="clip-rule:evenodd"
         id="path52"
         d="M 6.80078,7.19922 H 5886.8008 V 7127.1992 H 6.80078 Z M 4033.2,638.406 h -13.24 l -31.49,178.262 h 75.59 z" /></clipPath><clipPath
       id="clipPath64"
       clipPathUnits="userSpaceOnUse"><path
         id="path62"
         d="M 6.80078,7.19922 H 5886.8008 V 7127.1992 H 6.80078 Z" /></clipPath><clipPath
       id="clipPath76"
       clipPathUnits="userSpaceOnUse"><path
         style="clip-rule:evenodd"
         id="path74"
         d="M 6.80078,7.19922 H 5886.8008 V 7127.1992 H 6.80078 Z M 2460.96,5117 v 13.22 l 177.63,31.5 v -75.59 z" /></clipPath><clipPath
       id="clipPath86"
       clipPathUnits="userSpaceOnUse"><path
         id="path84"
         d="M 6.80078,7.19922 H 5886.8008 V 7127.1992 H 6.80078 Z" /></clipPath><clipPath
       id="clipPath98"
       clipPathUnits="userSpaceOnUse"><path
         style="clip-rule:evenodd"
         id="path96"
         d="M 6.80078,7.19922 H 5886.8008 V 7127.1992 H 6.80078 Z M 2049.01,3983.18 h -13.23 l -31.49,178.26 h 75.59 z" /></clipPath><clipPath
       id="clipPath108"
       clipPathUnits="userSpaceOnUse"><path
         id="path106"
         d="M 6.80078,7.19922 H 5886.8008 V 7127.1992 H 6.80078 Z" /></clipPath><clipPath
       id="clipPath122"
       clipPathUnits="userSpaceOnUse"><path
         style="clip-rule:evenodd"
         id="path120"
         d="M 6.80078,7.19922 H 5886.8008 V 7127.1992 H 6.80078 Z M 2049.01,2565.9 h -13.23 l -31.49,178.26 h 75.59 z" /></clipPath><clipPath
       id="clipPath132"
       clipPathUnits="userSpaceOnUse"><path
         id="path130"
         d="M 6.80078,7.19922 H 5886.8008 V 7127.1992 H 6.80078 Z" /></clipPath><clipPath
       id="clipPath146"
       clipPathUnits="userSpaceOnUse"><path
         style="clip-rule:evenodd"
         id="path144"
         d="M 6.80078,7.19922 H 5886.8008 V 7127.1992 H 6.80078 Z M 2049.01,581.715 h -13.23 l -31.49,178.262 h 75.59 z" /></clipPath><clipPath
       id="clipPath156"
       clipPathUnits="userSpaceOnUse"><path
         id="path154"
         d="M 6.80078,7.19922 H 5886.8008 V 7127.1992 H 6.80078 Z" /></clipPath><clipPath
       id="clipPath172"
       clipPathUnits="userSpaceOnUse"><path
         style="clip-rule:evenodd"
         id="path170"
         d="M 6.80078,7.19922 H 5886.8008 V 7127.1992 H 6.80078 Z M 2049.01,5428.8 h -13.23 l -31.49,178.26 h 75.59 z" /></clipPath><clipPath
       id="clipPath182"
       clipPathUnits="userSpaceOnUse"><path
         id="path180"
         d="M 6.80078,7.19922 H 5886.8008 V 7127.1992 H 6.80078 Z" /></clipPath><clipPath
       id="clipPath194"
       clipPathUnits="userSpaceOnUse"><path
         style="clip-rule:evenodd"
         id="path192"
         d="M 6.80078,7.19922 H 5886.8008 V 7127.1992 H 6.80078 Z M 1198.64,6689.23 V 6676 l -178.26,-30.87 v 75.59 z" /></clipPath><clipPath
       id="clipPath204"
       clipPathUnits="userSpaceOnUse"><path
         id="path202"
         d="M 6.80078,7.19922 H 5886.8008 V 7127.1992 H 6.80078 Z" /></clipPath><clipPath
       id="clipPath216"
       clipPathUnits="userSpaceOnUse"><path
         style="clip-rule:evenodd"
         id="path214"
         d="M 6.80078,7.19922 H 5886.8008 V 7127.1992 H 6.80078 Z M 51.5977,2012.22 H 64.8242 L 95.6875,1834.59 H 20.1016 Z" /></clipPath><clipPath
       id="clipPath226"
       clipPathUnits="userSpaceOnUse"><path
         id="path224"
         d="M 6.80078,7.19922 H 5886.8008 V 7127.1992 H 6.80078 Z" /></clipPath><clipPath
       id="clipPath238"
       clipPathUnits="userSpaceOnUse"><path
         style="clip-rule:evenodd"
         id="path236"
         d="M 6.80078,7.19922 H 5886.8008 V 7127.1992 H 6.80078 Z M 5437.24,2890.93 h 13.23 l 30.87,-177.63 h -75.59 z" /></clipPath><clipPath
       id="clipPath248"
       clipPathUnits="userSpaceOnUse"><path
         id="path246"
         d="M 6.80078,7.19922 H 5886.8008 V 7127.1992 H 6.80078 Z" /></clipPath><clipPath
       id="clipPath262"
       clipPathUnits="userSpaceOnUse"><path
         style="clip-rule:evenodd"
         id="path260"
         d="M 6.80078,7.19922 H 5886.8008 V 7127.1992 H 6.80078 Z M 1198.64,6547.5 v -13.23 l -178.26,-30.86 v 75.58 z" /></clipPath><clipPath
       id="clipPath272"
       clipPathUnits="userSpaceOnUse"><path
         id="path270"
         d="M 6.80078,7.19922 H 5886.8008 V 7127.1992 H 6.80078 Z" /></clipPath></defs><g
     transform="matrix(1.3333333,0,0,-1.3333333,0,952)"
     id="g10"><g
       transform="scale(0.1)"
       id="g12"><g
         id="g14"><g
           clip-path="url(#clipPath20)"
           id="g16"><path
             id="path22"
             style="fill:none;stroke:#000000;stroke-width:9.44849968;stroke-linecap:butt;stroke-linejoin:miter;stroke-miterlimit:10;stroke-dasharray:none;stroke-opacity:1"
             d="m 2042.08,5407.38 -850.37,-566.91 850.37,-566.91 850.37,566.91 z" /></g></g><g
         id="g24"><g
           clip-path="url(#clipPath30)"
           id="g26"><path
             id="path32"
             style="fill:none;stroke:#000000;stroke-width:9.44849968;stroke-linecap:butt;stroke-linejoin:miter;stroke-miterlimit:10;stroke-dasharray:none;stroke-opacity:1"
             d="M 2892.45,4840.47 H 4026.27 V 3423.2" /></g></g><g
         id="g34"><g
           clip-path="url(#clipPath40)"
           id="g36"><path
             id="path42"
             style="fill:#000000;fill-opacity:1;fill-rule:evenodd;stroke:none"
             d="m 3988.47,3594.53 37.8,-151.18 37.79,151.18 z" /><path
             id="path44"
             style="fill:none;stroke:#000000;stroke-width:9.44849968;stroke-linecap:butt;stroke-linejoin:miter;stroke-miterlimit:10;stroke-dasharray:none;stroke-opacity:1"
             d="m 3988.47,3594.53 37.8,-151.18 37.79,151.18 z" /><path
             id="path46"
             style="fill:none;stroke:#000000;stroke-width:9.44849968;stroke-linecap:butt;stroke-linejoin:miter;stroke-miterlimit:10;stroke-dasharray:none;stroke-opacity:1"
             d="m 4026.27,3423.2 -850.37,-566.91 850.37,-566.91 850.36,566.91 z" /></g></g><g
         id="g48"><g
           clip-path="url(#clipPath54)"
           id="g50"><path
             id="path56"
             style="fill:none;stroke:#000000;stroke-width:9.44849968;stroke-linecap:butt;stroke-linejoin:miter;stroke-miterlimit:10;stroke-dasharray:none;stroke-opacity:1"
             d="M 4026.27,2289.38 V 645.336" /></g></g><g
         id="g58"><g
           clip-path="url(#clipPath64)"
           id="g60"><path
             id="path66"
             style="fill:#000000;fill-opacity:1;fill-rule:evenodd;stroke:none"
             d="m 3988.47,816.668 37.8,-151.176 37.79,151.176 z" /><path
             id="path68"
             style="fill:none;stroke:#000000;stroke-width:9.44849968;stroke-linecap:butt;stroke-linejoin:miter;stroke-miterlimit:10;stroke-dasharray:none;stroke-opacity:1"
             d="m 3988.47,816.668 37.8,-151.176 37.79,151.176 z" /></g></g><g
         id="g70"><g
           clip-path="url(#clipPath76)"
           id="g72"><path
             id="path78"
             style="fill:none;stroke:#000000;stroke-width:9.44849968;stroke-linecap:butt;stroke-linejoin:miter;stroke-miterlimit:10;stroke-dasharray:none;stroke-opacity:1"
             d="m 4876.63,2856.29 h 566.91 V 5123.93 H 2467.26" /></g></g><g
         id="g80"><g
           clip-path="url(#clipPath86)"
           id="g82"><path
             id="path88"
             style="fill:#000000;fill-opacity:1;fill-rule:evenodd;stroke:none"
             d="m 2638.59,5161.72 -151.17,-37.79 151.17,-37.8 z" /><path
             id="path90"
             style="fill:none;stroke:#000000;stroke-width:9.44849968;stroke-linecap:butt;stroke-linejoin:miter;stroke-miterlimit:10;stroke-dasharray:none;stroke-opacity:1"
             d="m 2638.59,5161.72 -151.17,-37.79 151.17,-37.8 z" /></g></g><g
         id="g92"><g
           clip-path="url(#clipPath98)"
           id="g94"><path
             id="path100"
             style="fill:none;stroke:#000000;stroke-width:9.44849968;stroke-linecap:butt;stroke-linejoin:miter;stroke-miterlimit:10;stroke-dasharray:none;stroke-opacity:1"
             d="M 2042.08,4273.56 V 3990.11" /></g></g><g
         id="g102"><g
           clip-path="url(#clipPath108)"
           id="g104"><path
             id="path110"
             style="fill:#000000;fill-opacity:1;fill-rule:evenodd;stroke:none"
             d="m 2004.29,4161.44 37.79,-151.18 37.8,151.18 z" /><path
             id="path112"
             style="fill:none;stroke:#000000;stroke-width:9.44849968;stroke-linecap:butt;stroke-linejoin:miter;stroke-miterlimit:10;stroke-dasharray:none;stroke-opacity:1"
             d="m 2004.29,4161.44 37.79,-151.18 37.8,151.18 z" /><path
             id="path114"
             style="fill:none;stroke:#000000;stroke-width:9.44849968;stroke-linecap:butt;stroke-linejoin:miter;stroke-miterlimit:10;stroke-dasharray:none;stroke-opacity:1"
             d="m 1475.17,3423.2 h 1133.82 v 566.91 H 1475.17 Z" /></g></g><g
         id="g116"><g
           clip-path="url(#clipPath122)"
           id="g118"><path
             id="path124"
             style="fill:none;stroke:#000000;stroke-width:9.44849968;stroke-linecap:butt;stroke-linejoin:miter;stroke-miterlimit:10;stroke-dasharray:none;stroke-opacity:1"
             d="M 2042.08,3423.2 V 2572.83" /></g></g><g
         id="g126"><g
           clip-path="url(#clipPath132)"
           id="g128"><path
             id="path134"
             style="fill:#000000;fill-opacity:1;fill-rule:evenodd;stroke:none"
             d="m 2004.29,2744.16 37.79,-151.17 37.8,151.17 z" /><path
             id="path136"
             style="fill:none;stroke:#000000;stroke-width:9.44849968;stroke-linecap:butt;stroke-linejoin:miter;stroke-miterlimit:10;stroke-dasharray:none;stroke-opacity:1"
             d="m 2004.29,2744.16 37.79,-151.17 37.8,151.17 z" /><path
             id="path138"
             style="fill:none;stroke:#000000;stroke-width:9.44849968;stroke-linecap:butt;stroke-linejoin:miter;stroke-miterlimit:10;stroke-dasharray:none;stroke-opacity:1"
             d="m 2042.08,2572.83 -850.37,-566.91 850.37,-566.91 850.37,566.91 z" /></g></g><g
         id="g140"><g
           clip-path="url(#clipPath146)"
           id="g142"><path
             id="path148"
             style="fill:none;stroke:#000000;stroke-width:9.44849968;stroke-linecap:butt;stroke-linejoin:miter;stroke-miterlimit:10;stroke-dasharray:none;stroke-opacity:1"
             d="M 2042.08,1439.01 V 588.645" /></g></g><g
         id="g150"><g
           clip-path="url(#clipPath156)"
           id="g152"><path
             id="path158"
             style="fill:#000000;fill-opacity:1;fill-rule:evenodd;stroke:none"
             d="m 2004.29,759.977 37.79,-151.176 37.8,151.176 z" /><path
             id="path160"
             style="fill:none;stroke:#000000;stroke-width:9.44849968;stroke-linecap:butt;stroke-linejoin:miter;stroke-miterlimit:10;stroke-dasharray:none;stroke-opacity:1"
             d="m 2004.29,759.977 37.79,-151.176 37.8,151.176 z" /><path
             id="path162"
             style="fill:none;stroke:#000000;stroke-width:9.44849968;stroke-linecap:butt;stroke-linejoin:miter;stroke-miterlimit:10;stroke-dasharray:none;stroke-opacity:1"
             d="m 1333.44,21.7344 h 1417.28 v 566.91 H 1333.44 Z" /><path
             id="path164"
             style="fill:none;stroke:#000000;stroke-width:9.44849968;stroke-linecap:butt;stroke-linejoin:miter;stroke-miterlimit:10;stroke-dasharray:none;stroke-opacity:1"
             d="m 1191.71,6257.75 h 1700.73 v 850.363 H 1191.71 Z" /></g></g><g
         id="g166"><g
           clip-path="url(#clipPath172)"
           id="g168"><path
             id="path174"
             style="fill:none;stroke:#000000;stroke-width:9.44849968;stroke-linecap:butt;stroke-linejoin:miter;stroke-miterlimit:10;stroke-dasharray:none;stroke-opacity:1"
             d="M 2042.08,6257.75 V 5435.73" /></g></g><g
         id="g176"><g
           clip-path="url(#clipPath182)"
           id="g178"><path
             id="path184"
             style="fill:#000000;fill-opacity:1;fill-rule:evenodd;stroke:none"
             d="m 2004.29,5607.06 37.79,-151.18 37.8,151.18 z" /><path
             id="path186"
             style="fill:none;stroke:#000000;stroke-width:9.44849968;stroke-linecap:butt;stroke-linejoin:miter;stroke-miterlimit:10;stroke-dasharray:none;stroke-opacity:1"
             d="m 2004.29,5607.06 37.79,-151.18 37.8,151.18 z" /></g></g><g
         id="g188"><g
           clip-path="url(#clipPath194)"
           id="g190"><path
             id="path196"
             style="fill:none;stroke:#000000;stroke-width:9.44849968;stroke-linecap:butt;stroke-linejoin:miter;stroke-miterlimit:10;stroke-dasharray:none;stroke-opacity:1"
             d="M 1191.71,2005.92 H 57.8945 V 6682.93 H 1191.71" /></g></g><g
         id="g198"><g
           clip-path="url(#clipPath204)"
           id="g200"><path
             id="path206"
             style="fill:#000000;fill-opacity:1;fill-rule:evenodd;stroke:none"
             d="m 1020.38,6645.13 151.18,37.8 -151.18,37.79 z" /><path
             id="path208"
             style="fill:none;stroke:#000000;stroke-width:9.44849968;stroke-linecap:butt;stroke-linejoin:miter;stroke-miterlimit:10;stroke-dasharray:none;stroke-opacity:1"
             d="m 1020.38,6645.13 151.18,37.8 -151.18,37.79 z" /></g></g><g
         id="g210"><g
           clip-path="url(#clipPath216)"
           id="g212"><path
             id="path218"
             style="fill:none;stroke:#000000;stroke-width:9.44849968;stroke-linecap:butt;stroke-linejoin:miter;stroke-miterlimit:10;stroke-dasharray:none;stroke-opacity:1"
             d="M 1333.44,305.191 H 57.8945 V 2005.92" /></g></g><g
         id="g220"><g
           clip-path="url(#clipPath226)"
           id="g222"><path
             id="path228"
             style="fill:#000000;fill-opacity:1;fill-rule:evenodd;stroke:none"
             d="M 95.6875,1834.59 57.8945,1985.76 20.1016,1834.59 Z" /><path
             id="path230"
             style="fill:none;stroke:#000000;stroke-width:9.44849968;stroke-linecap:butt;stroke-linejoin:miter;stroke-miterlimit:10;stroke-dasharray:none;stroke-opacity:1"
             d="M 95.6875,1834.59 57.8945,1985.76 20.1016,1834.59 Z" /></g></g><g
         id="g232"><g
           clip-path="url(#clipPath238)"
           id="g234"><path
             id="path240"
             style="fill:none;stroke:#000000;stroke-width:9.44849968;stroke-linecap:butt;stroke-linejoin:miter;stroke-miterlimit:10;stroke-dasharray:none;stroke-opacity:1"
             d="m 4876.63,305.191 h 566.91 V 2884.63" /></g></g><g
         id="g242"><g
           clip-path="url(#clipPath248)"
           id="g244"><path
             id="path250"
             style="fill:#000000;fill-opacity:1;fill-rule:evenodd;stroke:none"
             d="m 5481.34,2713.3 -37.8,151.17 -37.79,-151.17 z" /><path
             id="path252"
             style="fill:none;stroke:#000000;stroke-width:9.44849968;stroke-linecap:butt;stroke-linejoin:miter;stroke-miterlimit:10;stroke-dasharray:none;stroke-opacity:1"
             d="m 5481.34,2713.3 -37.8,151.17 -37.79,-151.17 z" /><path
             id="path254"
             style="fill:none;stroke:#000000;stroke-width:9.44849968;stroke-linecap:butt;stroke-linejoin:miter;stroke-miterlimit:10;stroke-dasharray:none;stroke-opacity:1"
             d="m 3459.36,21.7344 h 1417.27 v 566.91 H 3459.36 Z" /></g></g><g
         id="g256"><g
           clip-path="url(#clipPath262)"
           id="g258"><path
             id="path264"
             style="fill:none;stroke:#ff0000;stroke-width:9.44849968;stroke-linecap:butt;stroke-linejoin:miter;stroke-miterlimit:10;stroke-dasharray:56.691;stroke-dashoffset:0;stroke-opacity:1"
             d="M 2155.46,6201.05 V 4868.82 h 1927.5 L 4026.27,163.461 H 5358.5 V 5010.54 H 2212.15 V 1949.23 276.844 L 369.695,305.191 V 6541.2 h 822.015" /></g></g><g
         id="g266"><g
           clip-path="url(#clipPath272)"
           id="g268"><path
             id="path274"
             style="fill:#ff0000;fill-opacity:1;fill-rule:evenodd;stroke:none"
             d="m 1020.38,6503.41 151.18,37.79 -151.18,37.79 z" /><path
             id="path276"
             style="fill:none;stroke:#ff0000;stroke-width:9.44849968;stroke-linecap:butt;stroke-linejoin:miter;stroke-miterlimit:10;stroke-dasharray:none;stroke-opacity:1"
             d="m 1020.38,6503.41 151.18,37.79 -151.18,37.79 z" /></g></g><g
         transform="scale(10)"
         id="g278"><text
           id="text324"
           style="font-variant:normal;font-weight:normal;font-size:14.34619999px;font-family:CMR12;-inkscape-font-specification:CMR12;writing-mode:lr-tb;fill:#000000;fill-opacity:1;fill-rule:nonzero;stroke:none"
           transform="matrix(1,0,0,-1,181.64,461.4)"><tspan
             id="tspan280"
             y="0"
             x="0 3.9599881 16.439804 26.639771 35.399731">inTLB</tspan><tspan
             id="tspan282"
             y="-25.440201"
             x="-17.039801 -6.8398223 3.7201467 13.320126 23.520092 38.999912 48.599892 58.799858">CHECKPTE</tspan><tspan
             id="tspan284"
             y="164.51981"
             x="175.8002 186.00017 196.5601 206.1601 216.36006 231.71996 241.31993 251.51993">CHECKPTE</tspan><tspan
             id="tspan286"
             y="192.83971"
             x="198.4803 202.44029 214.80016 225.00012 232.08006 237.96021 245.76021">inCache</tspan><tspan
             id="tspan288"
             y="90.719704"
             x="-14.1597 -5.1597261 9.9601498 15.480126 27.12026 35.520241">VAtoPA</tspan><tspan
             id="tspan290"
             y="252.3597"
             x="-17.03978 -6.8398023 3.7201667 13.320146 23.520111 38.999935 47.399918">CHECKPA</tspan><tspan
             id="tspan292"
             y="272.1597"
             x="-5.63978 -1.6797919 10.680105 20.880083 27.960072 33.840195 41.640167">inCache</tspan><tspan
             id="tspan294"
             y="425.27969"
             x="-39.719879 -26.879915 -16.319946 -11.279968 3.9600716 16.800035 26.399992 39.239967 50.159943 59.279835">MAINMEMORY</tspan><tspan
             id="tspan296"
             y="-226.6803"
             x="-28.31988 -15.479916 -5.8799362 11.640174 21.960136 31.560116 42.480087 53.040058 62.640038 70.44001">MEMREQUEST</tspan><tspan
             id="tspan298"
             y="-2.7602999"
             x="113.40012 126.24007 131.28006 139.08003">MISS</tspan><tspan
             id="tspan300"
             y="48.2397"
             x="33.96032 44.52029 49.560253">HIT</tspan><tspan
             id="tspan302"
             y="249.47971"
             x="223.92032 236.7603 241.80029 249.60028">MISS</tspan><tspan
             id="tspan304"
             y="172.91949"
             x="311.88013 322.44012 327.4801">HIT</tspan><tspan
             id="tspan306"
             y="252.3593"
             x="-110.51988 -99.959908 -94.919922">HIT</tspan><tspan
             id="tspan308"
             y="337.43939"
             x="36.840118 49.680073 54.720062 62.520035">MISS</tspan><tspan
             id="tspan310"
             y="419.6394"
             x="172.92012 185.76007 196.32004 201.36 216.60005 229.44002 239.04001 251.87997 262.79999 271.91986">MAINMEMORY</tspan><tspan
             id="tspan312"
             y="-121.8006"
             x="28.32012 37.32008">VA</tspan><tspan
             id="tspan314"
             y="-178.56081"
             x="-167.27988 -154.43991 -144.83995 -127.31983 -116.99986 -107.39989 -99.599915 -91.200012">MEMRESP.</tspan><tspan
             id="tspan316"
             y="-56.6408"
             x="141.72012 151.3201 161.52007 175.68019 184.80017 194.40016 204.60011 214.80008">PTEFETCH</tspan><tspan
             id="tspan318"
             y="-170.0408"
             x="243.84012 253.44009 263.64008 273.24008 281.64005 290.87985 297.95981 305.03979 315.7196 324.71957 331.79953 339.59952 343.55951 354.35931 363.95932 371.39914 376.91916 382.43912">PTE:PageTableEntry</tspan><tspan
             id="tspan320"
             y="-150.2412"
             x="243.84012 252.8401 263.40012 271.92014 282.48013 286.44012 291.96008 297.4801 305.28009 312.36005 320.63992 331.19992 338.99991 346.79993 352.31989 358.55984 364.07983">VA:VirtualAddress</tspan><tspan
             id="tspan322"
             y="-124.681"
             x="243.84012 252.2401 262.80011 271.32013 280.9201 288.35995 295.79996 301.31995 305.27994 311.5199 318.59985 326.99966 337.55966 345.35965 353.15964 358.6796 364.91956 370.43958">PA:PhysicalAddress</tspan></text>
</g></g></g></svg>